%TF.GenerationSoftware,KiCad,Pcbnew,(5.1.10)-1*%
%TF.CreationDate,2022-06-25T13:24:03+09:00*%
%TF.ProjectId,2022___________,32303232-74a6-4dee-9fed-5fb0fb90fa7f,rev?*%
%TF.SameCoordinates,Original*%
%TF.FileFunction,Soldermask,Bot*%
%TF.FilePolarity,Negative*%
%FSLAX46Y46*%
G04 Gerber Fmt 4.6, Leading zero omitted, Abs format (unit mm)*
G04 Created by KiCad (PCBNEW (5.1.10)-1) date 2022-06-25 13:24:03*
%MOMM*%
%LPD*%
G01*
G04 APERTURE LIST*
%ADD10C,1.711200*%
%ADD11C,2.153200*%
%ADD12C,1.841500*%
%ADD13O,3.251200X1.727200*%
%ADD14C,1.524000*%
%ADD15C,1.511200*%
%ADD16C,1.625600*%
%ADD17O,2.819200X1.511200*%
%ADD18C,3.200000*%
G04 APERTURE END LIST*
D10*
%TO.C,C1*%
X109224100Y-133105600D03*
X101724100Y-133105600D03*
%TD*%
%TO.C,C2*%
G36*
G01*
X194614500Y-130614600D02*
X194614500Y-129814600D01*
G75*
G02*
X194716100Y-129713000I101600J0D01*
G01*
X195416100Y-129713000D01*
G75*
G02*
X195517700Y-129814600I0J-101600D01*
G01*
X195517700Y-130614600D01*
G75*
G02*
X195416100Y-130716200I-101600J0D01*
G01*
X194716100Y-130716200D01*
G75*
G02*
X194614500Y-130614600I0J101600D01*
G01*
G37*
G36*
G01*
X193214500Y-130614600D02*
X193214500Y-129814600D01*
G75*
G02*
X193316100Y-129713000I101600J0D01*
G01*
X194016100Y-129713000D01*
G75*
G02*
X194117700Y-129814600I0J-101600D01*
G01*
X194117700Y-130614600D01*
G75*
G02*
X194016100Y-130716200I-101600J0D01*
G01*
X193316100Y-130716200D01*
G75*
G02*
X193214500Y-130614600I0J101600D01*
G01*
G37*
%TD*%
%TO.C,CTRL1*%
G36*
G01*
X198354100Y-75539200D02*
X196846100Y-75539200D01*
G75*
G02*
X196744500Y-75437600I0J101600D01*
G01*
X196744500Y-73929600D01*
G75*
G02*
X196846100Y-73828000I101600J0D01*
G01*
X198354100Y-73828000D01*
G75*
G02*
X198455700Y-73929600I0J-101600D01*
G01*
X198455700Y-75437600D01*
G75*
G02*
X198354100Y-75539200I-101600J0D01*
G01*
G37*
X197600100Y-77223600D03*
%TD*%
%TO.C,CTRL2*%
G36*
G01*
X198354100Y-83717200D02*
X196846100Y-83717200D01*
G75*
G02*
X196744500Y-83615600I0J101600D01*
G01*
X196744500Y-82107600D01*
G75*
G02*
X196846100Y-82006000I101600J0D01*
G01*
X198354100Y-82006000D01*
G75*
G02*
X198455700Y-82107600I0J-101600D01*
G01*
X198455700Y-83615600D01*
G75*
G02*
X198354100Y-83717200I-101600J0D01*
G01*
G37*
X197600100Y-85401600D03*
%TD*%
D11*
%TO.C,EDGE1*%
X180941100Y-140043600D03*
X178401100Y-140043600D03*
X175861100Y-140043600D03*
X173321100Y-140043600D03*
X170781100Y-140043600D03*
X168241100Y-140043600D03*
X165701100Y-140043600D03*
X163161100Y-140043600D03*
X160621100Y-140043600D03*
X158081100Y-140043600D03*
X155541100Y-140043600D03*
X153001100Y-140043600D03*
X150461100Y-140043600D03*
X147921100Y-140043600D03*
X145381100Y-140043600D03*
X142841100Y-140043600D03*
X140301100Y-140043600D03*
X137761100Y-140043600D03*
X135221100Y-140043600D03*
X132681100Y-140043600D03*
X130141100Y-140043600D03*
X127601100Y-140043600D03*
X125061100Y-140043600D03*
X122521100Y-140043600D03*
X119981100Y-140043600D03*
X119981100Y-134963600D03*
X122521100Y-134963600D03*
X125061100Y-134963600D03*
X127601100Y-134963600D03*
X130141100Y-134963600D03*
X132681100Y-134963600D03*
X135221100Y-134963600D03*
X137761100Y-134963600D03*
X140301100Y-134963600D03*
X142841100Y-134963600D03*
X145381100Y-134963600D03*
X147921100Y-134963600D03*
X150461100Y-134963600D03*
X153001100Y-134963600D03*
X155541100Y-134963600D03*
X158081100Y-134963600D03*
X160621100Y-134963600D03*
X163161100Y-134963600D03*
X165701100Y-134963600D03*
X168241100Y-134963600D03*
X170781100Y-134963600D03*
X173321100Y-134963600D03*
X175861100Y-134963600D03*
X178401100Y-134963600D03*
X180941100Y-134963600D03*
%TD*%
%TO.C,EDGE2*%
X180941100Y-117343600D03*
X178401100Y-117343600D03*
X175861100Y-117343600D03*
X173321100Y-117343600D03*
X170781100Y-117343600D03*
X168241100Y-117343600D03*
X165701100Y-117343600D03*
X163161100Y-117343600D03*
X160621100Y-117343600D03*
X158081100Y-117343600D03*
X155541100Y-117343600D03*
X153001100Y-117343600D03*
X150461100Y-117343600D03*
X147921100Y-117343600D03*
X145381100Y-117343600D03*
X142841100Y-117343600D03*
X140301100Y-117343600D03*
X137761100Y-117343600D03*
X135221100Y-117343600D03*
X132681100Y-117343600D03*
X130141100Y-117343600D03*
X127601100Y-117343600D03*
X125061100Y-117343600D03*
X122521100Y-117343600D03*
X119981100Y-117343600D03*
X119981100Y-112263600D03*
X122521100Y-112263600D03*
X125061100Y-112263600D03*
X127601100Y-112263600D03*
X130141100Y-112263600D03*
X132681100Y-112263600D03*
X135221100Y-112263600D03*
X137761100Y-112263600D03*
X140301100Y-112263600D03*
X142841100Y-112263600D03*
X145381100Y-112263600D03*
X147921100Y-112263600D03*
X150461100Y-112263600D03*
X153001100Y-112263600D03*
X155541100Y-112263600D03*
X158081100Y-112263600D03*
X160621100Y-112263600D03*
X163161100Y-112263600D03*
X165701100Y-112263600D03*
X168241100Y-112263600D03*
X170781100Y-112263600D03*
X173321100Y-112263600D03*
X175861100Y-112263600D03*
X178401100Y-112263600D03*
X180941100Y-112263600D03*
%TD*%
%TO.C,EDGE3*%
X180941100Y-98043600D03*
X178401100Y-98043600D03*
X175861100Y-98043600D03*
X173321100Y-98043600D03*
X170781100Y-98043600D03*
X168241100Y-98043600D03*
X165701100Y-98043600D03*
X163161100Y-98043600D03*
X160621100Y-98043600D03*
X158081100Y-98043600D03*
X155541100Y-98043600D03*
X153001100Y-98043600D03*
X150461100Y-98043600D03*
X147921100Y-98043600D03*
X145381100Y-98043600D03*
X142841100Y-98043600D03*
X140301100Y-98043600D03*
X137761100Y-98043600D03*
X135221100Y-98043600D03*
X132681100Y-98043600D03*
X130141100Y-98043600D03*
X127601100Y-98043600D03*
X125061100Y-98043600D03*
X122521100Y-98043600D03*
X119981100Y-98043600D03*
X119981100Y-92963600D03*
X122521100Y-92963600D03*
X125061100Y-92963600D03*
X127601100Y-92963600D03*
X130141100Y-92963600D03*
X132681100Y-92963600D03*
X135221100Y-92963600D03*
X137761100Y-92963600D03*
X140301100Y-92963600D03*
X142841100Y-92963600D03*
X145381100Y-92963600D03*
X147921100Y-92963600D03*
X150461100Y-92963600D03*
X153001100Y-92963600D03*
X155541100Y-92963600D03*
X158081100Y-92963600D03*
X160621100Y-92963600D03*
X163161100Y-92963600D03*
X165701100Y-92963600D03*
X168241100Y-92963600D03*
X170781100Y-92963600D03*
X173321100Y-92963600D03*
X175861100Y-92963600D03*
X178401100Y-92963600D03*
X180941100Y-92963600D03*
%TD*%
%TO.C,EDGE4*%
X180941100Y-75743600D03*
X178401100Y-75743600D03*
X175861100Y-75743600D03*
X173321100Y-75743600D03*
X170781100Y-75743600D03*
X168241100Y-75743600D03*
X165701100Y-75743600D03*
X163161100Y-75743600D03*
X160621100Y-75743600D03*
X158081100Y-75743600D03*
X155541100Y-75743600D03*
X153001100Y-75743600D03*
X150461100Y-75743600D03*
X147921100Y-75743600D03*
X145381100Y-75743600D03*
X142841100Y-75743600D03*
X140301100Y-75743600D03*
X137761100Y-75743600D03*
X135221100Y-75743600D03*
X132681100Y-75743600D03*
X130141100Y-75743600D03*
X127601100Y-75743600D03*
X125061100Y-75743600D03*
X122521100Y-75743600D03*
X119981100Y-75743600D03*
X119981100Y-70663600D03*
X122521100Y-70663600D03*
X125061100Y-70663600D03*
X127601100Y-70663600D03*
X130141100Y-70663600D03*
X132681100Y-70663600D03*
X135221100Y-70663600D03*
X137761100Y-70663600D03*
X140301100Y-70663600D03*
X142841100Y-70663600D03*
X145381100Y-70663600D03*
X147921100Y-70663600D03*
X150461100Y-70663600D03*
X153001100Y-70663600D03*
X155541100Y-70663600D03*
X158081100Y-70663600D03*
X160621100Y-70663600D03*
X163161100Y-70663600D03*
X165701100Y-70663600D03*
X168241100Y-70663600D03*
X170781100Y-70663600D03*
X173321100Y-70663600D03*
X175861100Y-70663600D03*
X178401100Y-70663600D03*
X180941100Y-70663600D03*
%TD*%
D12*
%TO.C,EDGE5*%
X107178400Y-88533600D03*
X107178400Y-85993600D03*
X107178400Y-83453600D03*
X107178400Y-80913600D03*
X107178400Y-78373600D03*
X107178400Y-75833600D03*
X112029800Y-75833600D03*
X112029800Y-78373600D03*
X112029800Y-80913600D03*
X112029800Y-83453600D03*
X112029800Y-85993600D03*
X112029800Y-88533600D03*
%TD*%
%TO.C,IN-*%
G36*
G01*
X95149500Y-114753600D02*
X95149500Y-111253600D01*
G75*
G02*
X95251100Y-111152000I101600J0D01*
G01*
X101751100Y-111152000D01*
G75*
G02*
X101852700Y-111253600I0J-101600D01*
G01*
X101852700Y-114753600D01*
G75*
G02*
X101751100Y-114855200I-101600J0D01*
G01*
X95251100Y-114855200D01*
G75*
G02*
X95149500Y-114753600I0J101600D01*
G01*
G37*
%TD*%
D13*
%TO.C,JP1*%
X187148100Y-131548600D03*
X187148100Y-129008600D03*
%TD*%
D14*
%TO.C,LED1*%
X98285100Y-99729600D03*
X95745100Y-99729600D03*
%TD*%
%TO.C,LED2*%
X105331100Y-99729600D03*
X102791100Y-99729600D03*
%TD*%
%TO.C,LED3*%
X112631100Y-99729600D03*
X110091100Y-99729600D03*
%TD*%
%TO.C,OUT1-*%
G36*
G01*
X201852700Y-118253600D02*
X201852700Y-121753600D01*
G75*
G02*
X201751100Y-121855200I-101600J0D01*
G01*
X195251100Y-121855200D01*
G75*
G02*
X195149500Y-121753600I0J101600D01*
G01*
X195149500Y-118253600D01*
G75*
G02*
X195251100Y-118152000I101600J0D01*
G01*
X201751100Y-118152000D01*
G75*
G02*
X201852700Y-118253600I0J-101600D01*
G01*
G37*
%TD*%
%TO.C,OUT2-*%
G36*
G01*
X201852700Y-108253600D02*
X201852700Y-111753600D01*
G75*
G02*
X201751100Y-111855200I-101600J0D01*
G01*
X195251100Y-111855200D01*
G75*
G02*
X195149500Y-111753600I0J101600D01*
G01*
X195149500Y-108253600D01*
G75*
G02*
X195251100Y-108152000I101600J0D01*
G01*
X201751100Y-108152000D01*
G75*
G02*
X201852700Y-108253600I0J-101600D01*
G01*
G37*
%TD*%
%TO.C,OUT3-*%
G36*
G01*
X201852700Y-98253600D02*
X201852700Y-101753600D01*
G75*
G02*
X201751100Y-101855200I-101600J0D01*
G01*
X195251100Y-101855200D01*
G75*
G02*
X195149500Y-101753600I0J101600D01*
G01*
X195149500Y-98253600D01*
G75*
G02*
X195251100Y-98152000I101600J0D01*
G01*
X201751100Y-98152000D01*
G75*
G02*
X201852700Y-98253600I0J-101600D01*
G01*
G37*
%TD*%
%TO.C,OUT4-*%
G36*
G01*
X201852700Y-88453600D02*
X201852700Y-91953600D01*
G75*
G02*
X201751100Y-92055200I-101600J0D01*
G01*
X195251100Y-92055200D01*
G75*
G02*
X195149500Y-91953600I0J101600D01*
G01*
X195149500Y-88453600D01*
G75*
G02*
X195251100Y-88352000I101600J0D01*
G01*
X201751100Y-88352000D01*
G75*
G02*
X201852700Y-88453600I0J-101600D01*
G01*
G37*
%TD*%
D15*
%TO.C,P-1*%
X178393100Y-130503600D03*
X168233100Y-130503600D03*
%TD*%
%TO.C,P-2*%
X178393100Y-127963600D03*
X168233100Y-127963600D03*
%TD*%
%TO.C,P-3*%
X178393100Y-125423600D03*
X168233100Y-125423600D03*
%TD*%
%TO.C,P-4*%
X178393100Y-122883600D03*
X168233100Y-122883600D03*
%TD*%
%TO.C,P-5*%
X168290100Y-88503600D03*
X178450100Y-88503600D03*
%TD*%
%TO.C,P-6*%
X168290100Y-85963600D03*
X178450100Y-85963600D03*
%TD*%
%TO.C,P-7*%
X168290100Y-83423600D03*
X178450100Y-83423600D03*
%TD*%
%TO.C,P-8*%
X168290100Y-80883600D03*
X178450100Y-80883600D03*
%TD*%
D14*
%TO.C,R1*%
X102425100Y-94915600D03*
X94805100Y-94915600D03*
%TD*%
%TO.C,R2*%
X103274100Y-104633600D03*
X95654100Y-104633600D03*
%TD*%
%TO.C,R3*%
X136569100Y-104024600D03*
X144189100Y-104024600D03*
%TD*%
%TO.C,R4*%
X144189100Y-106601600D03*
X136569100Y-106601600D03*
%TD*%
%TO.C,R5*%
X104985100Y-104633600D03*
X112605100Y-104633600D03*
%TD*%
D16*
%TO.C,SV1*%
X99853100Y-88390600D03*
X97313100Y-88390600D03*
X99853100Y-85850600D03*
X97313100Y-85850600D03*
X99853100Y-83310600D03*
X97313100Y-83310600D03*
X99853100Y-80770600D03*
X97313100Y-80770600D03*
X99853100Y-78230600D03*
X97313100Y-78230600D03*
%TD*%
%TO.C,SWITCH*%
G36*
G01*
X191751100Y-75666200D02*
X190243100Y-75666200D01*
G75*
G02*
X190141500Y-75564600I0J101600D01*
G01*
X190141500Y-74056600D01*
G75*
G02*
X190243100Y-73955000I101600J0D01*
G01*
X191751100Y-73955000D01*
G75*
G02*
X191852700Y-74056600I0J-101600D01*
G01*
X191852700Y-75564600D01*
G75*
G02*
X191751100Y-75666200I-101600J0D01*
G01*
G37*
D10*
X190997100Y-77350600D03*
%TD*%
%TO.C,THRU-*%
G36*
G01*
X95149500Y-124753600D02*
X95149500Y-121253600D01*
G75*
G02*
X95251100Y-121152000I101600J0D01*
G01*
X101751100Y-121152000D01*
G75*
G02*
X101852700Y-121253600I0J-101600D01*
G01*
X101852700Y-124753600D01*
G75*
G02*
X101751100Y-124855200I-101600J0D01*
G01*
X95251100Y-124855200D01*
G75*
G02*
X95149500Y-124753600I0J101600D01*
G01*
G37*
%TD*%
%TO.C,THRU*%
G36*
G01*
X191751100Y-83717200D02*
X190243100Y-83717200D01*
G75*
G02*
X190141500Y-83615600I0J101600D01*
G01*
X190141500Y-82107600D01*
G75*
G02*
X190243100Y-82006000I101600J0D01*
G01*
X191751100Y-82006000D01*
G75*
G02*
X191852700Y-82107600I0J-101600D01*
G01*
X191852700Y-83615600D01*
G75*
G02*
X191751100Y-83717200I-101600J0D01*
G01*
G37*
X190997100Y-85401600D03*
%TD*%
D15*
%TO.C,TLP1*%
X190449100Y-128771600D03*
X192989100Y-128771600D03*
X195529100Y-128771600D03*
X198069100Y-128771600D03*
X198069100Y-136391600D03*
X195529100Y-136391600D03*
X192989100Y-136391600D03*
X190449100Y-136391600D03*
%TD*%
%TO.C,IRLB3813*%
G36*
G01*
X129687300Y-119964599D02*
X129687300Y-131902601D01*
G75*
G02*
X129585701Y-132004200I-101599J0D01*
G01*
X116885699Y-132004200D01*
G75*
G02*
X116784100Y-131902601I0J101599D01*
G01*
X116784100Y-119964599D01*
G75*
G02*
X116885699Y-119863000I101599J0D01*
G01*
X129585701Y-119863000D01*
G75*
G02*
X129687300Y-119964599I0J-101599D01*
G01*
G37*
D17*
X137231100Y-128473600D03*
X137231100Y-123393600D03*
X137231100Y-125933600D03*
%TD*%
%TO.C,IRLB3813*%
X141071100Y-128473600D03*
X141071100Y-123393600D03*
X141071100Y-125933600D03*
%TD*%
%TO.C,IRLB3813*%
X141071100Y-86806600D03*
X141071100Y-81726600D03*
X141071100Y-84266600D03*
%TD*%
%TO.C,IRLB3813*%
G36*
G01*
X129687300Y-78297599D02*
X129687300Y-90235601D01*
G75*
G02*
X129585701Y-90337200I-101599J0D01*
G01*
X116885699Y-90337200D01*
G75*
G02*
X116784100Y-90235601I0J101599D01*
G01*
X116784100Y-78297599D01*
G75*
G02*
X116885699Y-78196000I101599J0D01*
G01*
X129585701Y-78196000D01*
G75*
G02*
X129687300Y-78297599I0J-101599D01*
G01*
G37*
X137231100Y-86806600D03*
X137231100Y-81726600D03*
X137231100Y-84266600D03*
%TD*%
D18*
%TO.C,H1*%
X95151100Y-140503600D03*
%TD*%
%TO.C,H2*%
X95151100Y-69233600D03*
%TD*%
%TO.C,H3*%
X202151100Y-140503600D03*
%TD*%
%TO.C,H4*%
X202151100Y-69233600D03*
%TD*%
M02*
