M48
; DRILL file {KiCad (5.1.10)-1} date 06/25/22 13:25:50
; FORMAT={-:-/ absolute / inch / decimal}
; #@! TF.CreationDate,2022-06-25T13:25:50+09:00
; #@! TF.GenerationSoftware,Kicad,Pcbnew,(5.1.10)-1
FMAT,2
INCH
T1C0.0138
T2C0.0315
T3C0.0320
T4C0.0360
T5C0.0394
T6C0.0400
T7C0.0430
T8C0.0512
T9C0.1260
%
G90
G05
T1
X4.303Y-3.1747
X4.328Y-3.2047
X4.4327Y-4.0204
X4.9087Y-5.2324
T2
X5.4028Y-3.2176
X5.4028Y-3.3176
X5.4028Y-3.4176
X5.4028Y-4.858
X5.4028Y-4.958
X5.4028Y-5.058
X5.554Y-3.2176
X5.554Y-3.3176
X5.554Y-3.4176
X5.554Y-4.858
X5.554Y-4.958
X5.554Y-5.058
X6.6234Y-4.8379
X6.6234Y-4.9379
X6.6234Y-5.0379
X6.6234Y-5.1379
X6.6256Y-3.1844
X6.6256Y-3.2844
X6.6256Y-3.3844
X6.6256Y-3.4844
X7.0234Y-4.8379
X7.0234Y-4.9379
X7.0234Y-5.0379
X7.0234Y-5.1379
X7.0256Y-3.1844
X7.0256Y-3.2844
X7.0256Y-3.3844
X7.0256Y-3.4844
X7.498Y-5.0697
X7.498Y-5.3697
X7.598Y-5.0697
X7.598Y-5.3697
X7.698Y-5.0697
X7.698Y-5.3697
X7.798Y-5.0697
X7.798Y-5.3697
T3
X3.7325Y-3.7368
X3.7659Y-4.1194
X3.7695Y-3.9264
X3.8695Y-3.9264
X4.0325Y-3.7368
X4.0469Y-3.9264
X4.0659Y-4.1194
X4.1333Y-4.1194
X4.1469Y-3.9264
X4.3343Y-3.9264
X4.4333Y-4.1194
X4.4343Y-3.9264
X5.3767Y-4.0955
X5.3767Y-4.1969
X5.6767Y-4.0955
X5.6767Y-4.1969
T4
X3.8312Y-3.0799
X3.8312Y-3.1799
X3.8312Y-3.2799
X3.8312Y-3.3799
X3.8312Y-3.4799
X3.9312Y-3.0799
X3.9312Y-3.1799
X3.9312Y-3.2799
X3.9312Y-3.3799
X3.9312Y-3.4799
T5
X4.0049Y-5.2404
X4.3002Y-5.2404
X7.5196Y-2.9453
X7.5196Y-3.0453
X7.5196Y-3.2623
X7.5196Y-3.3623
X7.7795Y-2.9403
X7.7795Y-3.0403
X7.7795Y-3.2623
X7.7795Y-3.3623
T6
X7.368Y-5.0791
X7.368Y-5.1791
T7
X4.2196Y-2.9856
X4.2196Y-3.0856
X4.2196Y-3.1856
X4.2196Y-3.2856
X4.2196Y-3.3856
X4.2196Y-3.4856
X4.4106Y-2.9856
X4.4106Y-3.0856
X4.4106Y-3.1856
X4.4106Y-3.2856
X4.4106Y-3.3856
X4.4106Y-3.4856
T8
X4.7237Y-2.782
X4.7237Y-2.982
X4.7237Y-3.66
X4.7237Y-3.86
X4.7237Y-4.4198
X4.7237Y-4.6198
X4.7237Y-5.3135
X4.7237Y-5.5135
X4.8237Y-2.782
X4.8237Y-2.982
X4.8237Y-3.66
X4.8237Y-3.86
X4.8237Y-4.4198
X4.8237Y-4.6198
X4.8237Y-5.3135
X4.8237Y-5.5135
X4.9237Y-2.782
X4.9237Y-2.982
X4.9237Y-3.66
X4.9237Y-3.86
X4.9237Y-4.4198
X4.9237Y-4.6198
X4.9237Y-5.3135
X4.9237Y-5.5135
X5.0237Y-2.782
X5.0237Y-2.982
X5.0237Y-3.66
X5.0237Y-3.86
X5.0237Y-4.4198
X5.0237Y-4.6198
X5.0237Y-5.3135
X5.0237Y-5.5135
X5.1237Y-2.782
X5.1237Y-2.982
X5.1237Y-3.66
X5.1237Y-3.86
X5.1237Y-4.4198
X5.1237Y-4.6198
X5.1237Y-5.3135
X5.1237Y-5.5135
X5.2237Y-2.782
X5.2237Y-2.982
X5.2237Y-3.66
X5.2237Y-3.86
X5.2237Y-4.4198
X5.2237Y-4.6198
X5.2237Y-5.3135
X5.2237Y-5.5135
X5.3237Y-2.782
X5.3237Y-2.982
X5.3237Y-3.66
X5.3237Y-3.86
X5.3237Y-4.4198
X5.3237Y-4.6198
X5.3237Y-5.3135
X5.3237Y-5.5135
X5.4237Y-2.782
X5.4237Y-2.982
X5.4237Y-3.66
X5.4237Y-3.86
X5.4237Y-4.4198
X5.4237Y-4.6198
X5.4237Y-5.3135
X5.4237Y-5.5135
X5.5237Y-2.782
X5.5237Y-2.982
X5.5237Y-3.66
X5.5237Y-3.86
X5.5237Y-4.4198
X5.5237Y-4.6198
X5.5237Y-5.3135
X5.5237Y-5.5135
X5.6237Y-2.782
X5.6237Y-2.982
X5.6237Y-3.66
X5.6237Y-3.86
X5.6237Y-4.4198
X5.6237Y-4.6198
X5.6237Y-5.3135
X5.6237Y-5.5135
X5.7237Y-2.782
X5.7237Y-2.982
X5.7237Y-3.66
X5.7237Y-3.86
X5.7237Y-4.4198
X5.7237Y-4.6198
X5.7237Y-5.3135
X5.7237Y-5.5135
X5.8237Y-2.782
X5.8237Y-2.982
X5.8237Y-3.66
X5.8237Y-3.86
X5.8237Y-4.4198
X5.8237Y-4.6198
X5.8237Y-5.3135
X5.8237Y-5.5135
X5.9237Y-2.782
X5.9237Y-2.982
X5.9237Y-3.66
X5.9237Y-3.86
X5.9237Y-4.4198
X5.9237Y-4.6198
X5.9237Y-5.3135
X5.9237Y-5.5135
X6.0237Y-2.782
X6.0237Y-2.982
X6.0237Y-3.66
X6.0237Y-3.86
X6.0237Y-4.4198
X6.0237Y-4.6198
X6.0237Y-5.3135
X6.0237Y-5.5135
X6.1237Y-2.782
X6.1237Y-2.982
X6.1237Y-3.66
X6.1237Y-3.86
X6.1237Y-4.4198
X6.1237Y-4.6198
X6.1237Y-5.3135
X6.1237Y-5.5135
X6.2237Y-2.782
X6.2237Y-2.982
X6.2237Y-3.66
X6.2237Y-3.86
X6.2237Y-4.4198
X6.2237Y-4.6198
X6.2237Y-5.3135
X6.2237Y-5.5135
X6.3237Y-2.782
X6.3237Y-2.982
X6.3237Y-3.66
X6.3237Y-3.86
X6.3237Y-4.4198
X6.3237Y-4.6198
X6.3237Y-5.3135
X6.3237Y-5.5135
X6.4237Y-2.782
X6.4237Y-2.982
X6.4237Y-3.66
X6.4237Y-3.86
X6.4237Y-4.4198
X6.4237Y-4.6198
X6.4237Y-5.3135
X6.4237Y-5.5135
X6.5237Y-2.782
X6.5237Y-2.982
X6.5237Y-3.66
X6.5237Y-3.86
X6.5237Y-4.4198
X6.5237Y-4.6198
X6.5237Y-5.3135
X6.5237Y-5.5135
X6.6237Y-2.782
X6.6237Y-2.982
X6.6237Y-3.66
X6.6237Y-3.86
X6.6237Y-4.4198
X6.6237Y-4.6198
X6.6237Y-5.3135
X6.6237Y-5.5135
X6.7237Y-2.782
X6.7237Y-2.982
X6.7237Y-3.66
X6.7237Y-3.86
X6.7237Y-4.4198
X6.7237Y-4.6198
X6.7237Y-5.3135
X6.7237Y-5.5135
X6.8237Y-2.782
X6.8237Y-2.982
X6.8237Y-3.66
X6.8237Y-3.86
X6.8237Y-4.4198
X6.8237Y-4.6198
X6.8237Y-5.3135
X6.8237Y-5.5135
X6.9237Y-2.782
X6.9237Y-2.982
X6.9237Y-3.66
X6.9237Y-3.86
X6.9237Y-4.4198
X6.9237Y-4.6198
X6.9237Y-5.3135
X6.9237Y-5.5135
X7.0237Y-2.782
X7.0237Y-2.982
X7.0237Y-3.66
X7.0237Y-3.86
X7.0237Y-4.4198
X7.0237Y-4.6198
X7.0237Y-5.3135
X7.0237Y-5.5135
X7.1237Y-2.782
X7.1237Y-2.982
X7.1237Y-3.66
X7.1237Y-3.86
X7.1237Y-4.4198
X7.1237Y-4.6198
X7.1237Y-5.3135
X7.1237Y-5.5135
T9
X3.7461Y-2.7257
X3.7461Y-5.5316
X7.9587Y-2.7257
X7.9587Y-5.5316
T0
M30
