%TF.GenerationSoftware,KiCad,Pcbnew,(5.1.10)-1*%
%TF.CreationDate,2022-06-25T22:45:11+09:00*%
%TF.ProjectId,PowerUnit-Bseries(ver1.0),506f7765-7255-46e6-9974-2d4273657269,rev?*%
%TF.SameCoordinates,Original*%
%TF.FileFunction,Legend,Top*%
%TF.FilePolarity,Positive*%
%FSLAX46Y46*%
G04 Gerber Fmt 4.6, Leading zero omitted, Abs format (unit mm)*
G04 Created by KiCad (PCBNEW (5.1.10)-1) date 2022-06-25 22:45:11*
%MOMM*%
%LPD*%
G01*
G04 APERTURE LIST*
%ADD10C,0.100000*%
%ADD11C,0.152400*%
%ADD12C,0.127000*%
%ADD13C,0.203200*%
%ADD14C,0.254000*%
%ADD15C,0.050800*%
%ADD16C,0.150000*%
%ADD17C,0.077216*%
%ADD18C,0.076000*%
%ADD19C,0.060800*%
%ADD20C,0.120650*%
%ADD21C,0.094107*%
%ADD22C,0.095000*%
%ADD23C,0.038000*%
%ADD24C,0.096520*%
G04 APERTURE END LIST*
D10*
%TO.C,C1*%
X119224100Y-128105600D02*
G75*
G03*
X119224100Y-128105600I-1000000J0D01*
G01*
D11*
X118224100Y-127355600D02*
X118224100Y-128855600D01*
X117474100Y-128105600D02*
X118974100Y-128105600D01*
X117724100Y-134105600D02*
G75*
G03*
X117724100Y-134105600I-8250000J0D01*
G01*
D12*
%TO.C,CTRL1*%
X196250100Y-71373600D02*
X196950100Y-71373600D01*
X196250100Y-71373600D02*
X196250100Y-69233600D01*
X196950100Y-69233600D02*
X196250100Y-69233600D01*
X196950100Y-71373600D02*
X196950100Y-69233600D01*
X196250100Y-74533600D02*
X196950100Y-74533600D01*
X195250100Y-69933600D02*
X195250100Y-69233600D01*
X195250100Y-76673600D02*
X195250100Y-75973600D01*
X193330100Y-75973600D02*
X193330100Y-69933600D01*
X193330100Y-75973600D02*
X191900100Y-75973600D01*
X195250100Y-75973600D02*
X193330100Y-75973600D01*
X196250100Y-74533600D02*
X196250100Y-76673600D01*
X193330100Y-69933600D02*
X195250100Y-69933600D01*
X191900100Y-69933600D02*
X193330100Y-69933600D01*
X191900100Y-75973600D02*
X191900100Y-69933600D01*
X195250100Y-76673600D02*
X191200100Y-76673600D01*
X196950100Y-76673600D02*
X196250100Y-76673600D01*
X196950100Y-74533600D02*
X196950100Y-76673600D01*
X191200100Y-69233600D02*
X195250100Y-69233600D01*
X191200100Y-76673600D02*
X191200100Y-69233600D01*
%TO.C,CTRL2*%
X196250100Y-80551600D02*
X196950100Y-80551600D01*
X196250100Y-80551600D02*
X196250100Y-78411600D01*
X196950100Y-78411600D02*
X196250100Y-78411600D01*
X196950100Y-80551600D02*
X196950100Y-78411600D01*
X196250100Y-83711600D02*
X196950100Y-83711600D01*
X195250100Y-79111600D02*
X195250100Y-78411600D01*
X195250100Y-85851600D02*
X195250100Y-85151600D01*
X193330100Y-85151600D02*
X193330100Y-79111600D01*
X193330100Y-85151600D02*
X191900100Y-85151600D01*
X195250100Y-85151600D02*
X193330100Y-85151600D01*
X196250100Y-83711600D02*
X196250100Y-85851600D01*
X193330100Y-79111600D02*
X195250100Y-79111600D01*
X191900100Y-79111600D02*
X193330100Y-79111600D01*
X191900100Y-85151600D02*
X191900100Y-79111600D01*
X195250100Y-85851600D02*
X191200100Y-85851600D01*
X196950100Y-85851600D02*
X196250100Y-85851600D01*
X196950100Y-83711600D02*
X196950100Y-85851600D01*
X191200100Y-78411600D02*
X195250100Y-78411600D01*
X191200100Y-85851600D02*
X191200100Y-78411600D01*
D10*
%TO.C,EDGE5*%
G36*
X112104100Y-94732600D02*
G01*
X112604100Y-94232600D01*
X113104100Y-94732600D01*
X112104100Y-94732600D01*
G37*
D11*
X110678400Y-72683600D02*
G75*
G03*
X110678400Y-72683600I-500000J0D01*
G01*
X109678400Y-91183600D02*
X109678400Y-92183600D01*
X110678400Y-91183600D02*
X109678400Y-91183600D01*
X110678400Y-92183600D02*
X110678400Y-91183600D01*
X109678400Y-92183600D02*
X110678400Y-92183600D01*
X111632550Y-73293600D02*
X111632550Y-91073600D01*
X113575650Y-73293600D02*
X111632550Y-73293600D01*
X113575650Y-91073600D02*
X113575650Y-73293600D01*
X111632550Y-91073600D02*
X113575650Y-91073600D01*
X117341200Y-92232600D02*
X117341200Y-72134600D01*
X108867000Y-93232600D02*
X116341200Y-93232600D01*
X107867000Y-72134600D02*
X107867000Y-92232600D01*
X116341200Y-71134600D02*
X108867000Y-71134600D01*
X116341200Y-71134600D02*
G75*
G02*
X117341200Y-72134600I0J-1000000D01*
G01*
X117341200Y-92232600D02*
G75*
G02*
X116341200Y-93232600I-1000000J0D01*
G01*
X108867000Y-93232600D02*
G75*
G02*
X107867000Y-92232600I0J1000000D01*
G01*
X107867000Y-72134600D02*
G75*
G02*
X108867000Y-71134600I1000000J0D01*
G01*
D12*
%TO.C,IN-*%
X102311100Y-111098600D02*
X94691100Y-114908600D01*
X102311100Y-114908600D02*
X94691100Y-114908600D01*
X102311100Y-111098600D02*
X102311100Y-114908600D01*
X94691100Y-111098600D02*
X102311100Y-111098600D01*
X94691100Y-114908600D02*
X94691100Y-111098600D01*
D11*
%TO.C,JP1*%
X183211100Y-132691600D02*
X183846100Y-132056600D01*
X183211100Y-133961600D02*
X183211100Y-132691600D01*
X183846100Y-134596600D02*
X183211100Y-133961600D01*
X185116100Y-134596600D02*
X183846100Y-134596600D01*
X185751100Y-133961600D02*
X185116100Y-134596600D01*
X185751100Y-132691600D02*
X185751100Y-133961600D01*
X185116100Y-132056600D02*
X185751100Y-132691600D01*
X183211100Y-131421600D02*
X183211100Y-130151600D01*
X183846100Y-129516600D02*
X183211100Y-130151600D01*
X185751100Y-130151600D02*
X185116100Y-129516600D01*
X185116100Y-129516600D02*
X183846100Y-129516600D01*
X183846100Y-132056600D02*
X183211100Y-131421600D01*
X185116100Y-132056600D02*
X183846100Y-132056600D01*
X185751100Y-131421600D02*
X185116100Y-132056600D01*
X185751100Y-130151600D02*
X185751100Y-131421600D01*
%TO.C,LED1*%
X102555100Y-99729600D02*
G75*
G03*
X102555100Y-99729600I-2540000J0D01*
G01*
D13*
X102555100Y-101634600D02*
X102555100Y-97824600D01*
D14*
X102555100Y-97824600D02*
G75*
G03*
X102555100Y-101634600I-2540000J-1905000D01*
G01*
D11*
%TO.C,LED2*%
X109601100Y-99729600D02*
G75*
G03*
X109601100Y-99729600I-2540000J0D01*
G01*
D13*
X109601100Y-101634600D02*
X109601100Y-97824600D01*
D14*
X109601100Y-97824600D02*
G75*
G03*
X109601100Y-101634600I-2540000J-1905000D01*
G01*
D11*
%TO.C,LED3*%
X116901100Y-99729600D02*
G75*
G03*
X116901100Y-99729600I-2540000J0D01*
G01*
D13*
X116901100Y-101634600D02*
X116901100Y-97824600D01*
D14*
X116901100Y-97824600D02*
G75*
G03*
X116901100Y-101634600I-2540000J-1905000D01*
G01*
D12*
%TO.C,OUT1-*%
X194691100Y-121908600D02*
X202311100Y-118098600D01*
X194691100Y-118098600D02*
X202311100Y-118098600D01*
X194691100Y-121908600D02*
X194691100Y-118098600D01*
X202311100Y-121908600D02*
X194691100Y-121908600D01*
X202311100Y-118098600D02*
X202311100Y-121908600D01*
%TO.C,OUT2-*%
X194691100Y-111908600D02*
X202311100Y-108098600D01*
X194691100Y-108098600D02*
X202311100Y-108098600D01*
X194691100Y-111908600D02*
X194691100Y-108098600D01*
X202311100Y-111908600D02*
X194691100Y-111908600D01*
X202311100Y-108098600D02*
X202311100Y-111908600D01*
%TO.C,OUT3-*%
X194691100Y-101908600D02*
X202311100Y-98098600D01*
X194691100Y-98098600D02*
X202311100Y-98098600D01*
X194691100Y-101908600D02*
X194691100Y-98098600D01*
X202311100Y-101908600D02*
X194691100Y-101908600D01*
X202311100Y-98098600D02*
X202311100Y-101908600D01*
%TO.C,OUT4-*%
X194691100Y-92108600D02*
X202311100Y-88298600D01*
X194691100Y-88298600D02*
X202311100Y-88298600D01*
X194691100Y-92108600D02*
X194691100Y-88298600D01*
X202311100Y-92108600D02*
X194691100Y-92108600D01*
X202311100Y-88298600D02*
X202311100Y-92108600D01*
%TO.C,P-1*%
X165910100Y-131773600D02*
X165910100Y-129233600D01*
X160830100Y-131773600D02*
X165910100Y-131773600D01*
X160830100Y-129233600D02*
X160830100Y-131773600D01*
X165910100Y-129233600D02*
X160830100Y-129233600D01*
X167500775Y-130503600D02*
X159239425Y-130503600D01*
%TO.C,P-2*%
X165910100Y-129233600D02*
X165910100Y-126693600D01*
X160830100Y-129233600D02*
X165910100Y-129233600D01*
X160830100Y-126693600D02*
X160830100Y-129233600D01*
X165910100Y-126693600D02*
X160830100Y-126693600D01*
X167500775Y-127963600D02*
X159239425Y-127963600D01*
%TO.C,P-3*%
X165910100Y-126693600D02*
X165910100Y-124153600D01*
X160830100Y-126693600D02*
X165910100Y-126693600D01*
X160830100Y-124153600D02*
X160830100Y-126693600D01*
X165910100Y-124153600D02*
X160830100Y-124153600D01*
X167500775Y-125423600D02*
X159239425Y-125423600D01*
%TO.C,P-4*%
X165910100Y-124153600D02*
X165910100Y-121613600D01*
X160830100Y-124153600D02*
X165910100Y-124153600D01*
X160830100Y-121613600D02*
X160830100Y-124153600D01*
X165910100Y-121613600D02*
X160830100Y-121613600D01*
X167500775Y-122883600D02*
X159239425Y-122883600D01*
%TO.C,P-5*%
X165910100Y-89773600D02*
X165910100Y-87233600D01*
X160830100Y-89773600D02*
X165910100Y-89773600D01*
X160830100Y-87233600D02*
X160830100Y-89773600D01*
X165910100Y-87233600D02*
X160830100Y-87233600D01*
X167500775Y-88503600D02*
X159239425Y-88503600D01*
%TO.C,P-6*%
X165910100Y-87233600D02*
X165910100Y-84693600D01*
X160830100Y-87233600D02*
X165910100Y-87233600D01*
X160830100Y-84693600D02*
X160830100Y-87233600D01*
X165910100Y-84693600D02*
X160830100Y-84693600D01*
X167500775Y-85963600D02*
X159239425Y-85963600D01*
%TO.C,P-7*%
X165910100Y-84693600D02*
X165910100Y-82153600D01*
X160830100Y-84693600D02*
X165910100Y-84693600D01*
X160830100Y-82153600D02*
X160830100Y-84693600D01*
X165910100Y-82153600D02*
X160830100Y-82153600D01*
X167500775Y-83423600D02*
X159239425Y-83423600D01*
%TO.C,P-8*%
X167500775Y-80883600D02*
X159239425Y-80883600D01*
X165910100Y-79613600D02*
X160830100Y-79613600D01*
X160830100Y-79613600D02*
X160830100Y-82153600D01*
X160830100Y-82153600D02*
X165910100Y-82153600D01*
X165910100Y-82153600D02*
X165910100Y-79613600D01*
D10*
%TO.C,R1*%
G36*
X95694100Y-95169600D02*
G01*
X96075100Y-95169600D01*
X96075100Y-94661600D01*
X95694100Y-94661600D01*
X95694100Y-95169600D01*
G37*
G36*
X101155100Y-95169600D02*
G01*
X101536100Y-95169600D01*
X101536100Y-94661600D01*
X101155100Y-94661600D01*
X101155100Y-95169600D01*
G37*
D11*
X101155100Y-95677600D02*
X101155100Y-94153600D01*
X100901100Y-95931600D02*
X100520100Y-95931600D01*
X100901100Y-93899600D02*
X100520100Y-93899600D01*
X100393100Y-95804600D02*
X96837100Y-95804600D01*
X100393100Y-95804600D02*
X100520100Y-95931600D01*
X100393100Y-94026600D02*
X96837100Y-94026600D01*
X100393100Y-94026600D02*
X100520100Y-93899600D01*
X96837100Y-95804600D02*
X96710100Y-95931600D01*
X96329100Y-95931600D02*
X96710100Y-95931600D01*
X96837100Y-94026600D02*
X96710100Y-93899600D01*
X96329100Y-93899600D02*
X96710100Y-93899600D01*
X96075100Y-95677600D02*
X96075100Y-94153600D01*
X101155100Y-94153600D02*
G75*
G03*
X100901100Y-93899600I-254000J0D01*
G01*
X101155100Y-95677600D02*
G75*
G02*
X100901100Y-95931600I-254000J0D01*
G01*
X96329100Y-95931600D02*
G75*
G02*
X96075100Y-95677600I0J254000D01*
G01*
X96329100Y-93899600D02*
G75*
G03*
X96075100Y-94153600I0J-254000D01*
G01*
D10*
%TO.C,R2*%
G36*
X96543100Y-104887600D02*
G01*
X96924100Y-104887600D01*
X96924100Y-104379600D01*
X96543100Y-104379600D01*
X96543100Y-104887600D01*
G37*
G36*
X102004100Y-104887600D02*
G01*
X102385100Y-104887600D01*
X102385100Y-104379600D01*
X102004100Y-104379600D01*
X102004100Y-104887600D01*
G37*
D11*
X102004100Y-105395600D02*
X102004100Y-103871600D01*
X101750100Y-105649600D02*
X101369100Y-105649600D01*
X101750100Y-103617600D02*
X101369100Y-103617600D01*
X101242100Y-105522600D02*
X97686100Y-105522600D01*
X101242100Y-105522600D02*
X101369100Y-105649600D01*
X101242100Y-103744600D02*
X97686100Y-103744600D01*
X101242100Y-103744600D02*
X101369100Y-103617600D01*
X97686100Y-105522600D02*
X97559100Y-105649600D01*
X97178100Y-105649600D02*
X97559100Y-105649600D01*
X97686100Y-103744600D02*
X97559100Y-103617600D01*
X97178100Y-103617600D02*
X97559100Y-103617600D01*
X96924100Y-105395600D02*
X96924100Y-103871600D01*
X102004100Y-103871600D02*
G75*
G03*
X101750100Y-103617600I-254000J0D01*
G01*
X102004100Y-105395600D02*
G75*
G02*
X101750100Y-105649600I-254000J0D01*
G01*
X97178100Y-105649600D02*
G75*
G02*
X96924100Y-105395600I0J254000D01*
G01*
X97178100Y-103617600D02*
G75*
G03*
X96924100Y-103871600I0J-254000D01*
G01*
D10*
%TO.C,R3*%
G36*
X145978880Y-103459280D02*
G01*
X145597880Y-103459280D01*
X145597880Y-103967280D01*
X145978880Y-103967280D01*
X145978880Y-103459280D01*
G37*
G36*
X140517880Y-103459280D02*
G01*
X140136880Y-103459280D01*
X140136880Y-103967280D01*
X140517880Y-103967280D01*
X140517880Y-103459280D01*
G37*
D11*
X140517880Y-102951280D02*
X140517880Y-104475280D01*
X140771880Y-102697280D02*
X141152880Y-102697280D01*
X140771880Y-104729280D02*
X141152880Y-104729280D01*
X141279880Y-102824280D02*
X144835880Y-102824280D01*
X141279880Y-102824280D02*
X141152880Y-102697280D01*
X141279880Y-104602280D02*
X144835880Y-104602280D01*
X141279880Y-104602280D02*
X141152880Y-104729280D01*
X144835880Y-102824280D02*
X144962880Y-102697280D01*
X145343880Y-102697280D02*
X144962880Y-102697280D01*
X144835880Y-104602280D02*
X144962880Y-104729280D01*
X145343880Y-104729280D02*
X144962880Y-104729280D01*
X145597880Y-102951280D02*
X145597880Y-104475280D01*
X140517880Y-104475280D02*
G75*
G03*
X140771880Y-104729280I254000J0D01*
G01*
X140517880Y-102951280D02*
G75*
G02*
X140771880Y-102697280I254000J0D01*
G01*
X145343880Y-102697280D02*
G75*
G02*
X145597880Y-102951280I0J-254000D01*
G01*
X145343880Y-104729280D02*
G75*
G03*
X145597880Y-104475280I0J254000D01*
G01*
D10*
%TO.C,R4*%
G36*
X140136880Y-106715560D02*
G01*
X140517880Y-106715560D01*
X140517880Y-106207560D01*
X140136880Y-106207560D01*
X140136880Y-106715560D01*
G37*
G36*
X145597880Y-106715560D02*
G01*
X145978880Y-106715560D01*
X145978880Y-106207560D01*
X145597880Y-106207560D01*
X145597880Y-106715560D01*
G37*
D11*
X145597880Y-107223560D02*
X145597880Y-105699560D01*
X145343880Y-107477560D02*
X144962880Y-107477560D01*
X145343880Y-105445560D02*
X144962880Y-105445560D01*
X144835880Y-107350560D02*
X141279880Y-107350560D01*
X144835880Y-107350560D02*
X144962880Y-107477560D01*
X144835880Y-105572560D02*
X141279880Y-105572560D01*
X144835880Y-105572560D02*
X144962880Y-105445560D01*
X141279880Y-107350560D02*
X141152880Y-107477560D01*
X140771880Y-107477560D02*
X141152880Y-107477560D01*
X141279880Y-105572560D02*
X141152880Y-105445560D01*
X140771880Y-105445560D02*
X141152880Y-105445560D01*
X140517880Y-107223560D02*
X140517880Y-105699560D01*
X145597880Y-105699560D02*
G75*
G03*
X145343880Y-105445560I-254000J0D01*
G01*
X145597880Y-107223560D02*
G75*
G02*
X145343880Y-107477560I-254000J0D01*
G01*
X140771880Y-107477560D02*
G75*
G02*
X140517880Y-107223560I0J254000D01*
G01*
X140771880Y-105445560D02*
G75*
G03*
X140517880Y-105699560I0J-254000D01*
G01*
D10*
%TO.C,R5*%
G36*
X112208100Y-104379600D02*
G01*
X111827100Y-104379600D01*
X111827100Y-104887600D01*
X112208100Y-104887600D01*
X112208100Y-104379600D01*
G37*
G36*
X106747100Y-104379600D02*
G01*
X106366100Y-104379600D01*
X106366100Y-104887600D01*
X106747100Y-104887600D01*
X106747100Y-104379600D01*
G37*
D11*
X106747100Y-103871600D02*
X106747100Y-105395600D01*
X107001100Y-103617600D02*
X107382100Y-103617600D01*
X107001100Y-105649600D02*
X107382100Y-105649600D01*
X107509100Y-103744600D02*
X111065100Y-103744600D01*
X107509100Y-103744600D02*
X107382100Y-103617600D01*
X107509100Y-105522600D02*
X111065100Y-105522600D01*
X107509100Y-105522600D02*
X107382100Y-105649600D01*
X111065100Y-103744600D02*
X111192100Y-103617600D01*
X111573100Y-103617600D02*
X111192100Y-103617600D01*
X111065100Y-105522600D02*
X111192100Y-105649600D01*
X111573100Y-105649600D02*
X111192100Y-105649600D01*
X111827100Y-103871600D02*
X111827100Y-105395600D01*
X106747100Y-105395600D02*
G75*
G03*
X107001100Y-105649600I254000J0D01*
G01*
X106747100Y-103871600D02*
G75*
G02*
X107001100Y-103617600I254000J0D01*
G01*
X111573100Y-103617600D02*
G75*
G02*
X111827100Y-103871600I0J-254000D01*
G01*
X111573100Y-105649600D02*
G75*
G03*
X111827100Y-105395600I0J254000D01*
G01*
D12*
%TO.C,SV1*%
X94138100Y-77595600D02*
X94138100Y-73150600D01*
X94138100Y-77595600D02*
X94265100Y-77595600D01*
X94265100Y-78865600D02*
X94265100Y-77595600D01*
X94265100Y-78865600D02*
X94138100Y-78865600D01*
X94138100Y-81278600D02*
X94138100Y-78865600D01*
X94646100Y-87882600D02*
X94646100Y-86358600D01*
X95154100Y-87882600D02*
X94646100Y-87882600D01*
X94646100Y-86358600D02*
X94646100Y-85850600D01*
X95154100Y-86358600D02*
X94646100Y-86358600D01*
X95154100Y-81278600D02*
X94138100Y-81278600D01*
D15*
X95154100Y-74166600D02*
X95154100Y-81278600D01*
X102012100Y-74166600D02*
X95154100Y-74166600D01*
X102012100Y-92454600D02*
X102012100Y-74166600D01*
X95154100Y-92454600D02*
X102012100Y-92454600D01*
X95154100Y-87882600D02*
X95154100Y-92454600D01*
D12*
X95154100Y-85342600D02*
X94138100Y-85342600D01*
D15*
X95154100Y-86358600D02*
X95154100Y-85342600D01*
D12*
X94646100Y-88390600D02*
X94646100Y-87882600D01*
X94646100Y-88390600D02*
X94138100Y-88771600D01*
X94138100Y-85469600D02*
X94646100Y-85850600D01*
X95408100Y-87882600D02*
X95408100Y-86358600D01*
X95408100Y-87882600D02*
X95154100Y-87882600D01*
X95408100Y-86358600D02*
X95408100Y-85342600D01*
X95408100Y-86358600D02*
X95154100Y-86358600D01*
X94138100Y-85342600D02*
X94138100Y-81278600D01*
X94138100Y-85469600D02*
X94138100Y-85342600D01*
X103028100Y-75690600D02*
X103028100Y-82675600D01*
X103282100Y-75690600D02*
X103028100Y-75690600D01*
X103282100Y-74420600D02*
X103028100Y-74420600D01*
X103282100Y-75690600D02*
X103282100Y-74420600D01*
X103282100Y-82675600D02*
X103028100Y-82675600D01*
X103028100Y-83945600D02*
X103028100Y-90930600D01*
X103282100Y-83945600D02*
X103028100Y-83945600D01*
X103282100Y-83945600D02*
X103282100Y-82675600D01*
X103028100Y-92200600D02*
X103028100Y-93470600D01*
X103028100Y-90930600D02*
X103282100Y-90930600D01*
X103282100Y-92200600D02*
X103282100Y-90930600D01*
X103028100Y-92200600D02*
X103282100Y-92200600D01*
X95408100Y-85342600D02*
X95154100Y-85342600D01*
X96170100Y-85342600D02*
X95408100Y-85342600D01*
X95408100Y-81278600D02*
X95154100Y-81278600D01*
X95408100Y-81278600D02*
X95408100Y-74420600D01*
X95408100Y-81278600D02*
X96170100Y-81278600D01*
X96170100Y-85342600D02*
X96170100Y-81278600D01*
X95408100Y-92200600D02*
X95408100Y-87882600D01*
X103028100Y-73150600D02*
X94138100Y-73150600D01*
X94138100Y-93470600D02*
X103028100Y-93470600D01*
X94138100Y-93470600D02*
X94138100Y-88771600D01*
X103028100Y-73150600D02*
X103028100Y-74420600D01*
X101758100Y-74420600D02*
X95408100Y-74420600D01*
X95408100Y-92200600D02*
X101758100Y-92200600D01*
X101758100Y-74420600D02*
X101758100Y-92200600D01*
%TO.C,SWITCH*%
X188647100Y-71500600D02*
X189347100Y-71500600D01*
X188647100Y-71500600D02*
X188647100Y-69360600D01*
X189347100Y-69360600D02*
X188647100Y-69360600D01*
X189347100Y-71500600D02*
X189347100Y-69360600D01*
X188647100Y-74660600D02*
X189347100Y-74660600D01*
X187647100Y-70060600D02*
X187647100Y-69360600D01*
X187647100Y-76800600D02*
X187647100Y-76100600D01*
X185727100Y-76100600D02*
X185727100Y-70060600D01*
X185727100Y-76100600D02*
X184297100Y-76100600D01*
X187647100Y-76100600D02*
X185727100Y-76100600D01*
X188647100Y-74660600D02*
X188647100Y-76800600D01*
X185727100Y-70060600D02*
X187647100Y-70060600D01*
X184297100Y-70060600D02*
X185727100Y-70060600D01*
X184297100Y-76100600D02*
X184297100Y-70060600D01*
X187647100Y-76800600D02*
X183597100Y-76800600D01*
X189347100Y-76800600D02*
X188647100Y-76800600D01*
X189347100Y-74660600D02*
X189347100Y-76800600D01*
X183597100Y-69360600D02*
X187647100Y-69360600D01*
X183597100Y-76800600D02*
X183597100Y-69360600D01*
%TO.C,THRU-*%
X102311100Y-121098600D02*
X94691100Y-124908600D01*
X102311100Y-124908600D02*
X94691100Y-124908600D01*
X102311100Y-121098600D02*
X102311100Y-124908600D01*
X94691100Y-121098600D02*
X102311100Y-121098600D01*
X94691100Y-124908600D02*
X94691100Y-121098600D01*
%TO.C,THRU*%
X188647100Y-80551600D02*
X189347100Y-80551600D01*
X188647100Y-80551600D02*
X188647100Y-78411600D01*
X189347100Y-78411600D02*
X188647100Y-78411600D01*
X189347100Y-80551600D02*
X189347100Y-78411600D01*
X188647100Y-83711600D02*
X189347100Y-83711600D01*
X187647100Y-79111600D02*
X187647100Y-78411600D01*
X187647100Y-85851600D02*
X187647100Y-85151600D01*
X185727100Y-85151600D02*
X185727100Y-79111600D01*
X185727100Y-85151600D02*
X184297100Y-85151600D01*
X187647100Y-85151600D02*
X185727100Y-85151600D01*
X188647100Y-83711600D02*
X188647100Y-85851600D01*
X185727100Y-79111600D02*
X187647100Y-79111600D01*
X184297100Y-79111600D02*
X185727100Y-79111600D01*
X184297100Y-85151600D02*
X184297100Y-79111600D01*
X187647100Y-85851600D02*
X183597100Y-85851600D01*
X189347100Y-85851600D02*
X188647100Y-85851600D01*
X189347100Y-83711600D02*
X189347100Y-85851600D01*
X183597100Y-78411600D02*
X187647100Y-78411600D01*
X183597100Y-85851600D02*
X183597100Y-78411600D01*
D10*
%TO.C,TLP1*%
X187274100Y-136026600D02*
X187274100Y-131821600D01*
X187274100Y-142231600D02*
X187274100Y-138026600D01*
X187274100Y-131821600D02*
X197434100Y-131821600D01*
X197434100Y-142231600D02*
X187274100Y-142231600D01*
X197434100Y-131821600D02*
X197434100Y-142231600D01*
X187274100Y-138026600D02*
G75*
G03*
X187274100Y-136026600I0J1000000D01*
G01*
D12*
%TO.C,IRLB3813*%
X139135100Y-131077100D02*
X139897100Y-130315100D01*
X139135100Y-120790100D02*
X139897100Y-121552100D01*
X148101300Y-131077100D02*
X147339300Y-130315100D01*
X148101300Y-120790100D02*
X147339300Y-121552100D01*
X147339300Y-130315100D02*
X147339300Y-121552100D01*
X139897100Y-130315100D02*
X147339300Y-130315100D01*
X139897100Y-121552100D02*
X139897100Y-130315100D01*
X147339300Y-121552100D02*
X139897100Y-121552100D01*
X148101300Y-120790100D02*
X148101300Y-131077100D01*
X148101300Y-120790100D02*
X139135100Y-120790100D01*
X154375100Y-120790100D02*
X148101300Y-120790100D01*
X154375100Y-131077100D02*
X154375100Y-120790100D01*
X148101300Y-131077100D02*
X154375100Y-131077100D01*
X139135100Y-131077100D02*
X148101300Y-131077100D01*
X139135100Y-120790100D02*
X139135100Y-131077100D01*
D10*
G36*
X134817100Y-128092600D02*
G01*
X134817100Y-128854600D01*
X139135100Y-128854600D01*
X139135100Y-128092600D01*
X134817100Y-128092600D01*
G37*
G36*
X134817100Y-125552600D02*
G01*
X134817100Y-126314600D01*
X139135100Y-126314600D01*
X139135100Y-125552600D01*
X134817100Y-125552600D01*
G37*
G36*
X134817100Y-123012600D02*
G01*
X134817100Y-123774600D01*
X139135100Y-123774600D01*
X139135100Y-123012600D01*
X134817100Y-123012600D01*
G37*
D12*
X139135100Y-89029100D02*
X139897100Y-88267100D01*
X139135100Y-78742100D02*
X139897100Y-79504100D01*
X148101300Y-89029100D02*
X147339300Y-88267100D01*
X148101300Y-78742100D02*
X147339300Y-79504100D01*
X147339300Y-88267100D02*
X147339300Y-79504100D01*
X139897100Y-88267100D02*
X147339300Y-88267100D01*
X139897100Y-79504100D02*
X139897100Y-88267100D01*
X147339300Y-79504100D02*
X139897100Y-79504100D01*
X148101300Y-78742100D02*
X148101300Y-89029100D01*
X148101300Y-78742100D02*
X139135100Y-78742100D01*
X154375100Y-78742100D02*
X148101300Y-78742100D01*
X154375100Y-89029100D02*
X154375100Y-78742100D01*
X148101300Y-89029100D02*
X154375100Y-89029100D01*
X139135100Y-89029100D02*
X148101300Y-89029100D01*
X139135100Y-78742100D02*
X139135100Y-89029100D01*
D10*
G36*
X134817100Y-86044600D02*
G01*
X134817100Y-86806600D01*
X139135100Y-86806600D01*
X139135100Y-86044600D01*
X134817100Y-86044600D01*
G37*
G36*
X134817100Y-83504600D02*
G01*
X134817100Y-84266600D01*
X139135100Y-84266600D01*
X139135100Y-83504600D01*
X134817100Y-83504600D01*
G37*
G36*
X134817100Y-80964600D02*
G01*
X134817100Y-81726600D01*
X139135100Y-81726600D01*
X139135100Y-80964600D01*
X134817100Y-80964600D01*
G37*
D13*
%TO.C,H1*%
X96851100Y-140503600D02*
G75*
G03*
X96851100Y-140503600I-1700000J0D01*
G01*
D11*
X98580100Y-140503600D02*
G75*
G03*
X98580100Y-140503600I-3429000J0D01*
G01*
D13*
%TO.C,H2*%
X96851100Y-69233600D02*
G75*
G03*
X96851100Y-69233600I-1700000J0D01*
G01*
D11*
X98580100Y-69233600D02*
G75*
G03*
X98580100Y-69233600I-3429000J0D01*
G01*
D13*
%TO.C,H3*%
X203851100Y-140503600D02*
G75*
G03*
X203851100Y-140503600I-1700000J0D01*
G01*
D11*
X205580100Y-140503600D02*
G75*
G03*
X205580100Y-140503600I-3429000J0D01*
G01*
D13*
%TO.C,H4*%
X203851100Y-69233600D02*
G75*
G03*
X203851100Y-69233600I-1700000J0D01*
G01*
D11*
X205580100Y-69233600D02*
G75*
G03*
X205580100Y-69233600I-3429000J0D01*
G01*
D10*
%TO.C,EDGE1*%
G36*
X178583100Y-136995600D02*
G01*
X178075100Y-137376600D01*
X178583100Y-137757600D01*
X178583100Y-136995600D01*
G37*
D12*
X122576100Y-132830000D02*
X177186100Y-132830000D01*
X122576100Y-142177200D02*
X122576100Y-132830000D01*
X177186100Y-142177200D02*
X122576100Y-142177200D01*
X177186100Y-132830000D02*
X177186100Y-142177200D01*
D10*
%TO.C,EDGE2*%
G36*
X178583100Y-113995600D02*
G01*
X178075100Y-114376600D01*
X178583100Y-114757600D01*
X178583100Y-113995600D01*
G37*
D12*
X122576100Y-109830000D02*
X177186100Y-109830000D01*
X122576100Y-119177200D02*
X122576100Y-109830000D01*
X177186100Y-119177200D02*
X122576100Y-119177200D01*
X177186100Y-109830000D02*
X177186100Y-119177200D01*
D10*
%TO.C,EDGE3*%
G36*
X178583100Y-94995600D02*
G01*
X178075100Y-95376600D01*
X178583100Y-95757600D01*
X178583100Y-94995600D01*
G37*
D12*
X122576100Y-90830000D02*
X177186100Y-90830000D01*
X122576100Y-100177200D02*
X122576100Y-90830000D01*
X177186100Y-100177200D02*
X122576100Y-100177200D01*
X177186100Y-90830000D02*
X177186100Y-100177200D01*
D10*
%TO.C,EDGE4*%
G36*
X178583100Y-71995600D02*
G01*
X178075100Y-72376600D01*
X178583100Y-72757600D01*
X178583100Y-71995600D01*
G37*
D12*
X122576100Y-67830000D02*
X177186100Y-67830000D01*
X122576100Y-77177200D02*
X122576100Y-67830000D01*
X177186100Y-77177200D02*
X122576100Y-77177200D01*
X177186100Y-67830000D02*
X177186100Y-77177200D01*
%TO.C,*%
D16*
D17*
X160066319Y-121081558D02*
X160066319Y-120116358D01*
X160434015Y-120116358D01*
X160525938Y-120162320D01*
X160571900Y-120208281D01*
X160617862Y-120300205D01*
X160617862Y-120438091D01*
X160571900Y-120530015D01*
X160525938Y-120575977D01*
X160434015Y-120621939D01*
X160066319Y-120621939D01*
X161031519Y-120713862D02*
X161766910Y-120713862D01*
X162180567Y-121035596D02*
X162318453Y-121081558D01*
X162548262Y-121081558D01*
X162640186Y-121035596D01*
X162686148Y-120989634D01*
X162732110Y-120897710D01*
X162732110Y-120805786D01*
X162686148Y-120713862D01*
X162640186Y-120667900D01*
X162548262Y-120621939D01*
X162364415Y-120575977D01*
X162272491Y-120530015D01*
X162226529Y-120484053D01*
X162180567Y-120392129D01*
X162180567Y-120300205D01*
X162226529Y-120208281D01*
X162272491Y-120162320D01*
X162364415Y-120116358D01*
X162594224Y-120116358D01*
X162732110Y-120162320D01*
X163053843Y-120116358D02*
X163283653Y-121081558D01*
X163467500Y-120392129D01*
X163651348Y-121081558D01*
X163881158Y-120116358D01*
X164248853Y-121081558D02*
X164248853Y-120116358D01*
X164570586Y-120116358D02*
X165122129Y-120116358D01*
X164846358Y-121081558D02*
X164846358Y-120116358D01*
X165995405Y-120989634D02*
X165949443Y-121035596D01*
X165811558Y-121081558D01*
X165719634Y-121081558D01*
X165581748Y-121035596D01*
X165489824Y-120943672D01*
X165443862Y-120851748D01*
X165397900Y-120667900D01*
X165397900Y-120530015D01*
X165443862Y-120346167D01*
X165489824Y-120254243D01*
X165581748Y-120162320D01*
X165719634Y-120116358D01*
X165811558Y-120116358D01*
X165949443Y-120162320D01*
X165995405Y-120208281D01*
X166409062Y-121081558D02*
X166409062Y-120116358D01*
X166409062Y-120575977D02*
X166960605Y-120575977D01*
X166960605Y-121081558D02*
X166960605Y-120116358D01*
D16*
%TO.C,C1*%
D18*
X101061547Y-129025885D02*
X101016309Y-129071123D01*
X100880595Y-129116361D01*
X100790119Y-129116361D01*
X100654404Y-129071123D01*
X100563928Y-128980647D01*
X100518690Y-128890171D01*
X100473452Y-128709219D01*
X100473452Y-128573504D01*
X100518690Y-128392552D01*
X100563928Y-128302076D01*
X100654404Y-128211600D01*
X100790119Y-128166361D01*
X100880595Y-128166361D01*
X101016309Y-128211600D01*
X101061547Y-128256838D01*
X101966309Y-129116361D02*
X101423452Y-129116361D01*
X101694880Y-129116361D02*
X101694880Y-128166361D01*
X101604404Y-128302076D01*
X101513928Y-128392552D01*
X101423452Y-128437790D01*
%TO.C,CTRL1*%
D19*
X198047528Y-74187841D02*
X198083719Y-74224032D01*
X198119909Y-74332603D01*
X198119909Y-74404984D01*
X198083719Y-74513556D01*
X198011338Y-74585937D01*
X197938957Y-74622127D01*
X197794195Y-74658318D01*
X197685623Y-74658318D01*
X197540861Y-74622127D01*
X197468480Y-74585937D01*
X197396100Y-74513556D01*
X197359909Y-74404984D01*
X197359909Y-74332603D01*
X197396100Y-74224032D01*
X197432290Y-74187841D01*
X197359909Y-73970699D02*
X197359909Y-73536413D01*
X198119909Y-73753556D02*
X197359909Y-73753556D01*
X198119909Y-72848794D02*
X197758004Y-73102127D01*
X198119909Y-73283080D02*
X197359909Y-73283080D01*
X197359909Y-72993556D01*
X197396100Y-72921175D01*
X197432290Y-72884984D01*
X197504671Y-72848794D01*
X197613242Y-72848794D01*
X197685623Y-72884984D01*
X197721814Y-72921175D01*
X197758004Y-72993556D01*
X197758004Y-73283080D01*
X198119909Y-72161175D02*
X198119909Y-72523080D01*
X197359909Y-72523080D01*
X198119909Y-71509746D02*
X198119909Y-71944032D01*
X198119909Y-71726889D02*
X197359909Y-71726889D01*
X197468480Y-71799270D01*
X197540861Y-71871651D01*
X197577052Y-71944032D01*
%TO.C,CTRL2*%
X198174528Y-83340841D02*
X198210719Y-83377032D01*
X198246909Y-83485603D01*
X198246909Y-83557984D01*
X198210719Y-83666556D01*
X198138338Y-83738937D01*
X198065957Y-83775127D01*
X197921195Y-83811318D01*
X197812623Y-83811318D01*
X197667861Y-83775127D01*
X197595480Y-83738937D01*
X197523100Y-83666556D01*
X197486909Y-83557984D01*
X197486909Y-83485603D01*
X197523100Y-83377032D01*
X197559290Y-83340841D01*
X197486909Y-83123699D02*
X197486909Y-82689413D01*
X198246909Y-82906556D02*
X197486909Y-82906556D01*
X198246909Y-82001794D02*
X197885004Y-82255127D01*
X198246909Y-82436080D02*
X197486909Y-82436080D01*
X197486909Y-82146556D01*
X197523100Y-82074175D01*
X197559290Y-82037984D01*
X197631671Y-82001794D01*
X197740242Y-82001794D01*
X197812623Y-82037984D01*
X197848814Y-82074175D01*
X197885004Y-82146556D01*
X197885004Y-82436080D01*
X198246909Y-81314175D02*
X198246909Y-81676080D01*
X197486909Y-81676080D01*
X197559290Y-81097032D02*
X197523100Y-81060841D01*
X197486909Y-80988460D01*
X197486909Y-80807508D01*
X197523100Y-80735127D01*
X197559290Y-80698937D01*
X197631671Y-80662746D01*
X197704052Y-80662746D01*
X197812623Y-80698937D01*
X198246909Y-81133222D01*
X198246909Y-80662746D01*
%TO.C,EDGE5*%
D18*
X107061242Y-91908009D02*
X107061242Y-91591342D01*
X107558861Y-91455628D02*
X107558861Y-91908009D01*
X106608861Y-91908009D01*
X106608861Y-91455628D01*
X107558861Y-91048485D02*
X106608861Y-91048485D01*
X106608861Y-90822295D01*
X106654100Y-90686580D01*
X106744576Y-90596104D01*
X106835052Y-90550866D01*
X107016004Y-90505628D01*
X107151719Y-90505628D01*
X107332671Y-90550866D01*
X107423147Y-90596104D01*
X107513623Y-90686580D01*
X107558861Y-90822295D01*
X107558861Y-91048485D01*
X106654100Y-89600866D02*
X106608861Y-89691342D01*
X106608861Y-89827057D01*
X106654100Y-89962771D01*
X106744576Y-90053247D01*
X106835052Y-90098485D01*
X107016004Y-90143723D01*
X107151719Y-90143723D01*
X107332671Y-90098485D01*
X107423147Y-90053247D01*
X107513623Y-89962771D01*
X107558861Y-89827057D01*
X107558861Y-89736580D01*
X107513623Y-89600866D01*
X107468385Y-89555628D01*
X107151719Y-89555628D01*
X107151719Y-89736580D01*
X107061242Y-89148485D02*
X107061242Y-88831819D01*
X107558861Y-88696104D02*
X107558861Y-89148485D01*
X106608861Y-89148485D01*
X106608861Y-88696104D01*
X106608861Y-87836580D02*
X106608861Y-88288961D01*
X107061242Y-88334200D01*
X107016004Y-88288961D01*
X106970766Y-88198485D01*
X106970766Y-87972295D01*
X107016004Y-87881819D01*
X107061242Y-87836580D01*
X107151719Y-87791342D01*
X107377909Y-87791342D01*
X107468385Y-87836580D01*
X107513623Y-87881819D01*
X107558861Y-87972295D01*
X107558861Y-88198485D01*
X107513623Y-88288961D01*
X107468385Y-88334200D01*
%TO.C,IN+*%
D17*
X103078879Y-108488238D02*
X103078879Y-107523038D01*
X103538498Y-108488238D02*
X103538498Y-107523038D01*
X104090041Y-108488238D01*
X104090041Y-107523038D01*
X104549660Y-108120542D02*
X105285051Y-108120542D01*
X104917356Y-108488238D02*
X104917356Y-107752847D01*
%TO.C,JP1*%
D20*
X183655298Y-128063847D02*
X183655298Y-128925633D01*
X183597846Y-129097990D01*
X183482941Y-129212895D01*
X183310584Y-129270347D01*
X183195679Y-129270347D01*
X184229822Y-129270347D02*
X184229822Y-128063847D01*
X184689441Y-128063847D01*
X184804346Y-128121300D01*
X184861798Y-128178752D01*
X184919251Y-128293657D01*
X184919251Y-128466014D01*
X184861798Y-128580919D01*
X184804346Y-128638371D01*
X184689441Y-128695823D01*
X184229822Y-128695823D01*
X186068298Y-129270347D02*
X185378870Y-129270347D01*
X185723584Y-129270347D02*
X185723584Y-128063847D01*
X185608679Y-128236204D01*
X185493774Y-128351109D01*
X185378870Y-128408561D01*
%TO.C,OUT1+*%
D17*
X190145967Y-124408958D02*
X190329815Y-124408958D01*
X190421738Y-124454920D01*
X190513662Y-124546843D01*
X190559624Y-124730691D01*
X190559624Y-125052424D01*
X190513662Y-125236272D01*
X190421738Y-125328196D01*
X190329815Y-125374158D01*
X190145967Y-125374158D01*
X190054043Y-125328196D01*
X189962119Y-125236272D01*
X189916158Y-125052424D01*
X189916158Y-124730691D01*
X189962119Y-124546843D01*
X190054043Y-124454920D01*
X190145967Y-124408958D01*
X190973281Y-124408958D02*
X190973281Y-125190310D01*
X191019243Y-125282234D01*
X191065205Y-125328196D01*
X191157129Y-125374158D01*
X191340977Y-125374158D01*
X191432900Y-125328196D01*
X191478862Y-125282234D01*
X191524824Y-125190310D01*
X191524824Y-124408958D01*
X191846558Y-124408958D02*
X192398100Y-124408958D01*
X192122329Y-125374158D02*
X192122329Y-124408958D01*
X193225415Y-125374158D02*
X192673872Y-125374158D01*
X192949643Y-125374158D02*
X192949643Y-124408958D01*
X192857719Y-124546843D01*
X192765796Y-124638767D01*
X192673872Y-124684729D01*
X193639072Y-125006462D02*
X194374462Y-125006462D01*
X194006767Y-125374158D02*
X194006767Y-124638767D01*
%TO.C,OUT2+*%
X190145967Y-114500438D02*
X190329815Y-114500438D01*
X190421738Y-114546400D01*
X190513662Y-114638323D01*
X190559624Y-114822171D01*
X190559624Y-115143904D01*
X190513662Y-115327752D01*
X190421738Y-115419676D01*
X190329815Y-115465638D01*
X190145967Y-115465638D01*
X190054043Y-115419676D01*
X189962119Y-115327752D01*
X189916158Y-115143904D01*
X189916158Y-114822171D01*
X189962119Y-114638323D01*
X190054043Y-114546400D01*
X190145967Y-114500438D01*
X190973281Y-114500438D02*
X190973281Y-115281790D01*
X191019243Y-115373714D01*
X191065205Y-115419676D01*
X191157129Y-115465638D01*
X191340977Y-115465638D01*
X191432900Y-115419676D01*
X191478862Y-115373714D01*
X191524824Y-115281790D01*
X191524824Y-114500438D01*
X191846558Y-114500438D02*
X192398100Y-114500438D01*
X192122329Y-115465638D02*
X192122329Y-114500438D01*
X192673872Y-114592361D02*
X192719834Y-114546400D01*
X192811758Y-114500438D01*
X193041567Y-114500438D01*
X193133491Y-114546400D01*
X193179453Y-114592361D01*
X193225415Y-114684285D01*
X193225415Y-114776209D01*
X193179453Y-114914095D01*
X192627910Y-115465638D01*
X193225415Y-115465638D01*
X193639072Y-115097942D02*
X194374462Y-115097942D01*
X194006767Y-115465638D02*
X194006767Y-114730247D01*
%TO.C,OUT3+*%
X190145967Y-104373438D02*
X190329815Y-104373438D01*
X190421738Y-104419400D01*
X190513662Y-104511323D01*
X190559624Y-104695171D01*
X190559624Y-105016904D01*
X190513662Y-105200752D01*
X190421738Y-105292676D01*
X190329815Y-105338638D01*
X190145967Y-105338638D01*
X190054043Y-105292676D01*
X189962119Y-105200752D01*
X189916158Y-105016904D01*
X189916158Y-104695171D01*
X189962119Y-104511323D01*
X190054043Y-104419400D01*
X190145967Y-104373438D01*
X190973281Y-104373438D02*
X190973281Y-105154790D01*
X191019243Y-105246714D01*
X191065205Y-105292676D01*
X191157129Y-105338638D01*
X191340977Y-105338638D01*
X191432900Y-105292676D01*
X191478862Y-105246714D01*
X191524824Y-105154790D01*
X191524824Y-104373438D01*
X191846558Y-104373438D02*
X192398100Y-104373438D01*
X192122329Y-105338638D02*
X192122329Y-104373438D01*
X192627910Y-104373438D02*
X193225415Y-104373438D01*
X192903681Y-104741133D01*
X193041567Y-104741133D01*
X193133491Y-104787095D01*
X193179453Y-104833057D01*
X193225415Y-104924980D01*
X193225415Y-105154790D01*
X193179453Y-105246714D01*
X193133491Y-105292676D01*
X193041567Y-105338638D01*
X192765796Y-105338638D01*
X192673872Y-105292676D01*
X192627910Y-105246714D01*
X193639072Y-104970942D02*
X194374462Y-104970942D01*
X194006767Y-105338638D02*
X194006767Y-104603247D01*
%TO.C,OUT4+*%
X190145967Y-94355678D02*
X190329815Y-94355678D01*
X190421738Y-94401640D01*
X190513662Y-94493563D01*
X190559624Y-94677411D01*
X190559624Y-94999144D01*
X190513662Y-95182992D01*
X190421738Y-95274916D01*
X190329815Y-95320878D01*
X190145967Y-95320878D01*
X190054043Y-95274916D01*
X189962119Y-95182992D01*
X189916158Y-94999144D01*
X189916158Y-94677411D01*
X189962119Y-94493563D01*
X190054043Y-94401640D01*
X190145967Y-94355678D01*
X190973281Y-94355678D02*
X190973281Y-95137030D01*
X191019243Y-95228954D01*
X191065205Y-95274916D01*
X191157129Y-95320878D01*
X191340977Y-95320878D01*
X191432900Y-95274916D01*
X191478862Y-95228954D01*
X191524824Y-95137030D01*
X191524824Y-94355678D01*
X191846558Y-94355678D02*
X192398100Y-94355678D01*
X192122329Y-95320878D02*
X192122329Y-94355678D01*
X193133491Y-94677411D02*
X193133491Y-95320878D01*
X192903681Y-94309716D02*
X192673872Y-94999144D01*
X193271377Y-94999144D01*
X193639072Y-94953182D02*
X194374462Y-94953182D01*
X194006767Y-95320878D02*
X194006767Y-94585487D01*
%TO.C,P-8*%
X159852959Y-79125838D02*
X159852959Y-78160638D01*
X160220655Y-78160638D01*
X160312578Y-78206600D01*
X160358540Y-78252561D01*
X160404502Y-78344485D01*
X160404502Y-78482371D01*
X160358540Y-78574295D01*
X160312578Y-78620257D01*
X160220655Y-78666219D01*
X159852959Y-78666219D01*
X160818159Y-78758142D02*
X161553550Y-78758142D01*
X161967207Y-79079876D02*
X162105093Y-79125838D01*
X162334902Y-79125838D01*
X162426826Y-79079876D01*
X162472788Y-79033914D01*
X162518750Y-78941990D01*
X162518750Y-78850066D01*
X162472788Y-78758142D01*
X162426826Y-78712180D01*
X162334902Y-78666219D01*
X162151055Y-78620257D01*
X162059131Y-78574295D01*
X162013169Y-78528333D01*
X161967207Y-78436409D01*
X161967207Y-78344485D01*
X162013169Y-78252561D01*
X162059131Y-78206600D01*
X162151055Y-78160638D01*
X162380864Y-78160638D01*
X162518750Y-78206600D01*
X162840483Y-78160638D02*
X163070293Y-79125838D01*
X163254140Y-78436409D01*
X163437988Y-79125838D01*
X163667798Y-78160638D01*
X164035493Y-79125838D02*
X164035493Y-78160638D01*
X164357226Y-78160638D02*
X164908769Y-78160638D01*
X164632998Y-79125838D02*
X164632998Y-78160638D01*
X165782045Y-79033914D02*
X165736083Y-79079876D01*
X165598198Y-79125838D01*
X165506274Y-79125838D01*
X165368388Y-79079876D01*
X165276464Y-78987952D01*
X165230502Y-78896028D01*
X165184540Y-78712180D01*
X165184540Y-78574295D01*
X165230502Y-78390447D01*
X165276464Y-78298523D01*
X165368388Y-78206600D01*
X165506274Y-78160638D01*
X165598198Y-78160638D01*
X165736083Y-78206600D01*
X165782045Y-78252561D01*
X166195702Y-79125838D02*
X166195702Y-78160638D01*
X166195702Y-78620257D02*
X166747245Y-78620257D01*
X166747245Y-79125838D02*
X166747245Y-78160638D01*
%TO.C,R1*%
D21*
X96469228Y-97221947D02*
X96155538Y-96773818D01*
X95931473Y-97221947D02*
X95931473Y-96280877D01*
X96289976Y-96280877D01*
X96379602Y-96325690D01*
X96424415Y-96370502D01*
X96469228Y-96460128D01*
X96469228Y-96594567D01*
X96424415Y-96684192D01*
X96379602Y-96729005D01*
X96289976Y-96773818D01*
X95931473Y-96773818D01*
X97365485Y-97221947D02*
X96827730Y-97221947D01*
X97096608Y-97221947D02*
X97096608Y-96280877D01*
X97006982Y-96415315D01*
X96917356Y-96504941D01*
X96827730Y-96549754D01*
X97767675Y-95353387D02*
X97229920Y-95353387D01*
X97498798Y-95353387D02*
X97498798Y-94412317D01*
X97409172Y-94546755D01*
X97319546Y-94636381D01*
X97229920Y-94681194D01*
X98350242Y-94412317D02*
X98439868Y-94412317D01*
X98529493Y-94457130D01*
X98574306Y-94501942D01*
X98619119Y-94591568D01*
X98663932Y-94770820D01*
X98663932Y-94994884D01*
X98619119Y-95174135D01*
X98574306Y-95263761D01*
X98529493Y-95308574D01*
X98439868Y-95353387D01*
X98350242Y-95353387D01*
X98260616Y-95308574D01*
X98215803Y-95263761D01*
X98170990Y-95174135D01*
X98126178Y-94994884D01*
X98126178Y-94770820D01*
X98170990Y-94591568D01*
X98215803Y-94501942D01*
X98260616Y-94457130D01*
X98350242Y-94412317D01*
X99246499Y-94412317D02*
X99336125Y-94412317D01*
X99425750Y-94457130D01*
X99470563Y-94501942D01*
X99515376Y-94591568D01*
X99560189Y-94770820D01*
X99560189Y-94994884D01*
X99515376Y-95174135D01*
X99470563Y-95263761D01*
X99425750Y-95308574D01*
X99336125Y-95353387D01*
X99246499Y-95353387D01*
X99156873Y-95308574D01*
X99112060Y-95263761D01*
X99067248Y-95174135D01*
X99022435Y-94994884D01*
X99022435Y-94770820D01*
X99067248Y-94591568D01*
X99112060Y-94501942D01*
X99156873Y-94457130D01*
X99246499Y-94412317D01*
%TO.C,R2*%
X96901028Y-103241747D02*
X96587338Y-102793618D01*
X96363273Y-103241747D02*
X96363273Y-102300677D01*
X96721776Y-102300677D01*
X96811402Y-102345490D01*
X96856215Y-102390302D01*
X96901028Y-102479928D01*
X96901028Y-102614367D01*
X96856215Y-102703992D01*
X96811402Y-102748805D01*
X96721776Y-102793618D01*
X96363273Y-102793618D01*
X97259530Y-102390302D02*
X97304343Y-102345490D01*
X97393969Y-102300677D01*
X97618033Y-102300677D01*
X97707659Y-102345490D01*
X97752472Y-102390302D01*
X97797285Y-102479928D01*
X97797285Y-102569554D01*
X97752472Y-102703992D01*
X97214718Y-103241747D01*
X97797285Y-103241747D01*
X98763029Y-104215837D02*
X98583778Y-104215837D01*
X98494152Y-104260650D01*
X98449339Y-104305462D01*
X98359713Y-104439901D01*
X98314900Y-104619152D01*
X98314900Y-104977655D01*
X98359713Y-105067281D01*
X98404526Y-105112094D01*
X98494152Y-105156907D01*
X98673403Y-105156907D01*
X98763029Y-105112094D01*
X98807842Y-105067281D01*
X98852655Y-104977655D01*
X98852655Y-104753591D01*
X98807842Y-104663965D01*
X98763029Y-104619152D01*
X98673403Y-104574340D01*
X98494152Y-104574340D01*
X98404526Y-104619152D01*
X98359713Y-104663965D01*
X98314900Y-104753591D01*
X99390409Y-104619152D02*
X99300783Y-104574340D01*
X99255970Y-104529527D01*
X99211158Y-104439901D01*
X99211158Y-104395088D01*
X99255970Y-104305462D01*
X99300783Y-104260650D01*
X99390409Y-104215837D01*
X99569660Y-104215837D01*
X99659286Y-104260650D01*
X99704099Y-104305462D01*
X99748912Y-104395088D01*
X99748912Y-104439901D01*
X99704099Y-104529527D01*
X99659286Y-104574340D01*
X99569660Y-104619152D01*
X99390409Y-104619152D01*
X99300783Y-104663965D01*
X99255970Y-104708778D01*
X99211158Y-104798404D01*
X99211158Y-104977655D01*
X99255970Y-105067281D01*
X99300783Y-105112094D01*
X99390409Y-105156907D01*
X99569660Y-105156907D01*
X99659286Y-105112094D01*
X99704099Y-105067281D01*
X99748912Y-104977655D01*
X99748912Y-104798404D01*
X99704099Y-104708778D01*
X99659286Y-104663965D01*
X99569660Y-104619152D01*
X100331479Y-104215837D02*
X100421105Y-104215837D01*
X100510730Y-104260650D01*
X100555543Y-104305462D01*
X100600356Y-104395088D01*
X100645169Y-104574340D01*
X100645169Y-104798404D01*
X100600356Y-104977655D01*
X100555543Y-105067281D01*
X100510730Y-105112094D01*
X100421105Y-105156907D01*
X100331479Y-105156907D01*
X100241853Y-105112094D01*
X100197040Y-105067281D01*
X100152228Y-104977655D01*
X100107415Y-104798404D01*
X100107415Y-104574340D01*
X100152228Y-104395088D01*
X100197040Y-104305462D01*
X100241853Y-104260650D01*
X100331479Y-104215837D01*
%TO.C,R3*%
X143044288Y-108442227D02*
X142730598Y-107994098D01*
X142506533Y-108442227D02*
X142506533Y-107501157D01*
X142865036Y-107501157D01*
X142954662Y-107545970D01*
X142999475Y-107590782D01*
X143044288Y-107680408D01*
X143044288Y-107814847D01*
X142999475Y-107904472D01*
X142954662Y-107949285D01*
X142865036Y-107994098D01*
X142506533Y-107994098D01*
X143357978Y-107501157D02*
X143940545Y-107501157D01*
X143626855Y-107859660D01*
X143761293Y-107859660D01*
X143850919Y-107904472D01*
X143895732Y-107949285D01*
X143940545Y-108038911D01*
X143940545Y-108262975D01*
X143895732Y-108352601D01*
X143850919Y-108397414D01*
X143761293Y-108442227D01*
X143492416Y-108442227D01*
X143402790Y-108397414D01*
X143357978Y-108352601D01*
X142445755Y-104164867D02*
X141908000Y-104164867D01*
X142176878Y-104164867D02*
X142176878Y-103223797D01*
X142087252Y-103358235D01*
X141997626Y-103447861D01*
X141908000Y-103492674D01*
X142849070Y-104164867D02*
X142849070Y-103223797D01*
X142938696Y-103806364D02*
X143207573Y-104164867D01*
X143207573Y-103537487D02*
X142849070Y-103895990D01*
X143566076Y-104164867D02*
X143790140Y-104164867D01*
X143790140Y-103985615D01*
X143700515Y-103940802D01*
X143610889Y-103851177D01*
X143566076Y-103716738D01*
X143566076Y-103492674D01*
X143610889Y-103358235D01*
X143700515Y-103268610D01*
X143834953Y-103223797D01*
X144014205Y-103223797D01*
X144148643Y-103268610D01*
X144238269Y-103358235D01*
X144283082Y-103492674D01*
X144283082Y-103716738D01*
X144238269Y-103851177D01*
X144148643Y-103940802D01*
X144059018Y-103985615D01*
X144059018Y-104164867D01*
X144283082Y-104164867D01*
%TO.C,R4*%
X142991868Y-102708347D02*
X142678178Y-102260218D01*
X142454113Y-102708347D02*
X142454113Y-101767277D01*
X142812616Y-101767277D01*
X142902242Y-101812090D01*
X142947055Y-101856902D01*
X142991868Y-101946528D01*
X142991868Y-102080967D01*
X142947055Y-102170592D01*
X142902242Y-102215405D01*
X142812616Y-102260218D01*
X142454113Y-102260218D01*
X143798499Y-102080967D02*
X143798499Y-102708347D01*
X143574435Y-101722464D02*
X143350370Y-102394657D01*
X143932938Y-102394657D01*
X142210455Y-106899347D02*
X141672700Y-106899347D01*
X141941578Y-106899347D02*
X141941578Y-105958277D01*
X141851952Y-106092715D01*
X141762326Y-106182341D01*
X141672700Y-106227154D01*
X142793022Y-105958277D02*
X142882648Y-105958277D01*
X142972273Y-106003090D01*
X143017086Y-106047902D01*
X143061899Y-106137528D01*
X143106712Y-106316780D01*
X143106712Y-106540844D01*
X143061899Y-106720095D01*
X143017086Y-106809721D01*
X142972273Y-106854534D01*
X142882648Y-106899347D01*
X142793022Y-106899347D01*
X142703396Y-106854534D01*
X142658583Y-106809721D01*
X142613770Y-106720095D01*
X142568958Y-106540844D01*
X142568958Y-106316780D01*
X142613770Y-106137528D01*
X142658583Y-106047902D01*
X142703396Y-106003090D01*
X142793022Y-105958277D01*
X143510028Y-106899347D02*
X143510028Y-105958277D01*
X143599653Y-106540844D02*
X143868530Y-106899347D01*
X143868530Y-106271967D02*
X143510028Y-106630470D01*
X144227033Y-106899347D02*
X144451098Y-106899347D01*
X144451098Y-106720095D01*
X144361472Y-106675282D01*
X144271846Y-106585657D01*
X144227033Y-106451218D01*
X144227033Y-106227154D01*
X144271846Y-106092715D01*
X144361472Y-106003090D01*
X144495910Y-105958277D01*
X144675162Y-105958277D01*
X144809600Y-106003090D01*
X144899226Y-106092715D01*
X144944039Y-106227154D01*
X144944039Y-106451218D01*
X144899226Y-106585657D01*
X144809600Y-106675282D01*
X144719975Y-106720095D01*
X144719975Y-106899347D01*
X144944039Y-106899347D01*
%TO.C,R5*%
X110342708Y-103404307D02*
X110029018Y-102956178D01*
X109804953Y-103404307D02*
X109804953Y-102463237D01*
X110163456Y-102463237D01*
X110253082Y-102508050D01*
X110297895Y-102552862D01*
X110342708Y-102642488D01*
X110342708Y-102776927D01*
X110297895Y-102866552D01*
X110253082Y-102911365D01*
X110163456Y-102956178D01*
X109804953Y-102956178D01*
X111194152Y-102463237D02*
X110746023Y-102463237D01*
X110701210Y-102911365D01*
X110746023Y-102866552D01*
X110835649Y-102821740D01*
X111059713Y-102821740D01*
X111149339Y-102866552D01*
X111194152Y-102911365D01*
X111238965Y-103000991D01*
X111238965Y-103225055D01*
X111194152Y-103314681D01*
X111149339Y-103359494D01*
X111059713Y-103404307D01*
X110835649Y-103404307D01*
X110746023Y-103359494D01*
X110701210Y-103314681D01*
X108547109Y-104119317D02*
X108367858Y-104119317D01*
X108278232Y-104164130D01*
X108233419Y-104208942D01*
X108143793Y-104343381D01*
X108098980Y-104522632D01*
X108098980Y-104881135D01*
X108143793Y-104970761D01*
X108188606Y-105015574D01*
X108278232Y-105060387D01*
X108457483Y-105060387D01*
X108547109Y-105015574D01*
X108591922Y-104970761D01*
X108636735Y-104881135D01*
X108636735Y-104657071D01*
X108591922Y-104567445D01*
X108547109Y-104522632D01*
X108457483Y-104477820D01*
X108278232Y-104477820D01*
X108188606Y-104522632D01*
X108143793Y-104567445D01*
X108098980Y-104657071D01*
X109174489Y-104522632D02*
X109084863Y-104477820D01*
X109040050Y-104433007D01*
X108995238Y-104343381D01*
X108995238Y-104298568D01*
X109040050Y-104208942D01*
X109084863Y-104164130D01*
X109174489Y-104119317D01*
X109353740Y-104119317D01*
X109443366Y-104164130D01*
X109488179Y-104208942D01*
X109532992Y-104298568D01*
X109532992Y-104343381D01*
X109488179Y-104433007D01*
X109443366Y-104477820D01*
X109353740Y-104522632D01*
X109174489Y-104522632D01*
X109084863Y-104567445D01*
X109040050Y-104612258D01*
X108995238Y-104701884D01*
X108995238Y-104881135D01*
X109040050Y-104970761D01*
X109084863Y-105015574D01*
X109174489Y-105060387D01*
X109353740Y-105060387D01*
X109443366Y-105015574D01*
X109488179Y-104970761D01*
X109532992Y-104881135D01*
X109532992Y-104701884D01*
X109488179Y-104612258D01*
X109443366Y-104567445D01*
X109353740Y-104522632D01*
X110115559Y-104119317D02*
X110205185Y-104119317D01*
X110294810Y-104164130D01*
X110339623Y-104208942D01*
X110384436Y-104298568D01*
X110429249Y-104477820D01*
X110429249Y-104701884D01*
X110384436Y-104881135D01*
X110339623Y-104970761D01*
X110294810Y-105015574D01*
X110205185Y-105060387D01*
X110115559Y-105060387D01*
X110025933Y-105015574D01*
X109981120Y-104970761D01*
X109936308Y-104881135D01*
X109891495Y-104701884D01*
X109891495Y-104477820D01*
X109936308Y-104298568D01*
X109981120Y-104208942D01*
X110025933Y-104164130D01*
X110115559Y-104119317D01*
%TO.C,SV1*%
D22*
X93716623Y-84210897D02*
X93761861Y-84075183D01*
X93761861Y-83848992D01*
X93716623Y-83758516D01*
X93671385Y-83713278D01*
X93580909Y-83668040D01*
X93490433Y-83668040D01*
X93399957Y-83713278D01*
X93354719Y-83758516D01*
X93309480Y-83848992D01*
X93264242Y-84029945D01*
X93219004Y-84120421D01*
X93173766Y-84165659D01*
X93083290Y-84210897D01*
X92992814Y-84210897D01*
X92902338Y-84165659D01*
X92857100Y-84120421D01*
X92811861Y-84029945D01*
X92811861Y-83803754D01*
X92857100Y-83668040D01*
X92811861Y-83396611D02*
X93761861Y-83079945D01*
X92811861Y-82763278D01*
X93761861Y-81948992D02*
X93761861Y-82491850D01*
X93761861Y-82220421D02*
X92811861Y-82220421D01*
X92947576Y-82310897D01*
X93038052Y-82401373D01*
X93083290Y-82491850D01*
D12*
X99267312Y-76294040D02*
X99209860Y-76236588D01*
X99152407Y-76121683D01*
X99152407Y-75834421D01*
X99209860Y-75719516D01*
X99267312Y-75662064D01*
X99382217Y-75604611D01*
X99497121Y-75604611D01*
X99669479Y-75662064D01*
X100358907Y-76351492D01*
X100358907Y-75604611D01*
X97773187Y-75604611D02*
X97773187Y-76294040D01*
X97773187Y-75949326D02*
X96566687Y-75949326D01*
X96739044Y-76064230D01*
X96853949Y-76179135D01*
X96911401Y-76294040D01*
X95771667Y-83493851D02*
X95771667Y-84183280D01*
X95771667Y-83838566D02*
X94565167Y-83838566D01*
X94737524Y-83953470D01*
X94852429Y-84068375D01*
X94909881Y-84183280D01*
X94565167Y-82746970D02*
X94565167Y-82632066D01*
X94622620Y-82517161D01*
X94680072Y-82459709D01*
X94794977Y-82402256D01*
X95024786Y-82344804D01*
X95312048Y-82344804D01*
X95541858Y-82402256D01*
X95656762Y-82459709D01*
X95714215Y-82517161D01*
X95771667Y-82632066D01*
X95771667Y-82746970D01*
X95714215Y-82861875D01*
X95656762Y-82919328D01*
X95541858Y-82976780D01*
X95312048Y-83034232D01*
X95024786Y-83034232D01*
X94794977Y-82976780D01*
X94680072Y-82919328D01*
X94622620Y-82861875D01*
X94565167Y-82746970D01*
%TO.C,SWITCH*%
D19*
X183234339Y-74893038D02*
X183270529Y-74784466D01*
X183270529Y-74603514D01*
X183234339Y-74531133D01*
X183198148Y-74494942D01*
X183125767Y-74458752D01*
X183053386Y-74458752D01*
X182981005Y-74494942D01*
X182944815Y-74531133D01*
X182908624Y-74603514D01*
X182872434Y-74748276D01*
X182836243Y-74820657D01*
X182800053Y-74856847D01*
X182727672Y-74893038D01*
X182655291Y-74893038D01*
X182582910Y-74856847D01*
X182546720Y-74820657D01*
X182510529Y-74748276D01*
X182510529Y-74567323D01*
X182546720Y-74458752D01*
X182510529Y-74205419D02*
X183270529Y-74024466D01*
X182727672Y-73879704D01*
X183270529Y-73734942D01*
X182510529Y-73553990D01*
X183270529Y-73264466D02*
X182510529Y-73264466D01*
X182510529Y-73011133D02*
X182510529Y-72576847D01*
X183270529Y-72793990D02*
X182510529Y-72793990D01*
X183198148Y-71889228D02*
X183234339Y-71925419D01*
X183270529Y-72033990D01*
X183270529Y-72106371D01*
X183234339Y-72214942D01*
X183161958Y-72287323D01*
X183089577Y-72323514D01*
X182944815Y-72359704D01*
X182836243Y-72359704D01*
X182691481Y-72323514D01*
X182619100Y-72287323D01*
X182546720Y-72214942D01*
X182510529Y-72106371D01*
X182510529Y-72033990D01*
X182546720Y-71925419D01*
X182582910Y-71889228D01*
X183270529Y-71563514D02*
X182510529Y-71563514D01*
X182872434Y-71563514D02*
X182872434Y-71129228D01*
X183270529Y-71129228D02*
X182510529Y-71129228D01*
%TO.C,THRU+*%
D17*
X102940994Y-117525558D02*
X103492537Y-117525558D01*
X103216765Y-118490758D02*
X103216765Y-117525558D01*
X103814270Y-118490758D02*
X103814270Y-117525558D01*
X103814270Y-117985177D02*
X104365813Y-117985177D01*
X104365813Y-118490758D02*
X104365813Y-117525558D01*
X105376975Y-118490758D02*
X105055241Y-118031139D01*
X104825432Y-118490758D02*
X104825432Y-117525558D01*
X105193127Y-117525558D01*
X105285051Y-117571520D01*
X105331013Y-117617481D01*
X105376975Y-117709405D01*
X105376975Y-117847291D01*
X105331013Y-117939215D01*
X105285051Y-117985177D01*
X105193127Y-118031139D01*
X104825432Y-118031139D01*
X105790632Y-117525558D02*
X105790632Y-118306910D01*
X105836594Y-118398834D01*
X105882556Y-118444796D01*
X105974479Y-118490758D01*
X106158327Y-118490758D01*
X106250251Y-118444796D01*
X106296213Y-118398834D01*
X106342175Y-118306910D01*
X106342175Y-117525558D01*
X106801794Y-118123062D02*
X107537184Y-118123062D01*
X107169489Y-118490758D02*
X107169489Y-117755367D01*
%TO.C,THRU*%
D19*
X182510529Y-83352499D02*
X182510529Y-82918213D01*
X183270529Y-83135356D02*
X182510529Y-83135356D01*
X183270529Y-82664880D02*
X182510529Y-82664880D01*
X182872434Y-82664880D02*
X182872434Y-82230594D01*
X183270529Y-82230594D02*
X182510529Y-82230594D01*
X183270529Y-81434403D02*
X182908624Y-81687737D01*
X183270529Y-81868689D02*
X182510529Y-81868689D01*
X182510529Y-81579165D01*
X182546720Y-81506784D01*
X182582910Y-81470594D01*
X182655291Y-81434403D01*
X182763862Y-81434403D01*
X182836243Y-81470594D01*
X182872434Y-81506784D01*
X182908624Y-81579165D01*
X182908624Y-81868689D01*
X182510529Y-81108689D02*
X183125767Y-81108689D01*
X183198148Y-81072499D01*
X183234339Y-81036308D01*
X183270529Y-80963927D01*
X183270529Y-80819165D01*
X183234339Y-80746784D01*
X183198148Y-80710594D01*
X183125767Y-80674403D01*
X182510529Y-80674403D01*
%TO.C,TLP1*%
D23*
X187524038Y-131128980D02*
X187795466Y-131128980D01*
X187659752Y-131603980D02*
X187659752Y-131128980D01*
X188179990Y-131603980D02*
X187953800Y-131603980D01*
X187953800Y-131128980D01*
X188338323Y-131603980D02*
X188338323Y-131128980D01*
X188519276Y-131128980D01*
X188564514Y-131151600D01*
X188587133Y-131174219D01*
X188609752Y-131219457D01*
X188609752Y-131287314D01*
X188587133Y-131332552D01*
X188564514Y-131355171D01*
X188519276Y-131377790D01*
X188338323Y-131377790D01*
X189062133Y-131603980D02*
X188790704Y-131603980D01*
X188926419Y-131603980D02*
X188926419Y-131128980D01*
X188881180Y-131196838D01*
X188835942Y-131242076D01*
X188790704Y-131264695D01*
%TO.C,IRLB3813*%
D24*
X130601199Y-122263867D02*
X130601199Y-121057367D01*
X131865152Y-122263867D02*
X131462985Y-121689343D01*
X131175723Y-122263867D02*
X131175723Y-121057367D01*
X131635342Y-121057367D01*
X131750247Y-121114820D01*
X131807699Y-121172272D01*
X131865152Y-121287177D01*
X131865152Y-121459534D01*
X131807699Y-121574439D01*
X131750247Y-121631891D01*
X131635342Y-121689343D01*
X131175723Y-121689343D01*
X132956747Y-122263867D02*
X132382223Y-122263867D01*
X132382223Y-121057367D01*
X133761080Y-121631891D02*
X133933438Y-121689343D01*
X133990890Y-121746796D01*
X134048342Y-121861700D01*
X134048342Y-122034058D01*
X133990890Y-122148962D01*
X133933438Y-122206415D01*
X133818533Y-122263867D01*
X133358914Y-122263867D01*
X133358914Y-121057367D01*
X133761080Y-121057367D01*
X133875985Y-121114820D01*
X133933438Y-121172272D01*
X133990890Y-121287177D01*
X133990890Y-121402081D01*
X133933438Y-121516986D01*
X133875985Y-121574439D01*
X133761080Y-121631891D01*
X133358914Y-121631891D01*
X134450509Y-121057367D02*
X135197390Y-121057367D01*
X134795223Y-121516986D01*
X134967580Y-121516986D01*
X135082485Y-121574439D01*
X135139938Y-121631891D01*
X135197390Y-121746796D01*
X135197390Y-122034058D01*
X135139938Y-122148962D01*
X135082485Y-122206415D01*
X134967580Y-122263867D01*
X134622866Y-122263867D01*
X134507961Y-122206415D01*
X134450509Y-122148962D01*
X135886818Y-121574439D02*
X135771914Y-121516986D01*
X135714461Y-121459534D01*
X135657009Y-121344629D01*
X135657009Y-121287177D01*
X135714461Y-121172272D01*
X135771914Y-121114820D01*
X135886818Y-121057367D01*
X136116628Y-121057367D01*
X136231533Y-121114820D01*
X136288985Y-121172272D01*
X136346438Y-121287177D01*
X136346438Y-121344629D01*
X136288985Y-121459534D01*
X136231533Y-121516986D01*
X136116628Y-121574439D01*
X135886818Y-121574439D01*
X135771914Y-121631891D01*
X135714461Y-121689343D01*
X135657009Y-121804248D01*
X135657009Y-122034058D01*
X135714461Y-122148962D01*
X135771914Y-122206415D01*
X135886818Y-122263867D01*
X136116628Y-122263867D01*
X136231533Y-122206415D01*
X136288985Y-122148962D01*
X136346438Y-122034058D01*
X136346438Y-121804248D01*
X136288985Y-121689343D01*
X136231533Y-121631891D01*
X136116628Y-121574439D01*
X137495485Y-122263867D02*
X136806057Y-122263867D01*
X137150771Y-122263867D02*
X137150771Y-121057367D01*
X137035866Y-121229724D01*
X136920961Y-121344629D01*
X136806057Y-121402081D01*
X137897652Y-121057367D02*
X138644533Y-121057367D01*
X138242366Y-121516986D01*
X138414723Y-121516986D01*
X138529628Y-121574439D01*
X138587080Y-121631891D01*
X138644533Y-121746796D01*
X138644533Y-122034058D01*
X138587080Y-122148962D01*
X138529628Y-122206415D01*
X138414723Y-122263867D01*
X138070009Y-122263867D01*
X137955104Y-122206415D01*
X137897652Y-122148962D01*
X130601199Y-80237027D02*
X130601199Y-79030527D01*
X131865152Y-80237027D02*
X131462985Y-79662503D01*
X131175723Y-80237027D02*
X131175723Y-79030527D01*
X131635342Y-79030527D01*
X131750247Y-79087980D01*
X131807699Y-79145432D01*
X131865152Y-79260337D01*
X131865152Y-79432694D01*
X131807699Y-79547599D01*
X131750247Y-79605051D01*
X131635342Y-79662503D01*
X131175723Y-79662503D01*
X132956747Y-80237027D02*
X132382223Y-80237027D01*
X132382223Y-79030527D01*
X133761080Y-79605051D02*
X133933438Y-79662503D01*
X133990890Y-79719956D01*
X134048342Y-79834860D01*
X134048342Y-80007218D01*
X133990890Y-80122122D01*
X133933438Y-80179575D01*
X133818533Y-80237027D01*
X133358914Y-80237027D01*
X133358914Y-79030527D01*
X133761080Y-79030527D01*
X133875985Y-79087980D01*
X133933438Y-79145432D01*
X133990890Y-79260337D01*
X133990890Y-79375241D01*
X133933438Y-79490146D01*
X133875985Y-79547599D01*
X133761080Y-79605051D01*
X133358914Y-79605051D01*
X134450509Y-79030527D02*
X135197390Y-79030527D01*
X134795223Y-79490146D01*
X134967580Y-79490146D01*
X135082485Y-79547599D01*
X135139938Y-79605051D01*
X135197390Y-79719956D01*
X135197390Y-80007218D01*
X135139938Y-80122122D01*
X135082485Y-80179575D01*
X134967580Y-80237027D01*
X134622866Y-80237027D01*
X134507961Y-80179575D01*
X134450509Y-80122122D01*
X135886818Y-79547599D02*
X135771914Y-79490146D01*
X135714461Y-79432694D01*
X135657009Y-79317789D01*
X135657009Y-79260337D01*
X135714461Y-79145432D01*
X135771914Y-79087980D01*
X135886818Y-79030527D01*
X136116628Y-79030527D01*
X136231533Y-79087980D01*
X136288985Y-79145432D01*
X136346438Y-79260337D01*
X136346438Y-79317789D01*
X136288985Y-79432694D01*
X136231533Y-79490146D01*
X136116628Y-79547599D01*
X135886818Y-79547599D01*
X135771914Y-79605051D01*
X135714461Y-79662503D01*
X135657009Y-79777408D01*
X135657009Y-80007218D01*
X135714461Y-80122122D01*
X135771914Y-80179575D01*
X135886818Y-80237027D01*
X136116628Y-80237027D01*
X136231533Y-80179575D01*
X136288985Y-80122122D01*
X136346438Y-80007218D01*
X136346438Y-79777408D01*
X136288985Y-79662503D01*
X136231533Y-79605051D01*
X136116628Y-79547599D01*
X137495485Y-80237027D02*
X136806057Y-80237027D01*
X137150771Y-80237027D02*
X137150771Y-79030527D01*
X137035866Y-79202884D01*
X136920961Y-79317789D01*
X136806057Y-79375241D01*
X137897652Y-79030527D02*
X138644533Y-79030527D01*
X138242366Y-79490146D01*
X138414723Y-79490146D01*
X138529628Y-79547599D01*
X138587080Y-79605051D01*
X138644533Y-79719956D01*
X138644533Y-80007218D01*
X138587080Y-80122122D01*
X138529628Y-80179575D01*
X138414723Y-80237027D01*
X138070009Y-80237027D01*
X137955104Y-80179575D01*
X137897652Y-80122122D01*
%TO.C,EDGE1*%
X121230571Y-140117080D02*
X121230571Y-139714913D01*
X121862547Y-139542556D02*
X121862547Y-140117080D01*
X120656047Y-140117080D01*
X120656047Y-139542556D01*
X121862547Y-139025484D02*
X120656047Y-139025484D01*
X120656047Y-138738222D01*
X120713500Y-138565865D01*
X120828404Y-138450961D01*
X120943309Y-138393508D01*
X121173119Y-138336056D01*
X121345476Y-138336056D01*
X121575285Y-138393508D01*
X121690190Y-138450961D01*
X121805095Y-138565865D01*
X121862547Y-138738222D01*
X121862547Y-139025484D01*
X120713500Y-137187008D02*
X120656047Y-137301913D01*
X120656047Y-137474270D01*
X120713500Y-137646627D01*
X120828404Y-137761532D01*
X120943309Y-137818984D01*
X121173119Y-137876437D01*
X121345476Y-137876437D01*
X121575285Y-137818984D01*
X121690190Y-137761532D01*
X121805095Y-137646627D01*
X121862547Y-137474270D01*
X121862547Y-137359365D01*
X121805095Y-137187008D01*
X121747642Y-137129556D01*
X121345476Y-137129556D01*
X121345476Y-137359365D01*
X121230571Y-136612484D02*
X121230571Y-136210318D01*
X121862547Y-136037961D02*
X121862547Y-136612484D01*
X120656047Y-136612484D01*
X120656047Y-136037961D01*
X121862547Y-134888913D02*
X121862547Y-135578342D01*
X121862547Y-135233627D02*
X120656047Y-135233627D01*
X120828404Y-135348532D01*
X120943309Y-135463437D01*
X121000761Y-135578342D01*
%TO.C,EDGE2*%
X121230571Y-116876080D02*
X121230571Y-116473913D01*
X121862547Y-116301556D02*
X121862547Y-116876080D01*
X120656047Y-116876080D01*
X120656047Y-116301556D01*
X121862547Y-115784484D02*
X120656047Y-115784484D01*
X120656047Y-115497222D01*
X120713500Y-115324865D01*
X120828404Y-115209961D01*
X120943309Y-115152508D01*
X121173119Y-115095056D01*
X121345476Y-115095056D01*
X121575285Y-115152508D01*
X121690190Y-115209961D01*
X121805095Y-115324865D01*
X121862547Y-115497222D01*
X121862547Y-115784484D01*
X120713500Y-113946008D02*
X120656047Y-114060913D01*
X120656047Y-114233270D01*
X120713500Y-114405627D01*
X120828404Y-114520532D01*
X120943309Y-114577984D01*
X121173119Y-114635437D01*
X121345476Y-114635437D01*
X121575285Y-114577984D01*
X121690190Y-114520532D01*
X121805095Y-114405627D01*
X121862547Y-114233270D01*
X121862547Y-114118365D01*
X121805095Y-113946008D01*
X121747642Y-113888556D01*
X121345476Y-113888556D01*
X121345476Y-114118365D01*
X121230571Y-113371484D02*
X121230571Y-112969318D01*
X121862547Y-112796961D02*
X121862547Y-113371484D01*
X120656047Y-113371484D01*
X120656047Y-112796961D01*
X120770952Y-112337342D02*
X120713500Y-112279889D01*
X120656047Y-112164984D01*
X120656047Y-111877722D01*
X120713500Y-111762818D01*
X120770952Y-111705365D01*
X120885857Y-111647913D01*
X121000761Y-111647913D01*
X121173119Y-111705365D01*
X121862547Y-112394794D01*
X121862547Y-111647913D01*
%TO.C,EDGE3*%
X121230571Y-98110560D02*
X121230571Y-97708393D01*
X121862547Y-97536036D02*
X121862547Y-98110560D01*
X120656047Y-98110560D01*
X120656047Y-97536036D01*
X121862547Y-97018964D02*
X120656047Y-97018964D01*
X120656047Y-96731702D01*
X120713500Y-96559345D01*
X120828404Y-96444441D01*
X120943309Y-96386988D01*
X121173119Y-96329536D01*
X121345476Y-96329536D01*
X121575285Y-96386988D01*
X121690190Y-96444441D01*
X121805095Y-96559345D01*
X121862547Y-96731702D01*
X121862547Y-97018964D01*
X120713500Y-95180488D02*
X120656047Y-95295393D01*
X120656047Y-95467750D01*
X120713500Y-95640107D01*
X120828404Y-95755012D01*
X120943309Y-95812464D01*
X121173119Y-95869917D01*
X121345476Y-95869917D01*
X121575285Y-95812464D01*
X121690190Y-95755012D01*
X121805095Y-95640107D01*
X121862547Y-95467750D01*
X121862547Y-95352845D01*
X121805095Y-95180488D01*
X121747642Y-95123036D01*
X121345476Y-95123036D01*
X121345476Y-95352845D01*
X121230571Y-94605964D02*
X121230571Y-94203798D01*
X121862547Y-94031441D02*
X121862547Y-94605964D01*
X120656047Y-94605964D01*
X120656047Y-94031441D01*
X120656047Y-93629274D02*
X120656047Y-92882393D01*
X121115666Y-93284560D01*
X121115666Y-93112202D01*
X121173119Y-92997298D01*
X121230571Y-92939845D01*
X121345476Y-92882393D01*
X121632738Y-92882393D01*
X121747642Y-92939845D01*
X121805095Y-92997298D01*
X121862547Y-93112202D01*
X121862547Y-93456917D01*
X121805095Y-93571822D01*
X121747642Y-93629274D01*
%TO.C,EDGE4*%
X121230571Y-74925440D02*
X121230571Y-74523273D01*
X121862547Y-74350916D02*
X121862547Y-74925440D01*
X120656047Y-74925440D01*
X120656047Y-74350916D01*
X121862547Y-73833844D02*
X120656047Y-73833844D01*
X120656047Y-73546582D01*
X120713500Y-73374225D01*
X120828404Y-73259321D01*
X120943309Y-73201868D01*
X121173119Y-73144416D01*
X121345476Y-73144416D01*
X121575285Y-73201868D01*
X121690190Y-73259321D01*
X121805095Y-73374225D01*
X121862547Y-73546582D01*
X121862547Y-73833844D01*
X120713500Y-71995368D02*
X120656047Y-72110273D01*
X120656047Y-72282630D01*
X120713500Y-72454987D01*
X120828404Y-72569892D01*
X120943309Y-72627344D01*
X121173119Y-72684797D01*
X121345476Y-72684797D01*
X121575285Y-72627344D01*
X121690190Y-72569892D01*
X121805095Y-72454987D01*
X121862547Y-72282630D01*
X121862547Y-72167725D01*
X121805095Y-71995368D01*
X121747642Y-71937916D01*
X121345476Y-71937916D01*
X121345476Y-72167725D01*
X121230571Y-71420844D02*
X121230571Y-71018678D01*
X121862547Y-70846321D02*
X121862547Y-71420844D01*
X120656047Y-71420844D01*
X120656047Y-70846321D01*
X121058214Y-69812178D02*
X121862547Y-69812178D01*
X120598595Y-70099440D02*
X121460380Y-70386702D01*
X121460380Y-69639821D01*
%TD*%
M02*
