M48
; DRILL file {KiCad 7.0.1} date Mon Mar 27 08:56:59 2023
; FORMAT={-:-/ absolute / inch / decimal}
; #@! TF.CreationDate,2023-03-27T08:56:59+09:00
; #@! TF.GenerationSoftware,Kicad,Pcbnew,7.0.1
; #@! TF.FileFunction,MixedPlating,1,4
FMAT,2
INCH
; #@! TA.AperFunction,Plated,PTH,ViaDrill
T1C0.0118
; #@! TA.AperFunction,Plated,PTH,ViaDrill
T2C0.0120
; #@! TA.AperFunction,Plated,PTH,ViaDrill
T3C0.0122
; #@! TA.AperFunction,Plated,PTH,ViaDrill
T4C0.0126
; #@! TA.AperFunction,Plated,PTH,ViaDrill
T5C0.0130
; #@! TA.AperFunction,Plated,PTH,ViaDrill
T6C0.0138
; #@! TA.AperFunction,Plated,PTH,ViaDrill
T7C0.0157
; #@! TA.AperFunction,Plated,PTH,ViaDrill
T8C0.0177
; #@! TA.AperFunction,Plated,PTH,ViaDrill
T9C0.0197
; #@! TA.AperFunction,Plated,PTH,ComponentDrill
T10C0.0236
; #@! TA.AperFunction,Plated,PTH,ComponentDrill
T11C0.0315
; #@! TA.AperFunction,Plated,PTH,ComponentDrill
T12C0.0354
; #@! TA.AperFunction,Plated,PTH,ViaDrill
T13C0.0394
; #@! TA.AperFunction,Plated,PTH,ComponentDrill
T14C0.0394
; #@! TA.AperFunction,Plated,PTH,ComponentDrill
T15C0.0400
; #@! TA.AperFunction,Plated,PTH,ComponentDrill
T16C0.0429
; #@! TA.AperFunction,Plated,PTH,ComponentDrill
T17C0.0433
; #@! TA.AperFunction,Plated,PTH,ComponentDrill
T18C0.0512
; #@! TA.AperFunction,Plated,PTH,ComponentDrill
T19C0.0697
; #@! TA.AperFunction,Plated,PTH,ComponentDrill
T20C0.1142
; #@! TA.AperFunction,Plated,PTH,ComponentDrill
T21C0.1259
; #@! TA.AperFunction,Plated,PTH,ComponentDrill
T22C0.1614
; #@! TA.AperFunction,NonPlated,NPTH,ComponentDrill
T23C0.0236
; #@! TA.AperFunction,NonPlated,NPTH,ComponentDrill
T24C0.1260
; #@! TA.AperFunction,NonPlated,NPTH,ComponentDrill
T25C0.1280
%
G90
G05
T1
X5.55Y-1.55
X5.75Y-1.55
X5.75Y-1.75
X6.0Y-1.75
X6.1Y-1.55
X6.3Y-1.75
X6.4Y-1.55
X6.4Y-1.95
X6.6Y-1.95
X6.65Y-1.55
X6.7Y-1.75
X7.05Y-2.125
X7.525Y-1.975
X7.65Y-2.4
X7.875Y-2.05
X7.875Y-2.225
X7.875Y-2.4
T2
X5.7776Y-2.7757
X7.1367Y-1.6467
X7.4016Y-1.636
T3
X4.3961Y-3.2188
X4.4066Y-3.4661
X4.4209Y-3.2298
X7.3515Y-5.394
X7.3696Y-5.5616
T4
X7.0996Y-4.7037
X7.1433Y-4.7474
T5
X5.4374Y-2.7144
T6
X3.8792Y-4.8583
X3.8999Y-4.8738
X3.9626Y-4.7679
X4.0321Y-4.2522
X4.1146Y-6.3459
X4.1339Y-1.834
X4.1391Y-3.2677
X4.2126Y-3.2627
X4.2205Y-4.2509
X4.2481Y-3.3053
X4.3367Y-6.756
X4.3559Y-3.7415
X4.3563Y-4.7679
X4.37Y-3.351
X4.4099Y-4.2512
X4.4335Y-3.0194
X4.4426Y-6.4063
X4.4575Y-6.3852
X4.4729Y-3.4565
X4.4741Y-6.3655
X4.4745Y-6.4608
X4.4759Y-3.4055
X4.5119Y-3.9013
X4.5119Y-4.0005
X4.691Y-6.756
X4.8288Y-6.4608
X4.9075Y-2.0907
X4.9489Y-5.8053
X4.9504Y-2.7436
X4.951Y-5.9328
X4.9626Y-5.9765
X5.0126Y-2.7383
X5.0453Y-6.756
X5.0787Y-2.5202
X5.0788Y-3.2068
X5.1831Y-6.4608
X5.2689Y-2.7383
X5.313Y-2.7194
X5.3465Y-2.7994
X5.3874Y-2.7131
X5.3996Y-6.756
X5.4061Y-2.3066
X5.5374Y-6.4608
X5.5867Y-2.0907
X5.6181Y-5.947
X5.6186Y-5.8053
X5.6204Y-5.9759
X5.6634Y-3.7285
X5.7067Y-3.7305
X5.717Y-2.7273
X5.754Y-6.756
X5.7559Y-3.7226
X5.7789Y-2.6852
X5.7953Y-2.5553
X5.8052Y-2.5828
X5.8057Y-2.6068
X5.8111Y-2.8742
X5.8918Y-6.4608
X5.9056Y-2.81
X6.1024Y-2.8096
X6.1083Y-6.756
X6.2461Y-6.4608
X6.2874Y-5.8033
X6.4626Y-6.756
X6.6004Y-6.4608
X6.817Y-6.756
X6.8898Y-1.6541
X6.8898Y-1.8427
X6.8898Y-2.0375
X6.8898Y-2.1379
X6.8921Y-4.9453
X6.9016Y-4.6356
X6.9528Y-4.5099
X6.9548Y-6.4608
X6.9591Y-5.7875
X6.9603Y-1.9084
X6.9603Y-2.1045
X6.9604Y-1.7079
X6.9688Y-5.1293
X6.9701Y-3.6623
X6.9804Y-5.406
X6.9981Y-4.8986
X7.0079Y-4.8151
X7.0095Y-5.1588
X7.0394Y-4.5356
X7.0414Y-5.078
X7.0473Y-5.4612
X7.0672Y-2.7485
X7.0867Y-5.9883
X7.0937Y-5.1269
X7.0995Y-4.7442
X7.1024Y-4.5356
X7.1024Y-4.571
X7.1457Y-4.5356
X7.1556Y-5.0277
X7.1575Y-4.9356
X7.1642Y-5.9646
X7.1642Y-5.9938
X7.1713Y-6.756
X7.1811Y-5.1773
X7.1811Y-5.4391
X7.1835Y-5.7352
X7.1851Y-4.9356
X7.2059Y-5.2816
X7.2126Y-5.8112
X7.2146Y-4.9356
X7.2152Y-5.3234
X7.2402Y-5.4663
X7.2422Y-4.9356
X7.2644Y-5.7079
X7.2689Y-4.9923
X7.2726Y-5.5747
X7.2894Y-4.9706
X7.2973Y-3.6753
X7.2983Y-5.5759
X7.3166Y-5.6265
X7.3241Y-5.5773
X7.3268Y-3.6753
X7.3485Y-5.0277
X7.3502Y-5.5768
X7.3552Y-5.7482
X7.3563Y-3.6753
X7.3563Y-3.7049
X7.358Y-2.1253
X7.3725Y-2.1642
X7.376Y-5.1104
X7.3835Y-4.9734
X7.3878Y-5.0139
X7.4272Y-5.0297
X7.4311Y-5.3013
X7.441Y-5.1773
X7.441Y-5.4135
X7.4848Y-6.258
X7.5194Y-6.0927
X7.5197Y-6.0671
X7.5197Y-6.1222
X7.5197Y-6.1517
X7.5256Y-6.4608
X7.5256Y-6.756
X7.5351Y-2.1481
X7.5448Y-5.5752
X7.5467Y-6.027
X7.5648Y-1.7968
X7.5754Y-6.0514
X7.5778Y-2.0296
X7.5985Y-1.9903
X7.6024Y-5.9406
X7.6185Y-2.722
X7.6198Y-5.3446
X7.6221Y-5.2659
X7.6339Y-4.6163
X7.6339Y-5.1104
X7.6339Y-5.6304
X7.6339Y-5.9057
X7.6398Y-5.3647
X7.6429Y-2.0097
X7.6536Y-5.2836
X7.6564Y-5.8613
X7.6575Y-5.0868
X7.6645Y-5.427
X7.6713Y-5.3422
X7.6772Y-1.9096
X7.6772Y-1.9883
X7.7163Y-5.4881
X7.7559Y-5.1399
X7.7559Y-5.197
X7.7717Y-1.8997
X7.7804Y-2.0522
X7.7815Y-6.1064
X7.7953Y-5.6301
X7.7965Y-3.1407
X7.8032Y-1.9096
X7.815Y-4.9135
X7.8272Y-2.1458
X7.8603Y-5.9096
X7.8603Y-6.008
X7.88Y-4.9135
X7.88Y-6.1064
X7.88Y-6.4608
T7
X5.4863Y-2.3298
X7.2343Y-2.7226
T8
X7.6378Y-5.6025
T9
X4.0745Y-5.0368
X4.1358Y-3.7795
X4.1536Y-5.0368
X4.2708Y-3.6494
X4.9103Y-5.6427
X4.9689Y-6.0259
X4.9922Y-5.8163
X5.0473Y-4.4057
X5.0473Y-4.4844
X5.1063Y-4.4057
X5.1063Y-4.4844
X5.1654Y-4.4057
X5.1654Y-4.4844
X5.2179Y-2.7197
X5.3784Y-3.2088
X5.5771Y-5.643
X5.617Y-2.7064
X5.6363Y-3.1211
X5.6371Y-6.0259
X5.6552Y-5.8226
X5.7599Y-2.8721
X5.7638Y-3.8623
X5.7745Y-3.2246
X5.8016Y-3.723
X5.8071Y-2.6612
X5.8091Y-2.7466
X5.8159Y-2.9209
X5.8276Y-3.1159
X6.2494Y-5.6417
X6.3027Y-6.0258
X6.3237Y-5.8202
X6.8713Y-2.8422
X6.8841Y-2.96
X6.9181Y-5.6405
X6.9704Y-6.0256
X6.991Y-5.823
X7.0137Y-3.4844
X7.0137Y-3.5378
X7.0154Y-2.8739
X7.0156Y-5.9638
X7.0168Y-5.7955
X7.0534Y-2.816
X7.0764Y-3.2383
X7.1894Y-4.0064
X7.2241Y-3.9714
X7.2241Y-4.0064
X7.3591Y-4.5538
X7.4256Y-3.7268
X7.4853Y-3.7111
X7.4934Y-2.1931
X7.4953Y-4.9005
X7.5221Y-3.8978
X7.7441Y-5.6379
X7.7599Y-2.5789
X7.7953Y-2.2639
X7.8348Y-5.3937
X7.8351Y-5.079
X7.8386Y-5.6458
X7.872Y-4.6334
X7.872Y-4.6727
X7.872Y-4.7121
T10
X7.7309Y-4.3954
X7.7309Y-4.4454
X7.7309Y-4.4954
X7.7309Y-4.5454
X7.7309Y-4.5954
X7.7309Y-4.6454
X7.7309Y-4.6954
X7.7809Y-4.3954
X7.7809Y-4.4454
X7.7809Y-4.4954
X7.7809Y-4.5454
X7.7809Y-4.5954
X7.7809Y-4.6454
X7.7809Y-4.6954
T11
X4.7048Y-2.5261
X4.7048Y-2.6261
X4.7048Y-2.7261
T12
X4.2634Y-2.0017
X4.3536Y-2.0017
X4.393Y-1.7419
X4.4331Y-1.812
X4.4733Y-1.7419
X4.5134Y-1.812
X4.5536Y-1.7419
X4.5937Y-1.812
X4.6339Y-1.7419
X4.6741Y-1.812
X4.7134Y-2.0017
X4.8036Y-2.0017
X5.0311Y-2.0017
X5.1213Y-2.0017
X5.1607Y-1.7419
X5.2008Y-1.812
X5.241Y-1.7419
X5.2811Y-1.812
X5.3213Y-1.7419
X5.3615Y-1.812
X5.4016Y-1.7419
X5.4418Y-1.812
X5.4811Y-2.0017
X5.5713Y-2.0017
T13
X3.876Y-1.6336
X3.876Y-6.6336
X3.9054Y-1.5626
X3.9054Y-1.7046
X3.9054Y-6.5626
X3.9054Y-6.7046
X3.9764Y-1.5331
X3.9764Y-1.7341
X3.9764Y-6.5331
X3.9764Y-6.7341
X4.0475Y-1.5626
X4.0475Y-1.7046
X4.0475Y-6.5626
X4.0475Y-6.7046
X4.0769Y-1.6336
X4.0769Y-6.6336
X7.6161Y-1.6336
X7.6161Y-6.6336
X7.6455Y-1.5626
X7.6455Y-1.7046
X7.6455Y-6.5626
X7.6455Y-6.7046
X7.7166Y-1.5331
X7.7166Y-1.7341
X7.7166Y-6.5331
X7.7166Y-6.7341
X7.7876Y-1.5626
X7.7876Y-1.7046
X7.7876Y-6.5626
X7.7876Y-6.7046
X7.817Y-1.6336
X7.817Y-6.6336
T14
X3.9173Y-4.9773
X3.9173Y-5.0773
X3.9173Y-5.1773
X3.9173Y-5.2773
X3.9173Y-5.3773
X3.9173Y-5.6466
X3.9173Y-5.7466
X3.9173Y-5.8466
X3.9173Y-5.9466
X3.9173Y-6.0466
X3.9264Y-2.2639
X4.0264Y-2.2639
X4.252Y-4.9773
X4.252Y-5.0773
X4.252Y-5.1773
X4.252Y-5.2773
X4.252Y-5.3773
X4.252Y-5.6466
X4.252Y-5.7466
X4.252Y-5.8466
X4.252Y-5.9466
X4.252Y-6.0466
X4.2808Y-2.2639
X4.3808Y-2.2639
X5.693Y-5.1892
X5.693Y-5.3442
X7.3622Y-3.0407
X7.3622Y-3.1407
X7.3622Y-3.395
X7.3622Y-3.495
X7.6772Y-3.0407
X7.6772Y-3.1407
X7.6772Y-3.395
X7.6772Y-3.495
X7.7559Y-3.9521
X7.7559Y-4.0521
T15
X3.9067Y-1.9179
X4.0067Y-1.9179
X4.0308Y-2.8938
X4.0339Y-3.4057
X4.0339Y-3.9175
X4.0339Y-4.4293
X4.1308Y-2.8938
X4.1339Y-3.4057
X4.1339Y-3.9175
X4.1339Y-4.4293
X4.2308Y-2.8938
X4.2339Y-3.4057
X4.2339Y-3.9175
X4.2339Y-4.4293
X4.6174Y-2.3064
X4.7174Y-2.3064
X7.193Y-4.597
X7.193Y-4.697
X7.193Y-4.797
X7.2859Y-6.4604
X7.2859Y-6.5604
X7.3666Y-5.949
X7.4666Y-5.949
X7.4804Y-4.2974
X7.4804Y-4.3974
X7.4804Y-4.4974
X7.4804Y-4.5974
X7.4804Y-4.6974
X7.4804Y-4.7974
X7.7059Y-3.7423
X7.8059Y-3.7423
T16
X3.9764Y-2.5183
X3.9764Y-2.6183
X3.9764Y-2.7183
X4.3308Y-2.5183
X4.3308Y-2.6183
X4.3308Y-2.7183
T17
X3.88Y-3.1694
X3.88Y-3.6812
X3.88Y-4.1931
X3.88Y-4.7049
X3.9784Y-3.071
X3.9784Y-3.5828
X3.9784Y-4.0946
X3.9784Y-4.6064
X4.0768Y-3.1694
X4.0768Y-3.6812
X4.0768Y-4.1931
X4.0768Y-4.7049
X4.1989Y-3.1694
X4.1989Y-3.6812
X4.1989Y-4.1931
X4.1989Y-4.7049
X4.2973Y-3.071
X4.2973Y-3.5828
X4.2973Y-4.0946
X4.2973Y-4.6064
X4.3957Y-3.1694
X4.3957Y-3.6812
X4.3957Y-4.1931
X4.3957Y-4.7049
T18
X4.5851Y-3.1505
X4.5851Y-3.2505
X4.5851Y-3.3505
X4.5851Y-3.4505
X4.5851Y-3.5505
X4.5851Y-3.6505
X4.5851Y-3.7505
X4.5851Y-3.8505
X4.5851Y-3.9505
X4.5851Y-4.0505
X4.5851Y-4.1505
X4.5851Y-4.2505
X4.5851Y-4.3505
X4.5851Y-4.4505
X4.5851Y-4.5505
X4.5851Y-4.6505
X4.5851Y-4.7505
X4.5851Y-4.8505
X4.5851Y-4.9505
X4.5851Y-5.0505
X4.5851Y-5.1505
X4.5851Y-5.2505
X4.5851Y-5.3505
X4.5851Y-5.4505
X4.5851Y-5.5505
X4.7851Y-3.1505
X4.7851Y-3.2505
X4.7851Y-3.3505
X4.7851Y-3.4505
X4.7851Y-3.5505
X4.7851Y-3.6505
X4.7851Y-3.7505
X4.7851Y-3.8505
X4.7851Y-3.9505
X4.7851Y-4.0505
X4.7851Y-4.1505
X4.7851Y-4.2505
X4.7851Y-4.3505
X4.7851Y-4.4505
X4.7851Y-4.5505
X4.7851Y-4.6505
X4.7851Y-4.7505
X4.7851Y-4.8505
X4.7851Y-4.9505
X4.7851Y-5.0505
X4.7851Y-5.1505
X4.7851Y-5.2505
X4.7851Y-5.3505
X4.7851Y-5.4505
X4.7851Y-5.5505
X5.2544Y-3.1505
X5.2544Y-3.2505
X5.2544Y-3.3505
X5.2544Y-3.4505
X5.2544Y-3.5505
X5.2544Y-3.6505
X5.2544Y-3.7505
X5.2544Y-3.8505
X5.2544Y-3.9505
X5.2544Y-4.0505
X5.2544Y-4.1505
X5.2544Y-4.2505
X5.2544Y-4.3505
X5.2544Y-4.4505
X5.2544Y-4.5505
X5.2544Y-4.6505
X5.2544Y-4.7505
X5.2544Y-4.8505
X5.2544Y-4.9505
X5.2544Y-5.0505
X5.2544Y-5.1505
X5.2544Y-5.2505
X5.2544Y-5.3505
X5.2544Y-5.4505
X5.2544Y-5.5505
X5.4544Y-3.1505
X5.4544Y-3.2505
X5.4544Y-3.3505
X5.4544Y-3.4505
X5.4544Y-3.5505
X5.4544Y-3.6505
X5.4544Y-3.7505
X5.4544Y-3.8505
X5.4544Y-3.9505
X5.4544Y-4.0505
X5.4544Y-4.1505
X5.4544Y-4.2505
X5.4544Y-4.3505
X5.4544Y-4.4505
X5.4544Y-4.5505
X5.4544Y-4.6505
X5.4544Y-4.7505
X5.4544Y-4.8505
X5.4544Y-4.9505
X5.4544Y-5.0505
X5.4544Y-5.1505
X5.4544Y-5.2505
X5.4544Y-5.3505
X5.4544Y-5.4505
X5.4544Y-5.5505
X5.9237Y-3.1505
X5.9237Y-3.2505
X5.9237Y-3.3505
X5.9237Y-3.4505
X5.9237Y-3.5505
X5.9237Y-3.6505
X5.9237Y-3.7505
X5.9237Y-3.8505
X5.9237Y-3.9505
X5.9237Y-4.0505
X5.9237Y-4.1505
X5.9237Y-4.2505
X5.9237Y-4.3505
X5.9237Y-4.4505
X5.9237Y-4.5505
X5.9237Y-4.6505
X5.9237Y-4.7505
X5.9237Y-4.8505
X5.9237Y-4.9505
X5.9237Y-5.0505
X5.9237Y-5.1505
X5.9237Y-5.2505
X5.9237Y-5.3505
X5.9237Y-5.4505
X5.9237Y-5.5505
X6.1237Y-3.1505
X6.1237Y-3.2505
X6.1237Y-3.3505
X6.1237Y-3.4505
X6.1237Y-3.5505
X6.1237Y-3.6505
X6.1237Y-3.7505
X6.1237Y-3.8505
X6.1237Y-3.9505
X6.1237Y-4.0505
X6.1237Y-4.1505
X6.1237Y-4.2505
X6.1237Y-4.3505
X6.1237Y-4.4505
X6.1237Y-4.5505
X6.1237Y-4.6505
X6.1237Y-4.7505
X6.1237Y-4.8505
X6.1237Y-4.9505
X6.1237Y-5.0505
X6.1237Y-5.1505
X6.1237Y-5.2505
X6.1237Y-5.3505
X6.1237Y-5.4505
X6.1237Y-5.5505
X6.593Y-3.1505
X6.593Y-3.2505
X6.593Y-3.3505
X6.593Y-3.4505
X6.593Y-3.5505
X6.593Y-3.6505
X6.593Y-3.7505
X6.593Y-3.8505
X6.593Y-3.9505
X6.593Y-4.0505
X6.593Y-4.1505
X6.593Y-4.2505
X6.593Y-4.3505
X6.593Y-4.4505
X6.593Y-4.5505
X6.593Y-4.6505
X6.593Y-4.7505
X6.593Y-4.8505
X6.593Y-4.9505
X6.593Y-5.0505
X6.593Y-5.1505
X6.593Y-5.2505
X6.593Y-5.3505
X6.593Y-5.4505
X6.593Y-5.5505
X6.793Y-3.1505
X6.793Y-3.2505
X6.793Y-3.3505
X6.793Y-3.4505
X6.793Y-3.5505
X6.793Y-3.6505
X6.793Y-3.7505
X6.793Y-3.8505
X6.793Y-3.9505
X6.793Y-4.0505
X6.793Y-4.1505
X6.793Y-4.2505
X6.793Y-4.3505
X6.793Y-4.4505
X6.793Y-4.5505
X6.793Y-4.6505
X6.793Y-4.7505
X6.793Y-4.8505
X6.793Y-4.9505
X6.793Y-5.0505
X6.793Y-5.1505
X6.793Y-5.2505
X6.793Y-5.3505
X6.793Y-5.4505
X6.793Y-5.5505
T19
X6.3402Y-2.6694
X6.3402Y-2.8033
X6.7308Y-2.6694
X6.7308Y-2.8033
T20
X4.504Y-6.2403
X4.7874Y-6.2403
X5.2126Y-6.2403
X5.4961Y-6.2403
X5.9213Y-6.2403
X6.2048Y-6.2403
X6.63Y-6.2403
X6.9134Y-6.2403
T21
X3.9764Y-1.634
X3.9764Y-6.634
X7.7166Y-1.634
X7.7166Y-6.634
T22
X5.9272Y-2.3427
X6.3563Y-2.3427
X6.8709Y-2.4116
X7.3Y-2.4116
T23
X7.6642Y-6.1163
X7.6642Y-6.3438
T24
X3.9764Y-1.634
X3.9764Y-6.634
X7.7166Y-1.634
X7.7166Y-6.634
T25
X4.2835Y-1.6419
X4.7835Y-1.6419
X5.0512Y-1.6419
X5.5512Y-1.6419
T10
G00X7.6229Y-6.06
M15
G01X7.6662Y-6.06
M16
G05
G00X7.6229Y-6.4001
M15
G01X7.6662Y-6.4001
M16
G05
G00X7.7934Y-6.06
M15
G01X7.8248Y-6.06
M16
G05
G00X7.7934Y-6.4001
M15
G01X7.8248Y-6.4001
M16
G05
T11
G00X4.38Y-6.4982
M15
G01X4.38Y-6.4549
M16
G05
G00X4.9115Y-6.4982
M15
G01X4.9115Y-6.4549
M16
G05
G00X5.0886Y-6.4982
M15
G01X5.0886Y-6.4549
M16
G05
G00X5.6201Y-6.4982
M15
G01X5.6201Y-6.4549
M16
G05
G00X5.7697Y-1.9726
M15
G01X5.7697Y-2.012
M16
G05
G00X5.7973Y-6.4982
M15
G01X5.7973Y-6.4549
M16
G05
G00X6.3288Y-6.4982
M15
G01X6.3288Y-6.4549
M16
G05
G00X6.5059Y-6.4982
M15
G01X6.5059Y-6.4549
M16
G05
G00X6.5138Y-1.9726
M15
G01X6.5138Y-2.012
M16
G05
G00X6.7134Y-2.0218
M15
G01X6.7134Y-2.0612
M16
G05
G00X7.0374Y-6.4982
M15
G01X7.0374Y-6.4549
M16
G05
G00X7.4575Y-2.0218
M15
G01X7.4575Y-2.0612
M16
G05
T0
M30
