%TF.GenerationSoftware,KiCad,Pcbnew,7.0.1*%
%TF.CreationDate,2023-03-27T08:56:53+09:00*%
%TF.ProjectId,(Eagle)PowerUnit-Bseries(ver2.0),28456167-6c65-4295-906f-776572556e69,rev?*%
%TF.SameCoordinates,Original*%
%TF.FileFunction,Paste,Top*%
%TF.FilePolarity,Positive*%
%FSLAX46Y46*%
G04 Gerber Fmt 4.6, Leading zero omitted, Abs format (unit mm)*
G04 Created by KiCad (PCBNEW 7.0.1) date 2023-03-27 08:56:53*
%MOMM*%
%LPD*%
G01*
G04 APERTURE LIST*
G04 Aperture macros list*
%AMRoundRect*
0 Rectangle with rounded corners*
0 $1 Rounding radius*
0 $2 $3 $4 $5 $6 $7 $8 $9 X,Y pos of 4 corners*
0 Add a 4 corners polygon primitive as box body*
4,1,4,$2,$3,$4,$5,$6,$7,$8,$9,$2,$3,0*
0 Add four circle primitives for the rounded corners*
1,1,$1+$1,$2,$3*
1,1,$1+$1,$4,$5*
1,1,$1+$1,$6,$7*
1,1,$1+$1,$8,$9*
0 Add four rect primitives between the rounded corners*
20,1,$1+$1,$2,$3,$4,$5,0*
20,1,$1+$1,$4,$5,$6,$7,0*
20,1,$1+$1,$6,$7,$8,$9,0*
20,1,$1+$1,$8,$9,$2,$3,0*%
G04 Aperture macros list end*
%ADD10R,1.200000X1.000000*%
%ADD11R,0.400000X0.800000*%
%ADD12R,0.800000X0.800000*%
%ADD13R,3.500000X1.600000*%
%ADD14R,1.270000X0.762000*%
%ADD15R,2.540000X2.670000*%
%ADD16R,1.000000X1.200000*%
%ADD17R,0.800000X0.700000*%
%ADD18R,0.300000X1.350000*%
%ADD19R,1.500000X4.000000*%
%ADD20R,0.800000X1.200000*%
%ADD21R,0.680000X1.100000*%
%ADD22RoundRect,0.098600X-0.241400X-0.451400X0.241400X-0.451400X0.241400X0.451400X-0.241400X0.451400X0*%
%ADD23R,0.450000X0.950000*%
%ADD24R,1.100000X0.300000*%
%ADD25R,1.100000X0.600000*%
%ADD26R,1.300000X1.550000*%
%ADD27R,1.400000X0.800000*%
%ADD28R,0.800000X1.100000*%
%ADD29R,2.000000X1.100000*%
%ADD30RoundRect,0.115000X0.000000X0.000000X0.000000X0.000000X0.000000X0.000000X0.000000X0.000000X0*%
%ADD31R,0.800000X0.900000*%
%ADD32R,1.000000X2.700000*%
%ADD33R,0.700000X0.800000*%
%ADD34R,2.160000X1.780000*%
%ADD35R,0.500000X0.450000*%
%ADD36R,1.300000X1.500000*%
%ADD37R,1.200000X1.500000*%
G04 APERTURE END LIST*
%TO.C,Q10*%
G36*
X144501100Y-140273600D02*
G01*
X143301100Y-140273600D01*
X143301100Y-140933600D01*
X145901100Y-140933600D01*
X145901100Y-140273600D01*
X144701100Y-140273600D01*
X144701100Y-139563600D01*
X147301100Y-139563600D01*
X147301100Y-140373600D01*
X146631100Y-140373600D01*
X146631100Y-143853600D01*
X142571100Y-143853600D01*
X142571100Y-140373600D01*
X141901100Y-140373600D01*
X141901100Y-139563600D01*
X144501100Y-139563600D01*
X144501100Y-140273600D01*
G37*
%TO.C,Q1*%
G36*
X138901100Y-64973600D02*
G01*
X137701100Y-64973600D01*
X137701100Y-65633600D01*
X140301100Y-65633600D01*
X140301100Y-64973600D01*
X139101100Y-64973600D01*
X139101100Y-64263600D01*
X141701100Y-64263600D01*
X141701100Y-65073600D01*
X141031100Y-65073600D01*
X141031100Y-68553600D01*
X136971100Y-68553600D01*
X136971100Y-65073600D01*
X136301100Y-65073600D01*
X136301100Y-64263600D01*
X138901100Y-64263600D01*
X138901100Y-64973600D01*
G37*
%TO.C,Q6*%
G36*
X132981100Y-64973600D02*
G01*
X131781100Y-64973600D01*
X131781100Y-65633600D01*
X134381100Y-65633600D01*
X134381100Y-64973600D01*
X133181100Y-64973600D01*
X133181100Y-64263600D01*
X135781100Y-64263600D01*
X135781100Y-65073600D01*
X135111100Y-65073600D01*
X135111100Y-68553600D01*
X131051100Y-68553600D01*
X131051100Y-65073600D01*
X130381100Y-65073600D01*
X130381100Y-64263600D01*
X132981100Y-64263600D01*
X132981100Y-64973600D01*
G37*
%TD*%
D10*
%TO.C,R88*%
X187001100Y-101303600D03*
X187001100Y-99303600D03*
%TD*%
D11*
%TO.C,U19*%
X143851100Y-99553600D03*
X144501100Y-99553600D03*
X145151100Y-99553600D03*
X143851100Y-101453600D03*
X145151100Y-101453600D03*
%TD*%
D10*
%TO.C,R108*%
X175001100Y-150503600D03*
X175001100Y-148503600D03*
%TD*%
D12*
%TO.C,ALIVE*%
X196351100Y-47503600D03*
X198001100Y-47503600D03*
%TD*%
D13*
%TO.C,C7*%
X178601100Y-103103600D03*
X184001100Y-103103600D03*
%TD*%
D12*
%TO.C,LED3*%
X114351100Y-66503600D03*
X116001100Y-66503600D03*
%TD*%
D14*
%TO.C,SB5*%
X124001100Y-72029100D03*
D15*
X124001100Y-69678100D03*
%TD*%
D16*
%TO.C,R85*%
X155001100Y-65503600D03*
X153001100Y-65503600D03*
%TD*%
%TO.C,R47*%
X185501100Y-137853600D03*
X187501100Y-137853600D03*
%TD*%
D17*
%TO.C,C43*%
X126801100Y-148803600D03*
X126801100Y-150203600D03*
%TD*%
D16*
%TO.C,R84*%
X190441100Y-161903600D03*
X188441100Y-161903600D03*
%TD*%
D18*
%TO.C,U3*%
X188441100Y-156068600D03*
X190441100Y-160018600D03*
X189441100Y-160018600D03*
X189941100Y-160018600D03*
X188941100Y-156068600D03*
X190441100Y-156068600D03*
X189441100Y-156068600D03*
X188441100Y-160018600D03*
X188941100Y-160018600D03*
X189941100Y-156068600D03*
%TD*%
D10*
%TO.C,R82*%
X129001100Y-70503600D03*
X129001100Y-68503600D03*
%TD*%
D19*
%TO.C,L1*%
X183901100Y-96103600D03*
X180301100Y-96103600D03*
%TD*%
D20*
%TO.C,TLP3*%
X145771100Y-106503600D03*
X143231100Y-106503600D03*
X143231100Y-112803600D03*
X145771100Y-112803600D03*
X144501100Y-112803600D03*
%TD*%
D17*
%TO.C,C72*%
X123001100Y-60853600D03*
X123001100Y-62253600D03*
%TD*%
D21*
%TO.C,Q10*%
X144601100Y-142533600D03*
D22*
X146506100Y-145793600D03*
X142696100Y-145793600D03*
X143966100Y-145793600D03*
X145236100Y-145793600D03*
%TD*%
D23*
%TO.C,U27*%
X125551100Y-62653600D03*
X125551100Y-60453600D03*
X124251100Y-62653600D03*
X124251100Y-60453600D03*
X124901100Y-62653600D03*
%TD*%
D16*
%TO.C,R45*%
X183501100Y-137853600D03*
X181501100Y-137853600D03*
%TD*%
D17*
%TO.C,C3*%
X190191100Y-153233600D03*
X190191100Y-154633600D03*
%TD*%
D24*
%TO.C,USB1*%
X193611100Y-159493600D03*
X193611100Y-156493600D03*
X193611100Y-157993600D03*
X193611100Y-158993600D03*
X193611100Y-158493600D03*
X193611100Y-157493600D03*
D25*
X193611100Y-161443600D03*
X193611100Y-155043600D03*
D24*
X193611100Y-156993600D03*
X193611100Y-159993600D03*
D25*
X193611100Y-160643600D03*
X193611100Y-155843600D03*
%TD*%
D12*
%TO.C,OTP*%
X148351100Y-65503600D03*
X150001100Y-65503600D03*
%TD*%
D16*
%TO.C,R79*%
X177001100Y-68503600D03*
X179001100Y-68503600D03*
%TD*%
D12*
%TO.C,SUPPLY*%
X148351100Y-70503600D03*
X150001100Y-70503600D03*
%TD*%
D16*
%TO.C,R2*%
X153001100Y-68503600D03*
X155001100Y-68503600D03*
%TD*%
D26*
%TO.C,B2*%
X186491100Y-126528600D03*
X186491100Y-134478600D03*
X181991100Y-126528600D03*
X181991100Y-134478600D03*
%TD*%
D27*
%TO.C,C66*%
X146301100Y-72003600D03*
X146301100Y-74003600D03*
%TD*%
D28*
%TO.C,SB8*%
X122501100Y-66503600D03*
D29*
X124401100Y-66503600D03*
%TD*%
D12*
%TO.C,GO*%
X114351100Y-68503600D03*
X116001100Y-68503600D03*
%TD*%
%TO.C,+5V*%
X190001100Y-97153600D03*
X190001100Y-95503600D03*
%TD*%
D10*
%TO.C,R80*%
X127001100Y-70503600D03*
X127001100Y-68503600D03*
%TD*%
%TO.C,R32*%
X146501100Y-123503600D03*
X146501100Y-121503600D03*
%TD*%
D16*
%TO.C,R113*%
X116001100Y-63503600D03*
X114001100Y-63503600D03*
%TD*%
D12*
%TO.C,LED11*%
X179501100Y-115853600D03*
X179501100Y-117503600D03*
%TD*%
D30*
%TO.C,U14*%
X146201100Y-70503600D03*
X146201100Y-70903600D03*
X145801100Y-70103600D03*
X145801100Y-70503600D03*
X146201100Y-70103600D03*
X145801100Y-70903600D03*
%TD*%
D16*
%TO.C,R116*%
X116001100Y-71503600D03*
X114001100Y-71503600D03*
%TD*%
D12*
%TO.C,LED1*%
X153351100Y-70503600D03*
X155001100Y-70503600D03*
%TD*%
D16*
%TO.C,R5*%
X149101100Y-68503600D03*
X151101100Y-68503600D03*
%TD*%
D17*
%TO.C,C46*%
X143001100Y-148803600D03*
X143001100Y-150203600D03*
%TD*%
D10*
%TO.C,R9*%
X192001100Y-161803600D03*
X192001100Y-159803600D03*
%TD*%
D31*
%TO.C,ZD5*%
X145051100Y-127503600D03*
X146001100Y-125503600D03*
X146951100Y-127503600D03*
%TD*%
D12*
%TO.C,COM*%
X196351100Y-50503600D03*
X198001100Y-50503600D03*
%TD*%
%TO.C,DISABLE*%
X196351100Y-56503600D03*
X198001100Y-56503600D03*
%TD*%
D10*
%TO.C,R87*%
X177001100Y-122503600D03*
X177001100Y-120503600D03*
%TD*%
D12*
%TO.C,BATTERY*%
X177151100Y-70503600D03*
X178801100Y-70503600D03*
%TD*%
%TO.C,DEBUG*%
X196351100Y-53503600D03*
X198001100Y-53503600D03*
%TD*%
D10*
%TO.C,R57*%
X124501100Y-150503600D03*
X124501100Y-148503600D03*
%TD*%
%TO.C,R103*%
X158001100Y-150503600D03*
X158001100Y-148503600D03*
%TD*%
D32*
%TO.C,SW2*%
X192461100Y-139873600D03*
X197541100Y-127173600D03*
X197541100Y-139873600D03*
X192461100Y-127173600D03*
X195001100Y-139873600D03*
X195001100Y-127173600D03*
%TD*%
D17*
%TO.C,C60*%
X160001100Y-148803600D03*
X160001100Y-150203600D03*
%TD*%
D10*
%TO.C,R86*%
X177001100Y-115503600D03*
X177001100Y-117503600D03*
%TD*%
%TO.C,R119*%
X143551100Y-127453600D03*
X143551100Y-125453600D03*
%TD*%
D33*
%TO.C,C35*%
X185801100Y-136203600D03*
X187201100Y-136203600D03*
%TD*%
D34*
%TO.C,D4*%
X143501100Y-122528600D03*
X143501100Y-118478600D03*
%TD*%
D10*
%TO.C,R8*%
X192051100Y-154653600D03*
X192051100Y-156653600D03*
%TD*%
D21*
%TO.C,Q1*%
X139001100Y-67233600D03*
D22*
X140906100Y-70493600D03*
X137096100Y-70493600D03*
X138366100Y-70493600D03*
X139636100Y-70493600D03*
%TD*%
D16*
%TO.C,R83*%
X124901100Y-64453600D03*
X122901100Y-64453600D03*
%TD*%
D10*
%TO.C,R98*%
X141001100Y-150503600D03*
X141001100Y-148503600D03*
%TD*%
D16*
%TO.C,R46*%
X181501100Y-136203600D03*
X183501100Y-136203600D03*
%TD*%
D10*
%TO.C,R89*%
X187001100Y-97303600D03*
X187001100Y-95303600D03*
%TD*%
D33*
%TO.C,C15*%
X195701100Y-124503600D03*
X194301100Y-124503600D03*
%TD*%
D12*
%TO.C,TXD*%
X197641100Y-151003600D03*
X199291100Y-151003600D03*
%TD*%
D27*
%TO.C,C2*%
X146301100Y-69003600D03*
X146301100Y-67003600D03*
%TD*%
D10*
%TO.C,R6*%
X146501100Y-118003600D03*
X146501100Y-120003600D03*
%TD*%
D21*
%TO.C,Q6*%
X133081100Y-67233600D03*
D22*
X134986100Y-70493600D03*
X131176100Y-70493600D03*
X132446100Y-70493600D03*
X133716100Y-70493600D03*
%TD*%
D16*
%TO.C,R10*%
X196001100Y-151003600D03*
X194001100Y-151003600D03*
%TD*%
D35*
%TO.C,NTC1*%
X129001100Y-64978600D03*
X129001100Y-66028600D03*
%TD*%
D10*
%TO.C,R81*%
X127001100Y-66503600D03*
X127001100Y-64503600D03*
%TD*%
D16*
%TO.C,R122*%
X143801100Y-104003600D03*
X145801100Y-104003600D03*
%TD*%
D36*
%TO.C,B1*%
X186491100Y-139553600D03*
X186491100Y-147453600D03*
X181991100Y-139553600D03*
X181991100Y-147453600D03*
%TD*%
D12*
%TO.C,+3V3*%
X190001100Y-101153600D03*
X190001100Y-99503600D03*
%TD*%
D33*
%TO.C,C70*%
X145201100Y-115003600D03*
X143801100Y-115003600D03*
%TD*%
D17*
%TO.C,C64*%
X177001100Y-148803600D03*
X177001100Y-150203600D03*
%TD*%
D12*
%TO.C,U5V*%
X179501100Y-122153600D03*
X179501100Y-120503600D03*
%TD*%
D11*
%TO.C,U16*%
X143851100Y-95553600D03*
X144501100Y-95553600D03*
X145151100Y-95553600D03*
X143851100Y-97453600D03*
X145151100Y-97453600D03*
%TD*%
D37*
%TO.C,SW3*%
X193001100Y-144353600D03*
X193001100Y-148653600D03*
X195501100Y-144353600D03*
X195501100Y-148653600D03*
X198001100Y-144353600D03*
X198001100Y-148653600D03*
%TD*%
M02*
