%TF.GenerationSoftware,KiCad,Pcbnew,7.0.1*%
%TF.CreationDate,2023-04-09T21:26:53+09:00*%
%TF.ProjectId,(Eagle)PowerUnit-Bseries(ver2.0),28456167-6c65-4295-906f-776572556e69,rev?*%
%TF.SameCoordinates,Original*%
%TF.FileFunction,Copper,L2,Inr*%
%TF.FilePolarity,Positive*%
%FSLAX46Y46*%
G04 Gerber Fmt 4.6, Leading zero omitted, Abs format (unit mm)*
G04 Created by KiCad (PCBNEW 7.0.1) date 2023-04-09 21:26:53*
%MOMM*%
%LPD*%
G01*
G04 APERTURE LIST*
G04 Aperture macros list*
%AMOutline5P*
0 Free polygon, 5 corners , with rotation*
0 The origin of the aperture is its center*
0 number of corners: always 5*
0 $1 to $10 corner X, Y*
0 $11 Rotation angle, in degrees counterclockwise*
0 create outline with 5 corners*
4,1,5,$1,$2,$3,$4,$5,$6,$7,$8,$9,$10,$1,$2,$11*%
%AMOutline6P*
0 Free polygon, 6 corners , with rotation*
0 The origin of the aperture is its center*
0 number of corners: always 6*
0 $1 to $12 corner X, Y*
0 $13 Rotation angle, in degrees counterclockwise*
0 create outline with 6 corners*
4,1,6,$1,$2,$3,$4,$5,$6,$7,$8,$9,$10,$11,$12,$1,$2,$13*%
%AMOutline7P*
0 Free polygon, 7 corners , with rotation*
0 The origin of the aperture is its center*
0 number of corners: always 7*
0 $1 to $14 corner X, Y*
0 $15 Rotation angle, in degrees counterclockwise*
0 create outline with 7 corners*
4,1,7,$1,$2,$3,$4,$5,$6,$7,$8,$9,$10,$11,$12,$13,$14,$1,$2,$15*%
%AMOutline8P*
0 Free polygon, 8 corners , with rotation*
0 The origin of the aperture is its center*
0 number of corners: always 8*
0 $1 to $16 corner X, Y*
0 $17 Rotation angle, in degrees counterclockwise*
0 create outline with 8 corners*
4,1,8,$1,$2,$3,$4,$5,$6,$7,$8,$9,$10,$11,$12,$13,$14,$15,$16,$1,$2,$17*%
G04 Aperture macros list end*
%TA.AperFunction,ComponentPad*%
%ADD10R,1.500000X1.500000*%
%TD*%
%TA.AperFunction,ComponentPad*%
%ADD11C,1.500000*%
%TD*%
%TA.AperFunction,ComponentPad*%
%ADD12Outline8P,-0.825000X0.341726X-0.341726X0.825000X0.341726X0.825000X0.825000X0.341726X0.825000X-0.341726X0.341726X-0.825000X-0.341726X-0.825000X-0.825000X-0.341726X0.000000*%
%TD*%
%TA.AperFunction,ComponentPad*%
%ADD13C,4.350000*%
%TD*%
%TA.AperFunction,ComponentPad*%
%ADD14O,1.200000X2.850000*%
%TD*%
%TA.AperFunction,ComponentPad*%
%ADD15C,7.010400*%
%TD*%
%TA.AperFunction,ComponentPad*%
%ADD16O,1.524000X3.048000*%
%TD*%
%TA.AperFunction,ComponentPad*%
%ADD17C,1.350000*%
%TD*%
%TA.AperFunction,ComponentPad*%
%ADD18O,2.100000X1.100000*%
%TD*%
%TA.AperFunction,ComponentPad*%
%ADD19O,1.800000X1.100000*%
%TD*%
%TA.AperFunction,ComponentPad*%
%ADD20O,3.048000X1.524000*%
%TD*%
%TA.AperFunction,ComponentPad*%
%ADD21C,6.150000*%
%TD*%
%TA.AperFunction,ComponentPad*%
%ADD22O,1.200000X2.700000*%
%TD*%
%TA.AperFunction,ComponentPad*%
%ADD23C,1.950000*%
%TD*%
%TA.AperFunction,ComponentPad*%
%ADD24C,1.635000*%
%TD*%
%TA.AperFunction,ComponentPad*%
%ADD25C,1.100000*%
%TD*%
%TA.AperFunction,ComponentPad*%
%ADD26C,2.700000*%
%TD*%
%TA.AperFunction,ComponentPad*%
%ADD27C,1.300000*%
%TD*%
%TA.AperFunction,ComponentPad*%
%ADD28Outline8P,-0.750000X0.310660X-0.310660X0.750000X0.310660X0.750000X0.750000X0.310660X0.750000X-0.310660X0.310660X-0.750000X-0.310660X-0.750000X-0.750000X-0.310660X90.000000*%
%TD*%
%TA.AperFunction,ViaPad*%
%ADD29C,0.502400*%
%TD*%
%TA.AperFunction,ViaPad*%
%ADD30C,0.652400*%
%TD*%
%TA.AperFunction,ViaPad*%
%ADD31C,0.472400*%
%TD*%
%TA.AperFunction,ViaPad*%
%ADD32C,0.462400*%
%TD*%
%TA.AperFunction,ViaPad*%
%ADD33C,0.482400*%
%TD*%
%TA.AperFunction,ViaPad*%
%ADD34C,0.457200*%
%TD*%
%TA.AperFunction,ViaPad*%
%ADD35C,0.600000*%
%TD*%
%TA.AperFunction,ViaPad*%
%ADD36C,0.552400*%
%TD*%
%TA.AperFunction,ViaPad*%
%ADD37C,1.152400*%
%TD*%
%TA.AperFunction,ViaPad*%
%ADD38C,0.602400*%
%TD*%
%TA.AperFunction,Conductor*%
%ADD39C,0.200000*%
%TD*%
%TA.AperFunction,Conductor*%
%ADD40C,0.300000*%
%TD*%
%TA.AperFunction,Conductor*%
%ADD41C,1.500000*%
%TD*%
%TA.AperFunction,Conductor*%
%ADD42C,0.500000*%
%TD*%
%TA.AperFunction,Conductor*%
%ADD43C,1.000000*%
%TD*%
G04 APERTURE END LIST*
D10*
%TO.N,SGND*%
%TO.C,SPOW*%
X197001100Y-100383600D03*
D11*
%TO.N,N$37*%
X197001100Y-102923600D03*
%TD*%
D12*
%TO.N,CS3_REF1*%
%TO.C,TP5*%
X101051100Y-104003600D03*
X98551100Y-106503600D03*
%TO.N,N$82*%
X103551100Y-106503600D03*
%TD*%
%TO.N,CS1_REF1*%
%TO.C,TP1*%
X101051100Y-78003600D03*
X98551100Y-80503600D03*
%TO.N,N$13*%
X103551100Y-80503600D03*
%TD*%
D10*
%TO.N,SGND*%
%TO.C,Encoder4*%
X108001100Y-153583600D03*
D11*
%TO.N,N/C*%
X108001100Y-151043600D03*
%TO.N,ENC4_A*%
X108001100Y-148503600D03*
%TO.N,+5V*%
X108001100Y-145963600D03*
%TO.N,ENC4_B*%
X108001100Y-143423600D03*
%TD*%
D13*
%TO.N,N$4*%
%TO.C,Motor1*%
X121601100Y-158503600D03*
%TO.N,IP1*%
X114401100Y-158503600D03*
D14*
%TO.N,N/C*%
X124751100Y-164503600D03*
X111251100Y-164503600D03*
%TD*%
D15*
%TO.N,PGND*%
%TO.C,H1*%
X101001100Y-41503600D03*
%TD*%
D10*
%TO.N,N$21*%
%TO.C,Emergency1*%
X102271100Y-57503600D03*
D11*
%TO.N,N$19*%
X99731100Y-57503600D03*
%TD*%
D12*
%TO.N,CS3_REF2*%
%TO.C,TP6*%
X109151100Y-104003600D03*
X106651100Y-106503600D03*
%TO.N,N$98*%
X111651100Y-106503600D03*
%TD*%
D16*
%TO.N,CS4_OCD2*%
%TO.C,JP10*%
X107541100Y-112503600D03*
%TO.N,N$114*%
X105001100Y-112503600D03*
%TO.N,CS4_OCD1*%
X102461100Y-112503600D03*
%TD*%
D17*
%TO.N,+5V*%
%TO.C,RJ45_1*%
X111581100Y-44243600D03*
%TO.N,SGND*%
X112601100Y-46023600D03*
%TO.N,CAN_L*%
X113621100Y-44243600D03*
X114641100Y-46023600D03*
%TO.N,CAN_H*%
X115661100Y-44243600D03*
X116681100Y-46023600D03*
%TO.N,+5V*%
X117701100Y-44243600D03*
%TO.N,SGND*%
X118721100Y-46023600D03*
%TO.N,N$69*%
X122011100Y-50843600D03*
%TO.N,N$71*%
X119721100Y-50843600D03*
%TO.N,N$51*%
X110581100Y-50843600D03*
%TO.N,SGND*%
X108291100Y-50843600D03*
%TD*%
D12*
%TO.N,CS4_REF1*%
%TO.C,TP7*%
X101051100Y-117003600D03*
X98551100Y-119503600D03*
%TO.N,N$100*%
X103551100Y-119503600D03*
%TD*%
D18*
%TO.N,SGND*%
%TO.C,USB1*%
X194171100Y-162563600D03*
D19*
X198351100Y-162563600D03*
X198351100Y-153923600D03*
D18*
X194171100Y-153923600D03*
%TD*%
D20*
%TO.N,BOOT0*%
%TO.C,BOOTMODE*%
X185061100Y-164093600D03*
%TO.N,+3V3*%
X185061100Y-166633600D03*
%TD*%
D16*
%TO.N,CS2_OCD2*%
%TO.C,JP1*%
X107541100Y-86503600D03*
%TO.N,N$83*%
X105001100Y-86503600D03*
%TO.N,CS2_OCD1*%
X102461100Y-86503600D03*
%TD*%
D12*
%TO.N,CS4_REF2*%
%TO.C,TP8*%
X109151100Y-117003600D03*
X106651100Y-119503600D03*
%TO.N,N$101*%
X111651100Y-119503600D03*
%TD*%
D16*
%TO.N,SGND*%
%TO.C,JP7*%
X119821100Y-58583600D03*
%TO.N,N$68*%
X117281100Y-58583600D03*
%TD*%
D21*
%TO.N,N$25*%
%TO.C,BATTERY*%
X185421100Y-61253600D03*
%TO.N,PGND*%
X174521100Y-61253600D03*
D22*
%TO.N,N/C*%
X170521100Y-51853600D03*
X189421100Y-51853600D03*
%TD*%
D13*
%TO.N,N$10*%
%TO.C,CON4*%
X175601100Y-158503600D03*
%TO.N,IP4*%
X168401100Y-158503600D03*
D14*
%TO.N,N/C*%
X178751100Y-164503600D03*
X165251100Y-164503600D03*
%TD*%
D10*
%TO.N,SGND*%
%TO.C,Encoder3*%
X99500000Y-153583600D03*
D11*
%TO.N,N/C*%
X99500000Y-151043600D03*
%TO.N,ENC3_A*%
X99500000Y-148503600D03*
%TO.N,+5V*%
X99500000Y-145963600D03*
%TO.N,ENC3_B*%
X99500000Y-143423600D03*
%TD*%
D23*
%TO.N,N$6*%
%TO.C,EDGE3*%
X155541100Y-140983600D03*
X155541100Y-138443600D03*
X155541100Y-135903600D03*
X155541100Y-133363600D03*
X155541100Y-130823600D03*
%TO.N,IN3*%
X155541100Y-128283600D03*
X155541100Y-125743600D03*
X155541100Y-123203600D03*
X155541100Y-120663600D03*
X155541100Y-118123600D03*
X155541100Y-115583600D03*
%TO.N,N$111*%
X155541100Y-113043600D03*
X155541100Y-110503600D03*
X155541100Y-107963600D03*
X155541100Y-105423600D03*
X155541100Y-102883600D03*
X155541100Y-100343600D03*
X155541100Y-97803600D03*
X155541100Y-95263600D03*
X155541100Y-92723600D03*
X155541100Y-90183600D03*
X155541100Y-87643600D03*
X155541100Y-85103600D03*
%TO.N,SGND*%
X155541100Y-82563600D03*
%TO.N,PWM3*%
X155541100Y-80023600D03*
%TO.N,DIR3*%
X150461100Y-80023600D03*
%TO.N,+3V3*%
X150461100Y-82563600D03*
%TO.N,PGND*%
X150461100Y-85103600D03*
X150461100Y-87643600D03*
X150461100Y-90183600D03*
X150461100Y-92723600D03*
X150461100Y-95263600D03*
X150461100Y-97803600D03*
X150461100Y-100343600D03*
X150461100Y-102883600D03*
X150461100Y-105423600D03*
X150461100Y-107963600D03*
X150461100Y-110503600D03*
X150461100Y-113043600D03*
%TO.N,IN3*%
X150461100Y-115583600D03*
X150461100Y-118123600D03*
X150461100Y-120663600D03*
X150461100Y-123203600D03*
X150461100Y-125743600D03*
%TO.N,N$6*%
X150461100Y-128283600D03*
X150461100Y-130823600D03*
X150461100Y-133363600D03*
X150461100Y-135903600D03*
X150461100Y-138443600D03*
X150461100Y-140983600D03*
%TD*%
D10*
%TO.N,SGND*%
%TO.C,Encoder2*%
X108001100Y-136583600D03*
D11*
%TO.N,N/C*%
X108001100Y-134043600D03*
%TO.N,ENC2_A*%
X108001100Y-131503600D03*
%TO.N,+5V*%
X108001100Y-128963600D03*
%TO.N,ENC2_B*%
X108001100Y-126423600D03*
%TD*%
D23*
%TO.N,N$4*%
%TO.C,EDGE1*%
X121541100Y-140983600D03*
X121541100Y-138443600D03*
X121541100Y-135903600D03*
X121541100Y-133363600D03*
X121541100Y-130823600D03*
%TO.N,IN1*%
X121541100Y-128283600D03*
X121541100Y-125743600D03*
X121541100Y-123203600D03*
X121541100Y-120663600D03*
X121541100Y-118123600D03*
X121541100Y-115583600D03*
%TO.N,N$111*%
X121541100Y-113043600D03*
X121541100Y-110503600D03*
X121541100Y-107963600D03*
X121541100Y-105423600D03*
X121541100Y-102883600D03*
X121541100Y-100343600D03*
X121541100Y-97803600D03*
X121541100Y-95263600D03*
X121541100Y-92723600D03*
X121541100Y-90183600D03*
X121541100Y-87643600D03*
X121541100Y-85103600D03*
%TO.N,SGND*%
X121541100Y-82563600D03*
%TO.N,PWM1*%
X121541100Y-80023600D03*
%TO.N,DIR1*%
X116461100Y-80023600D03*
%TO.N,+3V3*%
X116461100Y-82563600D03*
%TO.N,PGND*%
X116461100Y-85103600D03*
X116461100Y-87643600D03*
X116461100Y-90183600D03*
X116461100Y-92723600D03*
X116461100Y-95263600D03*
X116461100Y-97803600D03*
X116461100Y-100343600D03*
X116461100Y-102883600D03*
X116461100Y-105423600D03*
X116461100Y-107963600D03*
X116461100Y-110503600D03*
X116461100Y-113043600D03*
%TO.N,IN1*%
X116461100Y-115583600D03*
X116461100Y-118123600D03*
X116461100Y-120663600D03*
X116461100Y-123203600D03*
X116461100Y-125743600D03*
%TO.N,N$4*%
X116461100Y-128283600D03*
X116461100Y-130823600D03*
X116461100Y-133363600D03*
X116461100Y-135903600D03*
X116461100Y-138443600D03*
X116461100Y-140983600D03*
%TD*%
D15*
%TO.N,SGND*%
%TO.C,H3*%
X196001100Y-168503600D03*
%TD*%
D10*
%TO.N,SGND*%
%TO.C,Encoder1*%
X99500000Y-136583600D03*
D11*
%TO.N,N/C*%
X99500000Y-134043600D03*
%TO.N,ENC1_A*%
X99500000Y-131503600D03*
%TO.N,+5V*%
X99500000Y-128963600D03*
%TO.N,ENC1_B*%
X99500000Y-126423600D03*
%TD*%
D24*
%TO.N,N$19*%
%TO.C,SW4*%
X101001100Y-63963600D03*
%TO.N,N$21*%
X101001100Y-66503600D03*
%TO.N,N/C*%
X101001100Y-69043600D03*
%TD*%
D10*
%TO.N,N$19*%
%TO.C,INV_SW2*%
X111271100Y-57503600D03*
D11*
%TO.N,PGND*%
X108731100Y-57503600D03*
%TD*%
D23*
%TO.N,N$5*%
%TO.C,EDGE2*%
X138541100Y-140983600D03*
X138541100Y-138443600D03*
X138541100Y-135903600D03*
X138541100Y-133363600D03*
X138541100Y-130823600D03*
%TO.N,IN2*%
X138541100Y-128283600D03*
X138541100Y-125743600D03*
X138541100Y-123203600D03*
X138541100Y-120663600D03*
X138541100Y-118123600D03*
X138541100Y-115583600D03*
%TO.N,N$111*%
X138541100Y-113043600D03*
X138541100Y-110503600D03*
X138541100Y-107963600D03*
X138541100Y-105423600D03*
X138541100Y-102883600D03*
X138541100Y-100343600D03*
X138541100Y-97803600D03*
X138541100Y-95263600D03*
X138541100Y-92723600D03*
X138541100Y-90183600D03*
X138541100Y-87643600D03*
X138541100Y-85103600D03*
%TO.N,SGND*%
X138541100Y-82563600D03*
%TO.N,PWM2*%
X138541100Y-80023600D03*
%TO.N,DIR2*%
X133461100Y-80023600D03*
%TO.N,+3V3*%
X133461100Y-82563600D03*
%TO.N,PGND*%
X133461100Y-85103600D03*
X133461100Y-87643600D03*
X133461100Y-90183600D03*
X133461100Y-92723600D03*
X133461100Y-95263600D03*
X133461100Y-97803600D03*
X133461100Y-100343600D03*
X133461100Y-102883600D03*
X133461100Y-105423600D03*
X133461100Y-107963600D03*
X133461100Y-110503600D03*
X133461100Y-113043600D03*
%TO.N,IN2*%
X133461100Y-115583600D03*
X133461100Y-118123600D03*
X133461100Y-120663600D03*
X133461100Y-123203600D03*
X133461100Y-125743600D03*
%TO.N,N$5*%
X133461100Y-128283600D03*
X133461100Y-130823600D03*
X133461100Y-133363600D03*
X133461100Y-135903600D03*
X133461100Y-138443600D03*
X133461100Y-140983600D03*
%TD*%
D13*
%TO.N,N$6*%
%TO.C,Motor3*%
X157601100Y-158503600D03*
%TO.N,IP3*%
X150401100Y-158503600D03*
D14*
%TO.N,N/C*%
X160751100Y-164503600D03*
X147251100Y-164503600D03*
%TD*%
D16*
%TO.N,VCC*%
%TO.C,SPOW*%
X198271100Y-95053600D03*
%TO.N,N$35*%
X195731100Y-95053600D03*
%TD*%
D21*
%TO.N,VCC*%
%TO.C,THRU*%
X150551100Y-59503600D03*
%TO.N,PGND*%
X161451100Y-59503600D03*
D22*
%TO.N,N/C*%
X146551100Y-50603600D03*
X165451100Y-50603600D03*
%TD*%
D25*
%TO.N,N/C*%
%TO.C,ML1*%
X197636100Y-119263600D03*
X196366100Y-119263600D03*
%TO.N,+3V3*%
X197636100Y-117993600D03*
%TO.N,SWDIO*%
X196366100Y-117993600D03*
%TO.N,SGND*%
X197636100Y-116723600D03*
%TO.N,SWCLK*%
X196366100Y-116723600D03*
%TO.N,SGND*%
X197636100Y-115453600D03*
%TO.N,SWO*%
X196366100Y-115453600D03*
%TO.N,N/C*%
X197636100Y-114183600D03*
%TO.N,N$67*%
X196366100Y-114183600D03*
%TO.N,SGND*%
X197636100Y-112913600D03*
%TO.N,NRST*%
X196366100Y-112913600D03*
%TO.N,N$64*%
X197636100Y-111643600D03*
%TO.N,N$66*%
X196366100Y-111643600D03*
%TD*%
D16*
%TO.N,CS1_OCD2*%
%TO.C,JP8*%
X107461100Y-73503600D03*
%TO.N,N$9*%
X104921100Y-73503600D03*
%TO.N,CS1_OCD1*%
X102381100Y-73503600D03*
%TD*%
%TO.N,SGND*%
%TO.C,GND*%
X101771100Y-48713600D03*
%TO.N,PGND*%
X99231100Y-48713600D03*
%TD*%
D12*
%TO.N,CS2_REF1*%
%TO.C,TP3*%
X101051100Y-91003600D03*
X98551100Y-93503600D03*
%TO.N,N$79*%
X103551100Y-93503600D03*
%TD*%
D10*
%TO.N,N$21*%
%TO.C,CTRL2*%
X195001100Y-88773600D03*
D11*
%TO.N,VCC*%
X195001100Y-86233600D03*
%TD*%
D17*
%TO.N,+5V*%
%TO.C,RJ45_2*%
X131081100Y-44243600D03*
%TO.N,SGND*%
X132101100Y-46023600D03*
%TO.N,CAN_L*%
X133121100Y-44243600D03*
X134141100Y-46023600D03*
%TO.N,CAN_H*%
X135161100Y-44243600D03*
X136181100Y-46023600D03*
%TO.N,+5V*%
X137201100Y-44243600D03*
%TO.N,SGND*%
X138221100Y-46023600D03*
%TO.N,N$70*%
X141511100Y-50843600D03*
%TO.N,N$72*%
X139221100Y-50843600D03*
%TO.N,N$53*%
X130081100Y-50843600D03*
%TO.N,SGND*%
X127791100Y-50843600D03*
%TD*%
D16*
%TO.N,USART_RX*%
%TO.C,ECHO*%
X189651100Y-151103600D03*
%TO.N,USART_TX*%
X187111100Y-151103600D03*
%TD*%
D10*
%TO.N,N$21*%
%TO.C,THRU2*%
X187001100Y-88773600D03*
D11*
%TO.N,VCC*%
X187001100Y-86233600D03*
%TD*%
D12*
%TO.N,CS1_REF2*%
%TO.C,TP2*%
X109151100Y-78003600D03*
X106651100Y-80503600D03*
%TO.N,N$2*%
X111651100Y-80503600D03*
%TD*%
D16*
%TO.N,CS3_OCD2*%
%TO.C,JP9*%
X107541100Y-99503600D03*
%TO.N,N$87*%
X105001100Y-99503600D03*
%TO.N,CS3_OCD1*%
X102461100Y-99503600D03*
%TD*%
D12*
%TO.N,CS2_REF2*%
%TO.C,TP4*%
X109151100Y-91003600D03*
X106651100Y-93503600D03*
%TO.N,N$80*%
X111651100Y-93503600D03*
%TD*%
D20*
%TO.N,+3V3*%
%TO.C,JP11*%
X190001100Y-121853600D03*
%TO.N,SWCLK*%
X190001100Y-119313600D03*
%TO.N,SGND*%
X190001100Y-116773600D03*
%TO.N,SWDIO*%
X190001100Y-114233600D03*
%TO.N,NRST*%
X190001100Y-111693600D03*
%TO.N,SWO*%
X190001100Y-109153600D03*
%TD*%
D10*
%TO.N,N$21*%
%TO.C,THRU1*%
X187001100Y-79773600D03*
D11*
%TO.N,VCC*%
X187001100Y-77233600D03*
%TD*%
D20*
%TO.N,U5V*%
%TO.C,JP6*%
X182701100Y-121843600D03*
%TO.N,N$20*%
X182701100Y-119303600D03*
%TO.N,E5V*%
X182701100Y-116763600D03*
%TD*%
D13*
%TO.N,N$5*%
%TO.C,MOTER*%
X139601100Y-158503600D03*
%TO.N,IP2*%
X132401100Y-158503600D03*
D14*
%TO.N,N/C*%
X142751100Y-164503600D03*
X129251100Y-164503600D03*
%TD*%
D26*
%TO.N,VCC*%
%TO.C,FUSE1*%
X161041100Y-67803600D03*
X161041100Y-71203600D03*
%TO.N,N$25*%
X170961100Y-67803600D03*
X170961100Y-71203600D03*
%TD*%
D27*
%TO.N,CAN_L*%
%TO.C,SW1*%
X119501100Y-66703600D03*
%TO.N,N/C*%
X119501100Y-69243600D03*
%TO.N,N$23*%
X119501100Y-64163600D03*
%TD*%
D23*
%TO.N,N$10*%
%TO.C,EDGE4*%
X172541100Y-140983600D03*
X172541100Y-138443600D03*
X172541100Y-135903600D03*
X172541100Y-133363600D03*
X172541100Y-130823600D03*
%TO.N,IN4*%
X172541100Y-128283600D03*
X172541100Y-125743600D03*
X172541100Y-123203600D03*
X172541100Y-120663600D03*
X172541100Y-118123600D03*
X172541100Y-115583600D03*
%TO.N,N$111*%
X172541100Y-113043600D03*
X172541100Y-110503600D03*
X172541100Y-107963600D03*
X172541100Y-105423600D03*
X172541100Y-102883600D03*
X172541100Y-100343600D03*
X172541100Y-97803600D03*
X172541100Y-95263600D03*
X172541100Y-92723600D03*
X172541100Y-90183600D03*
X172541100Y-87643600D03*
X172541100Y-85103600D03*
%TO.N,SGND*%
X172541100Y-82563600D03*
%TO.N,PWM4*%
X172541100Y-80023600D03*
%TO.N,DIR4*%
X167461100Y-80023600D03*
%TO.N,+3V3*%
X167461100Y-82563600D03*
%TO.N,PGND*%
X167461100Y-85103600D03*
X167461100Y-87643600D03*
X167461100Y-90183600D03*
X167461100Y-92723600D03*
X167461100Y-95263600D03*
X167461100Y-97803600D03*
X167461100Y-100343600D03*
X167461100Y-102883600D03*
X167461100Y-105423600D03*
X167461100Y-107963600D03*
X167461100Y-110503600D03*
X167461100Y-113043600D03*
%TO.N,IN4*%
X167461100Y-115583600D03*
X167461100Y-118123600D03*
X167461100Y-120663600D03*
X167461100Y-123203600D03*
X167461100Y-125743600D03*
%TO.N,N$10*%
X167461100Y-128283600D03*
X167461100Y-130823600D03*
X167461100Y-133363600D03*
X167461100Y-135903600D03*
X167461100Y-138443600D03*
X167461100Y-140983600D03*
%TD*%
D24*
%TO.N,PGND*%
%TO.C,SW5*%
X110001100Y-63963600D03*
%TO.N,N$19*%
X110001100Y-66503600D03*
%TO.N,N/C*%
X110001100Y-69043600D03*
%TD*%
D10*
%TO.N,N$21*%
%TO.C,CTRL1*%
X195001100Y-79773600D03*
D11*
%TO.N,VCC*%
X195001100Y-77233600D03*
%TD*%
D28*
%TO.N,N$11*%
%TO.C,R3*%
X144601100Y-135743600D03*
%TO.N,N$111*%
X144601100Y-131806600D03*
%TD*%
D15*
%TO.N,PGND*%
%TO.C,H2*%
X196001100Y-41503600D03*
%TD*%
%TO.N,SGND*%
%TO.C,H4*%
X101001100Y-168503600D03*
%TD*%
D29*
%TO.N,PWM1*%
X193901100Y-129803600D03*
X193901100Y-117253600D03*
%TO.N,PWM2*%
X183901100Y-138843100D03*
%TO.N,PWM3*%
X176601600Y-114551838D03*
%TO.N,DIR2*%
X181751100Y-127703600D03*
%TO.N,DIR1*%
X183030600Y-134153600D03*
D30*
%TO.N,VCC*%
X142468600Y-68529200D03*
X147361100Y-94563600D03*
D29*
X125740100Y-69687600D03*
D31*
%TO.N,U5V*%
X181820000Y-120500000D03*
X180734300Y-120501202D03*
D29*
%TO.N,USART_RX*%
X200151100Y-124803600D03*
X198501100Y-124803600D03*
%TO.N,+3V3*%
X191638100Y-141610600D03*
X180181100Y-130223600D03*
X177301100Y-137313600D03*
D32*
X111927100Y-88039600D03*
D29*
X184890000Y-46770000D03*
D30*
X108477100Y-92694600D03*
D29*
X112011100Y-107980600D03*
X194473100Y-148877600D03*
D30*
X178226100Y-147204963D03*
D29*
X184516600Y-144979938D03*
X176791100Y-48474600D03*
X190993100Y-154755600D03*
X176795100Y-43381600D03*
X177751100Y-124423600D03*
D30*
X179741600Y-82251600D03*
D29*
X187450000Y-55167000D03*
X185001100Y-48653600D03*
X191391100Y-54560600D03*
D30*
X105048100Y-95999600D03*
D29*
X105134353Y-83000347D03*
D32*
X111660600Y-81758100D03*
D29*
X107201100Y-107973600D03*
X178041518Y-131033182D03*
D30*
X178149100Y-88503600D03*
X178149100Y-89860600D03*
D29*
X186892600Y-53981600D03*
X176791100Y-53453600D03*
D30*
X132533750Y-69081600D03*
D29*
%TO.N,N$33*%
X191001100Y-156253600D03*
X193101600Y-150890863D03*
%TO.N,N$40*%
X185351100Y-93353600D03*
X186851100Y-93353600D03*
X186101100Y-93353600D03*
X186851100Y-94103600D03*
D30*
%TO.N,E5V*%
X188609606Y-94661600D03*
D29*
%TO.N,+5V*%
X105001100Y-46583600D03*
X177040600Y-93023600D03*
D30*
X105501100Y-127933600D03*
X103491100Y-127933600D03*
D29*
%TO.N,CS1_REF1*%
X125755100Y-150693100D03*
X107001100Y-82873600D03*
%TO.N,CS1_REF2*%
X107901100Y-83953600D03*
X126051100Y-151803600D03*
%TO.N,CURRENT1*%
X186696100Y-141650600D03*
%TO.N,N$1*%
X125701100Y-147453600D03*
%TO.N,CS1_OCD1*%
X112611100Y-76693600D03*
%TO.N,CS2_OCD1*%
X113739300Y-87890000D03*
%TO.N,CS2_OCD2*%
X113819300Y-86490000D03*
%TO.N,CS3_OCD1*%
X114700400Y-101613600D03*
%TO.N,CS3_OCD2*%
X114700400Y-99091600D03*
%TO.N,CS4_OCD1*%
X102416100Y-108006600D03*
X98532100Y-123401600D03*
%TO.N,CS4_OCD2*%
X99057100Y-123793600D03*
%TO.N,N$81*%
X142711600Y-147453600D03*
%TO.N,N$99*%
X159701100Y-147403600D03*
%TO.N,N$102*%
X176761600Y-147003600D03*
%TO.N,CS2_REF2*%
X110998100Y-85114600D03*
X142758100Y-151788600D03*
%TO.N,CS2_REF1*%
X142698600Y-151053100D03*
D32*
X112290100Y-82037600D03*
D29*
%TO.N,CURRENT2*%
X186032100Y-141662600D03*
%TO.N,CS3_REF2*%
X113641100Y-161683600D03*
%TO.N,CS3_REF1*%
X104511600Y-161185600D03*
%TO.N,CURRENT3*%
X185377100Y-141628600D03*
%TO.N,CS4_REF2*%
X113219862Y-162183100D03*
%TO.N,CS4_REF1*%
X112841100Y-162720600D03*
%TO.N,CURRENT4*%
X184724100Y-141596600D03*
%TO.N,SHUTDOWN*%
X198811600Y-54503600D03*
X145211600Y-69274100D03*
X175301100Y-117743600D03*
X146784568Y-68152898D03*
X133831100Y-69553600D03*
X127321100Y-69553600D03*
%TO.N,CS*%
X181801100Y-125363600D03*
X134397059Y-68874379D03*
%TO.N,SCK*%
X135801100Y-71103600D03*
X182501100Y-125363600D03*
%TO.N,MISO*%
X183251100Y-125363600D03*
X136880600Y-66776600D03*
D33*
%TO.N,MOSI*%
X138176000Y-66776600D03*
D29*
X183951100Y-125363600D03*
%TO.N,BOOT0*%
X194051100Y-136263600D03*
%TO.N,SWO*%
X193601100Y-133753600D03*
D32*
%TO.N,NRST*%
X187186600Y-141263600D03*
D29*
%TO.N,DIP_SW4*%
X194501100Y-129203600D03*
%TO.N,DIP_SW3*%
X197001100Y-130553600D03*
%TO.N,ENC1_B*%
X187351100Y-129803600D03*
%TO.N,ENC1_A*%
X186651100Y-127703600D03*
%TO.N,ENC3_B*%
X193543862Y-135753100D03*
%TO.N,ENC3_A*%
X194851100Y-135693100D03*
%TO.N,ENC2_B*%
X183264968Y-135214100D03*
%TO.N,ENC2_A*%
X182401100Y-138153600D03*
%TO.N,ENC4_B*%
X185151100Y-126253600D03*
%TO.N,ENC4_A*%
X184630600Y-126803600D03*
%TO.N,DIP_SW1*%
X194401100Y-134203600D03*
%TO.N,DIP_SW2*%
X197001100Y-132003600D03*
D31*
%TO.N,ALIVE_LED*%
X197173829Y-48503601D03*
D29*
X188651100Y-127753600D03*
%TO.N,COM_LED*%
X141901100Y-53103600D03*
X124651100Y-53103600D03*
X187541100Y-126324100D03*
X193001100Y-50553600D03*
X192145100Y-45638600D03*
%TO.N,N$58*%
X195001100Y-45669200D03*
%TO.N,N$59*%
X194020000Y-50100000D03*
%TO.N,DEBUG_LED*%
X187651100Y-127353600D03*
D31*
X197489801Y-49250497D03*
D29*
%TO.N,N$60*%
X197580400Y-52150000D03*
%TO.N,DEBUG_BT*%
X188751100Y-134653600D03*
%TO.N,N$21*%
X198031100Y-79773600D03*
%TO.N,N$16*%
X193511100Y-69138600D03*
%TO.N,EMERGENCY*%
X147601100Y-73003600D03*
D30*
X178192100Y-72996600D03*
D29*
%TO.N,N$22*%
X144951100Y-94753600D03*
%TO.N,N$107*%
X146201100Y-94553600D03*
D30*
%TO.N,5V1*%
X147724353Y-74190347D03*
X146401100Y-98103600D03*
X146671100Y-81903600D03*
X174531100Y-72191600D03*
%TO.N,N$111*%
X136611100Y-81503600D03*
X147551100Y-69763600D03*
D29*
%TO.N,DISABLE*%
X192270000Y-50970000D03*
X177220000Y-121500000D03*
D34*
%TO.N,N$97*%
X188001100Y-41553600D03*
X181272875Y-41825375D03*
D29*
%TO.N,N$9*%
X175001100Y-42014100D03*
%TO.N,N$83*%
X175001100Y-46803600D03*
%TO.N,N$86*%
X187451800Y-50330000D03*
X185040000Y-52704300D03*
%TO.N,N$87*%
X175001100Y-51753600D03*
%TO.N,N$114*%
X175001100Y-54303600D03*
D35*
%TO.N,PGND*%
X194310000Y-60960000D03*
X146050000Y-44450000D03*
X162560000Y-39370000D03*
X160020000Y-44450000D03*
D36*
X183751100Y-69153600D03*
D37*
X102805493Y-39689207D03*
D35*
X170180000Y-44450000D03*
X200025000Y-56515000D03*
D37*
X197805493Y-39689207D03*
D30*
X129701100Y-113903600D03*
D37*
X198552900Y-41493600D03*
D30*
X129701100Y-111903600D03*
D37*
X102805493Y-43297994D03*
D35*
X191135000Y-50165000D03*
D37*
X194196706Y-39689207D03*
X197805493Y-43297994D03*
X196001100Y-44045400D03*
D34*
X146751100Y-70503600D03*
D30*
X143162100Y-79276600D03*
D35*
X179180000Y-53975000D03*
D37*
X101001100Y-44045400D03*
D30*
X197101100Y-65503600D03*
D35*
X140970000Y-39370000D03*
D37*
X99196706Y-43297994D03*
D35*
X162560000Y-49530000D03*
X146050000Y-39370000D03*
X200025000Y-60960000D03*
D30*
X148020100Y-79143600D03*
D29*
X143690000Y-94690000D03*
D37*
X101001100Y-38941800D03*
D35*
X200025000Y-52070000D03*
D30*
X128201100Y-111903600D03*
D37*
X99196706Y-39689207D03*
X98449300Y-41493600D03*
D30*
X146301100Y-72951600D03*
D37*
X103552900Y-41493600D03*
D29*
X155001100Y-71363600D03*
D37*
X194196706Y-43297994D03*
D35*
X167640000Y-49530000D03*
D29*
X150001100Y-71373600D03*
D30*
X131201100Y-113903600D03*
D35*
X154940000Y-39370000D03*
D30*
X147400517Y-67605791D03*
D35*
X152400000Y-44450000D03*
D30*
X131201100Y-111903600D03*
D37*
X193449300Y-41493600D03*
D29*
X179507100Y-69811600D03*
D35*
X168910000Y-39370000D03*
D30*
X128201100Y-113903600D03*
X179157100Y-71525600D03*
D37*
X196001100Y-38941800D03*
D29*
%TO.N,SGND*%
X113651100Y-164103600D03*
X140651100Y-164103600D03*
D30*
X199948100Y-117687600D03*
D29*
X180401100Y-116103600D03*
D32*
X186727600Y-137008100D03*
D29*
X100651100Y-121103600D03*
X110651100Y-121103600D03*
X194679100Y-137846600D03*
D30*
X191062100Y-99003600D03*
X177571100Y-147903600D03*
D29*
X146151100Y-171603600D03*
X180001100Y-152103600D03*
X131651100Y-164103600D03*
X175060100Y-125611600D03*
D37*
X198552900Y-168493600D03*
D29*
X128999100Y-64013600D03*
D37*
X194196706Y-170297993D03*
D29*
X128151100Y-171603600D03*
D37*
X101001100Y-171045400D03*
D30*
X160621100Y-147833600D03*
D29*
X181971100Y-152241600D03*
X185841100Y-142913600D03*
D37*
X103552900Y-168493600D03*
D30*
X177048100Y-153049600D03*
D29*
X177008100Y-130283600D03*
D30*
X196701100Y-143203600D03*
D29*
X193890000Y-149760000D03*
X178950400Y-115002898D03*
D37*
X193449300Y-168493600D03*
D29*
X191151100Y-171603600D03*
D30*
X178196100Y-151481600D03*
D31*
X186830000Y-145830000D03*
D29*
X180401100Y-115203600D03*
D30*
X190331100Y-55703600D03*
X183491100Y-100873600D03*
D29*
X183201100Y-147603600D03*
D30*
X182611100Y-101763600D03*
D38*
X194001100Y-142303600D03*
D29*
X110151100Y-171603600D03*
D30*
X183491100Y-101763600D03*
D37*
X98449300Y-168493600D03*
D30*
X186921600Y-115665600D03*
D29*
X182461100Y-145673600D03*
D30*
X141659181Y-143332519D03*
D36*
X139351100Y-59177100D03*
D30*
X124721418Y-143325282D03*
D37*
X102805493Y-170297993D03*
D29*
X182151100Y-171603600D03*
X191001100Y-154103600D03*
D30*
X158734918Y-143298782D03*
D29*
X200151100Y-164103600D03*
X137316100Y-58586600D03*
X177830000Y-119250000D03*
D37*
X196001100Y-171045400D03*
X197805493Y-170297993D03*
D29*
X199651100Y-152603600D03*
X197651100Y-155103600D03*
X158651100Y-164103600D03*
D37*
X196001100Y-165941800D03*
D29*
X122651100Y-164103600D03*
D37*
X197805493Y-166689207D03*
X101001100Y-165941800D03*
D30*
X175719100Y-143268600D03*
X160088100Y-153054600D03*
D29*
X147465100Y-66213600D03*
X192390000Y-153706150D03*
D30*
X126209100Y-153058600D03*
D29*
X149651100Y-164103600D03*
X147219250Y-64900750D03*
D30*
X143641100Y-147893600D03*
X190126100Y-94262600D03*
D29*
X167651100Y-164103600D03*
X200151100Y-155103600D03*
X189001100Y-137503600D03*
X199651100Y-150103600D03*
D30*
X190381100Y-124473600D03*
D29*
X191590000Y-153060000D03*
D37*
X194196706Y-166689207D03*
D29*
X182401100Y-131503600D03*
X173151100Y-171603600D03*
X155151100Y-171603600D03*
X189001100Y-131503600D03*
D30*
X174856100Y-75184600D03*
D29*
X190114287Y-158954100D03*
D37*
X102805493Y-166689207D03*
D29*
X179001600Y-138713600D03*
X191001100Y-155503600D03*
X178852100Y-128981600D03*
D30*
X198001100Y-57503600D03*
D29*
X193901100Y-143012600D03*
D30*
X199012100Y-129007600D03*
D29*
X147451100Y-65603600D03*
D30*
X126801100Y-147733600D03*
D29*
X137151100Y-171603600D03*
X181971100Y-151500000D03*
X164151100Y-171603600D03*
D37*
X99196706Y-170297993D03*
D29*
X119151100Y-171603600D03*
D30*
X199948100Y-119687600D03*
D29*
X181501100Y-115203600D03*
X110744738Y-94995262D03*
D30*
X199005100Y-137000600D03*
X199948100Y-118687600D03*
D29*
X195994100Y-139398600D03*
X176820000Y-164230000D03*
D30*
X143183100Y-153056600D03*
D29*
X191151100Y-164103600D03*
D30*
X199101100Y-143403600D03*
D37*
X99196706Y-166689207D03*
D29*
%TO.N,THERMAL*%
X129001100Y-81453600D03*
%TO.N,N$63*%
X198001100Y-143003600D03*
%TO.N,N$127*%
X193683906Y-50716204D03*
%TD*%
D39*
%TO.N,ENC4_A*%
X184700000Y-146360000D02*
X184700000Y-159440000D01*
%TO.N,ENC2_B*%
X106551100Y-127873600D02*
X108001100Y-126423600D01*
X106551100Y-137729600D02*
X106551100Y-127873600D01*
X109309000Y-140487500D02*
X106551100Y-137729600D01*
X109309000Y-165864782D02*
X109309000Y-140487500D01*
X110377818Y-166933600D02*
X109309000Y-165864782D01*
X180810000Y-162680000D02*
X180810000Y-165994700D01*
X184300000Y-146930000D02*
X184300000Y-159190000D01*
X180810000Y-165994700D02*
X179871100Y-166933600D01*
X183394968Y-146024968D02*
X184300000Y-146930000D01*
X184300000Y-159190000D02*
X180810000Y-162680000D01*
X179871100Y-166933600D02*
X110377818Y-166933600D01*
X183394968Y-135344100D02*
X183394968Y-146024968D01*
X183264968Y-135214100D02*
X183394968Y-135344100D01*
%TO.N,ENC2_A*%
X109709000Y-165417500D02*
X109709000Y-133211500D01*
X110615100Y-166323600D02*
X109709000Y-165417500D01*
X179621100Y-166323600D02*
X110615100Y-166323600D01*
X180330000Y-165614700D02*
X179621100Y-166323600D01*
X180330000Y-162290000D02*
X180330000Y-165614700D01*
X109709000Y-133211500D02*
X108001100Y-131503600D01*
X183820000Y-147250000D02*
X183820000Y-158800000D01*
X183480000Y-146910000D02*
X183820000Y-147250000D01*
X182917985Y-146910000D02*
X183480000Y-146910000D01*
X181909900Y-145901915D02*
X182917985Y-146910000D01*
X182401100Y-138153600D02*
X181909900Y-138644800D01*
X181909900Y-138644800D02*
X181909900Y-145901915D01*
X183820000Y-158800000D02*
X180330000Y-162290000D01*
%TO.N,ENC1_B*%
X187750000Y-130202500D02*
X187351100Y-129803600D01*
X187750000Y-145668302D02*
X187750000Y-130202500D01*
X185530000Y-147888302D02*
X187750000Y-145668302D01*
X185530000Y-159890000D02*
X185530000Y-147888302D01*
X182210000Y-163210000D02*
X185530000Y-159890000D01*
X180471100Y-168803600D02*
X182210000Y-167064700D01*
X182210000Y-167064700D02*
X182210000Y-163210000D01*
X103960400Y-163322900D02*
X109441100Y-168803600D01*
X103960400Y-160957285D02*
X103960400Y-163322900D01*
X104001100Y-160916585D02*
X103960400Y-160957285D01*
X100001100Y-126423600D02*
X104001100Y-130423600D01*
X104001100Y-130423600D02*
X104001100Y-160916585D01*
X109441100Y-168803600D02*
X180471100Y-168803600D01*
%TO.N,ENC1_A*%
X188150000Y-129202500D02*
X186651100Y-127703600D01*
X188150000Y-145920000D02*
X188150000Y-129202500D01*
X185930000Y-148140000D02*
X188150000Y-145920000D01*
X180824100Y-169423600D02*
X182640000Y-167607700D01*
X182640000Y-167607700D02*
X182640000Y-163430000D01*
X185930000Y-160140000D02*
X185930000Y-148140000D01*
X109271100Y-169423600D02*
X180824100Y-169423600D01*
X103001100Y-163153600D02*
X109271100Y-169423600D01*
X182640000Y-163430000D02*
X185930000Y-160140000D01*
X103001100Y-134503600D02*
X103001100Y-163153600D01*
X100001100Y-131503600D02*
X103001100Y-134503600D01*
%TO.N,ENC3_B*%
X193499900Y-135797062D02*
X193543862Y-135753100D01*
X193499900Y-141264414D02*
X193499900Y-135797062D01*
X188180000Y-146584314D02*
X193499900Y-141264414D01*
X188180000Y-158580000D02*
X188180000Y-146584314D01*
X183140000Y-167904700D02*
X183140000Y-163620000D01*
X183140000Y-163620000D02*
X188180000Y-158580000D01*
X180931100Y-170113600D02*
X183140000Y-167904700D01*
X102401100Y-145823600D02*
X102401100Y-163439882D01*
X102401100Y-163439882D02*
X109074818Y-170113600D01*
X100001100Y-143423600D02*
X102401100Y-145823600D01*
X109074818Y-170113600D02*
X180931100Y-170113600D01*
%TO.N,BOOT0*%
X194051100Y-141278900D02*
X194051100Y-136263600D01*
X188580000Y-146750000D02*
X194051100Y-141278900D01*
X185061100Y-164093600D02*
X188580000Y-160574700D01*
X188580000Y-160574700D02*
X188580000Y-146750000D01*
%TO.N,ENC4_B*%
X185151100Y-140441338D02*
X185151100Y-126253600D01*
X184230000Y-141362438D02*
X185151100Y-140441338D01*
X184230000Y-143576500D02*
X184230000Y-141362438D01*
X185130000Y-144476500D02*
X184230000Y-143576500D01*
X185130000Y-159620000D02*
X185130000Y-144476500D01*
X181760000Y-166654700D02*
X181760000Y-162990000D01*
X180211100Y-168203600D02*
X181760000Y-166654700D01*
X105001100Y-146423600D02*
X105001100Y-163369882D01*
X105001100Y-163369882D02*
X109834818Y-168203600D01*
X109834818Y-168203600D02*
X180211100Y-168203600D01*
X181760000Y-162990000D02*
X185130000Y-159620000D01*
X108001100Y-143423600D02*
X105001100Y-146423600D01*
%TO.N,ENC4_A*%
X184630600Y-140274100D02*
X184630600Y-126803600D01*
X183820000Y-141084700D02*
X184630600Y-140274100D01*
X183820000Y-145480000D02*
X183820000Y-141084700D01*
X184700000Y-146360000D02*
X183820000Y-145480000D01*
X181280000Y-166374700D02*
X181280000Y-162860000D01*
X109980268Y-167546600D02*
X180108100Y-167546600D01*
X106751100Y-164317432D02*
X109980268Y-167546600D01*
X181280000Y-162860000D02*
X184700000Y-159440000D01*
X180108100Y-167546600D02*
X181280000Y-166374700D01*
X106751100Y-149753600D02*
X106751100Y-164317432D01*
X108001100Y-148503600D02*
X106751100Y-149753600D01*
%TO.N,CS2_OCD1*%
X108013100Y-88653600D02*
X104611100Y-88653600D01*
X109608762Y-87057938D02*
X108013100Y-88653600D01*
X112880600Y-87057938D02*
X109608762Y-87057938D01*
X113712662Y-87890000D02*
X112880600Y-87057938D01*
X113739300Y-87890000D02*
X113712662Y-87890000D01*
X104611100Y-88653600D02*
X102461100Y-86503600D01*
%TO.N,CS2_OCD2*%
X107546100Y-86498600D02*
X107541100Y-86503600D01*
X113810700Y-86498600D02*
X107546100Y-86498600D01*
X113819300Y-86490000D02*
X113810700Y-86498600D01*
%TO.N,N$87*%
X126951100Y-48803600D02*
X172051100Y-48803600D01*
X114300000Y-58744700D02*
X120141100Y-52903600D01*
X114300000Y-88809700D02*
X114300000Y-58744700D01*
X120141100Y-52903600D02*
X122851100Y-52903600D01*
X105001100Y-99503600D02*
X105001100Y-98108600D01*
X105001100Y-98108600D02*
X114300000Y-88809700D01*
X122851100Y-52903600D02*
X126951100Y-48803600D01*
X172051100Y-48803600D02*
X175001100Y-51753600D01*
%TO.N,N$114*%
X136974100Y-53930600D02*
X174628100Y-53930600D01*
X129251100Y-61653600D02*
X136974100Y-53930600D01*
X117501100Y-61653600D02*
X129251100Y-61653600D01*
X114700000Y-64454700D02*
X117501100Y-61653600D01*
X115181100Y-82313600D02*
X114700000Y-81832500D01*
X174628100Y-53930600D02*
X175001100Y-54303600D01*
X114700000Y-81832500D02*
X114700000Y-64454700D01*
X115181100Y-101992600D02*
X115181100Y-82313600D01*
X106039100Y-102645600D02*
X114528100Y-102645600D01*
X114528100Y-102645600D02*
X115181100Y-101992600D01*
X105001100Y-103683600D02*
X106039100Y-102645600D01*
X105001100Y-112503600D02*
X105001100Y-103683600D01*
%TO.N,CS3_OCD1*%
X104571100Y-101613600D02*
X102461100Y-99503600D01*
X114700400Y-101613600D02*
X104571100Y-101613600D01*
%TO.N,CS3_OCD2*%
X107951100Y-99093600D02*
X107541100Y-99503600D01*
X114700400Y-99091600D02*
X114698400Y-99093600D01*
X114698400Y-99093600D02*
X107951100Y-99093600D01*
%TO.N,PWM1*%
X184011600Y-54893100D02*
X192651300Y-46253400D01*
X199362800Y-70941900D02*
X193901100Y-76403600D01*
X197713600Y-46253400D02*
X199362800Y-47902600D01*
X193901100Y-76403600D02*
X193901100Y-117253600D01*
X121541100Y-80023600D02*
X121541100Y-72252600D01*
X138900600Y-54893100D02*
X184011600Y-54893100D01*
X199362800Y-47902600D02*
X199362800Y-70941900D01*
X192651300Y-46253400D02*
X197713600Y-46253400D01*
X121541100Y-72252600D02*
X138900600Y-54893100D01*
X193901100Y-117253600D02*
X193901100Y-129803600D01*
%TO.N,PWM2*%
X161951100Y-112503600D02*
X166273100Y-116825600D01*
X173573100Y-116825600D02*
X176051100Y-119303600D01*
X161951100Y-89003600D02*
X161951100Y-112503600D01*
X156813100Y-83865600D02*
X142403212Y-83865600D01*
X142403212Y-83865600D02*
X138561212Y-80023600D01*
X138561212Y-80023600D02*
X138541100Y-80023600D01*
X156813100Y-83865600D02*
X161951100Y-89003600D01*
X183901100Y-128953600D02*
X176051100Y-121103600D01*
X166273100Y-116825600D02*
X173573100Y-116825600D01*
X176051100Y-119303600D02*
X176051100Y-121103600D01*
X183901100Y-138843100D02*
X183901100Y-128953600D01*
%TO.N,PWM3*%
X170001100Y-110103600D02*
X170001100Y-85193713D01*
X173853362Y-111803600D02*
X171701100Y-111803600D01*
X161349100Y-83801600D02*
X157571100Y-80023600D01*
X168608987Y-83801600D02*
X161349100Y-83801600D01*
X176601600Y-114551838D02*
X173853362Y-111803600D01*
X171701100Y-111803600D02*
X170001100Y-110103600D01*
X157571100Y-80023600D02*
X155541100Y-80023600D01*
X170001100Y-85193713D02*
X168608987Y-83801600D01*
%TO.N,DIR2*%
X181751100Y-127703600D02*
X175951100Y-121903600D01*
X159351100Y-91153600D02*
X157051100Y-88853600D01*
X166893600Y-121903600D02*
X159351100Y-114361100D01*
X137501100Y-88853600D02*
X135751100Y-87103600D01*
X159351100Y-114361100D02*
X159351100Y-91153600D01*
X133471100Y-80023600D02*
X133461100Y-80023600D01*
X135751100Y-87103600D02*
X135751100Y-82303600D01*
X135751100Y-82303600D02*
X133471100Y-80023600D01*
X175951100Y-121903600D02*
X166893600Y-121903600D01*
X157051100Y-88853600D02*
X137501100Y-88853600D01*
%TO.N,DIR1*%
X157451100Y-95251100D02*
X156161600Y-93961600D01*
X157451100Y-115953600D02*
X157451100Y-95251100D01*
X166001100Y-124503600D02*
X157451100Y-115953600D01*
X132809100Y-93961600D02*
X122651100Y-83803600D01*
X156161600Y-93961600D02*
X132809100Y-93961600D01*
X122651100Y-83803600D02*
X120241100Y-83803600D01*
X183001100Y-134124100D02*
X183001100Y-130503600D01*
X120241100Y-83803600D02*
X116461100Y-80023600D01*
X177001100Y-124503600D02*
X166001100Y-124503600D01*
X183030600Y-134153600D02*
X183001100Y-134124100D01*
X183001100Y-130503600D02*
X177001100Y-124503600D01*
D40*
%TO.N,VCC*%
X125740100Y-69687600D02*
X135656100Y-59771600D01*
X135656100Y-59771600D02*
X150987100Y-59771600D01*
%TO.N,+3V3*%
X105051100Y-93007600D02*
X105051100Y-95996600D01*
D39*
X193526100Y-148876600D02*
X194472100Y-148876600D01*
D40*
X112004100Y-107973600D02*
X112011100Y-107980600D01*
X108477100Y-92694600D02*
X108474600Y-92692100D01*
X163351100Y-78453600D02*
X167461100Y-82563600D01*
X154571100Y-78453600D02*
X163351100Y-78453600D01*
D39*
X191391100Y-54560600D02*
X190847100Y-55104600D01*
D40*
X131981100Y-81333600D02*
X131981100Y-79373600D01*
X187450000Y-53982600D02*
X187271100Y-53982600D01*
X109345600Y-92692100D02*
X108474600Y-92692100D01*
D39*
X192481100Y-152898900D02*
X192481100Y-149921600D01*
D40*
X116121100Y-78483600D02*
X117611100Y-78483600D01*
X189705100Y-53982600D02*
X187271100Y-53982600D01*
X127761100Y-82593600D02*
X133431100Y-82593600D01*
X185001100Y-46881100D02*
X185001100Y-48653600D01*
D39*
X191880000Y-154149700D02*
X191880000Y-153500000D01*
D40*
X107201100Y-107973600D02*
X112004100Y-107973600D01*
X189483100Y-74448600D02*
X191783100Y-72148600D01*
X179741600Y-82251600D02*
X187544600Y-74448600D01*
X133431100Y-82593600D02*
X133461100Y-82563600D01*
X115191100Y-81293600D02*
X115191100Y-79413600D01*
X111927100Y-90110600D02*
X109345600Y-92692100D01*
X187271100Y-53982600D02*
X186934600Y-53982600D01*
D39*
X190847100Y-55104600D02*
X190827100Y-55104600D01*
D40*
X106218100Y-91840600D02*
X105051100Y-93007600D01*
X117611100Y-78483600D02*
X120421100Y-81293600D01*
X186934600Y-53982600D02*
X186933600Y-53981600D01*
X187450000Y-55167000D02*
X187450000Y-53982600D01*
X133461100Y-82563600D02*
X133211100Y-82563600D01*
X150461100Y-82563600D02*
X154571100Y-78453600D01*
X187544600Y-74448600D02*
X189483100Y-74448600D01*
X108474600Y-92692100D02*
X107623100Y-91840600D01*
X133051100Y-78303600D02*
X146201100Y-78303600D01*
D39*
X191880000Y-153500000D02*
X192481100Y-152898900D01*
D40*
X116461100Y-82563600D02*
X115191100Y-81293600D01*
X190827100Y-55104600D02*
X189705100Y-53982600D01*
X126461100Y-81293600D02*
X127761100Y-82593600D01*
X107623100Y-91840600D02*
X106218100Y-91840600D01*
X120421100Y-81293600D02*
X126461100Y-81293600D01*
X186933600Y-53981600D02*
X186892600Y-53981600D01*
X184890000Y-46770000D02*
X185001100Y-46881100D01*
X105048100Y-95999600D02*
X105051100Y-95996600D01*
X115191100Y-79413600D02*
X116121100Y-78483600D01*
D39*
X192481100Y-149921600D02*
X193526100Y-148876600D01*
D40*
X191783100Y-56060600D02*
X190827100Y-55104600D01*
X133211100Y-82563600D02*
X131981100Y-81333600D01*
D39*
X194472100Y-148876600D02*
X194473100Y-148877600D01*
X191274100Y-154755600D02*
X191880000Y-154149700D01*
D40*
X146201100Y-78303600D02*
X150461100Y-82563600D01*
X111927100Y-88039600D02*
X111927100Y-90110600D01*
X191783100Y-72148600D02*
X191783100Y-56060600D01*
X131981100Y-79373600D02*
X133051100Y-78303600D01*
D39*
X190993100Y-154755600D02*
X191274100Y-154755600D01*
%TO.N,N$33*%
X192870000Y-153433600D02*
X192870000Y-153505630D01*
X193101600Y-153202000D02*
X192870000Y-153433600D01*
X192871200Y-154383500D02*
X191001100Y-156253600D01*
X193101600Y-150890863D02*
X193101600Y-153202000D01*
X192870000Y-153505630D02*
X192871200Y-153506830D01*
X192871200Y-153506830D02*
X192871200Y-154383500D01*
D41*
%TO.N,+5V*%
X132463002Y-42603600D02*
X135819198Y-42603600D01*
X137201100Y-43985502D02*
X137201100Y-44243600D01*
X117701100Y-44303600D02*
X131081100Y-44303600D01*
X111581100Y-43623600D02*
X112654700Y-42550000D01*
D42*
X110001100Y-45823600D02*
X111581100Y-44243600D01*
X105031100Y-45823600D02*
X110001100Y-45823600D01*
X99011100Y-45823600D02*
X105031100Y-45823600D01*
D41*
X116540000Y-42550000D02*
X117701100Y-43711100D01*
D39*
X105001100Y-45853600D02*
X105031100Y-45823600D01*
D41*
X117701100Y-43711100D02*
X117701100Y-44243600D01*
X131081100Y-44303600D02*
X131081100Y-44243600D01*
X111581100Y-44243600D02*
X111581100Y-43623600D01*
X131081100Y-44243600D02*
X131081100Y-43985502D01*
X131081100Y-43985502D02*
X132463002Y-42603600D01*
D39*
X105001100Y-46583600D02*
X105001100Y-45853600D01*
D42*
X96977200Y-126441200D02*
X96981100Y-47853600D01*
D41*
X112654700Y-42550000D02*
X116540000Y-42550000D01*
D42*
X96981100Y-47853600D02*
X99011100Y-45823600D01*
X99500000Y-128963600D02*
X96977200Y-126441200D01*
D41*
X117701100Y-44243600D02*
X117701100Y-44303600D01*
X135819198Y-42603600D02*
X137201100Y-43985502D01*
D39*
%TO.N,CS1_OCD1*%
X105571100Y-76693600D02*
X102381100Y-73503600D01*
X112611100Y-76693600D02*
X105571100Y-76693600D01*
%TO.N,CS4_OCD1*%
X101001100Y-112503600D02*
X102461100Y-112503600D01*
X98532100Y-121066150D02*
X99723100Y-119875150D01*
X99723100Y-119875150D02*
X99723100Y-113781600D01*
X102419100Y-107984600D02*
X102419100Y-112461600D01*
X98532100Y-123401600D02*
X98532100Y-121066150D01*
X102419100Y-107984600D02*
X102416100Y-107987600D01*
X102416100Y-108006600D02*
X102416100Y-107987600D01*
X99723100Y-113781600D02*
X101001100Y-112503600D01*
X102461100Y-112503600D02*
X102419100Y-112461600D01*
%TO.N,CS4_OCD2*%
X107496100Y-112548600D02*
X107541100Y-112503600D01*
X107496100Y-112548600D02*
X107863100Y-112548600D01*
X99057100Y-121354600D02*
X107863100Y-112548600D01*
X99057100Y-121354600D02*
X99057100Y-123793600D01*
%TO.N,CS2_REF1*%
X101051100Y-84551600D02*
X101051100Y-91003600D01*
X103302700Y-82300000D02*
X101051100Y-84551600D01*
X112027700Y-82300000D02*
X103302700Y-82300000D01*
X112290100Y-82037600D02*
X112027700Y-82300000D01*
%TO.N,CS3_REF2*%
X113641100Y-161683600D02*
X111023400Y-159065900D01*
X106649900Y-106504800D02*
X106651100Y-106503600D01*
X111023400Y-128738300D02*
X112871100Y-126890600D01*
X106649900Y-108201915D02*
X106649900Y-106504800D01*
X111023400Y-159065900D02*
X111023400Y-128738300D01*
X112871100Y-126890600D02*
X112871100Y-114423115D01*
X112871100Y-114423115D02*
X106649900Y-108201915D01*
%TO.N,CS3_REF1*%
X97491100Y-124103050D02*
X98584650Y-125196600D01*
X97491100Y-118763600D02*
X97491100Y-124103050D01*
X101606100Y-125196600D02*
X104510100Y-128100600D01*
X98551100Y-117703600D02*
X97491100Y-118763600D01*
X98584650Y-125196600D02*
X101606100Y-125196600D01*
X104510100Y-128100600D02*
X104510100Y-161184100D01*
X98551100Y-106503600D02*
X98551100Y-117703600D01*
X104510100Y-161184100D02*
X104511600Y-161185600D01*
%TO.N,CS4_REF2*%
X110566200Y-123418700D02*
X106651100Y-119503600D01*
X110566200Y-159529438D02*
X110566200Y-123418700D01*
X113219862Y-162183100D02*
X110566200Y-159529438D01*
%TO.N,CS4_REF1*%
X110109000Y-125828500D02*
X108666100Y-124385600D01*
X110109000Y-159988500D02*
X110109000Y-125828500D01*
X97980900Y-120073800D02*
X98551100Y-119503600D01*
X98736585Y-124385600D02*
X97980900Y-123629915D01*
X112841100Y-162720600D02*
X110109000Y-159988500D01*
X97980900Y-123629915D02*
X97980900Y-120073800D01*
X108666100Y-124385600D02*
X98736585Y-124385600D01*
%TO.N,SHUTDOWN*%
X127481100Y-69713600D02*
X127321100Y-69553600D01*
X133671100Y-69713600D02*
X127481100Y-69713600D01*
X133831100Y-69553600D02*
X133671100Y-69713600D01*
%TO.N,CS*%
X139901100Y-77253600D02*
X172451100Y-77253600D01*
X177152800Y-114323523D02*
X177152800Y-120675785D01*
X174851100Y-79653600D02*
X174851100Y-112021823D01*
X172451100Y-77253600D02*
X174851100Y-79653600D01*
X181801100Y-125324085D02*
X181801100Y-125363600D01*
X174851100Y-112021823D02*
X177152800Y-114323523D01*
X134397059Y-71749559D02*
X139901100Y-77253600D01*
X177152800Y-120675785D02*
X181801100Y-125324085D01*
X134397059Y-68874379D02*
X134397059Y-71749559D01*
%TO.N,SCK*%
X141121100Y-76423600D02*
X135801100Y-71103600D01*
X172741100Y-76423600D02*
X141121100Y-76423600D01*
X178400000Y-115232013D02*
X178399200Y-115231213D01*
X178399200Y-114774583D02*
X178400000Y-114773783D01*
X182501100Y-125363600D02*
X178400000Y-121262500D01*
X178400000Y-121262500D02*
X178400000Y-115232013D01*
X178400000Y-111202500D02*
X176101100Y-108903600D01*
X176101100Y-79783600D02*
X172741100Y-76423600D01*
X178399200Y-115231213D02*
X178399200Y-114774583D01*
X176101100Y-108903600D02*
X176101100Y-79783600D01*
X178400000Y-114773783D02*
X178400000Y-111202500D01*
%TO.N,MISO*%
X173371100Y-75663600D02*
X177531100Y-79823600D01*
X179501100Y-106803600D02*
X179501100Y-121613600D01*
X143618334Y-75663600D02*
X173371100Y-75663600D01*
X136880600Y-66776600D02*
X136880600Y-68925866D01*
X136880600Y-68925866D02*
X143618334Y-75663600D01*
X177531100Y-79823600D02*
X177531100Y-104833600D01*
X179501100Y-121613600D02*
X183251100Y-125363600D01*
X177531100Y-104833600D02*
X179501100Y-106803600D01*
%TO.N,MOSI*%
X178751100Y-80013600D02*
X178751100Y-88220019D01*
X138176000Y-66802000D02*
X146227600Y-74853600D01*
X184525100Y-93994019D02*
X184525100Y-124789600D01*
X138176000Y-66776600D02*
X138176000Y-66802000D01*
X173591100Y-74853600D02*
X178751100Y-80013600D01*
X146227600Y-74853600D02*
X173591100Y-74853600D01*
X178751100Y-88220019D02*
X184525100Y-93994019D01*
X184525100Y-124789600D02*
X183951100Y-125363600D01*
%TO.N,SWO*%
X195551100Y-131803600D02*
X195551100Y-116268600D01*
X195551100Y-116268600D02*
X196366100Y-115453600D01*
X193601100Y-133753600D02*
X195551100Y-131803600D01*
%TO.N,ENC3_A*%
X200181100Y-154323600D02*
X183681100Y-170823600D01*
X100001100Y-148515100D02*
X100001100Y-148503600D01*
X200181100Y-141023100D02*
X200181100Y-154323600D01*
X183681100Y-170823600D02*
X109021100Y-170823600D01*
X101601100Y-150115100D02*
X100001100Y-148515100D01*
X194851100Y-135693100D02*
X200181100Y-141023100D01*
X101601100Y-163403600D02*
X101601100Y-150115100D01*
X109021100Y-170823600D02*
X101601100Y-163403600D01*
%TO.N,ALIVE_LED*%
X197500501Y-48503601D02*
X198101598Y-49104698D01*
X191202995Y-122915600D02*
X188799205Y-122915600D01*
X196001100Y-52503600D02*
X196001100Y-72753600D01*
X192651100Y-76103600D02*
X192651100Y-121467495D01*
X188651100Y-122767495D02*
X188651100Y-127753600D01*
X198101598Y-50403102D02*
X196001100Y-52503600D01*
X198101598Y-49104698D02*
X198101598Y-50403102D01*
X197173829Y-48503601D02*
X197500501Y-48503601D01*
X188799205Y-122915600D02*
X188651100Y-122767495D01*
X192651100Y-121467495D02*
X191202995Y-122915600D01*
X196001100Y-72753600D02*
X192651100Y-76103600D01*
%TO.N,COM_LED*%
X193001100Y-73403600D02*
X193001100Y-50553600D01*
X141901100Y-53103600D02*
X166234100Y-53103600D01*
X187541100Y-98013600D02*
X187541100Y-126324100D01*
X191001100Y-94553600D02*
X191001100Y-75403600D01*
X187541100Y-98013600D02*
X191001100Y-94553600D01*
X191130100Y-45638600D02*
X192145100Y-45638600D01*
X183895100Y-52873600D02*
X191130100Y-45638600D01*
X141901100Y-53103600D02*
X124651100Y-53103600D01*
X171542100Y-50139600D02*
X174276100Y-52873600D01*
X169198100Y-50139600D02*
X171542100Y-50139600D01*
X174276100Y-52873600D02*
X183895100Y-52873600D01*
X166234100Y-53103600D02*
X169198100Y-50139600D01*
X191001100Y-75403600D02*
X193001100Y-73403600D01*
%TO.N,DEBUG_LED*%
X197485000Y-49619700D02*
X195001100Y-52103600D01*
X191524100Y-76128913D02*
X191524100Y-95480600D01*
X195001100Y-52103600D02*
X195001100Y-72651913D01*
X195001100Y-72651913D02*
X191524100Y-76128913D01*
X188151100Y-126853600D02*
X187651100Y-127353600D01*
X187941100Y-99063600D02*
X187941100Y-125393600D01*
X191524100Y-95480600D02*
X187941100Y-99063600D01*
X187941100Y-125393600D02*
X188151100Y-125603600D01*
X197489801Y-49250497D02*
X197485000Y-49255298D01*
X188151100Y-125603600D02*
X188151100Y-126853600D01*
X197485000Y-49255298D02*
X197485000Y-49619700D01*
%TO.N,N$21*%
X198031100Y-79773600D02*
X195001100Y-79773600D01*
D42*
%TO.N,5V1*%
X172532353Y-74190347D02*
X174531100Y-72191600D01*
X147724353Y-74190347D02*
X172532353Y-74190347D01*
D39*
%TO.N,N$111*%
X136611100Y-83173600D02*
X136611100Y-81503600D01*
X138541100Y-85103600D02*
X136611100Y-83173600D01*
%TO.N,DISABLE*%
X186201100Y-124103600D02*
X183901100Y-126403600D01*
X178001100Y-122301100D02*
X177220000Y-121520000D01*
X192270000Y-72322250D02*
X189524100Y-75068150D01*
X189524100Y-75068150D02*
X189524100Y-94980600D01*
X192270000Y-50970000D02*
X192270000Y-72322250D01*
X178001100Y-122303600D02*
X178001100Y-122301100D01*
X177220000Y-121520000D02*
X177220000Y-121500000D01*
X189524100Y-94980600D02*
X186201100Y-98303600D01*
X186201100Y-98303600D02*
X186201100Y-124103600D01*
X183901100Y-126403600D02*
X182101100Y-126403600D01*
X182101100Y-126403600D02*
X178001100Y-122303600D01*
%TO.N,N$9*%
X104921100Y-58583600D02*
X104921100Y-73503600D01*
X175001100Y-42014100D02*
X169961600Y-47053600D01*
X169961600Y-47053600D02*
X116451100Y-47053600D01*
X116451100Y-47053600D02*
X104921100Y-58583600D01*
%TO.N,N$83*%
X105001100Y-85801600D02*
X107493100Y-83309600D01*
X107493100Y-83309600D02*
X111922100Y-83309600D01*
X105001100Y-86503600D02*
X105001100Y-85801600D01*
X113426100Y-53378600D02*
X118901100Y-47903600D01*
X113426100Y-81805600D02*
X113426100Y-53378600D01*
X173901100Y-47903600D02*
X175001100Y-46803600D01*
X111922100Y-83309600D02*
X113426100Y-81805600D01*
X118901100Y-47903600D02*
X173901100Y-47903600D01*
%TO.N,N$86*%
X185145700Y-52704300D02*
X185040000Y-52704300D01*
X187451800Y-50398200D02*
X185145700Y-52704300D01*
X187451800Y-50330000D02*
X187451800Y-50398200D01*
D42*
%TO.N,SGND*%
X189254806Y-73781600D02*
X191066100Y-71970307D01*
X191066100Y-71970307D02*
X191066100Y-56438600D01*
X191066100Y-56438600D02*
X190331100Y-55703600D01*
D43*
X199960100Y-103342600D02*
X199960100Y-119675600D01*
X197001100Y-100383600D02*
X199960100Y-103342600D01*
D42*
X176259100Y-73781600D02*
X189254806Y-73781600D01*
D43*
X199960100Y-119675600D02*
X199948100Y-119687600D01*
D42*
X174856100Y-75184600D02*
X176259100Y-73781600D01*
%TD*%
%TA.AperFunction,Conductor*%
%TO.N,N$25*%
G36*
X187055307Y-55408028D02*
G01*
X187071984Y-55420512D01*
X187151159Y-55511885D01*
X187235527Y-55566104D01*
X187260427Y-55582106D01*
X187385055Y-55618700D01*
X187514945Y-55618700D01*
X187639573Y-55582106D01*
X187675996Y-55558698D01*
X187748840Y-55511885D01*
X187828016Y-55420512D01*
X187844693Y-55408028D01*
X187865048Y-55403600D01*
X189022225Y-55403600D01*
X189056873Y-55417952D01*
X190601248Y-56962327D01*
X190615600Y-56996975D01*
X190615600Y-71763408D01*
X190611870Y-71782159D01*
X190601248Y-71798056D01*
X189082555Y-73316748D01*
X189047907Y-73331100D01*
X178696975Y-73331100D01*
X178667146Y-73320974D01*
X178649645Y-73294782D01*
X178651705Y-73263349D01*
X178652170Y-73262224D01*
X178652172Y-73262223D01*
X178705243Y-73134096D01*
X178723345Y-72996600D01*
X178705243Y-72859104D01*
X178652172Y-72730978D01*
X178602337Y-72666031D01*
X178567747Y-72620952D01*
X178457723Y-72536528D01*
X178329597Y-72483457D01*
X178260847Y-72474405D01*
X178192100Y-72465355D01*
X178192099Y-72465355D01*
X178054603Y-72483457D01*
X177926476Y-72536529D01*
X177816452Y-72620952D01*
X177732029Y-72730976D01*
X177678957Y-72859103D01*
X177660855Y-72996599D01*
X177678957Y-73134097D01*
X177686122Y-73151394D01*
X177732028Y-73262223D01*
X177732029Y-73262224D01*
X177732495Y-73263349D01*
X177734555Y-73294782D01*
X177717054Y-73320974D01*
X177687225Y-73331100D01*
X176287153Y-73331100D01*
X176281667Y-73330792D01*
X176242065Y-73326329D01*
X176184518Y-73337217D01*
X176182713Y-73337524D01*
X176136921Y-73344426D01*
X176124813Y-73346252D01*
X176124812Y-73346252D01*
X176124807Y-73346253D01*
X176122878Y-73347182D01*
X176110746Y-73351174D01*
X176108630Y-73351574D01*
X176056826Y-73378953D01*
X176055192Y-73379778D01*
X176002455Y-73405176D01*
X176000878Y-73406639D01*
X175990463Y-73414029D01*
X175988562Y-73415033D01*
X175947151Y-73456443D01*
X175945833Y-73457713D01*
X175902904Y-73497546D01*
X175901830Y-73499407D01*
X175894047Y-73509548D01*
X175814348Y-73589248D01*
X175798452Y-73599870D01*
X175779700Y-73603600D01*
X173874499Y-73603600D01*
X173839851Y-73589248D01*
X173825499Y-73554600D01*
X173839851Y-73519952D01*
X174363203Y-72996599D01*
X174641245Y-72718556D01*
X174662910Y-72707873D01*
X174662636Y-72707212D01*
X174695977Y-72693401D01*
X174796723Y-72651672D01*
X174906747Y-72567247D01*
X174991172Y-72457223D01*
X175044243Y-72329096D01*
X175062345Y-72191600D01*
X175044243Y-72054104D01*
X174991172Y-71925978D01*
X174940087Y-71859402D01*
X174906747Y-71815952D01*
X174796723Y-71731528D01*
X174668597Y-71678457D01*
X174551927Y-71663097D01*
X174531100Y-71660355D01*
X174531099Y-71660355D01*
X174393603Y-71678457D01*
X174265476Y-71731529D01*
X174155452Y-71815952D01*
X174071028Y-71925977D01*
X174015489Y-72060062D01*
X174014828Y-72059788D01*
X174004143Y-72081452D01*
X172496349Y-73589248D01*
X172480453Y-73599870D01*
X172461701Y-73603600D01*
X169979975Y-73603600D01*
X169945327Y-73589248D01*
X167915452Y-71559373D01*
X167901462Y-71525599D01*
X178625855Y-71525599D01*
X178643957Y-71663097D01*
X178697028Y-71791223D01*
X178781452Y-71901247D01*
X178865876Y-71966028D01*
X178891477Y-71985672D01*
X179019604Y-72038743D01*
X179157100Y-72056845D01*
X179294596Y-72038743D01*
X179422723Y-71985672D01*
X179532747Y-71901247D01*
X179617172Y-71791223D01*
X179670243Y-71663096D01*
X179688345Y-71525600D01*
X179670243Y-71388104D01*
X179617172Y-71259978D01*
X179585299Y-71218440D01*
X179532747Y-71149952D01*
X179422723Y-71065528D01*
X179294597Y-71012457D01*
X179225847Y-71003405D01*
X179157100Y-70994355D01*
X179157099Y-70994355D01*
X179019603Y-71012457D01*
X178891476Y-71065529D01*
X178781452Y-71149952D01*
X178697029Y-71259976D01*
X178643957Y-71388103D01*
X178625855Y-71525599D01*
X167901462Y-71525599D01*
X167901100Y-71524725D01*
X167901100Y-69811599D01*
X179050754Y-69811599D01*
X179069239Y-69940166D01*
X179123197Y-70058318D01*
X179208259Y-70156485D01*
X179317525Y-70226705D01*
X179317527Y-70226706D01*
X179442155Y-70263300D01*
X179572045Y-70263300D01*
X179696673Y-70226706D01*
X179733096Y-70203298D01*
X179805940Y-70156485D01*
X179805942Y-70156483D01*
X179891002Y-70058319D01*
X179944960Y-69940167D01*
X179963445Y-69811600D01*
X179944960Y-69683033D01*
X179891002Y-69564881D01*
X179805940Y-69466714D01*
X179696674Y-69396494D01*
X179572045Y-69359900D01*
X179442155Y-69359900D01*
X179317525Y-69396494D01*
X179208259Y-69466714D01*
X179123197Y-69564881D01*
X179069239Y-69683033D01*
X179050754Y-69811599D01*
X167901100Y-69811599D01*
X167901100Y-69153600D01*
X183269497Y-69153600D01*
X183289005Y-69289280D01*
X183289005Y-69289281D01*
X183289006Y-69289283D01*
X183345951Y-69413974D01*
X183435718Y-69517571D01*
X183551035Y-69591681D01*
X183682561Y-69630300D01*
X183819639Y-69630300D01*
X183951165Y-69591681D01*
X184066482Y-69517571D01*
X184156249Y-69413974D01*
X184213194Y-69289283D01*
X184232702Y-69153600D01*
X184213194Y-69017917D01*
X184156249Y-68893226D01*
X184066482Y-68789629D01*
X183951165Y-68715519D01*
X183819639Y-68676900D01*
X183682561Y-68676900D01*
X183551034Y-68715519D01*
X183435718Y-68789629D01*
X183345951Y-68893225D01*
X183289005Y-69017919D01*
X183269497Y-69153600D01*
X167901100Y-69153600D01*
X167901100Y-61253600D01*
X171240788Y-61253600D01*
X171260017Y-61608259D01*
X171317481Y-61958773D01*
X171412502Y-62301007D01*
X171543970Y-62630969D01*
X171710340Y-62944775D01*
X171807436Y-63087981D01*
X171909667Y-63238760D01*
X172024638Y-63374114D01*
X172139609Y-63509469D01*
X172397471Y-63753728D01*
X172680232Y-63968677D01*
X172984574Y-64151794D01*
X173306931Y-64300933D01*
X173391080Y-64329285D01*
X173643524Y-64414344D01*
X173877009Y-64465737D01*
X173990399Y-64490697D01*
X173990401Y-64490697D01*
X173990405Y-64490698D01*
X174343508Y-64529100D01*
X174698690Y-64529100D01*
X174698692Y-64529100D01*
X175051795Y-64490698D01*
X175398676Y-64414344D01*
X175735268Y-64300933D01*
X176057625Y-64151794D01*
X176361968Y-63968677D01*
X176644728Y-63753729D01*
X176902591Y-63509468D01*
X177132533Y-63238760D01*
X177331858Y-62944777D01*
X177498230Y-62630967D01*
X177629697Y-62301008D01*
X177724719Y-61958770D01*
X177782182Y-61608264D01*
X177801411Y-61253600D01*
X177782182Y-60898936D01*
X177724719Y-60548430D01*
X177629697Y-60206192D01*
X177498230Y-59876233D01*
X177498229Y-59876230D01*
X177331859Y-59562424D01*
X177283310Y-59490820D01*
X177132533Y-59268440D01*
X176997177Y-59109088D01*
X176902590Y-58997730D01*
X176644728Y-58753471D01*
X176361967Y-58538522D01*
X176057625Y-58355405D01*
X175735268Y-58206266D01*
X175485522Y-58122118D01*
X175398676Y-58092856D01*
X175398673Y-58092855D01*
X175398672Y-58092855D01*
X175051800Y-58016502D01*
X174799578Y-57989071D01*
X174698692Y-57978100D01*
X174343508Y-57978100D01*
X174255232Y-57987700D01*
X173990399Y-58016502D01*
X173643527Y-58092855D01*
X173306931Y-58206266D01*
X172984574Y-58355405D01*
X172680232Y-58538522D01*
X172397471Y-58753471D01*
X172139609Y-58997730D01*
X171909667Y-59268440D01*
X171710340Y-59562424D01*
X171543970Y-59876230D01*
X171412502Y-60206192D01*
X171317481Y-60548426D01*
X171260017Y-60898940D01*
X171240788Y-61253600D01*
X167901100Y-61253600D01*
X167901100Y-57482475D01*
X167915452Y-57447827D01*
X169945327Y-55417952D01*
X169979975Y-55403600D01*
X187034952Y-55403600D01*
X187055307Y-55408028D01*
G37*
%TD.AperFunction*%
%TD*%
%TA.AperFunction,Conductor*%
%TO.N,N$4*%
G36*
X116273716Y-126904433D02*
G01*
X116352174Y-126919100D01*
X116570025Y-126919100D01*
X116570026Y-126919100D01*
X116648483Y-126904433D01*
X116657486Y-126903600D01*
X117522225Y-126903600D01*
X117556873Y-126917952D01*
X120042522Y-129403600D01*
X121168940Y-129403600D01*
X121186639Y-129406908D01*
X121218031Y-129419070D01*
X121432174Y-129459100D01*
X121650024Y-129459100D01*
X121650026Y-129459100D01*
X121864169Y-129419070D01*
X121895560Y-129406908D01*
X121913260Y-129403600D01*
X128022225Y-129403600D01*
X128056873Y-129417952D01*
X129086748Y-130447827D01*
X129101100Y-130482475D01*
X129101100Y-160524725D01*
X129086748Y-160559373D01*
X128056873Y-161589248D01*
X128022225Y-161603600D01*
X118979975Y-161603600D01*
X118945327Y-161589248D01*
X116915452Y-159559373D01*
X116901100Y-159524725D01*
X116901100Y-157545023D01*
X116901099Y-157545021D01*
X114959678Y-155603600D01*
X112979975Y-155603600D01*
X112945327Y-155589248D01*
X111915452Y-154559373D01*
X111901100Y-154524725D01*
X111901100Y-153058599D01*
X125677855Y-153058599D01*
X125695957Y-153196097D01*
X125749028Y-153324223D01*
X125833452Y-153434247D01*
X125917876Y-153499028D01*
X125943477Y-153518672D01*
X126071604Y-153571743D01*
X126209100Y-153589845D01*
X126346596Y-153571743D01*
X126474723Y-153518672D01*
X126584747Y-153434247D01*
X126669172Y-153324223D01*
X126722243Y-153196096D01*
X126740345Y-153058600D01*
X126722243Y-152921104D01*
X126669172Y-152792978D01*
X126637299Y-152751440D01*
X126584747Y-152682952D01*
X126474723Y-152598528D01*
X126346597Y-152545457D01*
X126277848Y-152536406D01*
X126209100Y-152527355D01*
X126209099Y-152527355D01*
X126071603Y-152545457D01*
X125943476Y-152598529D01*
X125833452Y-152682952D01*
X125749029Y-152792976D01*
X125695957Y-152921103D01*
X125677855Y-153058599D01*
X111901100Y-153058599D01*
X111901100Y-151803599D01*
X125594754Y-151803599D01*
X125613239Y-151932166D01*
X125667197Y-152050318D01*
X125752259Y-152148485D01*
X125861525Y-152218705D01*
X125861527Y-152218706D01*
X125986155Y-152255300D01*
X126116045Y-152255300D01*
X126240673Y-152218706D01*
X126277095Y-152195298D01*
X126349940Y-152148485D01*
X126349942Y-152148483D01*
X126435002Y-152050319D01*
X126488960Y-151932167D01*
X126507445Y-151803600D01*
X126488960Y-151675033D01*
X126435002Y-151556881D01*
X126435001Y-151556880D01*
X126349940Y-151458714D01*
X126240674Y-151388494D01*
X126116045Y-151351900D01*
X125986155Y-151351900D01*
X125861525Y-151388494D01*
X125752259Y-151458714D01*
X125667197Y-151556881D01*
X125613239Y-151675033D01*
X125594754Y-151803599D01*
X111901100Y-151803599D01*
X111901100Y-150693100D01*
X125298754Y-150693100D01*
X125317239Y-150821666D01*
X125371197Y-150939818D01*
X125456259Y-151037985D01*
X125565525Y-151108205D01*
X125565527Y-151108206D01*
X125690155Y-151144800D01*
X125820045Y-151144800D01*
X125944673Y-151108206D01*
X125981095Y-151084798D01*
X126053940Y-151037985D01*
X126053942Y-151037983D01*
X126139002Y-150939819D01*
X126192960Y-150821667D01*
X126211445Y-150693100D01*
X126192960Y-150564533D01*
X126139002Y-150446381D01*
X126053940Y-150348214D01*
X125944674Y-150277994D01*
X125820045Y-150241400D01*
X125690155Y-150241400D01*
X125565525Y-150277994D01*
X125456259Y-150348214D01*
X125371197Y-150446381D01*
X125317239Y-150564533D01*
X125298754Y-150693100D01*
X111901100Y-150693100D01*
X111901100Y-147453600D01*
X125244754Y-147453600D01*
X125263239Y-147582166D01*
X125317197Y-147700318D01*
X125402259Y-147798485D01*
X125511525Y-147868705D01*
X125511527Y-147868706D01*
X125636155Y-147905300D01*
X125766045Y-147905300D01*
X125890673Y-147868706D01*
X125927096Y-147845298D01*
X125999940Y-147798485D01*
X125999942Y-147798483D01*
X126056165Y-147733599D01*
X126269855Y-147733599D01*
X126287957Y-147871097D01*
X126341028Y-147999223D01*
X126425452Y-148109247D01*
X126509876Y-148174028D01*
X126535477Y-148193672D01*
X126663604Y-148246743D01*
X126801100Y-148264845D01*
X126938596Y-148246743D01*
X127066723Y-148193672D01*
X127176747Y-148109247D01*
X127261172Y-147999223D01*
X127314243Y-147871096D01*
X127332345Y-147733600D01*
X127314243Y-147596104D01*
X127261172Y-147467978D01*
X127229299Y-147426440D01*
X127176747Y-147357952D01*
X127066723Y-147273528D01*
X126938597Y-147220457D01*
X126869847Y-147211405D01*
X126801100Y-147202355D01*
X126801099Y-147202355D01*
X126663603Y-147220457D01*
X126535476Y-147273529D01*
X126425452Y-147357952D01*
X126341029Y-147467976D01*
X126287957Y-147596103D01*
X126269855Y-147733599D01*
X126056165Y-147733599D01*
X126085002Y-147700319D01*
X126138960Y-147582167D01*
X126157445Y-147453600D01*
X126138960Y-147325033D01*
X126085002Y-147206881D01*
X126081080Y-147202355D01*
X125999940Y-147108714D01*
X125890674Y-147038494D01*
X125766045Y-147001900D01*
X125636155Y-147001900D01*
X125511525Y-147038494D01*
X125402259Y-147108714D01*
X125317197Y-147206881D01*
X125263239Y-147325033D01*
X125244754Y-147453600D01*
X111901100Y-147453600D01*
X111901100Y-143325281D01*
X124190173Y-143325281D01*
X124208275Y-143462779D01*
X124261346Y-143590905D01*
X124345770Y-143700929D01*
X124430194Y-143765710D01*
X124455795Y-143785354D01*
X124583922Y-143838425D01*
X124721418Y-143856527D01*
X124858914Y-143838425D01*
X124987041Y-143785354D01*
X125097065Y-143700929D01*
X125181490Y-143590905D01*
X125234561Y-143462778D01*
X125252663Y-143325282D01*
X125234561Y-143187786D01*
X125181490Y-143059660D01*
X125149617Y-143018122D01*
X125097065Y-142949634D01*
X124987041Y-142865210D01*
X124858915Y-142812139D01*
X124790166Y-142803088D01*
X124721418Y-142794037D01*
X124721417Y-142794037D01*
X124583921Y-142812139D01*
X124455794Y-142865211D01*
X124345770Y-142949634D01*
X124261347Y-143059658D01*
X124208275Y-143187785D01*
X124190173Y-143325281D01*
X111901100Y-143325281D01*
X111901100Y-128482475D01*
X111915452Y-128447827D01*
X113445327Y-126917952D01*
X113479975Y-126903600D01*
X116264714Y-126903600D01*
X116273716Y-126904433D01*
G37*
%TD.AperFunction*%
%TD*%
%TA.AperFunction,Conductor*%
%TO.N,N$5*%
G36*
X133273716Y-126904433D02*
G01*
X133352174Y-126919100D01*
X133570025Y-126919100D01*
X133570026Y-126919100D01*
X133648483Y-126904433D01*
X133657486Y-126903600D01*
X134522225Y-126903600D01*
X134556873Y-126917952D01*
X137042522Y-129403600D01*
X138168940Y-129403600D01*
X138186639Y-129406908D01*
X138218031Y-129419070D01*
X138432174Y-129459100D01*
X138650024Y-129459100D01*
X138650026Y-129459100D01*
X138864169Y-129419070D01*
X138895560Y-129406908D01*
X138913260Y-129403600D01*
X145022225Y-129403600D01*
X145056873Y-129417952D01*
X146086748Y-130447827D01*
X146101100Y-130482475D01*
X146101100Y-160524725D01*
X146086748Y-160559373D01*
X145056873Y-161589248D01*
X145022225Y-161603600D01*
X136979975Y-161603600D01*
X136945327Y-161589248D01*
X134915452Y-159559373D01*
X134901100Y-159524725D01*
X134901100Y-157545023D01*
X134901099Y-157545021D01*
X132959678Y-155603600D01*
X130979975Y-155603600D01*
X130945327Y-155589248D01*
X129915452Y-154559373D01*
X129901100Y-154524725D01*
X129901100Y-153056599D01*
X142651855Y-153056599D01*
X142669957Y-153194097D01*
X142723028Y-153322223D01*
X142807452Y-153432247D01*
X142891877Y-153497028D01*
X142917477Y-153516672D01*
X143045604Y-153569743D01*
X143183100Y-153587845D01*
X143320596Y-153569743D01*
X143448723Y-153516672D01*
X143558747Y-153432247D01*
X143643172Y-153322223D01*
X143696243Y-153194096D01*
X143714345Y-153056600D01*
X143696243Y-152919104D01*
X143643172Y-152790978D01*
X143611299Y-152749440D01*
X143558747Y-152680952D01*
X143448723Y-152596528D01*
X143320597Y-152543457D01*
X143251848Y-152534406D01*
X143183100Y-152525355D01*
X143183099Y-152525355D01*
X143045603Y-152543457D01*
X142917476Y-152596529D01*
X142807452Y-152680952D01*
X142723029Y-152790976D01*
X142669957Y-152919103D01*
X142651855Y-153056599D01*
X129901100Y-153056599D01*
X129901100Y-151053100D01*
X142242254Y-151053100D01*
X142260739Y-151181666D01*
X142314697Y-151299818D01*
X142314698Y-151299819D01*
X142399758Y-151397983D01*
X142415857Y-151408329D01*
X142433938Y-151429195D01*
X142437867Y-151456524D01*
X142426398Y-151481639D01*
X142374197Y-151541881D01*
X142320239Y-151660033D01*
X142301754Y-151788600D01*
X142320239Y-151917166D01*
X142374197Y-152035318D01*
X142459259Y-152133485D01*
X142568525Y-152203705D01*
X142568527Y-152203706D01*
X142693155Y-152240300D01*
X142823045Y-152240300D01*
X142947673Y-152203706D01*
X142984095Y-152180298D01*
X143056940Y-152133485D01*
X143056942Y-152133483D01*
X143142002Y-152035319D01*
X143195960Y-151917167D01*
X143214445Y-151788600D01*
X143195960Y-151660033D01*
X143142002Y-151541881D01*
X143056942Y-151443717D01*
X143040839Y-151433368D01*
X143022761Y-151412504D01*
X143018832Y-151385175D01*
X143030300Y-151360062D01*
X143082502Y-151299819D01*
X143136460Y-151181667D01*
X143154945Y-151053100D01*
X143136460Y-150924533D01*
X143082502Y-150806381D01*
X142997440Y-150708214D01*
X142888174Y-150637994D01*
X142763545Y-150601400D01*
X142633655Y-150601400D01*
X142509025Y-150637994D01*
X142399759Y-150708214D01*
X142314697Y-150806381D01*
X142260739Y-150924533D01*
X142242254Y-151053100D01*
X129901100Y-151053100D01*
X129901100Y-147453600D01*
X142255254Y-147453600D01*
X142273739Y-147582166D01*
X142327697Y-147700318D01*
X142412759Y-147798485D01*
X142522025Y-147868705D01*
X142522027Y-147868706D01*
X142646655Y-147905300D01*
X142776545Y-147905300D01*
X142901173Y-147868706D01*
X142937596Y-147845298D01*
X143010440Y-147798485D01*
X143028382Y-147777779D01*
X143035507Y-147769556D01*
X143061979Y-147753796D01*
X143092628Y-147756953D01*
X143115333Y-147777779D01*
X143121119Y-147808041D01*
X143109855Y-147893599D01*
X143127957Y-148031097D01*
X143181028Y-148159223D01*
X143265452Y-148269247D01*
X143349876Y-148334028D01*
X143375477Y-148353672D01*
X143503604Y-148406743D01*
X143641100Y-148424845D01*
X143778596Y-148406743D01*
X143906723Y-148353672D01*
X144016747Y-148269247D01*
X144101172Y-148159223D01*
X144154243Y-148031096D01*
X144172345Y-147893600D01*
X144154243Y-147756104D01*
X144101172Y-147627978D01*
X144066019Y-147582166D01*
X144016747Y-147517952D01*
X143906723Y-147433528D01*
X143778597Y-147380457D01*
X143709847Y-147371405D01*
X143641100Y-147362355D01*
X143641099Y-147362355D01*
X143503603Y-147380457D01*
X143375476Y-147433529D01*
X143265454Y-147517951D01*
X143248109Y-147540556D01*
X143221776Y-147558094D01*
X143190214Y-147555883D01*
X143166583Y-147534846D01*
X143160734Y-147503752D01*
X143167945Y-147453599D01*
X143149460Y-147325033D01*
X143095502Y-147206881D01*
X143010440Y-147108714D01*
X142901174Y-147038494D01*
X142776545Y-147001900D01*
X142646655Y-147001900D01*
X142522025Y-147038494D01*
X142412759Y-147108714D01*
X142327697Y-147206881D01*
X142273739Y-147325033D01*
X142255254Y-147453600D01*
X129901100Y-147453600D01*
X129901100Y-143332518D01*
X141127936Y-143332518D01*
X141146038Y-143470016D01*
X141199109Y-143598142D01*
X141283533Y-143708166D01*
X141367957Y-143772947D01*
X141393558Y-143792591D01*
X141521685Y-143845662D01*
X141659181Y-143863764D01*
X141796677Y-143845662D01*
X141924804Y-143792591D01*
X142034828Y-143708166D01*
X142119253Y-143598142D01*
X142172324Y-143470015D01*
X142190426Y-143332519D01*
X142172324Y-143195023D01*
X142119253Y-143066897D01*
X142087380Y-143025359D01*
X142034828Y-142956871D01*
X141924804Y-142872447D01*
X141796678Y-142819376D01*
X141727928Y-142810324D01*
X141659181Y-142801274D01*
X141659180Y-142801274D01*
X141521684Y-142819376D01*
X141393557Y-142872448D01*
X141283533Y-142956871D01*
X141199110Y-143066895D01*
X141146038Y-143195022D01*
X141127936Y-143332518D01*
X129901100Y-143332518D01*
X129901100Y-136074010D01*
X143650600Y-136074010D01*
X143662232Y-136132493D01*
X143695358Y-136182069D01*
X144162628Y-136649339D01*
X144212209Y-136682467D01*
X144270689Y-136694100D01*
X144270692Y-136694100D01*
X144931510Y-136694100D01*
X144931512Y-136694100D01*
X144989992Y-136682468D01*
X145039568Y-136649342D01*
X145506840Y-136182070D01*
X145539967Y-136132491D01*
X145542875Y-136117870D01*
X145551600Y-136074011D01*
X145551600Y-135413190D01*
X145539968Y-135354709D01*
X145539968Y-135354708D01*
X145506842Y-135305132D01*
X145506841Y-135305130D01*
X145039571Y-134837860D01*
X144989990Y-134804732D01*
X144931511Y-134793100D01*
X144931508Y-134793100D01*
X144270688Y-134793100D01*
X144241447Y-134798916D01*
X144212206Y-134804732D01*
X144162630Y-134837858D01*
X143695360Y-135305128D01*
X143662232Y-135354709D01*
X143650600Y-135413189D01*
X143650600Y-136074010D01*
X129901100Y-136074010D01*
X129901100Y-132137010D01*
X143650600Y-132137010D01*
X143662232Y-132195493D01*
X143695358Y-132245069D01*
X144162628Y-132712339D01*
X144212209Y-132745467D01*
X144270689Y-132757100D01*
X144270692Y-132757100D01*
X144931510Y-132757100D01*
X144931512Y-132757100D01*
X144989992Y-132745468D01*
X145039568Y-132712342D01*
X145506840Y-132245070D01*
X145539967Y-132195491D01*
X145542875Y-132180870D01*
X145551600Y-132137011D01*
X145551600Y-131476190D01*
X145539968Y-131417709D01*
X145539968Y-131417708D01*
X145506842Y-131368132D01*
X145506841Y-131368130D01*
X145039571Y-130900860D01*
X144989990Y-130867732D01*
X144931511Y-130856100D01*
X144931508Y-130856100D01*
X144270688Y-130856100D01*
X144241447Y-130861916D01*
X144212206Y-130867732D01*
X144162630Y-130900858D01*
X143695360Y-131368128D01*
X143662232Y-131417709D01*
X143650600Y-131476189D01*
X143650600Y-132137010D01*
X129901100Y-132137010D01*
X129901100Y-128482475D01*
X129915452Y-128447827D01*
X131445327Y-126917952D01*
X131479975Y-126903600D01*
X133264714Y-126903600D01*
X133273716Y-126904433D01*
G37*
%TD.AperFunction*%
%TD*%
%TA.AperFunction,Conductor*%
%TO.N,VCC*%
G36*
X164056873Y-55417952D02*
G01*
X166086748Y-57447827D01*
X166101100Y-57482475D01*
X166101100Y-71524725D01*
X166086748Y-71559373D01*
X164056873Y-73589248D01*
X164022225Y-73603600D01*
X148978831Y-73603600D01*
X148959224Y-73599506D01*
X148942893Y-73587908D01*
X147014162Y-71506908D01*
X147001100Y-71473600D01*
X147001100Y-71373599D01*
X149544754Y-71373599D01*
X149563239Y-71502166D01*
X149617197Y-71620318D01*
X149702259Y-71718485D01*
X149811525Y-71788705D01*
X149811527Y-71788706D01*
X149936155Y-71825300D01*
X150066045Y-71825300D01*
X150190673Y-71788706D01*
X150227095Y-71765298D01*
X150299940Y-71718485D01*
X150308607Y-71708483D01*
X150385002Y-71620319D01*
X150438960Y-71502167D01*
X150457445Y-71373600D01*
X150456007Y-71363600D01*
X154544754Y-71363600D01*
X154563239Y-71492166D01*
X154617197Y-71610318D01*
X154702259Y-71708485D01*
X154811525Y-71778705D01*
X154811527Y-71778706D01*
X154936155Y-71815300D01*
X155066045Y-71815300D01*
X155190673Y-71778706D01*
X155284379Y-71718485D01*
X155299940Y-71708485D01*
X155299942Y-71708483D01*
X155385002Y-71610319D01*
X155438960Y-71492167D01*
X155457445Y-71363600D01*
X155438960Y-71235033D01*
X155385002Y-71116881D01*
X155299940Y-71018714D01*
X155190674Y-70948494D01*
X155066045Y-70911900D01*
X154936155Y-70911900D01*
X154811525Y-70948494D01*
X154702259Y-71018714D01*
X154617197Y-71116881D01*
X154563239Y-71235033D01*
X154544754Y-71363600D01*
X150456007Y-71363600D01*
X150438960Y-71245033D01*
X150385002Y-71126881D01*
X150376337Y-71116881D01*
X150299940Y-71028714D01*
X150190674Y-70958494D01*
X150066045Y-70921900D01*
X149936155Y-70921900D01*
X149811525Y-70958494D01*
X149702259Y-71028714D01*
X149617197Y-71126881D01*
X149563239Y-71245033D01*
X149544754Y-71373599D01*
X147001100Y-71373599D01*
X147001100Y-70879764D01*
X147007094Y-70856281D01*
X147023608Y-70838543D01*
X147029127Y-70834994D01*
X147034991Y-70831227D01*
X147115794Y-70737975D01*
X147167053Y-70625735D01*
X147184613Y-70503600D01*
X147167053Y-70381465D01*
X147115794Y-70269225D01*
X147034991Y-70175973D01*
X147034990Y-70175972D01*
X147023608Y-70168657D01*
X147007094Y-70150919D01*
X147001100Y-70127436D01*
X147001100Y-70056375D01*
X147010271Y-70027834D01*
X147034349Y-70009975D01*
X147064324Y-70009485D01*
X147088974Y-70026546D01*
X147175452Y-70139247D01*
X147259876Y-70204028D01*
X147285477Y-70223672D01*
X147413604Y-70276743D01*
X147551100Y-70294845D01*
X147688596Y-70276743D01*
X147816723Y-70223672D01*
X147926747Y-70139247D01*
X148011172Y-70029223D01*
X148064243Y-69901096D01*
X148082345Y-69763600D01*
X148064243Y-69626104D01*
X148011172Y-69497978D01*
X147979299Y-69456440D01*
X147926747Y-69387952D01*
X147816723Y-69303528D01*
X147688597Y-69250457D01*
X147619848Y-69241406D01*
X147551100Y-69232355D01*
X147551099Y-69232355D01*
X147413603Y-69250457D01*
X147285476Y-69303529D01*
X147175452Y-69387952D01*
X147088974Y-69500654D01*
X147064324Y-69517715D01*
X147034349Y-69517225D01*
X147010271Y-69499366D01*
X147001100Y-69470825D01*
X147001100Y-68577434D01*
X147007094Y-68553951D01*
X147023607Y-68536214D01*
X147083410Y-68497781D01*
X147168470Y-68399617D01*
X147222428Y-68281465D01*
X147239225Y-68164635D01*
X147258128Y-68132558D01*
X147294120Y-68123028D01*
X147400517Y-68137036D01*
X147538013Y-68118934D01*
X147666140Y-68065863D01*
X147776164Y-67981438D01*
X147860589Y-67871414D01*
X147913660Y-67743287D01*
X147931762Y-67605791D01*
X147913660Y-67468295D01*
X147860589Y-67340169D01*
X147828716Y-67298631D01*
X147776164Y-67230143D01*
X147666140Y-67145719D01*
X147538014Y-67092648D01*
X147469265Y-67083597D01*
X147400517Y-67074546D01*
X147400516Y-67074546D01*
X147263020Y-67092648D01*
X147134893Y-67145720D01*
X147079929Y-67187896D01*
X147045829Y-67197836D01*
X147013973Y-67182126D01*
X147001100Y-67149022D01*
X147001100Y-66499255D01*
X147009850Y-66471309D01*
X147032976Y-66453344D01*
X147062218Y-66451777D01*
X147087132Y-66467167D01*
X147166259Y-66558485D01*
X147275525Y-66628705D01*
X147275527Y-66628706D01*
X147400155Y-66665300D01*
X147530045Y-66665300D01*
X147654673Y-66628706D01*
X147691095Y-66605298D01*
X147763940Y-66558485D01*
X147763942Y-66558483D01*
X147849002Y-66460319D01*
X147902960Y-66342167D01*
X147921445Y-66213600D01*
X147902960Y-66085033D01*
X147849002Y-65966881D01*
X147819304Y-65932608D01*
X147807336Y-65900520D01*
X147819305Y-65868433D01*
X147835002Y-65850319D01*
X147888960Y-65732167D01*
X147907445Y-65603600D01*
X147888960Y-65475033D01*
X147835002Y-65356881D01*
X147749940Y-65258714D01*
X147634747Y-65184685D01*
X147635485Y-65183536D01*
X147622096Y-65174930D01*
X147610629Y-65149816D01*
X147614558Y-65122492D01*
X147657110Y-65029317D01*
X147675595Y-64900750D01*
X147657110Y-64772183D01*
X147603152Y-64654031D01*
X147518090Y-64555864D01*
X147408824Y-64485644D01*
X147284195Y-64449050D01*
X147154305Y-64449050D01*
X147063904Y-64475593D01*
X147034074Y-64474884D01*
X147010186Y-64457002D01*
X147001100Y-64428579D01*
X147001100Y-59503600D01*
X158170788Y-59503600D01*
X158190017Y-59858259D01*
X158247481Y-60208773D01*
X158342502Y-60551007D01*
X158473970Y-60880969D01*
X158640340Y-61194775D01*
X158737436Y-61337981D01*
X158839667Y-61488760D01*
X158954637Y-61624113D01*
X159069609Y-61759469D01*
X159327471Y-62003728D01*
X159610232Y-62218677D01*
X159914574Y-62401794D01*
X160236931Y-62550933D01*
X160321080Y-62579285D01*
X160573524Y-62664344D01*
X160807009Y-62715737D01*
X160920399Y-62740697D01*
X160920401Y-62740697D01*
X160920405Y-62740698D01*
X161273508Y-62779100D01*
X161628690Y-62779100D01*
X161628692Y-62779100D01*
X161981795Y-62740698D01*
X162328676Y-62664344D01*
X162665268Y-62550933D01*
X162987625Y-62401794D01*
X163291968Y-62218677D01*
X163574728Y-62003729D01*
X163832591Y-61759468D01*
X164062533Y-61488760D01*
X164261858Y-61194777D01*
X164428230Y-60880967D01*
X164559697Y-60551008D01*
X164654719Y-60208770D01*
X164712182Y-59858264D01*
X164731411Y-59503600D01*
X164712182Y-59148936D01*
X164654719Y-58798430D01*
X164559697Y-58456192D01*
X164428230Y-58126233D01*
X164428229Y-58126230D01*
X164261859Y-57812424D01*
X164213310Y-57740820D01*
X164062533Y-57518440D01*
X163927177Y-57359088D01*
X163832590Y-57247730D01*
X163574728Y-57003471D01*
X163291967Y-56788522D01*
X162987625Y-56605405D01*
X162665268Y-56456266D01*
X162415522Y-56372117D01*
X162328676Y-56342856D01*
X162328673Y-56342855D01*
X162328672Y-56342855D01*
X161981800Y-56266502D01*
X161729578Y-56239072D01*
X161628692Y-56228100D01*
X161273508Y-56228100D01*
X161185232Y-56237700D01*
X160920399Y-56266502D01*
X160573527Y-56342855D01*
X160236931Y-56456266D01*
X159914574Y-56605405D01*
X159610232Y-56788522D01*
X159327471Y-57003471D01*
X159069609Y-57247730D01*
X158839667Y-57518440D01*
X158640340Y-57812424D01*
X158473970Y-58126230D01*
X158342502Y-58456192D01*
X158247481Y-58798426D01*
X158190017Y-59148940D01*
X158170788Y-59503600D01*
X147001100Y-59503600D01*
X147001100Y-57432861D01*
X147015005Y-57398666D01*
X148944491Y-55418405D01*
X148960541Y-55407453D01*
X148979586Y-55403600D01*
X164022225Y-55403600D01*
X164056873Y-55417952D01*
G37*
%TD.AperFunction*%
%TD*%
%TA.AperFunction,Conductor*%
%TO.N,N$6*%
G36*
X150273716Y-126904433D02*
G01*
X150352174Y-126919100D01*
X150570025Y-126919100D01*
X150570026Y-126919100D01*
X150648483Y-126904433D01*
X150657486Y-126903600D01*
X151522225Y-126903600D01*
X151556873Y-126917952D01*
X154042522Y-129403600D01*
X155168940Y-129403600D01*
X155186639Y-129406908D01*
X155218031Y-129419070D01*
X155432174Y-129459100D01*
X155650024Y-129459100D01*
X155650026Y-129459100D01*
X155864169Y-129419070D01*
X155895560Y-129406908D01*
X155913260Y-129403600D01*
X163022225Y-129403600D01*
X163056873Y-129417952D01*
X164086748Y-130447827D01*
X164101100Y-130482475D01*
X164101100Y-160524725D01*
X164086748Y-160559373D01*
X163056873Y-161589248D01*
X163022225Y-161603600D01*
X154979975Y-161603600D01*
X154945327Y-161589248D01*
X152915452Y-159559373D01*
X152901100Y-159524725D01*
X152901100Y-157545023D01*
X152901099Y-157545021D01*
X150959678Y-155603600D01*
X147979975Y-155603600D01*
X147945327Y-155589248D01*
X146915452Y-154559373D01*
X146901100Y-154524725D01*
X146901100Y-153054599D01*
X159556855Y-153054599D01*
X159574957Y-153192097D01*
X159628028Y-153320223D01*
X159712452Y-153430247D01*
X159796876Y-153495028D01*
X159822477Y-153514672D01*
X159950604Y-153567743D01*
X160088100Y-153585845D01*
X160225596Y-153567743D01*
X160353723Y-153514672D01*
X160463747Y-153430247D01*
X160548172Y-153320223D01*
X160601243Y-153192096D01*
X160619345Y-153054600D01*
X160601243Y-152917104D01*
X160548172Y-152788978D01*
X160516299Y-152747440D01*
X160463747Y-152678952D01*
X160353723Y-152594528D01*
X160225597Y-152541457D01*
X160156847Y-152532405D01*
X160088100Y-152523355D01*
X160088099Y-152523355D01*
X159950603Y-152541457D01*
X159822476Y-152594529D01*
X159712452Y-152678952D01*
X159628029Y-152788976D01*
X159574957Y-152917103D01*
X159556855Y-153054599D01*
X146901100Y-153054599D01*
X146901100Y-147403600D01*
X159244754Y-147403600D01*
X159263239Y-147532166D01*
X159317197Y-147650318D01*
X159402259Y-147748485D01*
X159511525Y-147818705D01*
X159511527Y-147818706D01*
X159636155Y-147855300D01*
X159766045Y-147855300D01*
X159890673Y-147818706D01*
X159999942Y-147748483D01*
X160012251Y-147734277D01*
X160038723Y-147718515D01*
X160069371Y-147721671D01*
X160092077Y-147742497D01*
X160097864Y-147772759D01*
X160089854Y-147833599D01*
X160107957Y-147971097D01*
X160161028Y-148099223D01*
X160245452Y-148209247D01*
X160329877Y-148274028D01*
X160355477Y-148293672D01*
X160483604Y-148346743D01*
X160621100Y-148364845D01*
X160758596Y-148346743D01*
X160886723Y-148293672D01*
X160996747Y-148209247D01*
X161081172Y-148099223D01*
X161134243Y-147971096D01*
X161152345Y-147833600D01*
X161134243Y-147696104D01*
X161081172Y-147567978D01*
X161014089Y-147480553D01*
X160996747Y-147457952D01*
X160886723Y-147373528D01*
X160758597Y-147320457D01*
X160689848Y-147311406D01*
X160621100Y-147302355D01*
X160621099Y-147302355D01*
X160483603Y-147320457D01*
X160355476Y-147373529D01*
X160245454Y-147457951D01*
X160241569Y-147463015D01*
X160215235Y-147480553D01*
X160183674Y-147478342D01*
X160160042Y-147457305D01*
X160154194Y-147426211D01*
X160157445Y-147403599D01*
X160138960Y-147275033D01*
X160085002Y-147156881D01*
X159999940Y-147058714D01*
X159890674Y-146988494D01*
X159766045Y-146951900D01*
X159636155Y-146951900D01*
X159511525Y-146988494D01*
X159402259Y-147058714D01*
X159317197Y-147156881D01*
X159263239Y-147275033D01*
X159244754Y-147403600D01*
X146901100Y-147403600D01*
X146901100Y-143298781D01*
X158203673Y-143298781D01*
X158221775Y-143436279D01*
X158274846Y-143564405D01*
X158359270Y-143674429D01*
X158443695Y-143739210D01*
X158469295Y-143758854D01*
X158597422Y-143811925D01*
X158734918Y-143830027D01*
X158872414Y-143811925D01*
X159000541Y-143758854D01*
X159110565Y-143674429D01*
X159194990Y-143564405D01*
X159248061Y-143436278D01*
X159266163Y-143298782D01*
X159248061Y-143161286D01*
X159194990Y-143033160D01*
X159163117Y-142991622D01*
X159110565Y-142923134D01*
X159000541Y-142838710D01*
X158872415Y-142785639D01*
X158803665Y-142776587D01*
X158734918Y-142767537D01*
X158734917Y-142767537D01*
X158597421Y-142785639D01*
X158469294Y-142838711D01*
X158359270Y-142923134D01*
X158274847Y-143033158D01*
X158221775Y-143161285D01*
X158203673Y-143298781D01*
X146901100Y-143298781D01*
X146901100Y-128482475D01*
X146915452Y-128447827D01*
X148445327Y-126917952D01*
X148479975Y-126903600D01*
X150264714Y-126903600D01*
X150273716Y-126904433D01*
G37*
%TD.AperFunction*%
%TD*%
%TA.AperFunction,Conductor*%
%TO.N,N$10*%
G36*
X167273716Y-126904433D02*
G01*
X167352174Y-126919100D01*
X167570025Y-126919100D01*
X167570026Y-126919100D01*
X167648483Y-126904433D01*
X167657486Y-126903600D01*
X169025611Y-126903600D01*
X169046837Y-126908436D01*
X169063874Y-126921990D01*
X171049163Y-129403600D01*
X172168940Y-129403600D01*
X172186639Y-129406908D01*
X172218031Y-129419070D01*
X172432174Y-129459100D01*
X172650024Y-129459100D01*
X172650026Y-129459100D01*
X172864169Y-129419070D01*
X172895560Y-129406908D01*
X172913260Y-129403600D01*
X178678961Y-129403600D01*
X178692766Y-129405585D01*
X178787155Y-129433300D01*
X178917045Y-129433300D01*
X179011434Y-129405585D01*
X179025239Y-129403600D01*
X181022225Y-129403600D01*
X181056873Y-129417952D01*
X182086748Y-130447827D01*
X182101100Y-130482475D01*
X182101100Y-131141777D01*
X182089132Y-131173865D01*
X182017197Y-131256881D01*
X181963239Y-131375033D01*
X181944754Y-131503599D01*
X181963239Y-131632166D01*
X182017197Y-131750318D01*
X182089132Y-131833335D01*
X182101100Y-131865423D01*
X182101100Y-137791777D01*
X182089132Y-137823865D01*
X182017197Y-137906881D01*
X181963239Y-138025033D01*
X181944754Y-138153599D01*
X181945208Y-138156756D01*
X181943198Y-138179201D01*
X181931354Y-138198373D01*
X181737726Y-138392001D01*
X181726109Y-138400360D01*
X181693257Y-138436396D01*
X181691697Y-138438030D01*
X181677726Y-138452002D01*
X181675690Y-138454973D01*
X181671486Y-138460279D01*
X181649983Y-138483867D01*
X181644335Y-138498445D01*
X181639073Y-138508427D01*
X181630244Y-138521318D01*
X181622937Y-138552383D01*
X181620930Y-138558863D01*
X181609400Y-138588626D01*
X181609400Y-138604254D01*
X181608098Y-138615474D01*
X181604520Y-138630681D01*
X181608930Y-138662287D01*
X181609400Y-138669057D01*
X181609400Y-145844905D01*
X181607096Y-145859026D01*
X181609348Y-145907725D01*
X181609400Y-145909988D01*
X181609400Y-145929759D01*
X181610059Y-145933285D01*
X181610841Y-145940024D01*
X181612314Y-145971907D01*
X181618628Y-145986206D01*
X181621967Y-145996990D01*
X181624838Y-146012346D01*
X181624838Y-146012347D01*
X181624839Y-146012348D01*
X181641637Y-146039480D01*
X181644797Y-146045475D01*
X181657692Y-146074679D01*
X181668742Y-146085728D01*
X181675752Y-146094577D01*
X181683981Y-146107867D01*
X181709449Y-146127099D01*
X181714568Y-146131554D01*
X181828853Y-146245839D01*
X181843205Y-146280487D01*
X181828853Y-146315135D01*
X179821100Y-148322888D01*
X179821100Y-151014311D01*
X182086748Y-153279959D01*
X182101100Y-153314607D01*
X182101100Y-160073632D01*
X182086748Y-160108280D01*
X180605781Y-161589248D01*
X180589884Y-161599870D01*
X180571133Y-161603600D01*
X172979975Y-161603600D01*
X172945327Y-161589248D01*
X170915452Y-159559373D01*
X170901100Y-159524725D01*
X170901100Y-157545023D01*
X170901099Y-157545021D01*
X168959678Y-155603600D01*
X165979975Y-155603600D01*
X165945327Y-155589248D01*
X164915452Y-154559373D01*
X164901100Y-154524725D01*
X164901100Y-153049599D01*
X176516855Y-153049599D01*
X176534957Y-153187097D01*
X176588028Y-153315223D01*
X176672452Y-153425247D01*
X176756877Y-153490028D01*
X176782477Y-153509672D01*
X176910604Y-153562743D01*
X177048100Y-153580845D01*
X177185596Y-153562743D01*
X177313723Y-153509672D01*
X177423747Y-153425247D01*
X177508172Y-153315223D01*
X177561243Y-153187096D01*
X177579345Y-153049600D01*
X177561243Y-152912104D01*
X177508172Y-152783978D01*
X177476299Y-152742440D01*
X177423747Y-152673952D01*
X177313723Y-152589528D01*
X177185597Y-152536457D01*
X177116847Y-152527405D01*
X177048100Y-152518355D01*
X177048099Y-152518355D01*
X176910603Y-152536457D01*
X176820005Y-152573983D01*
X176789830Y-152586483D01*
X176782476Y-152589529D01*
X176672452Y-152673952D01*
X176588029Y-152783976D01*
X176534957Y-152912103D01*
X176516855Y-153049599D01*
X164901100Y-153049599D01*
X164901100Y-152103600D01*
X179544754Y-152103600D01*
X179563239Y-152232166D01*
X179617197Y-152350318D01*
X179702259Y-152448485D01*
X179811525Y-152518705D01*
X179811527Y-152518706D01*
X179936155Y-152555300D01*
X180066045Y-152555300D01*
X180190673Y-152518706D01*
X180237956Y-152488319D01*
X180299940Y-152448485D01*
X180299942Y-152448483D01*
X180385002Y-152350319D01*
X180438960Y-152232167D01*
X180457445Y-152103600D01*
X180438960Y-151975033D01*
X180385002Y-151856881D01*
X180374606Y-151844883D01*
X180299940Y-151758714D01*
X180190674Y-151688494D01*
X180066045Y-151651900D01*
X179936155Y-151651900D01*
X179811525Y-151688494D01*
X179702259Y-151758714D01*
X179617197Y-151856881D01*
X179563239Y-151975033D01*
X179544754Y-152103600D01*
X164901100Y-152103600D01*
X164901100Y-151481600D01*
X177664855Y-151481600D01*
X177673906Y-151550348D01*
X177682957Y-151619097D01*
X177736028Y-151747223D01*
X177820452Y-151857247D01*
X177838115Y-151870800D01*
X177930477Y-151941672D01*
X178058604Y-151994743D01*
X178196100Y-152012845D01*
X178333596Y-151994743D01*
X178461723Y-151941672D01*
X178571747Y-151857247D01*
X178656172Y-151747223D01*
X178709243Y-151619096D01*
X178727345Y-151481600D01*
X178709243Y-151344104D01*
X178656172Y-151215978D01*
X178609472Y-151155117D01*
X178571747Y-151105952D01*
X178461723Y-151021528D01*
X178333597Y-150968457D01*
X178264847Y-150959405D01*
X178196100Y-150950355D01*
X178196099Y-150950355D01*
X178058603Y-150968457D01*
X177930476Y-151021529D01*
X177820452Y-151105952D01*
X177736029Y-151215976D01*
X177736028Y-151215977D01*
X177736028Y-151215978D01*
X177682957Y-151344104D01*
X177664855Y-151481600D01*
X164901100Y-151481600D01*
X164901100Y-147903599D01*
X177039855Y-147903599D01*
X177057957Y-148041097D01*
X177111028Y-148169223D01*
X177195452Y-148279247D01*
X177252328Y-148322889D01*
X177305477Y-148363672D01*
X177433604Y-148416743D01*
X177571100Y-148434845D01*
X177708596Y-148416743D01*
X177836723Y-148363672D01*
X177946747Y-148279247D01*
X178031172Y-148169223D01*
X178084243Y-148041096D01*
X178102345Y-147903600D01*
X178086070Y-147779984D01*
X178091187Y-147750965D01*
X178112025Y-147730127D01*
X178141045Y-147725010D01*
X178226100Y-147736208D01*
X178363596Y-147718106D01*
X178491723Y-147665035D01*
X178601747Y-147580610D01*
X178686172Y-147470586D01*
X178739243Y-147342459D01*
X178757345Y-147204963D01*
X178739243Y-147067467D01*
X178686172Y-146939341D01*
X178636827Y-146875033D01*
X178601747Y-146829315D01*
X178491723Y-146744891D01*
X178363597Y-146691820D01*
X178294848Y-146682769D01*
X178226100Y-146673718D01*
X178226099Y-146673718D01*
X178088603Y-146691820D01*
X177960476Y-146744892D01*
X177850452Y-146829315D01*
X177766029Y-146939339D01*
X177712957Y-147067466D01*
X177694855Y-147204963D01*
X177711129Y-147328575D01*
X177706012Y-147357597D01*
X177685174Y-147378434D01*
X177656152Y-147383552D01*
X177571100Y-147372355D01*
X177433603Y-147390457D01*
X177305476Y-147443529D01*
X177195452Y-147527952D01*
X177111029Y-147637976D01*
X177057957Y-147766103D01*
X177039855Y-147903599D01*
X164901100Y-147903599D01*
X164901100Y-147003600D01*
X176305254Y-147003600D01*
X176323739Y-147132166D01*
X176377697Y-147250318D01*
X176462759Y-147348485D01*
X176572025Y-147418705D01*
X176572027Y-147418706D01*
X176696655Y-147455300D01*
X176826545Y-147455300D01*
X176951173Y-147418706D01*
X177005874Y-147383552D01*
X177060440Y-147348485D01*
X177077692Y-147328575D01*
X177145502Y-147250319D01*
X177199460Y-147132167D01*
X177217945Y-147003600D01*
X177199460Y-146875033D01*
X177145502Y-146756881D01*
X177073441Y-146673718D01*
X177060440Y-146658714D01*
X176951174Y-146588494D01*
X176826545Y-146551900D01*
X176696655Y-146551900D01*
X176572025Y-146588494D01*
X176462759Y-146658714D01*
X176377697Y-146756881D01*
X176323739Y-146875033D01*
X176305254Y-147003600D01*
X164901100Y-147003600D01*
X164901100Y-143268599D01*
X175187855Y-143268599D01*
X175205957Y-143406097D01*
X175259028Y-143534223D01*
X175343452Y-143644247D01*
X175427876Y-143709028D01*
X175453477Y-143728672D01*
X175581604Y-143781743D01*
X175719100Y-143799845D01*
X175856596Y-143781743D01*
X175984723Y-143728672D01*
X176094747Y-143644247D01*
X176179172Y-143534223D01*
X176232243Y-143406096D01*
X176250345Y-143268600D01*
X176232243Y-143131104D01*
X176179172Y-143002978D01*
X176147299Y-142961440D01*
X176094747Y-142892952D01*
X175984723Y-142808528D01*
X175856597Y-142755457D01*
X175787848Y-142746406D01*
X175719100Y-142737355D01*
X175719099Y-142737355D01*
X175581603Y-142755457D01*
X175453476Y-142808529D01*
X175343452Y-142892952D01*
X175259029Y-143002976D01*
X175205957Y-143131103D01*
X175187855Y-143268599D01*
X164901100Y-143268599D01*
X164901100Y-138713600D01*
X178545254Y-138713600D01*
X178563739Y-138842166D01*
X178617697Y-138960318D01*
X178702759Y-139058485D01*
X178812025Y-139128705D01*
X178812027Y-139128706D01*
X178936655Y-139165300D01*
X179066545Y-139165300D01*
X179191173Y-139128706D01*
X179227596Y-139105298D01*
X179300440Y-139058485D01*
X179300442Y-139058483D01*
X179385502Y-138960319D01*
X179439460Y-138842167D01*
X179457945Y-138713600D01*
X179439460Y-138585033D01*
X179385502Y-138466881D01*
X179372609Y-138452002D01*
X179300440Y-138368714D01*
X179191174Y-138298494D01*
X179066545Y-138261900D01*
X178936655Y-138261900D01*
X178812025Y-138298494D01*
X178702759Y-138368714D01*
X178617697Y-138466881D01*
X178563739Y-138585033D01*
X178545254Y-138713600D01*
X164901100Y-138713600D01*
X164901100Y-137313599D01*
X176844754Y-137313599D01*
X176863239Y-137442166D01*
X176917197Y-137560318D01*
X177002259Y-137658485D01*
X177111525Y-137728705D01*
X177111527Y-137728706D01*
X177236155Y-137765300D01*
X177366045Y-137765300D01*
X177490673Y-137728706D01*
X177532384Y-137701900D01*
X177599940Y-137658485D01*
X177599942Y-137658483D01*
X177685002Y-137560319D01*
X177738960Y-137442167D01*
X177757445Y-137313600D01*
X177738960Y-137185033D01*
X177685002Y-137066881D01*
X177685001Y-137066880D01*
X177599940Y-136968714D01*
X177490674Y-136898494D01*
X177366045Y-136861900D01*
X177236155Y-136861900D01*
X177111525Y-136898494D01*
X177002259Y-136968714D01*
X176917197Y-137066881D01*
X176863239Y-137185033D01*
X176844754Y-137313599D01*
X164901100Y-137313599D01*
X164901100Y-131033182D01*
X177585172Y-131033182D01*
X177603657Y-131161748D01*
X177657615Y-131279900D01*
X177742677Y-131378067D01*
X177851943Y-131448287D01*
X177851945Y-131448288D01*
X177976573Y-131484882D01*
X178106463Y-131484882D01*
X178231091Y-131448288D01*
X178267514Y-131424880D01*
X178340358Y-131378067D01*
X178342987Y-131375033D01*
X178425420Y-131279901D01*
X178479378Y-131161749D01*
X178497863Y-131033182D01*
X178479378Y-130904615D01*
X178425420Y-130786463D01*
X178349377Y-130698705D01*
X178340358Y-130688296D01*
X178231092Y-130618076D01*
X178106463Y-130581482D01*
X177976573Y-130581482D01*
X177851943Y-130618076D01*
X177742677Y-130688296D01*
X177657615Y-130786463D01*
X177603657Y-130904615D01*
X177585172Y-131033182D01*
X164901100Y-131033182D01*
X164901100Y-130283599D01*
X176551754Y-130283599D01*
X176570239Y-130412166D01*
X176624197Y-130530318D01*
X176709259Y-130628485D01*
X176802333Y-130688299D01*
X176818527Y-130698706D01*
X176943155Y-130735300D01*
X177073045Y-130735300D01*
X177197673Y-130698706D01*
X177234095Y-130675298D01*
X177306940Y-130628485D01*
X177306942Y-130628483D01*
X177392002Y-130530319D01*
X177445960Y-130412167D01*
X177464445Y-130283600D01*
X177455818Y-130223600D01*
X179724754Y-130223600D01*
X179743239Y-130352166D01*
X179797197Y-130470318D01*
X179882259Y-130568485D01*
X179991525Y-130638705D01*
X179991527Y-130638706D01*
X180116155Y-130675300D01*
X180246045Y-130675300D01*
X180370673Y-130638706D01*
X180407095Y-130615298D01*
X180479940Y-130568485D01*
X180479942Y-130568483D01*
X180565002Y-130470319D01*
X180618960Y-130352167D01*
X180637445Y-130223600D01*
X180618960Y-130095033D01*
X180565002Y-129976881D01*
X180531930Y-129938714D01*
X180479940Y-129878714D01*
X180370674Y-129808494D01*
X180246045Y-129771900D01*
X180116155Y-129771900D01*
X179991525Y-129808494D01*
X179882259Y-129878714D01*
X179797197Y-129976881D01*
X179743239Y-130095033D01*
X179724754Y-130223600D01*
X177455818Y-130223600D01*
X177445960Y-130155033D01*
X177392002Y-130036881D01*
X177392001Y-130036880D01*
X177306940Y-129938714D01*
X177197674Y-129868494D01*
X177073045Y-129831900D01*
X176943155Y-129831900D01*
X176818525Y-129868494D01*
X176709259Y-129938714D01*
X176624197Y-130036881D01*
X176570239Y-130155033D01*
X176551754Y-130283599D01*
X164901100Y-130283599D01*
X164901100Y-128488157D01*
X164909330Y-128460977D01*
X165933035Y-126925420D01*
X165950684Y-126909398D01*
X165973805Y-126903600D01*
X167264714Y-126903600D01*
X167273716Y-126904433D01*
G37*
%TD.AperFunction*%
%TD*%
M02*
