%TF.GenerationSoftware,KiCad,Pcbnew,7.0.1*%
%TF.CreationDate,2023-03-31T01:00:54+09:00*%
%TF.ProjectId,USB_JST-XH_Converter,5553425f-4a53-4542-9d58-485f436f6e76,rev?*%
%TF.SameCoordinates,Original*%
%TF.FileFunction,Paste,Top*%
%TF.FilePolarity,Positive*%
%FSLAX46Y46*%
G04 Gerber Fmt 4.6, Leading zero omitted, Abs format (unit mm)*
G04 Created by KiCad (PCBNEW 7.0.1) date 2023-03-31 01:00:54*
%MOMM*%
%LPD*%
G01*
G04 APERTURE LIST*
%ADD10R,0.800000X0.800000*%
%ADD11R,1.400000X1.650000*%
%ADD12R,1.650000X1.400000*%
%ADD13R,0.800000X1.400000*%
%ADD14R,1.400000X0.800000*%
%ADD15R,1.200000X0.800000*%
%ADD16R,0.800000X1.000000*%
%ADD17R,0.500000X0.530000*%
%ADD18R,0.480000X0.400000*%
%ADD19R,0.950000X0.450000*%
%ADD20R,3.500000X2.500000*%
%ADD21R,0.850000X0.280000*%
%ADD22R,1.650000X2.400000*%
%ADD23R,0.280000X0.700000*%
%ADD24R,1.150000X0.700000*%
%ADD25R,1.150000X0.800000*%
%ADD26R,1.150000X0.900000*%
G04 APERTURE END LIST*
D10*
%TO.C,SW2*%
X149421100Y-101928600D03*
X147771100Y-101928600D03*
%TD*%
D11*
%TO.C,R2*%
X148071100Y-96928600D03*
X150671100Y-96928600D03*
%TD*%
D12*
%TO.C,R3*%
X163825000Y-103928600D03*
X163825000Y-101328600D03*
%TD*%
%TO.C,R4*%
X165875000Y-103928600D03*
X165875000Y-101328600D03*
%TD*%
D13*
%TO.C,C1*%
X160071100Y-103428600D03*
X162071100Y-103428600D03*
%TD*%
D14*
%TO.C,C2*%
X165571100Y-105928600D03*
X165571100Y-107928600D03*
%TD*%
D12*
%TO.C,R6*%
X173575000Y-112950000D03*
X173575000Y-110350000D03*
%TD*%
%TO.C,R7*%
X167571100Y-112928600D03*
X167571100Y-110328600D03*
%TD*%
%TO.C,R8*%
X153571100Y-98928600D03*
X153571100Y-101528600D03*
%TD*%
D11*
%TO.C,R9*%
X153571100Y-96728600D03*
X156171100Y-96728600D03*
%TD*%
%TO.C,R12*%
X153571100Y-108928600D03*
X150971100Y-108928600D03*
%TD*%
%TO.C,R13*%
X158571100Y-108928600D03*
X155971100Y-108928600D03*
%TD*%
D15*
%TO.C,U2*%
X151421100Y-111293600D03*
X151421100Y-112563600D03*
X157721100Y-112563600D03*
X157721100Y-111293600D03*
%TD*%
D11*
%TO.C,R5*%
X149571100Y-112428600D03*
X146971100Y-112428600D03*
%TD*%
D12*
%TO.C,R14*%
X169571100Y-112928600D03*
X169571100Y-110328600D03*
%TD*%
D16*
%TO.C,TR1*%
X163971100Y-112428600D03*
X164921100Y-110028600D03*
X165871100Y-112428600D03*
%TD*%
D17*
%TO.C,D2*%
X167571100Y-107363600D03*
X167571100Y-105893600D03*
%TD*%
D18*
%TO.C,D1*%
X161231100Y-101428600D03*
X159911100Y-101428600D03*
%TD*%
%TO.C,D3*%
X161210000Y-100175000D03*
X159890000Y-100175000D03*
%TD*%
%TO.C,D4*%
X161231100Y-98900000D03*
X159911100Y-98900000D03*
%TD*%
D19*
%TO.C,COMP1*%
X157771100Y-98278600D03*
X155571100Y-98278600D03*
X157771100Y-99578600D03*
X155571100Y-99578600D03*
X157771100Y-98928600D03*
%TD*%
D10*
%TO.C,POW1*%
X149421100Y-104800000D03*
X147771100Y-104800000D03*
%TD*%
D11*
%TO.C,R1*%
X148071100Y-98928600D03*
X150671100Y-98928600D03*
%TD*%
D16*
%TO.C,C3*%
X162371100Y-111228600D03*
X160771100Y-111228600D03*
%TD*%
D20*
%TO.C,C4*%
X134321100Y-91928600D03*
X140821100Y-91928600D03*
%TD*%
D21*
%TO.C,U1*%
X163546100Y-109428600D03*
X160596100Y-108928600D03*
X163546100Y-108928600D03*
D22*
X162071100Y-108428600D03*
D23*
X162321100Y-109978600D03*
X161821100Y-109978600D03*
X162321100Y-106878600D03*
X161821100Y-106878600D03*
D21*
X160596100Y-109428600D03*
X163546100Y-108428600D03*
X163546100Y-107928600D03*
X163546100Y-107428600D03*
X160596100Y-108428600D03*
X160596100Y-107928600D03*
X160596100Y-107428600D03*
%TD*%
D24*
%TO.C,USB1*%
X169771100Y-104928600D03*
D25*
X169771100Y-102908600D03*
D26*
X169771100Y-101678600D03*
D24*
X169771100Y-103928600D03*
D25*
X169771100Y-105948600D03*
D26*
X169771100Y-107178600D03*
%TD*%
D12*
%TO.C,R16*%
X171600000Y-112925000D03*
X171600000Y-110325000D03*
%TD*%
D11*
%TO.C,R18*%
X158775000Y-96700000D03*
X161375000Y-96700000D03*
%TD*%
D16*
%TO.C,FET2*%
X164400000Y-98150000D03*
X165350000Y-96150000D03*
X163450000Y-96150000D03*
%TD*%
D10*
%TO.C,LED1*%
X163700000Y-99600000D03*
X165350000Y-99600000D03*
%TD*%
D16*
%TO.C,FET1*%
X157371100Y-105128600D03*
X158321100Y-103128600D03*
X156421100Y-103128600D03*
%TD*%
D11*
%TO.C,R12*%
X155571100Y-101428600D03*
X158171100Y-101428600D03*
%TD*%
%TO.C,R13*%
X154571100Y-103428600D03*
X151971100Y-103428600D03*
%TD*%
M02*
