%TF.GenerationSoftware,KiCad,Pcbnew,7.0.1*%
%TF.CreationDate,2023-03-31T01:00:54+09:00*%
%TF.ProjectId,USB_JST-XH_Converter,5553425f-4a53-4542-9d58-485f436f6e76,rev?*%
%TF.SameCoordinates,Original*%
%TF.FileFunction,Soldermask,Top*%
%TF.FilePolarity,Negative*%
%FSLAX46Y46*%
G04 Gerber Fmt 4.6, Leading zero omitted, Abs format (unit mm)*
G04 Created by KiCad (PCBNEW 7.0.1) date 2023-03-31 01:00:54*
%MOMM*%
%LPD*%
G01*
G04 APERTURE LIST*
G04 Aperture macros list*
%AMRoundRect*
0 Rectangle with rounded corners*
0 $1 Rounding radius*
0 $2 $3 $4 $5 $6 $7 $8 $9 X,Y pos of 4 corners*
0 Add a 4 corners polygon primitive as box body*
4,1,4,$2,$3,$4,$5,$6,$7,$8,$9,$2,$3,0*
0 Add four circle primitives for the rounded corners*
1,1,$1+$1,$2,$3*
1,1,$1+$1,$4,$5*
1,1,$1+$1,$6,$7*
1,1,$1+$1,$8,$9*
0 Add four rect primitives between the rounded corners*
20,1,$1+$1,$2,$3,$4,$5,0*
20,1,$1+$1,$4,$5,$6,$7,0*
20,1,$1+$1,$6,$7,$8,$9,0*
20,1,$1+$1,$8,$9,$2,$3,0*%
G04 Aperture macros list end*
%ADD10RoundRect,0.101600X-0.754000X-0.754000X0.754000X-0.754000X0.754000X0.754000X-0.754000X0.754000X0*%
%ADD11C,1.711200*%
%ADD12C,1.511200*%
%ADD13RoundRect,0.101600X-0.400000X0.400000X-0.400000X-0.400000X0.400000X-0.400000X0.400000X0.400000X0*%
%ADD14RoundRect,0.101600X-0.700000X-0.825000X0.700000X-0.825000X0.700000X0.825000X-0.700000X0.825000X0*%
%ADD15C,3.200000*%
%ADD16C,7.213600*%
%ADD17RoundRect,0.101600X0.825000X-0.700000X0.825000X0.700000X-0.825000X0.700000X-0.825000X-0.700000X0*%
%ADD18RoundRect,0.101600X-0.400000X-0.700000X0.400000X-0.700000X0.400000X0.700000X-0.400000X0.700000X0*%
%ADD19RoundRect,0.101600X-0.700000X0.400000X-0.700000X-0.400000X0.700000X-0.400000X0.700000X0.400000X0*%
%ADD20RoundRect,0.101600X-0.825000X0.700000X-0.825000X-0.700000X0.825000X-0.700000X0.825000X0.700000X0*%
%ADD21RoundRect,0.101600X0.700000X0.825000X-0.700000X0.825000X-0.700000X-0.825000X0.700000X-0.825000X0*%
%ADD22RoundRect,0.101600X-0.600000X-0.400000X0.600000X-0.400000X0.600000X0.400000X-0.600000X0.400000X0*%
%ADD23C,1.853200*%
%ADD24O,1.727200X3.251200*%
%ADD25RoundRect,0.101600X0.400000X-0.500000X0.400000X0.500000X-0.400000X0.500000X-0.400000X-0.500000X0*%
%ADD26RoundRect,0.101600X-0.250000X0.265000X-0.250000X-0.265000X0.250000X-0.265000X0.250000X0.265000X0*%
%ADD27RoundRect,0.101600X-0.240000X-0.200000X0.240000X-0.200000X0.240000X0.200000X-0.240000X0.200000X0*%
%ADD28RoundRect,0.101600X-0.475000X0.225000X-0.475000X-0.225000X0.475000X-0.225000X0.475000X0.225000X0*%
%ADD29RoundRect,0.101600X0.400000X0.500000X-0.400000X0.500000X-0.400000X-0.500000X0.400000X-0.500000X0*%
%ADD30RoundRect,0.101600X-1.750000X-1.250000X1.750000X-1.250000X1.750000X1.250000X-1.750000X1.250000X0*%
%ADD31RoundRect,0.101600X0.425000X0.140000X-0.425000X0.140000X-0.425000X-0.140000X0.425000X-0.140000X0*%
%ADD32RoundRect,0.101600X0.825000X1.200000X-0.825000X1.200000X-0.825000X-1.200000X0.825000X-1.200000X0*%
%ADD33RoundRect,0.101600X0.140000X0.350000X-0.140000X0.350000X-0.140000X-0.350000X0.140000X-0.350000X0*%
%ADD34RoundRect,0.101600X0.575000X0.350000X-0.575000X0.350000X-0.575000X-0.350000X0.575000X-0.350000X0*%
%ADD35RoundRect,0.101600X0.575000X0.400000X-0.575000X0.400000X-0.575000X-0.400000X0.575000X-0.400000X0*%
%ADD36RoundRect,0.101600X0.575000X0.450000X-0.575000X0.450000X-0.575000X-0.450000X0.575000X-0.450000X0*%
%ADD37O,1.700000X1.000000*%
%ADD38RoundRect,0.101600X0.400000X-0.400000X0.400000X0.400000X-0.400000X0.400000X-0.400000X-0.400000X0*%
G04 APERTURE END LIST*
D10*
%TO.C,PORT2*%
X135231100Y-101854000D03*
D11*
X132691100Y-101854000D03*
%TD*%
D10*
%TO.C,PORT3*%
X143256000Y-101854000D03*
D11*
X140716000Y-101854000D03*
%TD*%
D10*
%TO.C,PORT4*%
X135241100Y-110418600D03*
D11*
X132701100Y-110418600D03*
%TD*%
D10*
%TO.C,PORT5*%
X143231100Y-110448600D03*
D11*
X140691100Y-110448600D03*
%TD*%
D12*
%TO.C,SW1*%
X164571100Y-118018600D03*
X164571100Y-120518600D03*
X164571100Y-115518600D03*
%TD*%
D13*
%TO.C,SW2*%
X149421100Y-101928600D03*
X147771100Y-101928600D03*
%TD*%
D14*
%TO.C,R2*%
X148071100Y-96928600D03*
X150671100Y-96928600D03*
%TD*%
D15*
%TO.C,H1*%
X125131100Y-91628600D03*
D16*
X125131100Y-91628600D03*
%TD*%
D15*
%TO.C,H2*%
X125131100Y-118328600D03*
D16*
X125131100Y-118328600D03*
%TD*%
D15*
%TO.C,H3*%
X171871100Y-91628600D03*
D16*
X171871100Y-91628600D03*
%TD*%
D17*
%TO.C,R3*%
X163825000Y-103928600D03*
X163825000Y-101328600D03*
%TD*%
%TO.C,R4*%
X165875000Y-103928600D03*
X165875000Y-101328600D03*
%TD*%
D10*
%TO.C,SWITCH*%
X134841100Y-118928600D03*
D11*
X132301100Y-118928600D03*
%TD*%
D10*
%TO.C,CTRL*%
X142841100Y-118928600D03*
D11*
X140301100Y-118928600D03*
%TD*%
D10*
%TO.C,CTRLSP*%
X150841100Y-118928600D03*
D11*
X148301100Y-118928600D03*
%TD*%
D18*
%TO.C,C1*%
X160071100Y-103428600D03*
X162071100Y-103428600D03*
%TD*%
D19*
%TO.C,C2*%
X165571100Y-105928600D03*
X165571100Y-107928600D03*
%TD*%
D17*
%TO.C,R6*%
X173575000Y-112950000D03*
X173575000Y-110350000D03*
%TD*%
%TO.C,R7*%
X167571100Y-112928600D03*
X167571100Y-110328600D03*
%TD*%
D20*
%TO.C,R8*%
X153571100Y-98928600D03*
X153571100Y-101528600D03*
%TD*%
D14*
%TO.C,R9*%
X153571100Y-96728600D03*
X156171100Y-96728600D03*
%TD*%
D21*
%TO.C,R12*%
X153571100Y-108928600D03*
X150971100Y-108928600D03*
%TD*%
%TO.C,R13*%
X158571100Y-108928600D03*
X155971100Y-108928600D03*
%TD*%
D22*
%TO.C,U2*%
X151421100Y-111293600D03*
X151421100Y-112563600D03*
X157721100Y-112563600D03*
X157721100Y-111293600D03*
%TD*%
D23*
%TO.C,TP1*%
X158121100Y-116428600D03*
X155621100Y-118928600D03*
X160621100Y-118928600D03*
%TD*%
D21*
%TO.C,R5*%
X149571100Y-112428600D03*
X146971100Y-112428600D03*
%TD*%
D17*
%TO.C,R14*%
X169571100Y-112928600D03*
X169571100Y-110328600D03*
%TD*%
D24*
%TO.C,JP1*%
X126841100Y-109928600D03*
X124301100Y-109928600D03*
%TD*%
D25*
%TO.C,TR1*%
X163971100Y-112428600D03*
X164921100Y-110028600D03*
X165871100Y-112428600D03*
%TD*%
D26*
%TO.C,D2*%
X167571100Y-107363600D03*
X167571100Y-105893600D03*
%TD*%
D27*
%TO.C,D1*%
X161231100Y-101428600D03*
X159911100Y-101428600D03*
%TD*%
%TO.C,D3*%
X161210000Y-100175000D03*
X159890000Y-100175000D03*
%TD*%
%TO.C,D4*%
X161231100Y-98900000D03*
X159911100Y-98900000D03*
%TD*%
D28*
%TO.C,COMP1*%
X157771100Y-98278600D03*
X155571100Y-98278600D03*
X157771100Y-99578600D03*
X155571100Y-99578600D03*
X157771100Y-98928600D03*
%TD*%
D13*
%TO.C,POW1*%
X149421100Y-104800000D03*
X147771100Y-104800000D03*
%TD*%
D14*
%TO.C,R1*%
X148071100Y-98928600D03*
X150671100Y-98928600D03*
%TD*%
D10*
%TO.C,POWER*%
X152111100Y-92928600D03*
D11*
X149571100Y-92928600D03*
X147031100Y-92928600D03*
%TD*%
D29*
%TO.C,C3*%
X162371100Y-111228600D03*
X160771100Y-111228600D03*
%TD*%
D30*
%TO.C,C4*%
X134321100Y-91928600D03*
X140821100Y-91928600D03*
%TD*%
D31*
%TO.C,U1*%
X163546100Y-109428600D03*
X160596100Y-108928600D03*
X163546100Y-108928600D03*
D32*
X162071100Y-108428600D03*
D33*
X162321100Y-109978600D03*
X161821100Y-109978600D03*
X162321100Y-106878600D03*
X161821100Y-106878600D03*
D31*
X160596100Y-109428600D03*
X163546100Y-108428600D03*
X163546100Y-107928600D03*
X163546100Y-107428600D03*
X160596100Y-108428600D03*
X160596100Y-107928600D03*
X160596100Y-107428600D03*
%TD*%
D34*
%TO.C,USB1*%
X169771100Y-104928600D03*
D35*
X169771100Y-102908600D03*
D36*
X169771100Y-101678600D03*
D34*
X169771100Y-103928600D03*
D35*
X169771100Y-105948600D03*
D36*
X169771100Y-107178600D03*
D37*
X169771100Y-108748600D03*
X169771100Y-100108600D03*
X173571100Y-108748600D03*
X173571100Y-100108600D03*
%TD*%
D10*
%TO.C,PORT1*%
X127254000Y-101854000D03*
D11*
X124714000Y-101854000D03*
%TD*%
D15*
%TO.C,H4*%
X171871100Y-118328600D03*
D16*
X171871100Y-118328600D03*
%TD*%
D17*
%TO.C,R16*%
X171600000Y-112925000D03*
X171600000Y-110325000D03*
%TD*%
D14*
%TO.C,R18*%
X158775000Y-96700000D03*
X161375000Y-96700000D03*
%TD*%
D10*
%TO.C,THRU*%
X164111100Y-92928600D03*
D11*
X161571100Y-92928600D03*
X159031100Y-92928600D03*
%TD*%
D29*
%TO.C,FET2*%
X164400000Y-98150000D03*
X165350000Y-96150000D03*
X163450000Y-96150000D03*
%TD*%
D38*
%TO.C,LED1*%
X163700000Y-99600000D03*
X165350000Y-99600000D03*
%TD*%
D29*
%TO.C,FET1*%
X157371100Y-105128600D03*
X158321100Y-103128600D03*
X156421100Y-103128600D03*
%TD*%
D14*
%TO.C,R12*%
X155571100Y-101428600D03*
X158171100Y-101428600D03*
%TD*%
D21*
%TO.C,R13*%
X154571100Y-103428600D03*
X151971100Y-103428600D03*
%TD*%
M02*
