%TF.GenerationSoftware,KiCad,Pcbnew,7.0.1*%
%TF.CreationDate,2023-03-31T01:00:54+09:00*%
%TF.ProjectId,USB_JST-XH_Converter,5553425f-4a53-4542-9d58-485f436f6e76,rev?*%
%TF.SameCoordinates,Original*%
%TF.FileFunction,Copper,L1,Top*%
%TF.FilePolarity,Positive*%
%FSLAX46Y46*%
G04 Gerber Fmt 4.6, Leading zero omitted, Abs format (unit mm)*
G04 Created by KiCad (PCBNEW 7.0.1) date 2023-03-31 01:00:54*
%MOMM*%
%LPD*%
G01*
G04 APERTURE LIST*
%TA.AperFunction,ComponentPad*%
%ADD10R,1.508000X1.508000*%
%TD*%
%TA.AperFunction,ComponentPad*%
%ADD11C,1.508000*%
%TD*%
%TA.AperFunction,ComponentPad*%
%ADD12C,1.308000*%
%TD*%
%TA.AperFunction,SMDPad,CuDef*%
%ADD13R,0.800000X0.800000*%
%TD*%
%TA.AperFunction,SMDPad,CuDef*%
%ADD14R,1.400000X1.650000*%
%TD*%
%TA.AperFunction,ComponentPad*%
%ADD15C,7.010400*%
%TD*%
%TA.AperFunction,SMDPad,CuDef*%
%ADD16R,1.650000X1.400000*%
%TD*%
%TA.AperFunction,SMDPad,CuDef*%
%ADD17R,0.800000X1.400000*%
%TD*%
%TA.AperFunction,SMDPad,CuDef*%
%ADD18R,1.400000X0.800000*%
%TD*%
%TA.AperFunction,SMDPad,CuDef*%
%ADD19R,1.200000X0.800000*%
%TD*%
%TA.AperFunction,ComponentPad*%
%ADD20C,1.650000*%
%TD*%
%TA.AperFunction,ComponentPad*%
%ADD21O,1.524000X3.048000*%
%TD*%
%TA.AperFunction,SMDPad,CuDef*%
%ADD22R,0.800000X1.000000*%
%TD*%
%TA.AperFunction,SMDPad,CuDef*%
%ADD23R,0.500000X0.530000*%
%TD*%
%TA.AperFunction,SMDPad,CuDef*%
%ADD24R,0.480000X0.400000*%
%TD*%
%TA.AperFunction,SMDPad,CuDef*%
%ADD25R,0.950000X0.450000*%
%TD*%
%TA.AperFunction,SMDPad,CuDef*%
%ADD26R,3.500000X2.500000*%
%TD*%
%TA.AperFunction,SMDPad,CuDef*%
%ADD27R,0.850000X0.280000*%
%TD*%
%TA.AperFunction,SMDPad,CuDef*%
%ADD28R,1.650000X2.400000*%
%TD*%
%TA.AperFunction,SMDPad,CuDef*%
%ADD29R,0.280000X0.700000*%
%TD*%
%TA.AperFunction,SMDPad,CuDef*%
%ADD30R,1.150000X0.700000*%
%TD*%
%TA.AperFunction,SMDPad,CuDef*%
%ADD31R,1.150000X0.800000*%
%TD*%
%TA.AperFunction,SMDPad,CuDef*%
%ADD32R,1.150000X0.900000*%
%TD*%
%TA.AperFunction,ComponentPad*%
%ADD33O,1.700000X1.000000*%
%TD*%
%TA.AperFunction,ViaPad*%
%ADD34C,1.406400*%
%TD*%
%TA.AperFunction,ViaPad*%
%ADD35C,0.756400*%
%TD*%
%TA.AperFunction,ViaPad*%
%ADD36C,0.800000*%
%TD*%
%TA.AperFunction,ViaPad*%
%ADD37C,0.756000*%
%TD*%
%TA.AperFunction,Conductor*%
%ADD38C,0.200000*%
%TD*%
%TA.AperFunction,Conductor*%
%ADD39C,0.300000*%
%TD*%
G04 APERTURE END LIST*
D10*
%TO.P,PORT2,1*%
%TO.N,GND*%
X135231100Y-101854000D03*
D11*
%TO.P,PORT2,2*%
%TO.N,VCC*%
X132691100Y-101854000D03*
%TD*%
D10*
%TO.P,PORT3,1*%
%TO.N,GND*%
X143256000Y-101854000D03*
D11*
%TO.P,PORT3,2*%
%TO.N,VCC*%
X140716000Y-101854000D03*
%TD*%
D10*
%TO.P,PORT4,1*%
%TO.N,GND*%
X135241100Y-110418600D03*
D11*
%TO.P,PORT4,2*%
%TO.N,VCC*%
X132701100Y-110418600D03*
%TD*%
D10*
%TO.P,PORT5,1*%
%TO.N,GND*%
X143231100Y-110448600D03*
D11*
%TO.P,PORT5,2*%
%TO.N,VCC*%
X140691100Y-110448600D03*
%TD*%
D12*
%TO.P,SW1,C*%
%TO.N,SWITCH*%
X164571100Y-118018600D03*
%TO.P,SW1,L*%
%TO.N,Net-(SW1-PadL)*%
X164571100Y-120518600D03*
%TO.P,SW1,R*%
%TO.N,GND*%
X164571100Y-115518600D03*
%TD*%
D13*
%TO.P,SW2,A*%
%TO.N,Net-(R2-PadLEFT)*%
X149421100Y-101928600D03*
%TO.P,SW2,K*%
%TO.N,GND*%
X147771100Y-101928600D03*
%TD*%
D14*
%TO.P,R2,LEFT*%
%TO.N,Net-(R2-PadLEFT)*%
X148071100Y-96928600D03*
%TO.P,R2,RIGHT*%
%TO.N,VCC*%
X150671100Y-96928600D03*
%TD*%
D15*
%TO.P,H1,P$1*%
%TO.N,GND*%
X125131100Y-91628600D03*
%TD*%
%TO.P,H2,P$1*%
%TO.N,GND*%
X125131100Y-118328600D03*
%TD*%
%TO.P,H3,P$1*%
%TO.N,GND*%
X171871100Y-91628600D03*
%TD*%
D16*
%TO.P,R3,LEFT*%
%TO.N,CC1*%
X163825000Y-103928600D03*
%TO.P,R3,RIGHT*%
%TO.N,GND*%
X163825000Y-101328600D03*
%TD*%
%TO.P,R4,LEFT*%
%TO.N,CC2*%
X165875000Y-103928600D03*
%TO.P,R4,RIGHT*%
%TO.N,GND*%
X165875000Y-101328600D03*
%TD*%
D10*
%TO.P,SWITCH,1*%
%TO.N,SWITCH*%
X134841100Y-118928600D03*
D11*
%TO.P,SWITCH,2*%
%TO.N,GND*%
X132301100Y-118928600D03*
%TD*%
D10*
%TO.P,CTRL,1*%
%TO.N,SWITCH*%
X142841100Y-118928600D03*
D11*
%TO.P,CTRL,2*%
%TO.N,Net-(CTRL1-Pad2)*%
X140301100Y-118928600D03*
%TD*%
D10*
%TO.P,CTRLSP,1*%
%TO.N,Net-(CTRL_I1-Pad1)*%
X150841100Y-118928600D03*
D11*
%TO.P,CTRLSP,2*%
%TO.N,Net-(CTRL_I1-Pad2)*%
X148301100Y-118928600D03*
%TD*%
D17*
%TO.P,C1,P$1*%
%TO.N,VCC*%
X160071100Y-103428600D03*
%TO.P,C1,P$2*%
%TO.N,GND*%
X162071100Y-103428600D03*
%TD*%
D18*
%TO.P,C2,P$1*%
%TO.N,VCC_P*%
X165571100Y-105928600D03*
%TO.P,C2,P$2*%
%TO.N,GND*%
X165571100Y-107928600D03*
%TD*%
D16*
%TO.P,R6,LEFT*%
%TO.N,Net-(R6-PadLEFT)*%
X173575000Y-112950000D03*
%TO.P,R6,RIGHT*%
%TO.N,VCC_P*%
X173575000Y-110350000D03*
%TD*%
%TO.P,R7,LEFT*%
%TO.N,GND*%
X167571100Y-112928600D03*
%TO.P,R7,RIGHT*%
%TO.N,Net-(R7-PadRIGHT)*%
X167571100Y-110328600D03*
%TD*%
%TO.P,R8,LEFT*%
%TO.N,Net-(COMP1-PadIN-)*%
X153571100Y-98928600D03*
%TO.P,R8,RIGHT*%
%TO.N,VCC_P*%
X153571100Y-101528600D03*
%TD*%
D14*
%TO.P,R9,LEFT*%
%TO.N,Net-(COMP1-PadIN-)*%
X153571100Y-96728600D03*
%TO.P,R9,RIGHT*%
%TO.N,GND*%
X156171100Y-96728600D03*
%TD*%
%TO.P,R12,LEFT*%
%TO.N,ILIM*%
X153571100Y-108928600D03*
%TO.P,R12,RIGHT*%
%TO.N,Net-(FET1-PadD)*%
X150971100Y-108928600D03*
%TD*%
%TO.P,R13,LEFT*%
%TO.N,ILIM*%
X158571100Y-108928600D03*
%TO.P,R13,RIGHT*%
%TO.N,GND*%
X155971100Y-108928600D03*
%TD*%
D19*
%TO.P,U2,1*%
%TO.N,Net-(CTRL_I1-Pad2)*%
X151421100Y-111293600D03*
%TO.P,U2,2*%
%TO.N,Net-(R5-PadLEFT)*%
X151421100Y-112563600D03*
%TO.P,U2,3*%
%TO.N,GND*%
X157721100Y-112563600D03*
%TO.P,U2,4*%
%TO.N,SWITCH*%
X157721100Y-111293600D03*
%TD*%
D20*
%TO.P,TP1,CENTER*%
%TO.N,Net-(R6-PadLEFT)*%
X158121100Y-116428600D03*
%TO.P,TP1,LEFT*%
%TO.N,Net-(R7-PadRIGHT)*%
X155621100Y-118928600D03*
%TO.P,TP1,RIGHT*%
%TO.N,Net-(R6-PadLEFT)*%
X160621100Y-118928600D03*
%TD*%
D14*
%TO.P,R5,LEFT*%
%TO.N,Net-(R5-PadLEFT)*%
X149571100Y-112428600D03*
%TO.P,R5,RIGHT*%
%TO.N,Net-(CTRL_I1-Pad1)*%
X146971100Y-112428600D03*
%TD*%
D16*
%TO.P,R14,LEFT*%
%TO.N,SWITCH*%
X169571100Y-112928600D03*
%TO.P,R14,RIGHT*%
%TO.N,VCC_P*%
X169571100Y-110328600D03*
%TD*%
D21*
%TO.P,JP1,1*%
%TO.N,SWITCH*%
X126841100Y-109928600D03*
%TO.P,JP1,2*%
%TO.N,GND*%
X124301100Y-109928600D03*
%TD*%
D22*
%TO.P,TR1,B*%
%TO.N,SWITCH*%
X163971100Y-112428600D03*
%TO.P,TR1,C*%
%TO.N,Net-(R7-PadRIGHT)*%
X164921100Y-110028600D03*
%TO.P,TR1,E*%
%TO.N,GND*%
X165871100Y-112428600D03*
%TD*%
D23*
%TO.P,D2,A*%
%TO.N,GND*%
X167571100Y-107363600D03*
%TO.P,D2,C*%
%TO.N,VCC_P*%
X167571100Y-105893600D03*
%TD*%
D24*
%TO.P,D1,A*%
%TO.N,GND*%
X161231100Y-101428600D03*
%TO.P,D1,C*%
%TO.N,VCC*%
X159911100Y-101428600D03*
%TD*%
%TO.P,D3,A*%
%TO.N,CC1*%
X161210000Y-100175000D03*
%TO.P,D3,C*%
%TO.N,CC*%
X159890000Y-100175000D03*
%TD*%
%TO.P,D4,A*%
%TO.N,CC2*%
X161231100Y-98900000D03*
%TO.P,D4,C*%
%TO.N,CC*%
X159911100Y-98900000D03*
%TD*%
D25*
%TO.P,COMP1,IN+*%
%TO.N,CC*%
X157771100Y-98278600D03*
%TO.P,COMP1,IN-*%
%TO.N,Net-(COMP1-PadIN-)*%
X155571100Y-98278600D03*
%TO.P,COMP1,OUT*%
%TO.N,Net-(COMP1-PadOUT)*%
X157771100Y-99578600D03*
%TO.P,COMP1,VDD*%
%TO.N,VCC_P*%
X155571100Y-99578600D03*
%TO.P,COMP1,VSS*%
%TO.N,GND*%
X157771100Y-98928600D03*
%TD*%
D13*
%TO.P,POW1,A*%
%TO.N,Net-(POW1-PadA)*%
X149421100Y-104800000D03*
%TO.P,POW1,K*%
%TO.N,GND*%
X147771100Y-104800000D03*
%TD*%
D14*
%TO.P,R1,LEFT*%
%TO.N,Net-(POW1-PadA)*%
X148071100Y-98928600D03*
%TO.P,R1,RIGHT*%
%TO.N,VCC_P*%
X150671100Y-98928600D03*
%TD*%
D10*
%TO.P,POWER,1*%
%TO.N,GND*%
X152111100Y-92928600D03*
D11*
%TO.P,POWER,2*%
%TO.N,CC*%
X149571100Y-92928600D03*
%TO.P,POWER,3*%
%TO.N,VCC_P*%
X147031100Y-92928600D03*
%TD*%
D22*
%TO.P,C3,L*%
%TO.N,Net-(C3-PadL)*%
X162371100Y-111228600D03*
%TO.P,C3,R*%
%TO.N,GND*%
X160771100Y-111228600D03*
%TD*%
D26*
%TO.P,C4,A*%
%TO.N,VCC*%
X134321100Y-91928600D03*
%TO.P,C4,C*%
%TO.N,GND*%
X140821100Y-91928600D03*
%TD*%
D27*
%TO.P,U1,DVDT*%
%TO.N,Net-(C3-PadL)*%
X163546100Y-109428600D03*
%TO.P,U1,EFET*%
%TO.N,Net-(U1-PadEFET)*%
X160596100Y-108928600D03*
%TO.P,U1,EN/UVLO*%
%TO.N,Net-(R7-PadRIGHT)*%
X163546100Y-108928600D03*
D28*
%TO.P,U1,GND1*%
%TO.N,GND*%
X162071100Y-108428600D03*
D29*
%TO.P,U1,GND2*%
X162321100Y-109978600D03*
%TO.P,U1,GND3*%
X161821100Y-109978600D03*
%TO.P,U1,GND4*%
X162321100Y-106878600D03*
%TO.P,U1,GND5*%
X161821100Y-106878600D03*
D27*
%TO.P,U1,ILIM*%
%TO.N,ILIM*%
X160596100Y-109428600D03*
%TO.P,U1,VIN1*%
%TO.N,VCC_P*%
X163546100Y-108428600D03*
%TO.P,U1,VIN2*%
X163546100Y-107928600D03*
%TO.P,U1,VIN3*%
X163546100Y-107428600D03*
%TO.P,U1,VOUT1*%
%TO.N,VCC*%
X160596100Y-108428600D03*
%TO.P,U1,VOUT2*%
X160596100Y-107928600D03*
%TO.P,U1,VOUT3*%
X160596100Y-107428600D03*
%TD*%
D30*
%TO.P,USB1,A5*%
%TO.N,CC1*%
X169771100Y-104928600D03*
D31*
%TO.P,USB1,A9*%
%TO.N,VCC_P*%
X169771100Y-102908600D03*
D32*
%TO.P,USB1,A12*%
%TO.N,GND*%
X169771100Y-101678600D03*
D30*
%TO.P,USB1,B5*%
%TO.N,CC2*%
X169771100Y-103928600D03*
D31*
%TO.P,USB1,B9*%
%TO.N,VCC_P*%
X169771100Y-105948600D03*
D32*
%TO.P,USB1,B12*%
%TO.N,GND*%
X169771100Y-107178600D03*
D33*
%TO.P,USB1,SHIELD1*%
X169771100Y-108748600D03*
%TO.P,USB1,SHIELD2*%
X169771100Y-100108600D03*
%TO.P,USB1,SHIELD3*%
X173571100Y-108748600D03*
%TO.P,USB1,SHIELD4*%
X173571100Y-100108600D03*
%TD*%
D10*
%TO.P,PORT1,1*%
%TO.N,GND*%
X127254000Y-101854000D03*
D11*
%TO.P,PORT1,2*%
%TO.N,VCC*%
X124714000Y-101854000D03*
%TD*%
D15*
%TO.P,H4,P$1*%
%TO.N,GND*%
X171871100Y-118328600D03*
%TD*%
D16*
%TO.P,R16,LEFT*%
%TO.N,SWITCH*%
X171600000Y-112925000D03*
%TO.P,R16,RIGHT*%
%TO.N,GND*%
X171600000Y-110325000D03*
%TD*%
D14*
%TO.P,R18,LEFT*%
%TO.N,VCC_P*%
X158775000Y-96700000D03*
%TO.P,R18,RIGHT*%
%TO.N,Net-(LED1-PadA)*%
X161375000Y-96700000D03*
%TD*%
D10*
%TO.P,THRU,1*%
%TO.N,GND*%
X164111100Y-92928600D03*
D11*
%TO.P,THRU,2*%
%TO.N,CC*%
X161571100Y-92928600D03*
%TO.P,THRU,3*%
%TO.N,VCC_P*%
X159031100Y-92928600D03*
%TD*%
D22*
%TO.P,FET2,D*%
%TO.N,Net-(FET2-PadD)*%
X164400000Y-98150000D03*
%TO.P,FET2,G*%
%TO.N,OUT*%
X165350000Y-96150000D03*
%TO.P,FET2,S*%
%TO.N,GND*%
X163450000Y-96150000D03*
%TD*%
D13*
%TO.P,LED1,A*%
%TO.N,Net-(LED1-PadA)*%
X163700000Y-99600000D03*
%TO.P,LED1,K*%
%TO.N,Net-(FET2-PadD)*%
X165350000Y-99600000D03*
%TD*%
D22*
%TO.P,FET1,D*%
%TO.N,Net-(FET1-PadD)*%
X157371100Y-105128600D03*
%TO.P,FET1,G*%
%TO.N,OUT*%
X158321100Y-103128600D03*
%TO.P,FET1,S*%
%TO.N,GND*%
X156421100Y-103128600D03*
%TD*%
D14*
%TO.P,R12,LEFT*%
%TO.N,OUT*%
X155571100Y-101428600D03*
%TO.P,R12,RIGHT*%
%TO.N,Net-(COMP1-PadOUT)*%
X158171100Y-101428600D03*
%TD*%
%TO.P,R13,LEFT*%
%TO.N,OUT*%
X154571100Y-103428600D03*
%TO.P,R13,RIGHT*%
%TO.N,GND*%
X151971100Y-103428600D03*
%TD*%
D34*
%TO.N,GND*%
X171871100Y-94180400D03*
D35*
X143571100Y-94928600D03*
D34*
X126935493Y-89824207D03*
X122579300Y-118328600D03*
D35*
X154801700Y-110028600D03*
D34*
X123326706Y-89824207D03*
X170066706Y-93432994D03*
X169319300Y-118328600D03*
X127682900Y-118328600D03*
X125131100Y-120880400D03*
X127682900Y-91628600D03*
X123326706Y-93432994D03*
X174422900Y-91628600D03*
X171871100Y-120880400D03*
D35*
X161971100Y-105328600D03*
D34*
X125131100Y-94180400D03*
X170066706Y-120132994D03*
X174422900Y-118328600D03*
X123326706Y-116524207D03*
D35*
X160771100Y-112828600D03*
D34*
X122579300Y-91628600D03*
X126935493Y-93432994D03*
X171871100Y-115776800D03*
X125131100Y-115776800D03*
X170066706Y-89824207D03*
X173675493Y-116524207D03*
X125131100Y-89076800D03*
X173675493Y-89824207D03*
X171871100Y-89076800D03*
X173675493Y-93432994D03*
X170066706Y-116524207D03*
X123326706Y-120132994D03*
X126935493Y-120132994D03*
X126935493Y-116524207D03*
X169319300Y-91628600D03*
D35*
X143571100Y-90428600D03*
D34*
X173675493Y-120132994D03*
D35*
%TO.N,CC1*%
X162071100Y-100025000D03*
X163025000Y-102600000D03*
%TO.N,CC2*%
X162075000Y-98900000D03*
X167371100Y-102928600D03*
%TO.N,VCC_P*%
X169571100Y-111628600D03*
X171471100Y-105928600D03*
%TO.N,Net-(FET1-PadD)*%
X152171100Y-105228600D03*
X149571100Y-108928600D03*
D36*
%TO.N,OUT*%
X156875000Y-100350000D03*
D37*
X162825000Y-97225000D03*
%TD*%
D38*
%TO.N,VCC*%
X150671100Y-96928600D02*
X149371100Y-95628600D01*
X147071100Y-95628600D02*
X140691100Y-102008600D01*
D39*
X159911100Y-101428600D02*
X159911100Y-103268600D01*
D38*
X140691100Y-102008600D02*
X140691100Y-102428600D01*
D39*
X159911100Y-103268600D02*
X160071100Y-103428600D01*
D38*
X149371100Y-95628600D02*
X147071100Y-95628600D01*
D39*
X160071100Y-103428600D02*
X160071100Y-106903600D01*
X160071100Y-106903600D02*
X160596100Y-107428600D01*
D38*
%TO.N,GND*%
X171571822Y-110350000D02*
X171575000Y-110350000D01*
X157271100Y-98928600D02*
X157771100Y-98928600D01*
X170023600Y-108748600D02*
X169771100Y-108748600D01*
X156171100Y-96728600D02*
X156671100Y-97228600D01*
X157316550Y-103981000D02*
X156464150Y-103128600D01*
X156464150Y-103128600D02*
X156421100Y-103128600D01*
X159223500Y-103483150D02*
X158725650Y-103981000D01*
X163450000Y-93589700D02*
X164111100Y-92928600D01*
X158703600Y-98928600D02*
X159375000Y-99600000D01*
X164571100Y-115518600D02*
X164571100Y-113728600D01*
X151971100Y-103808900D02*
X150160000Y-105600000D01*
X154801700Y-110028600D02*
X154871100Y-110028600D01*
X167071100Y-112428600D02*
X167571100Y-112928600D01*
X156421100Y-103528600D02*
X156421100Y-103128600D01*
X158725650Y-103981000D02*
X157316550Y-103981000D01*
X148550000Y-105600000D02*
X147771100Y-104800000D01*
X156671100Y-98328600D02*
X157271100Y-98928600D01*
X151971100Y-103428600D02*
X153071100Y-104528600D01*
X171600000Y-110325000D02*
X170023600Y-108748600D01*
X157771100Y-98928600D02*
X158703600Y-98928600D01*
X155971100Y-108928600D02*
X154871100Y-110028600D01*
X165871100Y-112428600D02*
X167071100Y-112428600D01*
X159375000Y-99600000D02*
X159375000Y-100632500D01*
X153071100Y-104528600D02*
X155421100Y-104528600D01*
X147771100Y-104800000D02*
X147771100Y-101928600D01*
X159223500Y-101176200D02*
X159223500Y-103483150D01*
X164571100Y-113728600D02*
X165871100Y-112428600D01*
X155421100Y-104528600D02*
X156421100Y-103528600D01*
X156671100Y-97228600D02*
X156671100Y-98328600D01*
X160631100Y-100828600D02*
X161231100Y-101428600D01*
X169229700Y-100650000D02*
X169771100Y-100108600D01*
X159571100Y-100828600D02*
X159223500Y-101176200D01*
X159375000Y-100632500D02*
X159418699Y-100676199D01*
X169771100Y-108748600D02*
X169970422Y-108748600D01*
X169479700Y-100400000D02*
X169771100Y-100108600D01*
X163450000Y-96150000D02*
X163450000Y-93589700D01*
X159571100Y-100828600D02*
X160631100Y-100828600D01*
X150160000Y-105600000D02*
X148550000Y-105600000D01*
X159418699Y-100676199D02*
X159571100Y-100828600D01*
X151971100Y-103428600D02*
X151971100Y-103808900D01*
%TO.N,CC1*%
X162071100Y-100025000D02*
X161360000Y-100025000D01*
X163825000Y-103928600D02*
X163528600Y-103928600D01*
X164505000Y-105070000D02*
X163825000Y-104390000D01*
X163001700Y-102859200D02*
X163001700Y-102728600D01*
X163528600Y-103928600D02*
X163025000Y-103425000D01*
X163825000Y-104390000D02*
X163825000Y-103928600D01*
X163025000Y-103425000D02*
X163025000Y-102600000D01*
X164071100Y-104128600D02*
X164071100Y-103928600D01*
X161360000Y-100025000D02*
X161210000Y-100175000D01*
X164071100Y-103928600D02*
X164071100Y-104281100D01*
X169629700Y-105070000D02*
X164505000Y-105070000D01*
X169771100Y-104928600D02*
X169629700Y-105070000D01*
%TO.N,CC2*%
X162075000Y-98900000D02*
X161231100Y-98900000D01*
X167371100Y-102928600D02*
X166371100Y-103928600D01*
X166071100Y-103928600D02*
X166371100Y-103928600D01*
X169771100Y-103928600D02*
X166071100Y-103928600D01*
%TO.N,SWITCH*%
X163571100Y-116838600D02*
X163571100Y-114928600D01*
X157471100Y-118328600D02*
X156571100Y-117428600D01*
X144725100Y-120812600D02*
X152571100Y-120812600D01*
X156571100Y-116128600D02*
X157771100Y-114928600D01*
X164661100Y-117838600D02*
X169571100Y-112928600D01*
X163571100Y-114928600D02*
X163571100Y-112828600D01*
X134841100Y-117928600D02*
X134841100Y-118928600D01*
X142841100Y-118928600D02*
X144725100Y-120812600D01*
X140871100Y-120928600D02*
X142841100Y-118958600D01*
X156206100Y-111293600D02*
X157721100Y-111293600D01*
X164571100Y-118018600D02*
X164661100Y-117838600D01*
X169574700Y-112925000D02*
X169571100Y-112928600D01*
X157771100Y-114928600D02*
X163571100Y-114928600D01*
X157471100Y-119428600D02*
X157471100Y-118328600D01*
X164571100Y-118018600D02*
X163571100Y-116838600D01*
X136841100Y-120928600D02*
X140871100Y-120928600D01*
X152571100Y-120812600D02*
X156087100Y-120812600D01*
X163571100Y-112828600D02*
X163971100Y-112428600D01*
X156087100Y-120812600D02*
X157471100Y-119428600D01*
X134841100Y-117928600D02*
X126841100Y-109928600D01*
X171600000Y-112925000D02*
X169574700Y-112925000D01*
X153571100Y-119812600D02*
X153571100Y-113928600D01*
X142841100Y-118958600D02*
X142841100Y-118928600D01*
X156571100Y-117428600D02*
X156571100Y-116128600D01*
X153571100Y-113928600D02*
X156206100Y-111293600D01*
X134841100Y-118928600D02*
X136841100Y-120928600D01*
X153571100Y-119812600D02*
X152571100Y-120812600D01*
%TO.N,VCC_P*%
X169571100Y-110328600D02*
X169571100Y-111628600D01*
X150471100Y-94728600D02*
X148771100Y-94728600D01*
X152071100Y-96328600D02*
X150471100Y-94728600D01*
X147031100Y-92988600D02*
X147031100Y-92928600D01*
X148771100Y-94728600D02*
X147031100Y-92988600D01*
X155571100Y-99578600D02*
X155221100Y-99578600D01*
X150671100Y-98928600D02*
X152871100Y-101128600D01*
X153671100Y-101128600D02*
X153571100Y-101528600D01*
X150671100Y-98928600D02*
X152071100Y-97528600D01*
X152871100Y-101128600D02*
X153571100Y-101528600D01*
X152071100Y-97528600D02*
X152071100Y-96328600D01*
X154921100Y-100228600D02*
X154371100Y-100228600D01*
X171471100Y-105928600D02*
X171571100Y-105828600D01*
X154371100Y-100228600D02*
X153571100Y-101028600D01*
X153571100Y-101028600D02*
X153571100Y-101528600D01*
X171571100Y-105828600D02*
X171571100Y-104928600D01*
X155571100Y-99578600D02*
X154921100Y-100228600D01*
X162825000Y-93825000D02*
X161775000Y-94875000D01*
X158575000Y-96725000D02*
X158775000Y-96725000D01*
X173575000Y-110328600D02*
X173575000Y-110825000D01*
X162350000Y-91000000D02*
X162825000Y-91475000D01*
X173575000Y-110825000D02*
X172771400Y-111628600D01*
X172771400Y-111628600D02*
X169571100Y-111628600D01*
X161775000Y-94875000D02*
X160600000Y-94875000D01*
X162825000Y-91475000D02*
X162825000Y-93825000D01*
X160600000Y-94875000D02*
X158775000Y-96700000D01*
X159031100Y-92928600D02*
X160959700Y-91000000D01*
X160959700Y-91000000D02*
X162350000Y-91000000D01*
%TO.N,ILIM*%
X153571100Y-108928600D02*
X153571100Y-109928600D01*
X160596100Y-109428600D02*
X159071100Y-109428600D01*
X159071100Y-109428600D02*
X158621100Y-108978600D01*
X156871100Y-110728600D02*
X158621100Y-108978600D01*
X154371100Y-110728600D02*
X153571100Y-109928600D01*
X158621100Y-108978600D02*
X158571100Y-108928600D01*
X154371100Y-110728600D02*
X156871100Y-110728600D01*
%TO.N,CC*%
X157400000Y-95825000D02*
X158300000Y-94925000D01*
X157771100Y-98278600D02*
X159289700Y-98278600D01*
X159911100Y-98900000D02*
X159911100Y-100153900D01*
X159911100Y-100153900D02*
X159890000Y-100175000D01*
X156503600Y-94928600D02*
X157400000Y-95825000D01*
X149571100Y-92928600D02*
X151571100Y-94928600D01*
X159289700Y-98278600D02*
X159911100Y-98900000D01*
X157400000Y-98025000D02*
X157400000Y-98220000D01*
X157400000Y-95825000D02*
X157400000Y-98025000D01*
X158300000Y-94925000D02*
X159574700Y-94925000D01*
X151571100Y-94928600D02*
X156503600Y-94928600D01*
X159574700Y-94925000D02*
X161571100Y-92928600D01*
%TO.N,Net-(R2-PadLEFT)*%
X148171100Y-100528600D02*
X149421100Y-101778600D01*
X149421100Y-101778600D02*
X149421100Y-101928600D01*
X148071100Y-96928600D02*
X146771100Y-98228600D01*
X147371100Y-100528600D02*
X148171100Y-100528600D01*
X146771100Y-98228600D02*
X146771100Y-99928600D01*
X146771100Y-99928600D02*
X147371100Y-100528600D01*
D39*
%TO.N,Net-(R5-PadLEFT)*%
X151421100Y-112563600D02*
X149706100Y-112563600D01*
X149706100Y-112563600D02*
X149571100Y-112428600D01*
D38*
%TO.N,Net-(R6-PadLEFT)*%
X158121100Y-116428600D02*
X160621100Y-118928600D01*
X172478600Y-114025000D02*
X169450000Y-114025000D01*
X165575000Y-118356174D02*
X165002574Y-118928600D01*
X165002574Y-118928600D02*
X160621100Y-118928600D01*
X173575000Y-112928600D02*
X172478600Y-114025000D01*
X169450000Y-114025000D02*
X165575000Y-117900000D01*
X165575000Y-117900000D02*
X165575000Y-118356174D01*
%TO.N,Net-(R7-PadRIGHT)*%
X157571100Y-113928600D02*
X161014150Y-113928600D01*
X164921100Y-110028600D02*
X164914150Y-110028600D01*
X164914150Y-110028600D02*
X161014150Y-113928600D01*
X167271100Y-110028600D02*
X167571100Y-110328600D01*
X155571100Y-115928600D02*
X157571100Y-113928600D01*
X164921100Y-110028600D02*
X164921100Y-109578600D01*
X164271100Y-108928600D02*
X163546100Y-108928600D01*
X164921100Y-110028600D02*
X167271100Y-110028600D01*
X155621100Y-118928600D02*
X155571100Y-118878600D01*
X155571100Y-118878600D02*
X155571100Y-115928600D01*
X164921100Y-109578600D02*
X164271100Y-108928600D01*
%TO.N,Net-(C3-PadL)*%
X163546100Y-110053600D02*
X162371100Y-111228600D01*
X163546100Y-109428600D02*
X163546100Y-110053600D01*
%TO.N,Net-(COMP1-PadIN-)*%
X153571100Y-98928600D02*
X153571100Y-96728600D01*
X153571100Y-98928600D02*
X154221100Y-98278600D01*
X154221100Y-98278600D02*
X155571100Y-98278600D01*
%TO.N,Net-(COMP1-PadOUT)*%
X157771100Y-101028600D02*
X158171100Y-101428600D01*
X157771100Y-99578600D02*
X157771100Y-101028600D01*
%TO.N,Net-(FET1-PadD)*%
X157271100Y-105228600D02*
X152171100Y-105228600D01*
X150971100Y-108928600D02*
X149571100Y-108928600D01*
X157271100Y-105228600D02*
X157371100Y-105128600D01*
%TO.N,Net-(CTRL_I1-Pad1)*%
X147571100Y-120228600D02*
X146571100Y-119228600D01*
X150841100Y-118928600D02*
X149541100Y-120228600D01*
X146571100Y-112828600D02*
X146971100Y-112428600D01*
X146571100Y-119228600D02*
X146571100Y-112828600D01*
X149541100Y-120228600D02*
X147571100Y-120228600D01*
%TO.N,Net-(CTRL_I1-Pad2)*%
X148301100Y-111816650D02*
X148866550Y-111251200D01*
X148301100Y-118928600D02*
X148301100Y-111816650D01*
X151378700Y-111251200D02*
X148866550Y-111251200D01*
X151421100Y-111293600D02*
X151378700Y-111251200D01*
%TO.N,Net-(POW1-PadA)*%
X150471100Y-103750000D02*
X149421100Y-104800000D01*
X148071100Y-98928600D02*
X150471100Y-101328600D01*
X150471100Y-101328600D02*
X150471100Y-103750000D01*
%TO.N,OUT*%
X155571100Y-101428600D02*
X154571100Y-102428600D01*
X154571100Y-102428600D02*
X154571100Y-103428600D01*
X158321100Y-103128600D02*
X157698500Y-102506000D01*
X157698500Y-102506000D02*
X157066550Y-102506000D01*
X157066550Y-102506000D02*
X155989150Y-101428600D01*
X155571100Y-101428600D02*
X155989150Y-101428600D01*
X164300000Y-97225000D02*
X162825000Y-97225000D01*
X165350000Y-96175000D02*
X164300000Y-97225000D01*
X165350000Y-96150000D02*
X165350000Y-96175000D01*
X156649700Y-100350000D02*
X155571100Y-101428600D01*
X156875000Y-100350000D02*
X156649700Y-100350000D01*
%TO.N,Net-(FET2-PadD)*%
X164400000Y-98150000D02*
X165350000Y-99100000D01*
X164400000Y-98150000D02*
X164400000Y-98175000D01*
X165350000Y-99100000D02*
X165350000Y-99600000D01*
%TO.N,Net-(LED1-PadA)*%
X161175000Y-96725000D02*
X161200000Y-96725000D01*
X161375000Y-96700000D02*
X161375000Y-97275000D01*
X163450000Y-99600000D02*
X163700000Y-99600000D01*
X161375000Y-97275000D02*
X163700000Y-99600000D01*
%TD*%
%TA.AperFunction,Conductor*%
%TO.N,VCC_P*%
G36*
X166828984Y-87592951D02*
G01*
X167860381Y-88594759D01*
X167871374Y-88610829D01*
X167875241Y-88629910D01*
X167875239Y-88679288D01*
X167874387Y-88688386D01*
X167867564Y-88724483D01*
X167870085Y-91688840D01*
X167870092Y-91696538D01*
X167870092Y-91696541D01*
X167871433Y-93274929D01*
X167874057Y-93288096D01*
X167875001Y-93297671D01*
X167875000Y-93349999D01*
X167875000Y-93350000D01*
X167886494Y-93361574D01*
X167896997Y-93377353D01*
X167901385Y-93387949D01*
X167945787Y-93454483D01*
X167945790Y-93454486D01*
X171315929Y-96831522D01*
X171343726Y-96850500D01*
X171363058Y-96863699D01*
X171370198Y-96869640D01*
X171450000Y-96950000D01*
X172029704Y-96950000D01*
X172064352Y-96964352D01*
X172505227Y-97405227D01*
X172519579Y-97439841D01*
X172521390Y-100014355D01*
X172520600Y-100020894D01*
X172520600Y-100195733D01*
X172521524Y-100203320D01*
X172525518Y-105880126D01*
X172511596Y-105914373D01*
X171932307Y-106508313D01*
X171916263Y-106519252D01*
X171897229Y-106523100D01*
X165649973Y-106523100D01*
X165627060Y-106527658D01*
X165617500Y-106528600D01*
X165612521Y-106528600D01*
X165607918Y-106530506D01*
X165598734Y-106533291D01*
X165571333Y-106538742D01*
X165536683Y-106553095D01*
X165470015Y-106597642D01*
X164440142Y-107627515D01*
X164395595Y-107694183D01*
X164381242Y-107728833D01*
X164375791Y-107756234D01*
X164373006Y-107765418D01*
X164371100Y-107770021D01*
X164371100Y-107775000D01*
X164370158Y-107784560D01*
X164365600Y-107807473D01*
X164365600Y-108549723D01*
X164369542Y-108569541D01*
X164366753Y-108597852D01*
X164348706Y-108619842D01*
X164321483Y-108628100D01*
X164311646Y-108628100D01*
X164300427Y-108626798D01*
X164298173Y-108626268D01*
X164285218Y-108623220D01*
X164253613Y-108627630D01*
X164246843Y-108628100D01*
X164106649Y-108628100D01*
X164079426Y-108619842D01*
X164049331Y-108599733D01*
X164049330Y-108599732D01*
X164049329Y-108599732D01*
X163990851Y-108588100D01*
X163990848Y-108588100D01*
X163155600Y-108588100D01*
X163120952Y-108573748D01*
X163106600Y-108539100D01*
X163106600Y-106971975D01*
X163120952Y-106937327D01*
X164615327Y-105442952D01*
X164649975Y-105428600D01*
X169044837Y-105428600D01*
X169072060Y-105436858D01*
X169117869Y-105467467D01*
X169132489Y-105470375D01*
X169176349Y-105479100D01*
X169176352Y-105479100D01*
X170365848Y-105479100D01*
X170365851Y-105479100D01*
X170400937Y-105472120D01*
X170424331Y-105467467D01*
X170470139Y-105436858D01*
X170497363Y-105428600D01*
X170671100Y-105428600D01*
X170671100Y-103670023D01*
X170671099Y-103670021D01*
X170553800Y-103552722D01*
X170540390Y-103527634D01*
X170534967Y-103500369D01*
X170507801Y-103459713D01*
X170490652Y-103434047D01*
X170441023Y-103400886D01*
X170424331Y-103389733D01*
X170424330Y-103389732D01*
X170424329Y-103389732D01*
X170365851Y-103378100D01*
X170365848Y-103378100D01*
X169176352Y-103378100D01*
X169176349Y-103378100D01*
X169117870Y-103389732D01*
X169072060Y-103420342D01*
X169044837Y-103428600D01*
X169020100Y-103428600D01*
X168985452Y-103414248D01*
X168971100Y-103379600D01*
X168971100Y-102423100D01*
X168985452Y-102388452D01*
X169020100Y-102374100D01*
X170722103Y-102374100D01*
X170800739Y-102358458D01*
X170800739Y-102358457D01*
X170800743Y-102358457D01*
X170835391Y-102344105D01*
X170846236Y-102336858D01*
X170873460Y-102328600D01*
X170931100Y-102328600D01*
X170931100Y-102270960D01*
X170939358Y-102243737D01*
X170944659Y-102235803D01*
X170946605Y-102232891D01*
X170960957Y-102198243D01*
X170960958Y-102198239D01*
X170976600Y-102119603D01*
X170976600Y-99910713D01*
X170974461Y-99898152D01*
X170965016Y-99842691D01*
X170954279Y-99812081D01*
X170937240Y-99781335D01*
X170931100Y-99757585D01*
X170931100Y-99755519D01*
X170931100Y-99755518D01*
X170623624Y-99378600D01*
X170621791Y-99378570D01*
X170539251Y-99377241D01*
X170533304Y-99376782D01*
X170502589Y-99372519D01*
X170413757Y-99369890D01*
X170380559Y-99355559D01*
X165089314Y-94064314D01*
X165074962Y-94029758D01*
X165074287Y-93670021D01*
X165071100Y-91970022D01*
X164929678Y-91828600D01*
X161012522Y-91828600D01*
X160471100Y-92370021D01*
X160471100Y-93549725D01*
X160456748Y-93584373D01*
X159726873Y-94314248D01*
X159692225Y-94328600D01*
X158349975Y-94328600D01*
X158315327Y-94314248D01*
X157485452Y-93484373D01*
X157471100Y-93449725D01*
X157471100Y-92170023D01*
X157471099Y-92170021D01*
X157029678Y-91728600D01*
X149112522Y-91728600D01*
X148471100Y-92370021D01*
X148471100Y-93749725D01*
X148456748Y-93784373D01*
X147926873Y-94314248D01*
X147892225Y-94328600D01*
X146049975Y-94328600D01*
X146015327Y-94314248D01*
X145385452Y-93684373D01*
X145371100Y-93649725D01*
X145371100Y-90707475D01*
X145385452Y-90672827D01*
X148464827Y-87593452D01*
X148499475Y-87579100D01*
X166794844Y-87579100D01*
X166828984Y-87592951D01*
G37*
%TD.AperFunction*%
%TD*%
%TA.AperFunction,Conductor*%
%TO.N,GND*%
G36*
X141831399Y-87584733D02*
G01*
X141855406Y-87600774D01*
X144499426Y-90244794D01*
X144515467Y-90268801D01*
X144521100Y-90297120D01*
X144521100Y-95060080D01*
X144515467Y-95088399D01*
X144499426Y-95112406D01*
X143354906Y-96256926D01*
X143330899Y-96272967D01*
X143302580Y-96278600D01*
X138883794Y-96278600D01*
X138855475Y-96272967D01*
X138831468Y-96256926D01*
X138042774Y-95468232D01*
X138026733Y-95444225D01*
X138021100Y-95415906D01*
X138021100Y-91988088D01*
X138021099Y-91988086D01*
X137966810Y-91930404D01*
X137952330Y-91908006D01*
X137946605Y-91894184D01*
X137904743Y-91831535D01*
X137902059Y-91827518D01*
X137357447Y-91282906D01*
X137355886Y-91281297D01*
X136506289Y-90378600D01*
X132570815Y-90378600D01*
X130721100Y-92191614D01*
X130721100Y-95857981D01*
X130716121Y-95884665D01*
X130701855Y-95907759D01*
X130122603Y-96544934D01*
X130120174Y-96547482D01*
X129810732Y-96856926D01*
X129786725Y-96872967D01*
X129758406Y-96878600D01*
X124633232Y-96878600D01*
X124608985Y-96902846D01*
X124584738Y-96927093D01*
X124560733Y-96943133D01*
X124536681Y-96953095D01*
X124470018Y-96997640D01*
X121640140Y-99827518D01*
X121595596Y-99894181D01*
X121585634Y-99918231D01*
X121569593Y-99942237D01*
X121197926Y-100313906D01*
X121160037Y-100334158D01*
X121117282Y-100329947D01*
X121084071Y-100302692D01*
X121071600Y-100261580D01*
X121071600Y-91696368D01*
X123276888Y-91696368D01*
X123306513Y-91965615D01*
X123366268Y-92194184D01*
X123375028Y-92227688D01*
X123480970Y-92476990D01*
X123622082Y-92708210D01*
X123795355Y-92916420D01*
X123997098Y-93097182D01*
X124223010Y-93246644D01*
X124355204Y-93308614D01*
X124468278Y-93361621D01*
X124727668Y-93439660D01*
X124995658Y-93479100D01*
X124995661Y-93479100D01*
X125198725Y-93479100D01*
X125198731Y-93479100D01*
X125401256Y-93464277D01*
X125665653Y-93405380D01*
X125918658Y-93308614D01*
X126154877Y-93176041D01*
X126369277Y-93010488D01*
X126557286Y-92815481D01*
X126714899Y-92595179D01*
X126838756Y-92354275D01*
X126926218Y-92097905D01*
X126975419Y-91831533D01*
X126985312Y-91560835D01*
X126955686Y-91291582D01*
X126887172Y-91029512D01*
X126781230Y-90780210D01*
X126640118Y-90548990D01*
X126466845Y-90340780D01*
X126265102Y-90160018D01*
X126039190Y-90010556D01*
X126039188Y-90010555D01*
X125793921Y-89895578D01*
X125534531Y-89817539D01*
X125266542Y-89778100D01*
X125266539Y-89778100D01*
X125063469Y-89778100D01*
X124860944Y-89792922D01*
X124860944Y-89792923D01*
X124596543Y-89851821D01*
X124343545Y-89948584D01*
X124107322Y-90081159D01*
X123892920Y-90246714D01*
X123704914Y-90441718D01*
X123547300Y-90662021D01*
X123423445Y-90902921D01*
X123335981Y-91159298D01*
X123286781Y-91425664D01*
X123276888Y-91696368D01*
X121071600Y-91696368D01*
X121071600Y-91080419D01*
X121071689Y-91076788D01*
X121074011Y-91029513D01*
X121088273Y-90739201D01*
X121088982Y-90732007D01*
X121138309Y-90399469D01*
X121139726Y-90392351D01*
X121221407Y-90066258D01*
X121223504Y-90059347D01*
X121336763Y-89742810D01*
X121339533Y-89736122D01*
X121483268Y-89432221D01*
X121486674Y-89425848D01*
X121659510Y-89137488D01*
X121663534Y-89131466D01*
X121863790Y-88861452D01*
X121868394Y-88855844D01*
X122094150Y-88606760D01*
X122099260Y-88601650D01*
X122348348Y-88375889D01*
X122353957Y-88371287D01*
X122401187Y-88336259D01*
X122623966Y-88171034D01*
X122629988Y-88167010D01*
X122918348Y-87994174D01*
X122924721Y-87990768D01*
X123228622Y-87847033D01*
X123235310Y-87844263D01*
X123551847Y-87731004D01*
X123558758Y-87728907D01*
X123884855Y-87647225D01*
X123891969Y-87645809D01*
X124224507Y-87596482D01*
X124231701Y-87595773D01*
X124569288Y-87579188D01*
X124572919Y-87579100D01*
X141803080Y-87579100D01*
X141831399Y-87584733D01*
G37*
%TD.AperFunction*%
%TD*%
%TA.AperFunction,Conductor*%
%TO.N,GND*%
G36*
X172432300Y-87579158D02*
G01*
X172771715Y-87595833D01*
X172776476Y-87596301D01*
X173111450Y-87645990D01*
X173116140Y-87646923D01*
X173386683Y-87714690D01*
X173444615Y-87729202D01*
X173449217Y-87730598D01*
X173768043Y-87844676D01*
X173772485Y-87846517D01*
X174078578Y-87991288D01*
X174082803Y-87993545D01*
X174263480Y-88101839D01*
X174373257Y-88167637D01*
X174377255Y-88170309D01*
X174513238Y-88271161D01*
X174649227Y-88372017D01*
X174652939Y-88375063D01*
X174903835Y-88602463D01*
X174907236Y-88605864D01*
X175134636Y-88856760D01*
X175137686Y-88860477D01*
X175339390Y-89132444D01*
X175342062Y-89136442D01*
X175516149Y-89426888D01*
X175518415Y-89431129D01*
X175663182Y-89737214D01*
X175665023Y-89741656D01*
X175779101Y-90060482D01*
X175780497Y-90065084D01*
X175862773Y-90393546D01*
X175863711Y-90398262D01*
X175913396Y-90733211D01*
X175913867Y-90737997D01*
X175930541Y-91077399D01*
X175930600Y-91079803D01*
X175930600Y-118927397D01*
X175930541Y-118929801D01*
X175913867Y-119269202D01*
X175913396Y-119273988D01*
X175863711Y-119608937D01*
X175862773Y-119613653D01*
X175780497Y-119942115D01*
X175779101Y-119946717D01*
X175665023Y-120265543D01*
X175663182Y-120269985D01*
X175518415Y-120576070D01*
X175516149Y-120580311D01*
X175342062Y-120870757D01*
X175339390Y-120874755D01*
X175137686Y-121146722D01*
X175134636Y-121150439D01*
X174907236Y-121401335D01*
X174903835Y-121404736D01*
X174652939Y-121632136D01*
X174649222Y-121635186D01*
X174377255Y-121836890D01*
X174373257Y-121839562D01*
X174082811Y-122013649D01*
X174078570Y-122015915D01*
X173772485Y-122160682D01*
X173768043Y-122162523D01*
X173449217Y-122276601D01*
X173444615Y-122277997D01*
X173116153Y-122360273D01*
X173111437Y-122361211D01*
X172776488Y-122410896D01*
X172771702Y-122411367D01*
X172432301Y-122428041D01*
X172429897Y-122428100D01*
X165949000Y-122428100D01*
X165914352Y-122413748D01*
X165900000Y-122379100D01*
X165900000Y-118396363D01*
X170016888Y-118396363D01*
X170046513Y-118665615D01*
X170115028Y-118927689D01*
X170220970Y-119176990D01*
X170362080Y-119408207D01*
X170529127Y-119608937D01*
X170535355Y-119616420D01*
X170737098Y-119797182D01*
X170963010Y-119946644D01*
X171208276Y-120061620D01*
X171353724Y-120105379D01*
X171467665Y-120139659D01*
X171467666Y-120139659D01*
X171467669Y-120139660D01*
X171735661Y-120179100D01*
X171938731Y-120179100D01*
X171938735Y-120179100D01*
X172039993Y-120171688D01*
X172141256Y-120164277D01*
X172405653Y-120105380D01*
X172658658Y-120008614D01*
X172894877Y-119876041D01*
X173109277Y-119710488D01*
X173297286Y-119515481D01*
X173454899Y-119295179D01*
X173578756Y-119054275D01*
X173621631Y-118928600D01*
X173666217Y-118797909D01*
X173666218Y-118797905D01*
X173715419Y-118531533D01*
X173725312Y-118260835D01*
X173695686Y-117991582D01*
X173627172Y-117729512D01*
X173521230Y-117480210D01*
X173380118Y-117248990D01*
X173206845Y-117040780D01*
X173005102Y-116860018D01*
X172779190Y-116710556D01*
X172779187Y-116710554D01*
X172533922Y-116595579D01*
X172274534Y-116517540D01*
X172073537Y-116487960D01*
X172006539Y-116478100D01*
X171803469Y-116478100D01*
X171803465Y-116478100D01*
X171600947Y-116492922D01*
X171336545Y-116551820D01*
X171083540Y-116648586D01*
X170847320Y-116781160D01*
X170632926Y-116946709D01*
X170444913Y-117141720D01*
X170287302Y-117362018D01*
X170163441Y-117602930D01*
X170075982Y-117859290D01*
X170026780Y-118125669D01*
X170016888Y-118396363D01*
X165900000Y-118396363D01*
X165900000Y-118020267D01*
X165903730Y-118001516D01*
X165914352Y-117985619D01*
X169560120Y-114339852D01*
X169594768Y-114325500D01*
X172421590Y-114325500D01*
X172435711Y-114327803D01*
X172436364Y-114327772D01*
X172436365Y-114327773D01*
X172484410Y-114325551D01*
X172486673Y-114325500D01*
X172506443Y-114325500D01*
X172506444Y-114325500D01*
X172509965Y-114324841D01*
X172516709Y-114324058D01*
X172548592Y-114322585D01*
X172562890Y-114316270D01*
X172573671Y-114312932D01*
X172589033Y-114310061D01*
X172616170Y-114293258D01*
X172622162Y-114290100D01*
X172651365Y-114277206D01*
X172662416Y-114266154D01*
X172671258Y-114259149D01*
X172684552Y-114250919D01*
X172703791Y-114225440D01*
X172708234Y-114220335D01*
X173063718Y-113864852D01*
X173098367Y-113850500D01*
X174419751Y-113850500D01*
X174454837Y-113843520D01*
X174478231Y-113838867D01*
X174544552Y-113794552D01*
X174588867Y-113728231D01*
X174594065Y-113702100D01*
X174600500Y-113669751D01*
X174600500Y-112230249D01*
X174588868Y-112171771D01*
X174588867Y-112171769D01*
X174583257Y-112163373D01*
X174575000Y-112136152D01*
X174575000Y-111163848D01*
X174583257Y-111136626D01*
X174588867Y-111128231D01*
X174593124Y-111106831D01*
X174600500Y-111069751D01*
X174600500Y-109630249D01*
X174588868Y-109571771D01*
X174588867Y-109571769D01*
X174583257Y-109563373D01*
X174575000Y-109536152D01*
X174575000Y-109399999D01*
X172329992Y-109428596D01*
X172329368Y-109428600D01*
X170423188Y-109428600D01*
X170418111Y-109428100D01*
X170415848Y-109428100D01*
X168726352Y-109428100D01*
X168724089Y-109428100D01*
X168719012Y-109428600D01*
X168423188Y-109428600D01*
X168418111Y-109428100D01*
X168415848Y-109428100D01*
X166726352Y-109428100D01*
X166724089Y-109428100D01*
X166719012Y-109428600D01*
X165521612Y-109428600D01*
X165498514Y-109422814D01*
X165480870Y-109406823D01*
X165465651Y-109384047D01*
X165432716Y-109362040D01*
X165399331Y-109339733D01*
X165399330Y-109339732D01*
X165399329Y-109339732D01*
X165340858Y-109328101D01*
X165315770Y-109314691D01*
X164585452Y-108584373D01*
X164571100Y-108549725D01*
X164571100Y-107807475D01*
X164585452Y-107772827D01*
X165615327Y-106742952D01*
X165649975Y-106728600D01*
X172028340Y-106728600D01*
X172028341Y-106728600D01*
X172731100Y-105993153D01*
X172725000Y-97325000D01*
X172724999Y-97324999D01*
X172724999Y-97324998D01*
X172150001Y-96725001D01*
X172150000Y-96725000D01*
X172149999Y-96724999D01*
X172149998Y-96724999D01*
X171494258Y-96700713D01*
X171461388Y-96686360D01*
X170913862Y-96137714D01*
X168091249Y-93309324D01*
X168076934Y-93274756D01*
X168075592Y-91696363D01*
X170016888Y-91696363D01*
X170046513Y-91965615D01*
X170046514Y-91965618D01*
X170115028Y-92227688D01*
X170220970Y-92476990D01*
X170362082Y-92708210D01*
X170535355Y-92916420D01*
X170737098Y-93097182D01*
X170963010Y-93246644D01*
X171208276Y-93361620D01*
X171353724Y-93405379D01*
X171467665Y-93439659D01*
X171467666Y-93439659D01*
X171467669Y-93439660D01*
X171735661Y-93479100D01*
X171938731Y-93479100D01*
X171938735Y-93479100D01*
X172039993Y-93471688D01*
X172141256Y-93464277D01*
X172405653Y-93405380D01*
X172658658Y-93308614D01*
X172894877Y-93176041D01*
X173109277Y-93010488D01*
X173297286Y-92815481D01*
X173454899Y-92595179D01*
X173578756Y-92354275D01*
X173588731Y-92325034D01*
X173666217Y-92097909D01*
X173690653Y-91965615D01*
X173715419Y-91831533D01*
X173725312Y-91560835D01*
X173695686Y-91291582D01*
X173627172Y-91029512D01*
X173521230Y-90780210D01*
X173380118Y-90548990D01*
X173206845Y-90340780D01*
X173005102Y-90160018D01*
X172779190Y-90010556D01*
X172779187Y-90010554D01*
X172533922Y-89895579D01*
X172274534Y-89817540D01*
X172073536Y-89787959D01*
X172006539Y-89778100D01*
X171803469Y-89778100D01*
X171803465Y-89778100D01*
X171600947Y-89792922D01*
X171336545Y-89851820D01*
X171083540Y-89948586D01*
X170847320Y-90081160D01*
X170632926Y-90246709D01*
X170444913Y-90441720D01*
X170287302Y-90662018D01*
X170163441Y-90902930D01*
X170075982Y-91159290D01*
X170026780Y-91425669D01*
X170016888Y-91696363D01*
X168075592Y-91696363D01*
X168073065Y-88724306D01*
X168086204Y-88690875D01*
X169058315Y-87646926D01*
X169106940Y-87594708D01*
X169123245Y-87583171D01*
X169142800Y-87579100D01*
X172365208Y-87579100D01*
X172429897Y-87579100D01*
X172432300Y-87579158D01*
G37*
%TD.AperFunction*%
%TD*%
%TA.AperFunction,Conductor*%
%TO.N,GND*%
G36*
X170496510Y-99577929D02*
G01*
X170516935Y-99583063D01*
X170533319Y-99596296D01*
X170705741Y-99811824D01*
X170760363Y-99880101D01*
X170771100Y-99910711D01*
X170771100Y-102119600D01*
X170756748Y-102154248D01*
X170722100Y-102168600D01*
X163430041Y-102168600D01*
X163400212Y-102158474D01*
X163316848Y-102094507D01*
X163316847Y-102094506D01*
X163176071Y-102036195D01*
X163025000Y-102016306D01*
X162873928Y-102036195D01*
X162733151Y-102094507D01*
X162612265Y-102187265D01*
X162519507Y-102308151D01*
X162519506Y-102308152D01*
X162519506Y-102308153D01*
X162502427Y-102349384D01*
X162461195Y-102448928D01*
X162441306Y-102599999D01*
X162461194Y-102751069D01*
X162461195Y-102751071D01*
X162467370Y-102765980D01*
X162471100Y-102784730D01*
X162471100Y-105782668D01*
X162889542Y-106278343D01*
X162901100Y-106309951D01*
X162901100Y-110251836D01*
X162896690Y-110272152D01*
X162884253Y-110288812D01*
X162622901Y-110516076D01*
X162590748Y-110528100D01*
X161949089Y-110528100D01*
X161944012Y-110528600D01*
X161912522Y-110528600D01*
X161906759Y-110530986D01*
X161900854Y-110534143D01*
X161900972Y-110534319D01*
X161892869Y-110539732D01*
X161892869Y-110539733D01*
X161826548Y-110584048D01*
X161793999Y-110632761D01*
X161776819Y-110658472D01*
X161776643Y-110658354D01*
X161773486Y-110664259D01*
X161771100Y-110670022D01*
X161771100Y-110701512D01*
X161770600Y-110706589D01*
X161770600Y-111750611D01*
X161771100Y-111755688D01*
X161771100Y-112549725D01*
X161756748Y-112584373D01*
X161026873Y-113314248D01*
X160992225Y-113328600D01*
X157149975Y-113328600D01*
X157115327Y-113314248D01*
X156685452Y-112884373D01*
X156671100Y-112849725D01*
X156671100Y-112207475D01*
X156685452Y-112172827D01*
X156685452Y-112172826D01*
X156974238Y-111884040D01*
X157004080Y-111869926D01*
X157036105Y-111877947D01*
X157042869Y-111882467D01*
X157050777Y-111884040D01*
X157101349Y-111894100D01*
X157101352Y-111894100D01*
X158340848Y-111894100D01*
X158340851Y-111894100D01*
X158375937Y-111887120D01*
X158399331Y-111882467D01*
X158465652Y-111838152D01*
X158509967Y-111771831D01*
X158512908Y-111757044D01*
X158526315Y-111731962D01*
X160474826Y-109783452D01*
X160509475Y-109769100D01*
X161040851Y-109769100D01*
X161075937Y-109762120D01*
X161099331Y-109757467D01*
X161165652Y-109713152D01*
X161209967Y-109646831D01*
X161217320Y-109609860D01*
X161228796Y-109589569D01*
X161231100Y-109584363D01*
X161231100Y-108638009D01*
X161234830Y-108619258D01*
X161235457Y-108617742D01*
X161251100Y-108539103D01*
X161251100Y-107233914D01*
X161252041Y-107224357D01*
X161253255Y-107218252D01*
X161257020Y-107206856D01*
X161259492Y-107201630D01*
X161267750Y-107174409D01*
X161276600Y-107114752D01*
X161276600Y-106906039D01*
X161272160Y-106863551D01*
X161267971Y-106843728D01*
X161267970Y-106843727D01*
X161233598Y-106766024D01*
X161221748Y-106749591D01*
X161193293Y-106717722D01*
X160687139Y-106257582D01*
X160675289Y-106241148D01*
X160671100Y-106221325D01*
X160671100Y-104155688D01*
X160671600Y-104150611D01*
X160671600Y-102706589D01*
X160671100Y-102701512D01*
X160671100Y-101307475D01*
X160685452Y-101272827D01*
X161215327Y-100742952D01*
X161249975Y-100728600D01*
X162029678Y-100728600D01*
X162157709Y-100606768D01*
X162185086Y-100593687D01*
X162222171Y-100588805D01*
X162362947Y-100530494D01*
X162483834Y-100437734D01*
X162498077Y-100419171D01*
X162515280Y-100405053D01*
X162536952Y-100400000D01*
X168250000Y-100400000D01*
X168977096Y-99551220D01*
X168994486Y-99538288D01*
X169015752Y-99534121D01*
X170496510Y-99577929D01*
G37*
%TD.AperFunction*%
%TD*%
%TA.AperFunction,Conductor*%
%TO.N,VCC*%
G36*
X136426873Y-90642952D02*
G01*
X137756748Y-91972827D01*
X137771100Y-92007475D01*
X137771100Y-95487178D01*
X140012522Y-97728600D01*
X143192225Y-97728600D01*
X143226873Y-97742952D01*
X145756748Y-100272827D01*
X145771100Y-100307475D01*
X145771100Y-104387178D01*
X147212522Y-105828600D01*
X148335733Y-105828600D01*
X148368744Y-105841389D01*
X148389064Y-105859914D01*
X148389065Y-105859914D01*
X148389067Y-105859916D01*
X148401439Y-105864708D01*
X148411957Y-105870344D01*
X148422794Y-105877982D01*
X148456033Y-105886269D01*
X148461874Y-105888121D01*
X148493827Y-105900500D01*
X148507085Y-105900500D01*
X148518939Y-105901956D01*
X148531801Y-105905163D01*
X148531801Y-105905162D01*
X148531802Y-105905163D01*
X148557276Y-105901956D01*
X148565792Y-105900884D01*
X148571912Y-105900500D01*
X150101992Y-105900500D01*
X150114609Y-105902593D01*
X150116081Y-105902533D01*
X150116084Y-105902534D01*
X150165116Y-105900539D01*
X150167107Y-105900500D01*
X150187843Y-105900500D01*
X150187844Y-105900500D01*
X150190401Y-105900021D01*
X150197419Y-105899225D01*
X150228338Y-105897969D01*
X150243568Y-105891343D01*
X150254106Y-105888112D01*
X150270433Y-105885061D01*
X150296751Y-105868764D01*
X150302976Y-105865506D01*
X150331362Y-105853161D01*
X150331586Y-105852938D01*
X150341878Y-105842761D01*
X150376334Y-105828600D01*
X156944012Y-105828600D01*
X156949089Y-105829100D01*
X156951352Y-105829100D01*
X157790848Y-105829100D01*
X157793111Y-105829100D01*
X157798188Y-105828600D01*
X159890817Y-105828600D01*
X159923778Y-105841343D01*
X161055061Y-106869782D01*
X161066911Y-106886216D01*
X161071100Y-106906039D01*
X161071100Y-107114752D01*
X161062842Y-107141973D01*
X161059635Y-107146773D01*
X161057231Y-107150371D01*
X161045600Y-107208849D01*
X161045600Y-108539100D01*
X161031248Y-108573748D01*
X160996600Y-108588100D01*
X160151349Y-108588100D01*
X160092870Y-108599732D01*
X160071119Y-108614265D01*
X160039094Y-108622286D01*
X160009249Y-108608170D01*
X159478800Y-108077721D01*
X159465390Y-108052634D01*
X159459967Y-108025369D01*
X159423712Y-107971110D01*
X159415652Y-107959047D01*
X159366023Y-107925886D01*
X159349331Y-107914733D01*
X159349330Y-107914732D01*
X159349329Y-107914732D01*
X159290851Y-107903100D01*
X159290848Y-107903100D01*
X157851352Y-107903100D01*
X157851349Y-107903100D01*
X157792870Y-107914732D01*
X157774530Y-107926986D01*
X157747514Y-107935243D01*
X156801046Y-107939219D01*
X156773618Y-107930961D01*
X156749331Y-107914733D01*
X156749330Y-107914732D01*
X156749328Y-107914731D01*
X156690851Y-107903100D01*
X156690848Y-107903100D01*
X155251352Y-107903100D01*
X155251349Y-107903100D01*
X155192870Y-107914732D01*
X155158085Y-107937974D01*
X155131069Y-107946231D01*
X154416035Y-107949234D01*
X154388606Y-107940976D01*
X154376770Y-107933067D01*
X154349331Y-107914733D01*
X154349330Y-107914732D01*
X154349329Y-107914732D01*
X154290851Y-107903100D01*
X154290848Y-107903100D01*
X152851352Y-107903100D01*
X152851349Y-107903100D01*
X152792869Y-107914732D01*
X152742907Y-107948116D01*
X152715890Y-107956374D01*
X151832274Y-107960085D01*
X151804845Y-107951827D01*
X151749331Y-107914733D01*
X151749330Y-107914732D01*
X151749329Y-107914732D01*
X151690851Y-107903100D01*
X151690848Y-107903100D01*
X150251352Y-107903100D01*
X150251349Y-107903100D01*
X150192869Y-107914732D01*
X150126462Y-107959104D01*
X150099445Y-107967362D01*
X149207175Y-107971110D01*
X145407608Y-112212389D01*
X145390896Y-112224521D01*
X145370670Y-112228691D01*
X132126378Y-112109388D01*
X132107427Y-112105390D01*
X132091508Y-112094362D01*
X131493434Y-111472670D01*
X132006238Y-111472670D01*
X132067691Y-111515699D01*
X132267822Y-111609022D01*
X132481114Y-111666174D01*
X132701100Y-111685420D01*
X132921085Y-111666174D01*
X133134377Y-111609022D01*
X133334513Y-111515698D01*
X133353119Y-111502670D01*
X139996238Y-111502670D01*
X140057691Y-111545699D01*
X140257822Y-111639022D01*
X140471114Y-111696174D01*
X140691100Y-111715420D01*
X140911085Y-111696174D01*
X141124377Y-111639022D01*
X141324513Y-111545698D01*
X141385960Y-111502672D01*
X141385960Y-111502669D01*
X141105642Y-111222351D01*
X142276600Y-111222351D01*
X142288232Y-111280829D01*
X142332547Y-111347152D01*
X142365708Y-111369309D01*
X142398869Y-111391467D01*
X142413489Y-111394375D01*
X142457349Y-111403100D01*
X142457352Y-111403100D01*
X144004848Y-111403100D01*
X144004851Y-111403100D01*
X144039937Y-111396120D01*
X144063331Y-111391467D01*
X144129652Y-111347152D01*
X144173967Y-111280831D01*
X144181436Y-111243281D01*
X144185600Y-111222351D01*
X144185600Y-109674849D01*
X144173967Y-109616370D01*
X144173967Y-109616369D01*
X144151809Y-109583208D01*
X144129652Y-109550047D01*
X144073150Y-109512294D01*
X144063331Y-109505733D01*
X144063330Y-109505732D01*
X144063329Y-109505732D01*
X144004851Y-109494100D01*
X144004848Y-109494100D01*
X142457352Y-109494100D01*
X142457349Y-109494100D01*
X142398870Y-109505732D01*
X142332547Y-109550047D01*
X142288232Y-109616370D01*
X142276600Y-109674849D01*
X142276600Y-111222351D01*
X141105642Y-111222351D01*
X140691100Y-110807810D01*
X139996238Y-111502670D01*
X133353119Y-111502670D01*
X133395960Y-111472672D01*
X133395960Y-111472669D01*
X133115642Y-111192351D01*
X134286600Y-111192351D01*
X134298232Y-111250829D01*
X134342547Y-111317152D01*
X134375708Y-111339309D01*
X134408869Y-111361467D01*
X134423489Y-111364375D01*
X134467349Y-111373100D01*
X134467352Y-111373100D01*
X136014848Y-111373100D01*
X136014851Y-111373100D01*
X136049937Y-111366120D01*
X136073331Y-111361467D01*
X136139652Y-111317152D01*
X136183967Y-111250831D01*
X136189633Y-111222348D01*
X136195600Y-111192351D01*
X136195600Y-110448600D01*
X139424279Y-110448600D01*
X139443525Y-110668585D01*
X139500677Y-110881877D01*
X139594000Y-111082008D01*
X139637028Y-111143460D01*
X140331890Y-110448601D01*
X140331890Y-110448600D01*
X141050310Y-110448600D01*
X141745169Y-111143460D01*
X141745172Y-111143460D01*
X141788198Y-111082013D01*
X141881522Y-110881877D01*
X141938674Y-110668585D01*
X141957920Y-110448599D01*
X141938674Y-110228614D01*
X141881522Y-110015322D01*
X141788198Y-109815187D01*
X141745171Y-109753739D01*
X141745168Y-109753739D01*
X141050310Y-110448600D01*
X140331890Y-110448600D01*
X140331890Y-110448599D01*
X139637029Y-109753739D01*
X139594000Y-109815192D01*
X139500677Y-110015322D01*
X139443525Y-110228614D01*
X139424279Y-110448600D01*
X136195600Y-110448600D01*
X136195600Y-109644849D01*
X136183967Y-109586370D01*
X136183967Y-109586369D01*
X136159697Y-109550047D01*
X136139652Y-109520047D01*
X136082017Y-109481537D01*
X136073331Y-109475733D01*
X136073330Y-109475732D01*
X136073329Y-109475732D01*
X136014851Y-109464100D01*
X136014848Y-109464100D01*
X134467352Y-109464100D01*
X134467349Y-109464100D01*
X134408870Y-109475732D01*
X134342547Y-109520047D01*
X134298232Y-109586370D01*
X134286600Y-109644849D01*
X134286600Y-111192351D01*
X133115642Y-111192351D01*
X132701100Y-110777810D01*
X132006238Y-111472670D01*
X131493434Y-111472670D01*
X130479408Y-110418600D01*
X131434279Y-110418600D01*
X131453525Y-110638585D01*
X131510677Y-110851877D01*
X131604000Y-111052008D01*
X131647028Y-111113460D01*
X132341890Y-110418601D01*
X132341890Y-110418600D01*
X133060310Y-110418600D01*
X133755169Y-111113460D01*
X133755172Y-111113460D01*
X133798198Y-111052013D01*
X133891522Y-110851877D01*
X133948674Y-110638585D01*
X133967920Y-110418600D01*
X133948674Y-110198614D01*
X133891522Y-109985322D01*
X133798198Y-109785187D01*
X133755171Y-109723739D01*
X133755168Y-109723739D01*
X133060310Y-110418600D01*
X132341890Y-110418600D01*
X131647029Y-109723739D01*
X131604000Y-109785192D01*
X131510677Y-109985322D01*
X131453525Y-110198614D01*
X131434279Y-110418600D01*
X130479408Y-110418600D01*
X129465381Y-109364529D01*
X132006239Y-109364529D01*
X132701099Y-110059389D01*
X133365959Y-109394529D01*
X139996239Y-109394529D01*
X140691099Y-110089389D01*
X141385960Y-109394528D01*
X141324508Y-109351500D01*
X141124377Y-109258177D01*
X140911085Y-109201025D01*
X140691100Y-109181779D01*
X140471114Y-109201025D01*
X140257822Y-109258177D01*
X140057692Y-109351500D01*
X139996239Y-109394529D01*
X133365959Y-109394529D01*
X133395960Y-109364528D01*
X133334508Y-109321500D01*
X133134377Y-109228177D01*
X132921085Y-109171025D01*
X132701100Y-109151779D01*
X132481114Y-109171025D01*
X132267822Y-109228177D01*
X132067692Y-109321500D01*
X132006239Y-109364529D01*
X129465381Y-109364529D01*
X126954669Y-106754669D01*
X126954668Y-106754668D01*
X122950500Y-106828217D01*
X122931265Y-106824665D01*
X122914952Y-106813873D01*
X121785452Y-105684373D01*
X121771100Y-105649725D01*
X121771100Y-102908070D01*
X124019138Y-102908070D01*
X124080591Y-102951099D01*
X124280722Y-103044422D01*
X124494014Y-103101574D01*
X124714000Y-103120820D01*
X124933985Y-103101574D01*
X125147277Y-103044422D01*
X125347413Y-102951098D01*
X125408860Y-102908072D01*
X125408860Y-102908070D01*
X131996238Y-102908070D01*
X132057691Y-102951099D01*
X132257822Y-103044422D01*
X132471114Y-103101574D01*
X132691100Y-103120820D01*
X132911085Y-103101574D01*
X133124377Y-103044422D01*
X133324513Y-102951098D01*
X133385960Y-102908072D01*
X133385960Y-102908070D01*
X140021138Y-102908070D01*
X140082591Y-102951099D01*
X140282722Y-103044422D01*
X140496014Y-103101574D01*
X140716000Y-103120820D01*
X140935985Y-103101574D01*
X141149277Y-103044422D01*
X141349413Y-102951098D01*
X141410860Y-102908072D01*
X141410860Y-102908069D01*
X141130542Y-102627751D01*
X142301500Y-102627751D01*
X142313132Y-102686229D01*
X142357447Y-102752552D01*
X142390608Y-102774709D01*
X142423769Y-102796867D01*
X142438389Y-102799775D01*
X142482249Y-102808500D01*
X142482252Y-102808500D01*
X144029748Y-102808500D01*
X144029751Y-102808500D01*
X144064837Y-102801520D01*
X144088231Y-102796867D01*
X144154552Y-102752552D01*
X144198867Y-102686231D01*
X144203520Y-102662837D01*
X144210500Y-102627751D01*
X144210500Y-101080249D01*
X144198867Y-101021770D01*
X144198867Y-101021769D01*
X144176709Y-100988608D01*
X144154552Y-100955447D01*
X144104923Y-100922286D01*
X144088231Y-100911133D01*
X144088230Y-100911132D01*
X144088229Y-100911132D01*
X144029751Y-100899500D01*
X144029748Y-100899500D01*
X142482252Y-100899500D01*
X142482249Y-100899500D01*
X142423770Y-100911132D01*
X142357447Y-100955447D01*
X142313132Y-101021770D01*
X142301500Y-101080249D01*
X142301500Y-102627751D01*
X141130542Y-102627751D01*
X140716000Y-102213210D01*
X140021138Y-102908070D01*
X133385960Y-102908070D01*
X133385960Y-102908069D01*
X133105642Y-102627751D01*
X134276600Y-102627751D01*
X134288232Y-102686229D01*
X134332547Y-102752552D01*
X134365708Y-102774709D01*
X134398869Y-102796867D01*
X134413489Y-102799775D01*
X134457349Y-102808500D01*
X134457352Y-102808500D01*
X136004848Y-102808500D01*
X136004851Y-102808500D01*
X136039937Y-102801520D01*
X136063331Y-102796867D01*
X136129652Y-102752552D01*
X136173967Y-102686231D01*
X136178620Y-102662837D01*
X136185600Y-102627751D01*
X136185600Y-101854000D01*
X139449179Y-101854000D01*
X139468425Y-102073985D01*
X139525577Y-102287277D01*
X139618900Y-102487408D01*
X139661928Y-102548860D01*
X140356790Y-101854001D01*
X141075210Y-101854001D01*
X141770069Y-102548860D01*
X141770072Y-102548860D01*
X141813098Y-102487413D01*
X141906422Y-102287277D01*
X141963574Y-102073985D01*
X141982820Y-101853999D01*
X141963574Y-101634014D01*
X141906422Y-101420722D01*
X141813098Y-101220587D01*
X141770071Y-101159139D01*
X141770068Y-101159139D01*
X141075210Y-101854000D01*
X141075210Y-101854001D01*
X140356790Y-101854001D01*
X140356790Y-101853999D01*
X139661929Y-101159139D01*
X139618900Y-101220592D01*
X139525577Y-101420722D01*
X139468425Y-101634014D01*
X139449179Y-101854000D01*
X136185600Y-101854000D01*
X136185600Y-101080249D01*
X136173967Y-101021770D01*
X136173967Y-101021769D01*
X136151809Y-100988608D01*
X136129652Y-100955447D01*
X136080023Y-100922286D01*
X136063331Y-100911133D01*
X136063330Y-100911132D01*
X136063329Y-100911132D01*
X136004851Y-100899500D01*
X136004848Y-100899500D01*
X134457352Y-100899500D01*
X134457349Y-100899500D01*
X134398870Y-100911132D01*
X134332547Y-100955447D01*
X134288232Y-101021770D01*
X134276600Y-101080249D01*
X134276600Y-102627751D01*
X133105642Y-102627751D01*
X132691100Y-102213210D01*
X131996238Y-102908070D01*
X125408860Y-102908070D01*
X125408860Y-102908069D01*
X125128542Y-102627751D01*
X126299500Y-102627751D01*
X126311132Y-102686229D01*
X126355447Y-102752552D01*
X126388608Y-102774709D01*
X126421769Y-102796867D01*
X126436389Y-102799775D01*
X126480249Y-102808500D01*
X126480252Y-102808500D01*
X128027748Y-102808500D01*
X128027751Y-102808500D01*
X128062837Y-102801520D01*
X128086231Y-102796867D01*
X128152552Y-102752552D01*
X128196867Y-102686231D01*
X128201520Y-102662837D01*
X128208500Y-102627751D01*
X128208500Y-101854000D01*
X131424279Y-101854000D01*
X131443525Y-102073985D01*
X131500677Y-102287277D01*
X131594000Y-102487408D01*
X131637028Y-102548860D01*
X132331890Y-101854001D01*
X133050310Y-101854001D01*
X133745169Y-102548860D01*
X133745172Y-102548860D01*
X133788198Y-102487413D01*
X133881522Y-102287277D01*
X133938674Y-102073985D01*
X133957920Y-101853999D01*
X133938674Y-101634014D01*
X133881522Y-101420722D01*
X133788198Y-101220587D01*
X133745171Y-101159139D01*
X133745168Y-101159139D01*
X133050310Y-101854000D01*
X133050310Y-101854001D01*
X132331890Y-101854001D01*
X132331890Y-101853999D01*
X131637029Y-101159139D01*
X131594000Y-101220592D01*
X131500677Y-101420722D01*
X131443525Y-101634014D01*
X131424279Y-101854000D01*
X128208500Y-101854000D01*
X128208500Y-101080249D01*
X128196867Y-101021770D01*
X128196867Y-101021769D01*
X128174709Y-100988608D01*
X128152552Y-100955447D01*
X128102923Y-100922286D01*
X128086231Y-100911133D01*
X128086230Y-100911132D01*
X128086229Y-100911132D01*
X128027751Y-100899500D01*
X128027748Y-100899500D01*
X126480252Y-100899500D01*
X126480249Y-100899500D01*
X126421770Y-100911132D01*
X126355447Y-100955447D01*
X126311132Y-101021770D01*
X126299500Y-101080249D01*
X126299500Y-102627751D01*
X125128542Y-102627751D01*
X124714000Y-102213210D01*
X124019138Y-102908070D01*
X121771100Y-102908070D01*
X121771100Y-101853999D01*
X123447179Y-101853999D01*
X123466425Y-102073985D01*
X123523577Y-102287277D01*
X123616900Y-102487408D01*
X123659928Y-102548860D01*
X124354790Y-101854001D01*
X124354790Y-101854000D01*
X125073210Y-101854000D01*
X125768069Y-102548860D01*
X125768072Y-102548860D01*
X125811098Y-102487413D01*
X125904422Y-102287277D01*
X125961574Y-102073985D01*
X125980820Y-101853999D01*
X125961574Y-101634014D01*
X125904422Y-101420722D01*
X125811098Y-101220587D01*
X125768071Y-101159139D01*
X125768068Y-101159139D01*
X125073210Y-101854000D01*
X124354790Y-101854000D01*
X123659929Y-101159139D01*
X123616900Y-101220592D01*
X123523577Y-101420722D01*
X123466425Y-101634014D01*
X123447179Y-101853999D01*
X121771100Y-101853999D01*
X121771100Y-100799929D01*
X124019139Y-100799929D01*
X124713999Y-101494789D01*
X125408859Y-100799929D01*
X131996239Y-100799929D01*
X132691099Y-101494789D01*
X133385959Y-100799929D01*
X140021139Y-100799929D01*
X140715999Y-101494789D01*
X141410860Y-100799928D01*
X141349408Y-100756900D01*
X141149277Y-100663577D01*
X140935985Y-100606425D01*
X140716000Y-100587179D01*
X140496014Y-100606425D01*
X140282722Y-100663577D01*
X140082592Y-100756900D01*
X140021139Y-100799929D01*
X133385959Y-100799929D01*
X133385960Y-100799928D01*
X133324508Y-100756900D01*
X133124377Y-100663577D01*
X132911085Y-100606425D01*
X132691100Y-100587179D01*
X132471114Y-100606425D01*
X132257822Y-100663577D01*
X132057692Y-100756900D01*
X131996239Y-100799929D01*
X125408859Y-100799929D01*
X125408860Y-100799928D01*
X125347408Y-100756900D01*
X125147277Y-100663577D01*
X124933985Y-100606425D01*
X124714000Y-100587179D01*
X124494014Y-100606425D01*
X124280722Y-100663577D01*
X124080592Y-100756900D01*
X124019139Y-100799929D01*
X121771100Y-100799929D01*
X121771100Y-100007475D01*
X121785452Y-99972827D01*
X124615327Y-97142952D01*
X124649975Y-97128600D01*
X129829677Y-97128600D01*
X129829678Y-97128600D01*
X130971100Y-95987178D01*
X130971100Y-92307475D01*
X130985452Y-92272827D01*
X132615327Y-90642952D01*
X132649975Y-90628600D01*
X136392225Y-90628600D01*
X136426873Y-90642952D01*
G37*
%TD.AperFunction*%
%TD*%
M02*
