%TF.GenerationSoftware,KiCad,Pcbnew,7.0.1*%
%TF.CreationDate,2023-03-31T01:00:54+09:00*%
%TF.ProjectId,USB_JST-XH_Converter,5553425f-4a53-4542-9d58-485f436f6e76,rev?*%
%TF.SameCoordinates,Original*%
%TF.FileFunction,Copper,L2,Bot*%
%TF.FilePolarity,Positive*%
%FSLAX46Y46*%
G04 Gerber Fmt 4.6, Leading zero omitted, Abs format (unit mm)*
G04 Created by KiCad (PCBNEW 7.0.1) date 2023-03-31 01:00:54*
%MOMM*%
%LPD*%
G01*
G04 APERTURE LIST*
%TA.AperFunction,ComponentPad*%
%ADD10R,1.508000X1.508000*%
%TD*%
%TA.AperFunction,ComponentPad*%
%ADD11C,1.508000*%
%TD*%
%TA.AperFunction,ComponentPad*%
%ADD12C,1.308000*%
%TD*%
%TA.AperFunction,ComponentPad*%
%ADD13C,7.010400*%
%TD*%
%TA.AperFunction,ComponentPad*%
%ADD14C,1.650000*%
%TD*%
%TA.AperFunction,ComponentPad*%
%ADD15O,1.524000X3.048000*%
%TD*%
%TA.AperFunction,ComponentPad*%
%ADD16O,1.700000X1.000000*%
%TD*%
%TA.AperFunction,ViaPad*%
%ADD17C,1.406400*%
%TD*%
%TA.AperFunction,ViaPad*%
%ADD18C,0.756400*%
%TD*%
%TA.AperFunction,ViaPad*%
%ADD19C,0.800000*%
%TD*%
%TA.AperFunction,ViaPad*%
%ADD20C,0.756000*%
%TD*%
%TA.AperFunction,Conductor*%
%ADD21C,0.200000*%
%TD*%
G04 APERTURE END LIST*
D10*
%TO.P,PORT2,1*%
%TO.N,GND*%
X135231100Y-101854000D03*
D11*
%TO.P,PORT2,2*%
%TO.N,VCC*%
X132691100Y-101854000D03*
%TD*%
D10*
%TO.P,PORT3,1*%
%TO.N,GND*%
X143256000Y-101854000D03*
D11*
%TO.P,PORT3,2*%
%TO.N,VCC*%
X140716000Y-101854000D03*
%TD*%
D10*
%TO.P,PORT4,1*%
%TO.N,GND*%
X135241100Y-110418600D03*
D11*
%TO.P,PORT4,2*%
%TO.N,VCC*%
X132701100Y-110418600D03*
%TD*%
D10*
%TO.P,PORT5,1*%
%TO.N,GND*%
X143231100Y-110448600D03*
D11*
%TO.P,PORT5,2*%
%TO.N,VCC*%
X140691100Y-110448600D03*
%TD*%
D12*
%TO.P,SW1,C*%
%TO.N,SWITCH*%
X164571100Y-118018600D03*
%TO.P,SW1,L*%
%TO.N,Net-(SW1-PadL)*%
X164571100Y-120518600D03*
%TO.P,SW1,R*%
%TO.N,GND*%
X164571100Y-115518600D03*
%TD*%
D13*
%TO.P,H1,P$1*%
%TO.N,GND*%
X125131100Y-91628600D03*
%TD*%
%TO.P,H2,P$1*%
%TO.N,GND*%
X125131100Y-118328600D03*
%TD*%
%TO.P,H3,P$1*%
%TO.N,GND*%
X171871100Y-91628600D03*
%TD*%
D10*
%TO.P,SWITCH,1*%
%TO.N,SWITCH*%
X134841100Y-118928600D03*
D11*
%TO.P,SWITCH,2*%
%TO.N,GND*%
X132301100Y-118928600D03*
%TD*%
D10*
%TO.P,CTRL,1*%
%TO.N,SWITCH*%
X142841100Y-118928600D03*
D11*
%TO.P,CTRL,2*%
%TO.N,Net-(CTRL1-Pad2)*%
X140301100Y-118928600D03*
%TD*%
D10*
%TO.P,CTRLSP,1*%
%TO.N,Net-(CTRL_I1-Pad1)*%
X150841100Y-118928600D03*
D11*
%TO.P,CTRLSP,2*%
%TO.N,Net-(CTRL_I1-Pad2)*%
X148301100Y-118928600D03*
%TD*%
D14*
%TO.P,TP1,CENTER*%
%TO.N,Net-(R6-PadLEFT)*%
X158121100Y-116428600D03*
%TO.P,TP1,LEFT*%
%TO.N,Net-(R7-PadRIGHT)*%
X155621100Y-118928600D03*
%TO.P,TP1,RIGHT*%
%TO.N,Net-(R6-PadLEFT)*%
X160621100Y-118928600D03*
%TD*%
D15*
%TO.P,JP1,1*%
%TO.N,SWITCH*%
X126841100Y-109928600D03*
%TO.P,JP1,2*%
%TO.N,GND*%
X124301100Y-109928600D03*
%TD*%
D10*
%TO.P,POWER,1*%
%TO.N,GND*%
X152111100Y-92928600D03*
D11*
%TO.P,POWER,2*%
%TO.N,CC*%
X149571100Y-92928600D03*
%TO.P,POWER,3*%
%TO.N,VCC_P*%
X147031100Y-92928600D03*
%TD*%
D16*
%TO.P,USB1,SHIELD1*%
%TO.N,GND*%
X169771100Y-108748600D03*
%TO.P,USB1,SHIELD2*%
X169771100Y-100108600D03*
%TO.P,USB1,SHIELD3*%
X173571100Y-108748600D03*
%TO.P,USB1,SHIELD4*%
X173571100Y-100108600D03*
%TD*%
D10*
%TO.P,PORT1,1*%
%TO.N,GND*%
X127254000Y-101854000D03*
D11*
%TO.P,PORT1,2*%
%TO.N,VCC*%
X124714000Y-101854000D03*
%TD*%
D13*
%TO.P,H4,P$1*%
%TO.N,GND*%
X171871100Y-118328600D03*
%TD*%
D10*
%TO.P,THRU,1*%
%TO.N,GND*%
X164111100Y-92928600D03*
D11*
%TO.P,THRU,2*%
%TO.N,CC*%
X161571100Y-92928600D03*
%TO.P,THRU,3*%
%TO.N,VCC_P*%
X159031100Y-92928600D03*
%TD*%
D17*
%TO.N,GND*%
X171871100Y-94180400D03*
D18*
X143571100Y-94928600D03*
D17*
X126935493Y-89824207D03*
X122579300Y-118328600D03*
D18*
X154801700Y-110028600D03*
D17*
X123326706Y-89824207D03*
X170066706Y-93432994D03*
X169319300Y-118328600D03*
X127682900Y-118328600D03*
X125131100Y-120880400D03*
X127682900Y-91628600D03*
X123326706Y-93432994D03*
X174422900Y-91628600D03*
X171871100Y-120880400D03*
D18*
X161971100Y-105328600D03*
D17*
X125131100Y-94180400D03*
X170066706Y-120132994D03*
X174422900Y-118328600D03*
X123326706Y-116524207D03*
D18*
X160771100Y-112828600D03*
D17*
X122579300Y-91628600D03*
X126935493Y-93432994D03*
X171871100Y-115776800D03*
X125131100Y-115776800D03*
X170066706Y-89824207D03*
X173675493Y-116524207D03*
X125131100Y-89076800D03*
X173675493Y-89824207D03*
X171871100Y-89076800D03*
X173675493Y-93432994D03*
X170066706Y-116524207D03*
X123326706Y-120132994D03*
X126935493Y-120132994D03*
X126935493Y-116524207D03*
X169319300Y-91628600D03*
D18*
X143571100Y-90428600D03*
D17*
X173675493Y-120132994D03*
D18*
%TO.N,CC1*%
X162071100Y-100025000D03*
X163025000Y-102600000D03*
%TO.N,CC2*%
X162075000Y-98900000D03*
X167371100Y-102928600D03*
%TO.N,VCC_P*%
X169571100Y-111628600D03*
X171471100Y-105928600D03*
%TO.N,Net-(FET1-PadD)*%
X152171100Y-105228600D03*
X149571100Y-108928600D03*
D19*
%TO.N,OUT*%
X156875000Y-100350000D03*
D20*
X162825000Y-97225000D03*
%TD*%
D21*
%TO.N,GND*%
X154801700Y-110028600D02*
X153401700Y-108628600D01*
X154571100Y-108628600D02*
X153401700Y-108628600D01*
X154571100Y-108628600D02*
X154571100Y-107928600D01*
%TO.N,CC1*%
X163001700Y-102576700D02*
X163025000Y-102600000D01*
X163001700Y-100955600D02*
X163001700Y-102576700D01*
X163001700Y-100955600D02*
X162071100Y-100025000D01*
%TO.N,CC2*%
X162075000Y-98900000D02*
X163342500Y-98900000D01*
X163342500Y-98900000D02*
X167371100Y-102928600D01*
%TO.N,VCC_P*%
X169571100Y-111628600D02*
X171471100Y-109728600D01*
X171471100Y-109728600D02*
X171471100Y-105928600D01*
%TO.N,Net-(FET1-PadD)*%
X149571100Y-108928600D02*
X149571100Y-107828600D01*
X152171100Y-105228600D02*
X149571100Y-107828600D01*
%TO.N,OUT*%
X160000000Y-97225000D02*
X162825000Y-97225000D01*
X160000000Y-97225000D02*
X156875000Y-100350000D01*
%TD*%
%TA.AperFunction,Conductor*%
%TO.N,GND*%
G36*
X172432300Y-87579158D02*
G01*
X172771715Y-87595833D01*
X172776476Y-87596301D01*
X173111450Y-87645990D01*
X173116140Y-87646923D01*
X173386683Y-87714690D01*
X173444615Y-87729202D01*
X173449217Y-87730598D01*
X173768043Y-87844676D01*
X173772485Y-87846517D01*
X174078578Y-87991288D01*
X174082803Y-87993545D01*
X174263480Y-88101839D01*
X174373257Y-88167637D01*
X174377255Y-88170309D01*
X174513238Y-88271161D01*
X174649227Y-88372017D01*
X174652939Y-88375063D01*
X174903835Y-88602463D01*
X174907236Y-88605864D01*
X175134636Y-88856760D01*
X175137686Y-88860477D01*
X175339390Y-89132444D01*
X175342062Y-89136442D01*
X175516149Y-89426888D01*
X175518415Y-89431129D01*
X175663182Y-89737214D01*
X175665023Y-89741656D01*
X175779101Y-90060482D01*
X175780497Y-90065084D01*
X175862773Y-90393546D01*
X175863711Y-90398262D01*
X175913396Y-90733211D01*
X175913867Y-90737997D01*
X175930541Y-91077399D01*
X175930600Y-91079803D01*
X175930600Y-118927397D01*
X175930541Y-118929801D01*
X175913867Y-119269202D01*
X175913396Y-119273988D01*
X175863711Y-119608937D01*
X175862773Y-119613653D01*
X175780497Y-119942115D01*
X175779101Y-119946717D01*
X175665023Y-120265543D01*
X175663182Y-120269985D01*
X175518415Y-120576070D01*
X175516149Y-120580311D01*
X175342062Y-120870757D01*
X175339390Y-120874755D01*
X175137686Y-121146722D01*
X175134636Y-121150439D01*
X174907236Y-121401335D01*
X174903835Y-121404736D01*
X174652939Y-121632136D01*
X174649222Y-121635186D01*
X174377255Y-121836890D01*
X174373257Y-121839562D01*
X174082811Y-122013649D01*
X174078570Y-122015915D01*
X173772485Y-122160682D01*
X173768043Y-122162523D01*
X173449217Y-122276601D01*
X173444615Y-122277997D01*
X173116153Y-122360273D01*
X173111437Y-122361211D01*
X172776488Y-122410896D01*
X172771702Y-122411367D01*
X172432301Y-122428041D01*
X172429897Y-122428100D01*
X124572303Y-122428100D01*
X124569899Y-122428041D01*
X124230497Y-122411367D01*
X124225711Y-122410896D01*
X123890762Y-122361211D01*
X123886046Y-122360273D01*
X123557584Y-122277997D01*
X123552982Y-122276601D01*
X123234156Y-122162523D01*
X123229714Y-122160682D01*
X122923629Y-122015915D01*
X122919388Y-122013649D01*
X122628942Y-121839562D01*
X122624944Y-121836890D01*
X122352977Y-121635186D01*
X122349260Y-121632136D01*
X122098364Y-121404736D01*
X122094963Y-121401335D01*
X121867563Y-121150439D01*
X121864513Y-121146722D01*
X121662809Y-120874755D01*
X121660137Y-120870757D01*
X121556134Y-120697239D01*
X121486045Y-120580303D01*
X121483788Y-120576078D01*
X121456603Y-120518600D01*
X163711893Y-120518600D01*
X163730669Y-120697239D01*
X163786176Y-120868073D01*
X163875987Y-121023629D01*
X163996177Y-121157114D01*
X164141494Y-121262694D01*
X164141495Y-121262694D01*
X164141496Y-121262695D01*
X164305590Y-121335754D01*
X164368006Y-121349021D01*
X164481287Y-121373100D01*
X164481288Y-121373100D01*
X164660912Y-121373100D01*
X164660913Y-121373100D01*
X164719477Y-121360651D01*
X164836610Y-121335754D01*
X165000704Y-121262695D01*
X165146022Y-121157115D01*
X165266213Y-121023629D01*
X165356025Y-120868071D01*
X165411531Y-120697239D01*
X165430307Y-120518600D01*
X165411531Y-120339961D01*
X165356025Y-120169129D01*
X165266213Y-120013571D01*
X165146022Y-119880085D01*
X165131163Y-119869289D01*
X165000705Y-119774505D01*
X164836608Y-119701445D01*
X164660913Y-119664100D01*
X164660912Y-119664100D01*
X164481288Y-119664100D01*
X164481287Y-119664100D01*
X164305591Y-119701445D01*
X164141495Y-119774505D01*
X163996177Y-119880085D01*
X163875987Y-120013570D01*
X163786176Y-120169126D01*
X163730669Y-120339960D01*
X163711893Y-120518600D01*
X121456603Y-120518600D01*
X121339017Y-120269985D01*
X121337176Y-120265543D01*
X121223098Y-119946717D01*
X121221702Y-119942115D01*
X121205151Y-119876039D01*
X121139423Y-119613640D01*
X121138490Y-119608950D01*
X121088801Y-119273976D01*
X121088333Y-119269215D01*
X121071658Y-118929800D01*
X121071600Y-118927397D01*
X121071600Y-118396363D01*
X123276888Y-118396363D01*
X123306513Y-118665615D01*
X123375028Y-118927689D01*
X123480970Y-119176990D01*
X123570043Y-119322942D01*
X123622082Y-119408210D01*
X123711352Y-119515479D01*
X123789127Y-119608937D01*
X123795355Y-119616420D01*
X123997098Y-119797182D01*
X124223010Y-119946644D01*
X124468276Y-120061620D01*
X124613724Y-120105379D01*
X124727665Y-120139659D01*
X124727666Y-120139659D01*
X124727669Y-120139660D01*
X124995661Y-120179100D01*
X125198731Y-120179100D01*
X125198735Y-120179100D01*
X125299993Y-120171688D01*
X125401256Y-120164277D01*
X125665653Y-120105380D01*
X125918658Y-120008614D01*
X125964885Y-119982670D01*
X131606238Y-119982670D01*
X131667691Y-120025699D01*
X131867822Y-120119022D01*
X132081114Y-120176174D01*
X132301100Y-120195420D01*
X132521085Y-120176174D01*
X132734377Y-120119022D01*
X132934513Y-120025698D01*
X132995960Y-119982672D01*
X132995960Y-119982669D01*
X132715642Y-119702351D01*
X133886600Y-119702351D01*
X133898232Y-119760829D01*
X133942547Y-119827152D01*
X133975708Y-119849309D01*
X134008869Y-119871467D01*
X134023489Y-119874375D01*
X134067349Y-119883100D01*
X134067352Y-119883100D01*
X135614848Y-119883100D01*
X135614851Y-119883100D01*
X135650346Y-119876039D01*
X135673331Y-119871467D01*
X135739652Y-119827152D01*
X135783967Y-119760831D01*
X135790880Y-119726077D01*
X135795600Y-119702351D01*
X135795600Y-118928599D01*
X139341982Y-118928599D01*
X139360410Y-119115715D01*
X139414991Y-119295640D01*
X139503621Y-119461455D01*
X139503623Y-119461457D01*
X139622901Y-119606799D01*
X139738229Y-119701445D01*
X139768244Y-119726078D01*
X139901270Y-119797182D01*
X139934061Y-119814709D01*
X139975080Y-119827152D01*
X140113984Y-119869289D01*
X140130760Y-119870941D01*
X140301100Y-119887718D01*
X140488215Y-119869289D01*
X140668139Y-119814709D01*
X140833957Y-119726077D01*
X140862867Y-119702351D01*
X141886600Y-119702351D01*
X141898232Y-119760829D01*
X141942547Y-119827152D01*
X141975708Y-119849309D01*
X142008869Y-119871467D01*
X142023489Y-119874375D01*
X142067349Y-119883100D01*
X142067352Y-119883100D01*
X143614848Y-119883100D01*
X143614851Y-119883100D01*
X143650346Y-119876039D01*
X143673331Y-119871467D01*
X143739652Y-119827152D01*
X143783967Y-119760831D01*
X143790880Y-119726077D01*
X143795600Y-119702351D01*
X143795600Y-118928599D01*
X147341982Y-118928599D01*
X147360410Y-119115715D01*
X147414991Y-119295640D01*
X147503621Y-119461455D01*
X147503623Y-119461457D01*
X147622901Y-119606799D01*
X147738229Y-119701445D01*
X147768244Y-119726078D01*
X147901270Y-119797182D01*
X147934061Y-119814709D01*
X147975080Y-119827152D01*
X148113984Y-119869289D01*
X148130760Y-119870941D01*
X148301100Y-119887718D01*
X148488215Y-119869289D01*
X148668139Y-119814709D01*
X148833957Y-119726077D01*
X148862867Y-119702351D01*
X149886600Y-119702351D01*
X149898232Y-119760829D01*
X149942547Y-119827152D01*
X149975708Y-119849309D01*
X150008869Y-119871467D01*
X150023489Y-119874375D01*
X150067349Y-119883100D01*
X150067352Y-119883100D01*
X151614848Y-119883100D01*
X151614851Y-119883100D01*
X151650346Y-119876039D01*
X151673331Y-119871467D01*
X151739652Y-119827152D01*
X151783967Y-119760831D01*
X151790880Y-119726077D01*
X151795600Y-119702351D01*
X151795600Y-118928600D01*
X154590638Y-118928600D01*
X154610437Y-119129633D01*
X154669077Y-119322942D01*
X154764300Y-119501092D01*
X154803273Y-119548580D01*
X154892453Y-119657247D01*
X155018671Y-119760831D01*
X155048607Y-119785399D01*
X155209629Y-119871467D01*
X155226759Y-119880623D01*
X155302554Y-119903615D01*
X155420066Y-119939262D01*
X155438090Y-119941037D01*
X155621100Y-119959062D01*
X155822133Y-119939262D01*
X156015441Y-119880623D01*
X156193594Y-119785398D01*
X156349747Y-119657247D01*
X156477898Y-119501094D01*
X156573123Y-119322941D01*
X156631762Y-119129633D01*
X156651562Y-118928600D01*
X159590638Y-118928600D01*
X159610437Y-119129633D01*
X159669077Y-119322942D01*
X159764300Y-119501092D01*
X159803273Y-119548580D01*
X159892453Y-119657247D01*
X160018671Y-119760831D01*
X160048607Y-119785399D01*
X160209629Y-119871467D01*
X160226759Y-119880623D01*
X160302554Y-119903615D01*
X160420066Y-119939262D01*
X160438090Y-119941037D01*
X160621100Y-119959062D01*
X160822133Y-119939262D01*
X161015441Y-119880623D01*
X161193594Y-119785398D01*
X161349747Y-119657247D01*
X161477898Y-119501094D01*
X161573123Y-119322941D01*
X161631762Y-119129633D01*
X161651562Y-118928600D01*
X161631762Y-118727567D01*
X161573123Y-118534259D01*
X161499085Y-118395744D01*
X161477899Y-118356107D01*
X161377474Y-118233739D01*
X161349747Y-118199953D01*
X161193594Y-118071802D01*
X161193595Y-118071802D01*
X161193592Y-118071800D01*
X161094062Y-118018600D01*
X163711893Y-118018600D01*
X163730669Y-118197239D01*
X163782287Y-118356106D01*
X163786176Y-118368073D01*
X163802152Y-118395744D01*
X163875987Y-118523629D01*
X163996178Y-118657115D01*
X164050871Y-118696852D01*
X164141494Y-118762694D01*
X164141495Y-118762694D01*
X164141496Y-118762695D01*
X164305590Y-118835754D01*
X164393439Y-118854427D01*
X164481287Y-118873100D01*
X164481288Y-118873100D01*
X164660912Y-118873100D01*
X164660913Y-118873100D01*
X164719477Y-118860651D01*
X164836610Y-118835754D01*
X165000704Y-118762695D01*
X165146022Y-118657115D01*
X165266213Y-118523629D01*
X165339691Y-118396363D01*
X170016888Y-118396363D01*
X170046513Y-118665615D01*
X170115028Y-118927689D01*
X170220970Y-119176990D01*
X170310043Y-119322942D01*
X170362082Y-119408210D01*
X170451352Y-119515479D01*
X170529127Y-119608937D01*
X170535355Y-119616420D01*
X170737098Y-119797182D01*
X170963010Y-119946644D01*
X171208276Y-120061620D01*
X171353724Y-120105379D01*
X171467665Y-120139659D01*
X171467666Y-120139659D01*
X171467669Y-120139660D01*
X171735661Y-120179100D01*
X171938731Y-120179100D01*
X171938735Y-120179100D01*
X172039993Y-120171688D01*
X172141256Y-120164277D01*
X172405653Y-120105380D01*
X172658658Y-120008614D01*
X172894877Y-119876041D01*
X173109277Y-119710488D01*
X173297286Y-119515481D01*
X173454899Y-119295179D01*
X173578756Y-119054275D01*
X173621221Y-118929801D01*
X173666217Y-118797909D01*
X173666218Y-118797905D01*
X173715419Y-118531533D01*
X173725312Y-118260835D01*
X173695686Y-117991582D01*
X173627172Y-117729512D01*
X173521230Y-117480210D01*
X173380118Y-117248990D01*
X173206845Y-117040780D01*
X173005102Y-116860018D01*
X172779190Y-116710556D01*
X172779187Y-116710554D01*
X172533922Y-116595579D01*
X172274534Y-116517540D01*
X172073537Y-116487960D01*
X172006539Y-116478100D01*
X171803469Y-116478100D01*
X171803465Y-116478100D01*
X171600947Y-116492922D01*
X171336545Y-116551820D01*
X171083540Y-116648586D01*
X170847320Y-116781160D01*
X170632926Y-116946709D01*
X170632923Y-116946711D01*
X170632923Y-116946712D01*
X170580493Y-117001094D01*
X170444913Y-117141720D01*
X170287302Y-117362018D01*
X170163441Y-117602930D01*
X170075982Y-117859290D01*
X170026780Y-118125669D01*
X170016888Y-118396363D01*
X165339691Y-118396363D01*
X165356025Y-118368071D01*
X165411531Y-118197239D01*
X165430307Y-118018600D01*
X165411531Y-117839961D01*
X165356025Y-117669129D01*
X165266213Y-117513571D01*
X165146022Y-117380085D01*
X165121155Y-117362018D01*
X165000705Y-117274505D01*
X164836608Y-117201445D01*
X164660913Y-117164100D01*
X164660912Y-117164100D01*
X164481288Y-117164100D01*
X164481287Y-117164100D01*
X164305591Y-117201445D01*
X164141495Y-117274505D01*
X163996177Y-117380085D01*
X163875987Y-117513570D01*
X163786176Y-117669126D01*
X163730669Y-117839960D01*
X163714732Y-117991584D01*
X163711893Y-118018600D01*
X161094062Y-118018600D01*
X161015442Y-117976577D01*
X160822133Y-117917937D01*
X160621100Y-117898138D01*
X160420066Y-117917937D01*
X160226757Y-117976577D01*
X160048607Y-118071800D01*
X159892453Y-118199953D01*
X159764300Y-118356107D01*
X159669077Y-118534257D01*
X159610437Y-118727566D01*
X159590638Y-118928600D01*
X156651562Y-118928600D01*
X156631762Y-118727567D01*
X156573123Y-118534259D01*
X156499085Y-118395744D01*
X156477899Y-118356107D01*
X156377474Y-118233739D01*
X156349747Y-118199953D01*
X156193594Y-118071802D01*
X156193595Y-118071802D01*
X156193592Y-118071800D01*
X156015442Y-117976577D01*
X155822133Y-117917937D01*
X155621100Y-117898138D01*
X155420066Y-117917937D01*
X155226757Y-117976577D01*
X155048607Y-118071800D01*
X154892453Y-118199953D01*
X154764300Y-118356107D01*
X154669077Y-118534257D01*
X154610437Y-118727566D01*
X154590638Y-118928600D01*
X151795600Y-118928600D01*
X151795600Y-118154849D01*
X151783967Y-118096370D01*
X151783967Y-118096369D01*
X151761809Y-118063208D01*
X151739652Y-118030047D01*
X151682087Y-117991584D01*
X151673331Y-117985733D01*
X151673330Y-117985732D01*
X151673329Y-117985732D01*
X151614851Y-117974100D01*
X151614848Y-117974100D01*
X150067352Y-117974100D01*
X150067349Y-117974100D01*
X150008870Y-117985732D01*
X149942547Y-118030047D01*
X149898232Y-118096370D01*
X149886600Y-118154849D01*
X149886600Y-119702351D01*
X148862867Y-119702351D01*
X148979299Y-119606799D01*
X149098577Y-119461457D01*
X149187209Y-119295639D01*
X149241789Y-119115715D01*
X149260218Y-118928600D01*
X149241789Y-118741485D01*
X149187209Y-118561561D01*
X149166934Y-118523629D01*
X149098578Y-118395744D01*
X149066048Y-118356106D01*
X148979299Y-118250401D01*
X148862871Y-118154852D01*
X148833955Y-118131121D01*
X148668140Y-118042491D01*
X148488215Y-117987910D01*
X148301100Y-117969482D01*
X148113984Y-117987910D01*
X147934059Y-118042491D01*
X147768244Y-118131121D01*
X147622901Y-118250401D01*
X147503621Y-118395744D01*
X147414991Y-118561559D01*
X147360410Y-118741484D01*
X147341982Y-118928599D01*
X143795600Y-118928599D01*
X143795600Y-118154849D01*
X143783967Y-118096370D01*
X143783967Y-118096369D01*
X143761809Y-118063208D01*
X143739652Y-118030047D01*
X143682087Y-117991584D01*
X143673331Y-117985733D01*
X143673330Y-117985732D01*
X143673329Y-117985732D01*
X143614851Y-117974100D01*
X143614848Y-117974100D01*
X142067352Y-117974100D01*
X142067349Y-117974100D01*
X142008870Y-117985732D01*
X141942547Y-118030047D01*
X141898232Y-118096370D01*
X141886600Y-118154849D01*
X141886600Y-119702351D01*
X140862867Y-119702351D01*
X140979299Y-119606799D01*
X141098577Y-119461457D01*
X141187209Y-119295639D01*
X141241789Y-119115715D01*
X141260218Y-118928600D01*
X141241789Y-118741485D01*
X141187209Y-118561561D01*
X141166934Y-118523629D01*
X141098578Y-118395744D01*
X141066048Y-118356106D01*
X140979299Y-118250401D01*
X140862871Y-118154852D01*
X140833955Y-118131121D01*
X140668140Y-118042491D01*
X140488215Y-117987910D01*
X140301100Y-117969482D01*
X140113984Y-117987910D01*
X139934059Y-118042491D01*
X139768244Y-118131121D01*
X139622901Y-118250401D01*
X139503621Y-118395744D01*
X139414991Y-118561559D01*
X139360410Y-118741484D01*
X139341982Y-118928599D01*
X135795600Y-118928599D01*
X135795600Y-118154849D01*
X135783967Y-118096370D01*
X135783967Y-118096369D01*
X135761809Y-118063208D01*
X135739652Y-118030047D01*
X135682087Y-117991584D01*
X135673331Y-117985733D01*
X135673330Y-117985732D01*
X135673329Y-117985732D01*
X135614851Y-117974100D01*
X135614848Y-117974100D01*
X134067352Y-117974100D01*
X134067349Y-117974100D01*
X134008870Y-117985732D01*
X133942547Y-118030047D01*
X133898232Y-118096370D01*
X133886600Y-118154849D01*
X133886600Y-119702351D01*
X132715642Y-119702351D01*
X132301100Y-119287810D01*
X131606238Y-119982670D01*
X125964885Y-119982670D01*
X126154877Y-119876041D01*
X126369277Y-119710488D01*
X126557286Y-119515481D01*
X126714899Y-119295179D01*
X126838756Y-119054275D01*
X126881221Y-118929801D01*
X126881631Y-118928599D01*
X131034279Y-118928599D01*
X131053525Y-119148585D01*
X131110677Y-119361877D01*
X131204000Y-119562008D01*
X131247028Y-119623460D01*
X131941890Y-118928601D01*
X132660310Y-118928601D01*
X133355169Y-119623460D01*
X133355172Y-119623460D01*
X133398198Y-119562013D01*
X133491522Y-119361877D01*
X133548674Y-119148585D01*
X133567920Y-118928600D01*
X133548674Y-118708614D01*
X133491522Y-118495322D01*
X133398198Y-118295187D01*
X133355171Y-118233739D01*
X133355168Y-118233739D01*
X132660310Y-118928600D01*
X132660310Y-118928601D01*
X131941890Y-118928601D01*
X131941890Y-118928599D01*
X131247029Y-118233739D01*
X131204000Y-118295192D01*
X131110677Y-118495322D01*
X131053525Y-118708614D01*
X131034279Y-118928599D01*
X126881631Y-118928599D01*
X126926217Y-118797909D01*
X126926218Y-118797905D01*
X126975419Y-118531533D01*
X126985312Y-118260835D01*
X126955686Y-117991582D01*
X126925084Y-117874529D01*
X131606239Y-117874529D01*
X132301099Y-118569389D01*
X132995960Y-117874528D01*
X132934508Y-117831500D01*
X132734377Y-117738177D01*
X132521085Y-117681025D01*
X132301100Y-117661779D01*
X132081114Y-117681025D01*
X131867822Y-117738177D01*
X131667692Y-117831500D01*
X131606239Y-117874529D01*
X126925084Y-117874529D01*
X126887172Y-117729512D01*
X126781230Y-117480210D01*
X126640118Y-117248990D01*
X126466845Y-117040780D01*
X126265102Y-116860018D01*
X126039190Y-116710556D01*
X126039187Y-116710554D01*
X125793922Y-116595579D01*
X125534534Y-116517540D01*
X125333537Y-116487960D01*
X125266539Y-116478100D01*
X125063469Y-116478100D01*
X125063465Y-116478100D01*
X124860947Y-116492922D01*
X124596545Y-116551820D01*
X124343540Y-116648586D01*
X124107320Y-116781160D01*
X123892926Y-116946709D01*
X123892923Y-116946711D01*
X123892923Y-116946712D01*
X123840493Y-117001094D01*
X123704913Y-117141720D01*
X123547302Y-117362018D01*
X123423441Y-117602930D01*
X123335982Y-117859290D01*
X123286780Y-118125669D01*
X123276888Y-118396363D01*
X121071600Y-118396363D01*
X121071600Y-116428600D01*
X157090638Y-116428600D01*
X157110437Y-116629633D01*
X157169077Y-116822942D01*
X157264300Y-117001092D01*
X157264302Y-117001094D01*
X157392453Y-117157247D01*
X157504243Y-117248990D01*
X157548607Y-117285399D01*
X157691957Y-117362021D01*
X157726759Y-117380623D01*
X157835893Y-117413728D01*
X157920066Y-117439262D01*
X157938090Y-117441037D01*
X158121100Y-117459062D01*
X158322133Y-117439262D01*
X158515441Y-117380623D01*
X158693594Y-117285398D01*
X158849747Y-117157247D01*
X158977898Y-117001094D01*
X159073123Y-116822941D01*
X159131762Y-116629633D01*
X159144526Y-116500040D01*
X163948869Y-116500040D01*
X164050934Y-116563236D01*
X164251738Y-116641027D01*
X164463427Y-116680600D01*
X164678773Y-116680600D01*
X164890461Y-116641027D01*
X165091270Y-116563235D01*
X165193329Y-116500041D01*
X165193329Y-116500039D01*
X164571100Y-115877810D01*
X163948869Y-116500039D01*
X163948869Y-116500040D01*
X159144526Y-116500040D01*
X159151562Y-116428600D01*
X159131762Y-116227567D01*
X159073123Y-116034259D01*
X159073122Y-116034257D01*
X158977899Y-115856107D01*
X158958412Y-115832362D01*
X158849747Y-115699953D01*
X158693594Y-115571802D01*
X158693595Y-115571802D01*
X158693592Y-115571800D01*
X158594062Y-115518600D01*
X163404121Y-115518600D01*
X163423992Y-115733034D01*
X163482923Y-115940159D01*
X163578913Y-116132933D01*
X163586933Y-116143554D01*
X163586934Y-116143554D01*
X164211890Y-115518601D01*
X164211890Y-115518600D01*
X164930310Y-115518600D01*
X165555264Y-116143555D01*
X165563285Y-116132935D01*
X165659276Y-115940159D01*
X165718207Y-115733034D01*
X165738078Y-115518600D01*
X165718207Y-115304165D01*
X165659276Y-115097040D01*
X165563286Y-114904266D01*
X165555264Y-114893643D01*
X164930310Y-115518600D01*
X164211890Y-115518600D01*
X163586934Y-114893643D01*
X163578914Y-114904264D01*
X163482923Y-115097040D01*
X163423992Y-115304165D01*
X163404121Y-115518600D01*
X158594062Y-115518600D01*
X158515442Y-115476577D01*
X158322133Y-115417937D01*
X158121100Y-115398138D01*
X157920066Y-115417937D01*
X157726757Y-115476577D01*
X157548607Y-115571800D01*
X157392453Y-115699953D01*
X157264300Y-115856107D01*
X157169077Y-116034257D01*
X157110437Y-116227566D01*
X157090638Y-116428600D01*
X121071600Y-116428600D01*
X121071600Y-114537159D01*
X163948869Y-114537159D01*
X164571099Y-115159389D01*
X165193329Y-114537159D01*
X165193329Y-114537158D01*
X165091265Y-114473963D01*
X164890461Y-114396172D01*
X164678773Y-114356600D01*
X164463427Y-114356600D01*
X164251738Y-114396172D01*
X164050934Y-114473963D01*
X163948869Y-114537158D01*
X163948869Y-114537159D01*
X121071600Y-114537159D01*
X121071600Y-110182600D01*
X123031100Y-110182600D01*
X123031100Y-110747630D01*
X123046459Y-110918286D01*
X123107276Y-111138652D01*
X123206461Y-111344610D01*
X123340835Y-111529560D01*
X123506067Y-111687539D01*
X123696853Y-111813476D01*
X123907064Y-111903324D01*
X124047099Y-111935286D01*
X124047100Y-111935287D01*
X124047100Y-110182600D01*
X124555100Y-110182600D01*
X124555100Y-111937791D01*
X124584845Y-111933762D01*
X124802259Y-111863119D01*
X125003566Y-111754791D01*
X125182296Y-111612260D01*
X125332705Y-111440102D01*
X125449956Y-111243855D01*
X125530279Y-111029837D01*
X125571100Y-110804900D01*
X125571100Y-110739415D01*
X125878600Y-110739415D01*
X125882890Y-110781608D01*
X125893439Y-110885349D01*
X125952041Y-111072125D01*
X126047041Y-111243282D01*
X126174547Y-111391810D01*
X126329347Y-111511634D01*
X126505091Y-111597840D01*
X126505095Y-111597841D01*
X126694599Y-111646908D01*
X126890101Y-111656822D01*
X127083597Y-111627180D01*
X127267165Y-111559194D01*
X127433291Y-111455647D01*
X127575171Y-111320779D01*
X127602377Y-111281692D01*
X127648193Y-111215866D01*
X127686999Y-111160112D01*
X127764195Y-110980223D01*
X127803600Y-110788477D01*
X127803600Y-110418599D01*
X131741982Y-110418599D01*
X131760410Y-110605715D01*
X131814991Y-110785640D01*
X131903621Y-110951455D01*
X131903623Y-110951457D01*
X132022901Y-111096799D01*
X132100049Y-111160112D01*
X132168244Y-111216078D01*
X132233938Y-111251192D01*
X132334061Y-111304709D01*
X132432953Y-111334708D01*
X132513984Y-111359289D01*
X132530760Y-111360941D01*
X132701100Y-111377718D01*
X132888215Y-111359289D01*
X133068139Y-111304709D01*
X133233957Y-111216077D01*
X133379299Y-111096799D01*
X133498577Y-110951457D01*
X133587209Y-110785639D01*
X133621499Y-110672600D01*
X133979100Y-110672600D01*
X133979100Y-111221192D01*
X133985604Y-111281692D01*
X134036654Y-111418563D01*
X134124195Y-111535504D01*
X134241136Y-111623045D01*
X134378007Y-111674095D01*
X134438508Y-111680600D01*
X134987100Y-111680600D01*
X134987100Y-110672600D01*
X135495100Y-110672600D01*
X135495100Y-111680600D01*
X136043692Y-111680600D01*
X136104192Y-111674095D01*
X136241063Y-111623045D01*
X136358004Y-111535504D01*
X136445545Y-111418563D01*
X136496595Y-111281692D01*
X136503100Y-111221192D01*
X136503100Y-110672600D01*
X135495100Y-110672600D01*
X134987100Y-110672600D01*
X133979100Y-110672600D01*
X133621499Y-110672600D01*
X133641789Y-110605715D01*
X133657263Y-110448600D01*
X139731982Y-110448600D01*
X139750410Y-110635715D01*
X139804991Y-110815640D01*
X139893621Y-110981455D01*
X139893623Y-110981457D01*
X140012901Y-111126799D01*
X140121688Y-111216077D01*
X140158244Y-111246078D01*
X140267933Y-111304708D01*
X140324061Y-111334709D01*
X140425637Y-111365522D01*
X140503984Y-111389289D01*
X140520760Y-111390941D01*
X140691100Y-111407718D01*
X140878215Y-111389289D01*
X141058139Y-111334709D01*
X141223957Y-111246077D01*
X141369299Y-111126799D01*
X141488577Y-110981457D01*
X141577209Y-110815639D01*
X141611499Y-110702600D01*
X141969100Y-110702600D01*
X141969100Y-111251192D01*
X141975604Y-111311692D01*
X142026654Y-111448563D01*
X142114195Y-111565504D01*
X142231136Y-111653045D01*
X142368007Y-111704095D01*
X142428508Y-111710600D01*
X142977100Y-111710600D01*
X142977100Y-110702600D01*
X143485100Y-110702600D01*
X143485100Y-111710600D01*
X144033692Y-111710600D01*
X144094192Y-111704095D01*
X144231063Y-111653045D01*
X144263718Y-111628600D01*
X168987406Y-111628600D01*
X169007295Y-111779671D01*
X169065606Y-111920447D01*
X169065607Y-111920448D01*
X169158365Y-112041334D01*
X169233615Y-112099075D01*
X169279253Y-112134094D01*
X169420029Y-112192405D01*
X169571100Y-112212294D01*
X169722171Y-112192405D01*
X169862947Y-112134094D01*
X169983834Y-112041334D01*
X170076594Y-111920447D01*
X170134905Y-111779671D01*
X170154794Y-111628600D01*
X170139481Y-111512298D01*
X170141663Y-111490152D01*
X170153413Y-111471256D01*
X171643272Y-109981397D01*
X171654884Y-109973044D01*
X171655326Y-109972558D01*
X171655328Y-109972558D01*
X171687761Y-109936979D01*
X171689282Y-109935387D01*
X171703274Y-109921397D01*
X171705307Y-109918428D01*
X171709513Y-109913120D01*
X171731016Y-109889533D01*
X171736661Y-109874960D01*
X171741927Y-109864968D01*
X171750757Y-109852080D01*
X171758067Y-109820998D01*
X171760063Y-109814552D01*
X171771600Y-109784773D01*
X171771600Y-109769147D01*
X171772902Y-109757927D01*
X171776479Y-109742718D01*
X171772070Y-109711113D01*
X171771600Y-109704343D01*
X171771600Y-109002600D01*
X172244793Y-109002600D01*
X172285324Y-109136212D01*
X172378922Y-109311322D01*
X172504888Y-109464811D01*
X172658377Y-109590777D01*
X172833487Y-109684375D01*
X173023496Y-109742015D01*
X173171582Y-109756600D01*
X173317100Y-109756600D01*
X173317100Y-109002600D01*
X173825100Y-109002600D01*
X173825100Y-109756600D01*
X173970618Y-109756600D01*
X174118703Y-109742015D01*
X174308712Y-109684375D01*
X174483822Y-109590777D01*
X174637311Y-109464811D01*
X174763277Y-109311322D01*
X174856875Y-109136212D01*
X174897407Y-109002600D01*
X173825100Y-109002600D01*
X173317100Y-109002600D01*
X172244793Y-109002600D01*
X171771600Y-109002600D01*
X171771600Y-108494600D01*
X172244792Y-108494600D01*
X173317100Y-108494600D01*
X173317100Y-107740600D01*
X173825100Y-107740600D01*
X173825100Y-108494600D01*
X174897407Y-108494600D01*
X174856875Y-108360987D01*
X174763277Y-108185877D01*
X174637311Y-108032388D01*
X174483822Y-107906422D01*
X174308712Y-107812824D01*
X174118703Y-107755184D01*
X173970618Y-107740600D01*
X173825100Y-107740600D01*
X173317100Y-107740600D01*
X173171582Y-107740600D01*
X173023496Y-107755184D01*
X172833487Y-107812824D01*
X172658377Y-107906422D01*
X172504888Y-108032388D01*
X172378922Y-108185877D01*
X172285324Y-108360987D01*
X172244792Y-108494600D01*
X171771600Y-108494600D01*
X171771600Y-106451618D01*
X171776653Y-106429946D01*
X171790771Y-106412744D01*
X171883834Y-106341334D01*
X171883833Y-106341334D01*
X171976594Y-106220447D01*
X172034905Y-106079671D01*
X172054794Y-105928600D01*
X172034905Y-105777529D01*
X171976594Y-105636753D01*
X171941575Y-105591115D01*
X171883834Y-105515865D01*
X171762948Y-105423107D01*
X171762947Y-105423106D01*
X171622171Y-105364795D01*
X171471100Y-105344906D01*
X171320028Y-105364795D01*
X171179251Y-105423107D01*
X171058365Y-105515865D01*
X170965607Y-105636751D01*
X170965606Y-105636752D01*
X170965606Y-105636753D01*
X170948527Y-105677984D01*
X170907295Y-105777528D01*
X170902899Y-105810915D01*
X170887406Y-105928600D01*
X170907295Y-106079671D01*
X170965606Y-106220447D01*
X170965607Y-106220448D01*
X171058365Y-106341334D01*
X171151429Y-106412744D01*
X171165547Y-106429946D01*
X171170600Y-106451618D01*
X171170600Y-108405555D01*
X171158703Y-108437560D01*
X171128790Y-108454025D01*
X171095385Y-108446953D01*
X171074710Y-108419779D01*
X171056875Y-108360987D01*
X170963277Y-108185877D01*
X170837311Y-108032388D01*
X170683822Y-107906422D01*
X170508712Y-107812824D01*
X170318703Y-107755184D01*
X170170618Y-107740600D01*
X170025100Y-107740600D01*
X170025100Y-109756600D01*
X170170618Y-109756600D01*
X170318703Y-109742015D01*
X170508712Y-109684375D01*
X170683822Y-109590777D01*
X170837311Y-109464811D01*
X170963277Y-109311322D01*
X171056875Y-109136212D01*
X171074710Y-109077421D01*
X171095385Y-109050247D01*
X171128790Y-109043175D01*
X171158703Y-109059640D01*
X171170600Y-109091645D01*
X171170600Y-109583833D01*
X171166870Y-109602585D01*
X171156248Y-109618481D01*
X169728443Y-111046284D01*
X169709546Y-111058036D01*
X169687399Y-111060216D01*
X169571100Y-111044906D01*
X169420028Y-111064795D01*
X169279251Y-111123107D01*
X169158365Y-111215865D01*
X169065607Y-111336751D01*
X169007295Y-111477528D01*
X168989557Y-111612260D01*
X168987406Y-111628600D01*
X144263718Y-111628600D01*
X144348004Y-111565504D01*
X144435545Y-111448563D01*
X144486595Y-111311692D01*
X144493100Y-111251192D01*
X144493100Y-110702600D01*
X143485100Y-110702600D01*
X142977100Y-110702600D01*
X141969100Y-110702600D01*
X141611499Y-110702600D01*
X141631789Y-110635715D01*
X141650218Y-110448600D01*
X141631789Y-110261485D01*
X141622688Y-110231485D01*
X141611499Y-110194600D01*
X141969100Y-110194600D01*
X142977100Y-110194600D01*
X142977100Y-109186600D01*
X143485100Y-109186600D01*
X143485100Y-110194600D01*
X144493100Y-110194600D01*
X144493100Y-109646008D01*
X144486595Y-109585507D01*
X144435545Y-109448636D01*
X144348004Y-109331695D01*
X144231063Y-109244154D01*
X144094192Y-109193104D01*
X144033692Y-109186600D01*
X143485100Y-109186600D01*
X142977100Y-109186600D01*
X142428508Y-109186600D01*
X142368007Y-109193104D01*
X142231136Y-109244154D01*
X142114195Y-109331695D01*
X142026654Y-109448636D01*
X141975604Y-109585507D01*
X141969100Y-109646008D01*
X141969100Y-110194600D01*
X141611499Y-110194600D01*
X141577208Y-110081559D01*
X141488578Y-109915744D01*
X141463957Y-109885743D01*
X141369299Y-109770401D01*
X141223957Y-109651123D01*
X141223958Y-109651123D01*
X141223955Y-109651121D01*
X141058140Y-109562491D01*
X140878215Y-109507910D01*
X140691100Y-109489482D01*
X140503984Y-109507910D01*
X140324059Y-109562491D01*
X140158244Y-109651121D01*
X140012901Y-109770401D01*
X139893621Y-109915744D01*
X139804991Y-110081559D01*
X139750410Y-110261484D01*
X139731982Y-110448600D01*
X133657263Y-110448600D01*
X133660218Y-110418600D01*
X133641789Y-110231485D01*
X133621499Y-110164600D01*
X133979100Y-110164600D01*
X134987100Y-110164600D01*
X134987100Y-109156600D01*
X135495100Y-109156600D01*
X135495100Y-110164600D01*
X136503100Y-110164600D01*
X136503100Y-109616008D01*
X136496595Y-109555507D01*
X136445545Y-109418636D01*
X136358004Y-109301695D01*
X136241063Y-109214154D01*
X136104192Y-109163104D01*
X136043692Y-109156600D01*
X135495100Y-109156600D01*
X134987100Y-109156600D01*
X134438508Y-109156600D01*
X134378007Y-109163104D01*
X134241136Y-109214154D01*
X134124195Y-109301695D01*
X134036654Y-109418636D01*
X133985604Y-109555507D01*
X133979100Y-109616008D01*
X133979100Y-110164600D01*
X133621499Y-110164600D01*
X133587209Y-110051561D01*
X133544981Y-109972558D01*
X133498578Y-109885744D01*
X133480440Y-109863643D01*
X133379299Y-109740401D01*
X133278156Y-109657396D01*
X133233955Y-109621121D01*
X133068140Y-109532491D01*
X132888215Y-109477910D01*
X132701100Y-109459482D01*
X132513984Y-109477910D01*
X132334059Y-109532491D01*
X132168244Y-109621121D01*
X132022901Y-109740401D01*
X131903621Y-109885744D01*
X131814991Y-110051559D01*
X131760410Y-110231484D01*
X131741982Y-110418599D01*
X127803600Y-110418599D01*
X127803600Y-109117785D01*
X127788760Y-108971851D01*
X127775190Y-108928600D01*
X148987406Y-108928600D01*
X149007295Y-109079671D01*
X149065606Y-109220447D01*
X149065607Y-109220448D01*
X149158365Y-109341334D01*
X149233615Y-109399075D01*
X149279253Y-109434094D01*
X149420029Y-109492405D01*
X149571100Y-109512294D01*
X149722171Y-109492405D01*
X149862947Y-109434094D01*
X149983834Y-109341334D01*
X150076594Y-109220447D01*
X150134905Y-109079671D01*
X150145052Y-109002600D01*
X168444793Y-109002600D01*
X168485324Y-109136212D01*
X168578922Y-109311322D01*
X168704888Y-109464811D01*
X168858377Y-109590777D01*
X169033487Y-109684375D01*
X169223496Y-109742015D01*
X169371582Y-109756600D01*
X169517100Y-109756600D01*
X169517100Y-109002600D01*
X168444793Y-109002600D01*
X150145052Y-109002600D01*
X150154794Y-108928600D01*
X150134905Y-108777529D01*
X150076594Y-108636753D01*
X149999609Y-108536424D01*
X149983834Y-108515865D01*
X149956121Y-108494600D01*
X168444792Y-108494600D01*
X169517100Y-108494600D01*
X169517100Y-107740600D01*
X169371582Y-107740600D01*
X169223496Y-107755184D01*
X169033487Y-107812824D01*
X168858377Y-107906422D01*
X168704888Y-108032388D01*
X168578922Y-108185877D01*
X168485324Y-108360987D01*
X168444792Y-108494600D01*
X149956121Y-108494600D01*
X149890771Y-108444456D01*
X149876653Y-108427254D01*
X149871600Y-108405582D01*
X149871600Y-107973367D01*
X149885952Y-107938719D01*
X151411926Y-106412744D01*
X152013756Y-105810913D01*
X152032652Y-105799163D01*
X152054798Y-105796982D01*
X152171100Y-105812294D01*
X152322171Y-105792405D01*
X152462947Y-105734094D01*
X152583834Y-105641334D01*
X152676594Y-105520447D01*
X152734905Y-105379671D01*
X152754794Y-105228600D01*
X152734905Y-105077529D01*
X152676594Y-104936753D01*
X152641575Y-104891115D01*
X152583834Y-104815865D01*
X152462948Y-104723107D01*
X152462947Y-104723106D01*
X152322171Y-104664795D01*
X152171100Y-104644906D01*
X152020028Y-104664795D01*
X151879251Y-104723107D01*
X151758365Y-104815865D01*
X151665607Y-104936751D01*
X151607295Y-105077528D01*
X151587406Y-105228600D01*
X151602717Y-105344899D01*
X151600536Y-105367046D01*
X151588784Y-105385943D01*
X149398926Y-107575801D01*
X149387309Y-107584160D01*
X149354457Y-107620196D01*
X149352897Y-107621830D01*
X149338926Y-107635802D01*
X149336890Y-107638773D01*
X149332686Y-107644079D01*
X149311183Y-107667667D01*
X149305535Y-107682245D01*
X149300273Y-107692227D01*
X149291444Y-107705118D01*
X149284137Y-107736183D01*
X149282130Y-107742663D01*
X149270600Y-107772426D01*
X149270600Y-107788054D01*
X149269298Y-107799274D01*
X149265720Y-107814481D01*
X149270130Y-107846087D01*
X149270600Y-107852857D01*
X149270600Y-108405582D01*
X149265547Y-108427254D01*
X149251429Y-108444456D01*
X149158365Y-108515865D01*
X149065607Y-108636751D01*
X149007295Y-108777528D01*
X149006301Y-108785075D01*
X148987406Y-108928600D01*
X127775190Y-108928600D01*
X127730159Y-108785075D01*
X127635159Y-108613919D01*
X127635158Y-108613917D01*
X127507652Y-108465389D01*
X127352852Y-108345565D01*
X127177108Y-108259359D01*
X126987599Y-108210291D01*
X126792099Y-108200378D01*
X126598603Y-108230020D01*
X126415034Y-108298006D01*
X126248910Y-108401552D01*
X126107025Y-108536424D01*
X125995201Y-108697086D01*
X125939296Y-108827362D01*
X125918005Y-108876977D01*
X125878600Y-109068723D01*
X125878600Y-110739415D01*
X125571100Y-110739415D01*
X125571100Y-110182600D01*
X124555100Y-110182600D01*
X124047100Y-110182600D01*
X123031100Y-110182600D01*
X121071600Y-110182600D01*
X121071600Y-109674600D01*
X123031100Y-109674600D01*
X124047100Y-109674600D01*
X124047100Y-107921913D01*
X124555100Y-107921913D01*
X124555100Y-109674600D01*
X125571100Y-109674600D01*
X125571100Y-109109570D01*
X125555740Y-108938913D01*
X125494923Y-108718547D01*
X125395738Y-108512589D01*
X125261364Y-108327639D01*
X125096132Y-108169660D01*
X124905346Y-108043723D01*
X124695135Y-107953875D01*
X124555100Y-107921913D01*
X124047100Y-107921913D01*
X124047100Y-107919409D01*
X124047099Y-107919408D01*
X124017354Y-107923437D01*
X123799940Y-107994080D01*
X123598633Y-108102408D01*
X123419903Y-108244939D01*
X123269494Y-108417097D01*
X123152243Y-108613344D01*
X123071920Y-108827362D01*
X123031100Y-109052300D01*
X123031100Y-109674600D01*
X121071600Y-109674600D01*
X121071600Y-101854000D01*
X123754882Y-101854000D01*
X123773310Y-102041115D01*
X123827891Y-102221040D01*
X123916521Y-102386855D01*
X123946272Y-102423107D01*
X124035801Y-102532199D01*
X124118418Y-102600000D01*
X124181144Y-102651478D01*
X124190712Y-102656592D01*
X124346961Y-102740109D01*
X124448537Y-102770922D01*
X124526884Y-102794689D01*
X124543660Y-102796341D01*
X124714000Y-102813118D01*
X124901115Y-102794689D01*
X125081039Y-102740109D01*
X125246857Y-102651477D01*
X125392199Y-102532199D01*
X125511477Y-102386857D01*
X125600109Y-102221039D01*
X125634399Y-102108000D01*
X125992000Y-102108000D01*
X125992000Y-102656592D01*
X125998504Y-102717092D01*
X126049554Y-102853963D01*
X126137095Y-102970904D01*
X126254036Y-103058445D01*
X126390907Y-103109495D01*
X126451408Y-103116000D01*
X127000000Y-103116000D01*
X127000000Y-102108000D01*
X127508000Y-102108000D01*
X127508000Y-103116000D01*
X128056592Y-103116000D01*
X128117092Y-103109495D01*
X128253963Y-103058445D01*
X128370904Y-102970904D01*
X128458445Y-102853963D01*
X128509495Y-102717092D01*
X128516000Y-102656592D01*
X128516000Y-102108000D01*
X127508000Y-102108000D01*
X127000000Y-102108000D01*
X125992000Y-102108000D01*
X125634399Y-102108000D01*
X125654689Y-102041115D01*
X125673118Y-101854000D01*
X131731982Y-101854000D01*
X131750410Y-102041115D01*
X131804991Y-102221040D01*
X131893621Y-102386855D01*
X131923372Y-102423107D01*
X132012901Y-102532199D01*
X132095518Y-102600000D01*
X132158244Y-102651478D01*
X132167812Y-102656592D01*
X132324061Y-102740109D01*
X132425637Y-102770922D01*
X132503984Y-102794689D01*
X132520760Y-102796341D01*
X132691100Y-102813118D01*
X132878215Y-102794689D01*
X133058139Y-102740109D01*
X133223957Y-102651477D01*
X133369299Y-102532199D01*
X133488577Y-102386857D01*
X133577209Y-102221039D01*
X133611499Y-102108000D01*
X133969100Y-102108000D01*
X133969100Y-102656592D01*
X133975604Y-102717092D01*
X134026654Y-102853963D01*
X134114195Y-102970904D01*
X134231136Y-103058445D01*
X134368007Y-103109495D01*
X134428508Y-103116000D01*
X134977100Y-103116000D01*
X134977100Y-102108000D01*
X135485100Y-102108000D01*
X135485100Y-103116000D01*
X136033692Y-103116000D01*
X136094192Y-103109495D01*
X136231063Y-103058445D01*
X136348004Y-102970904D01*
X136435545Y-102853963D01*
X136486595Y-102717092D01*
X136493100Y-102656592D01*
X136493100Y-102108000D01*
X135485100Y-102108000D01*
X134977100Y-102108000D01*
X133969100Y-102108000D01*
X133611499Y-102108000D01*
X133631789Y-102041115D01*
X133650218Y-101854000D01*
X139756882Y-101854000D01*
X139775310Y-102041115D01*
X139829891Y-102221040D01*
X139918521Y-102386855D01*
X139948272Y-102423107D01*
X140037801Y-102532199D01*
X140120418Y-102600000D01*
X140183144Y-102651478D01*
X140192712Y-102656592D01*
X140348961Y-102740109D01*
X140450537Y-102770922D01*
X140528884Y-102794689D01*
X140545660Y-102796341D01*
X140716000Y-102813118D01*
X140903115Y-102794689D01*
X141083039Y-102740109D01*
X141248857Y-102651477D01*
X141394199Y-102532199D01*
X141513477Y-102386857D01*
X141602109Y-102221039D01*
X141636399Y-102108000D01*
X141994000Y-102108000D01*
X141994000Y-102656592D01*
X142000504Y-102717092D01*
X142051554Y-102853963D01*
X142139095Y-102970904D01*
X142256036Y-103058445D01*
X142392907Y-103109495D01*
X142453408Y-103116000D01*
X143002000Y-103116000D01*
X143002000Y-102108000D01*
X143510000Y-102108000D01*
X143510000Y-103116000D01*
X144058592Y-103116000D01*
X144119092Y-103109495D01*
X144255963Y-103058445D01*
X144372904Y-102970904D01*
X144460445Y-102853963D01*
X144511495Y-102717092D01*
X144518000Y-102656592D01*
X144518000Y-102108000D01*
X143510000Y-102108000D01*
X143002000Y-102108000D01*
X141994000Y-102108000D01*
X141636399Y-102108000D01*
X141656689Y-102041115D01*
X141675118Y-101854000D01*
X141656689Y-101666885D01*
X141636399Y-101600000D01*
X141994000Y-101600000D01*
X143002000Y-101600000D01*
X143002000Y-100592000D01*
X143510000Y-100592000D01*
X143510000Y-101600000D01*
X144518000Y-101600000D01*
X144518000Y-101051408D01*
X144511495Y-100990907D01*
X144460445Y-100854036D01*
X144372904Y-100737095D01*
X144255963Y-100649554D01*
X144119092Y-100598504D01*
X144058592Y-100592000D01*
X143510000Y-100592000D01*
X143002000Y-100592000D01*
X142453408Y-100592000D01*
X142392907Y-100598504D01*
X142256036Y-100649554D01*
X142139095Y-100737095D01*
X142051554Y-100854036D01*
X142000504Y-100990907D01*
X141994000Y-101051408D01*
X141994000Y-101600000D01*
X141636399Y-101600000D01*
X141602109Y-101486961D01*
X141513477Y-101321143D01*
X141394199Y-101175801D01*
X141277551Y-101080071D01*
X141248855Y-101056521D01*
X141083040Y-100967891D01*
X140903115Y-100913310D01*
X140732775Y-100896534D01*
X140716000Y-100894882D01*
X140715999Y-100894882D01*
X140528884Y-100913310D01*
X140348959Y-100967891D01*
X140183144Y-101056521D01*
X140037801Y-101175801D01*
X139918521Y-101321144D01*
X139829891Y-101486959D01*
X139775310Y-101666884D01*
X139756882Y-101854000D01*
X133650218Y-101854000D01*
X133631789Y-101666885D01*
X133611499Y-101600000D01*
X133969100Y-101600000D01*
X134977100Y-101600000D01*
X134977100Y-100592000D01*
X135485100Y-100592000D01*
X135485100Y-101600000D01*
X136493100Y-101600000D01*
X136493100Y-101051408D01*
X136486595Y-100990907D01*
X136435545Y-100854036D01*
X136348004Y-100737095D01*
X136231063Y-100649554D01*
X136094192Y-100598504D01*
X136033692Y-100592000D01*
X135485100Y-100592000D01*
X134977100Y-100592000D01*
X134428508Y-100592000D01*
X134368007Y-100598504D01*
X134231136Y-100649554D01*
X134114195Y-100737095D01*
X134026654Y-100854036D01*
X133975604Y-100990907D01*
X133969100Y-101051408D01*
X133969100Y-101600000D01*
X133611499Y-101600000D01*
X133577209Y-101486961D01*
X133488577Y-101321143D01*
X133369299Y-101175801D01*
X133252651Y-101080071D01*
X133223955Y-101056521D01*
X133058140Y-100967891D01*
X132878215Y-100913310D01*
X132707875Y-100896534D01*
X132691100Y-100894882D01*
X132691099Y-100894882D01*
X132503984Y-100913310D01*
X132324059Y-100967891D01*
X132158244Y-101056521D01*
X132012901Y-101175801D01*
X131893621Y-101321144D01*
X131804991Y-101486959D01*
X131750410Y-101666884D01*
X131731982Y-101854000D01*
X125673118Y-101854000D01*
X125654689Y-101666885D01*
X125634399Y-101600000D01*
X125992000Y-101600000D01*
X127000000Y-101600000D01*
X127000000Y-100592000D01*
X127508000Y-100592000D01*
X127508000Y-101600000D01*
X128516000Y-101600000D01*
X128516000Y-101051408D01*
X128509495Y-100990907D01*
X128458445Y-100854036D01*
X128370904Y-100737095D01*
X128253963Y-100649554D01*
X128117092Y-100598504D01*
X128056592Y-100592000D01*
X127508000Y-100592000D01*
X127000000Y-100592000D01*
X126451408Y-100592000D01*
X126390907Y-100598504D01*
X126254036Y-100649554D01*
X126137095Y-100737095D01*
X126049554Y-100854036D01*
X125998504Y-100990907D01*
X125992000Y-101051408D01*
X125992000Y-101600000D01*
X125634399Y-101600000D01*
X125600109Y-101486961D01*
X125511477Y-101321143D01*
X125392199Y-101175801D01*
X125275551Y-101080071D01*
X125246855Y-101056521D01*
X125081040Y-100967891D01*
X124901115Y-100913310D01*
X124730775Y-100896534D01*
X124714000Y-100894882D01*
X124713999Y-100894882D01*
X124526884Y-100913310D01*
X124346959Y-100967891D01*
X124181144Y-101056521D01*
X124035801Y-101175801D01*
X123916521Y-101321144D01*
X123827891Y-101486959D01*
X123773310Y-101666884D01*
X123754882Y-101854000D01*
X121071600Y-101854000D01*
X121071600Y-100350000D01*
X156269318Y-100350000D01*
X156289956Y-100506762D01*
X156350464Y-100652841D01*
X156350465Y-100652842D01*
X156446717Y-100778282D01*
X156498524Y-100818034D01*
X156572159Y-100874536D01*
X156718238Y-100935044D01*
X156875000Y-100955682D01*
X157031762Y-100935044D01*
X157177841Y-100874536D01*
X157303282Y-100778282D01*
X157399536Y-100652841D01*
X157460044Y-100506762D01*
X157480682Y-100350000D01*
X157462812Y-100214265D01*
X157464993Y-100192122D01*
X157476743Y-100173226D01*
X157624969Y-100025000D01*
X161487406Y-100025000D01*
X161507295Y-100176071D01*
X161565606Y-100316847D01*
X161565607Y-100316848D01*
X161658365Y-100437734D01*
X161733615Y-100495475D01*
X161779253Y-100530494D01*
X161920029Y-100588805D01*
X162071100Y-100608694D01*
X162187400Y-100593382D01*
X162209546Y-100595563D01*
X162228444Y-100607315D01*
X162686848Y-101065719D01*
X162701200Y-101100367D01*
X162701200Y-102094860D01*
X162696147Y-102116532D01*
X162682030Y-102133734D01*
X162612264Y-102187267D01*
X162519507Y-102308151D01*
X162519506Y-102308152D01*
X162519506Y-102308153D01*
X162503712Y-102346284D01*
X162461195Y-102448928D01*
X162452382Y-102515866D01*
X162441306Y-102600000D01*
X162461195Y-102751071D01*
X162519506Y-102891847D01*
X162519507Y-102891848D01*
X162612265Y-103012734D01*
X162687515Y-103070475D01*
X162733153Y-103105494D01*
X162873929Y-103163805D01*
X163025000Y-103183694D01*
X163176071Y-103163805D01*
X163316847Y-103105494D01*
X163437734Y-103012734D01*
X163530494Y-102891847D01*
X163588805Y-102751071D01*
X163608694Y-102600000D01*
X163588805Y-102448929D01*
X163530494Y-102308153D01*
X163463649Y-102221039D01*
X163437734Y-102187265D01*
X163348799Y-102119024D01*
X163321369Y-102097976D01*
X163307253Y-102080776D01*
X163302200Y-102059104D01*
X163302200Y-101012610D01*
X163304503Y-100998488D01*
X163302252Y-100949790D01*
X163302200Y-100947527D01*
X163302200Y-100927757D01*
X163301541Y-100924235D01*
X163300758Y-100917495D01*
X163299285Y-100885608D01*
X163292972Y-100871310D01*
X163289631Y-100860521D01*
X163286761Y-100845167D01*
X163269961Y-100818034D01*
X163266797Y-100812031D01*
X163253906Y-100782835D01*
X163242858Y-100771787D01*
X163235845Y-100762934D01*
X163227618Y-100749647D01*
X163202148Y-100730413D01*
X163197029Y-100725958D01*
X162653415Y-100182344D01*
X162641663Y-100163446D01*
X162639482Y-100141300D01*
X162654794Y-100025000D01*
X162634905Y-99873929D01*
X162576594Y-99733153D01*
X162541575Y-99687515D01*
X162483834Y-99612265D01*
X162362948Y-99519507D01*
X162362947Y-99519506D01*
X162336561Y-99508576D01*
X162314571Y-99490529D01*
X162306314Y-99463306D01*
X162314573Y-99436083D01*
X162336560Y-99418038D01*
X162366847Y-99405494D01*
X162487734Y-99312734D01*
X162487733Y-99312734D01*
X162559144Y-99219671D01*
X162576346Y-99205553D01*
X162598018Y-99200500D01*
X163197733Y-99200500D01*
X163232381Y-99214852D01*
X166788784Y-102771255D01*
X166800536Y-102790152D01*
X166802717Y-102812299D01*
X166792245Y-102891847D01*
X166787406Y-102928600D01*
X166807295Y-103079671D01*
X166865606Y-103220447D01*
X166865607Y-103220448D01*
X166958365Y-103341334D01*
X167033615Y-103399075D01*
X167079253Y-103434094D01*
X167220029Y-103492405D01*
X167371100Y-103512294D01*
X167522171Y-103492405D01*
X167662947Y-103434094D01*
X167783834Y-103341334D01*
X167876594Y-103220447D01*
X167934905Y-103079671D01*
X167954794Y-102928600D01*
X167934905Y-102777529D01*
X167876594Y-102636753D01*
X167796367Y-102532199D01*
X167783834Y-102515865D01*
X167662948Y-102423107D01*
X167662947Y-102423106D01*
X167522171Y-102364795D01*
X167371100Y-102344906D01*
X167371099Y-102344906D01*
X167254799Y-102360217D01*
X167232652Y-102358036D01*
X167213755Y-102346284D01*
X165230071Y-100362600D01*
X168444793Y-100362600D01*
X168485324Y-100496212D01*
X168578922Y-100671322D01*
X168704888Y-100824811D01*
X168858377Y-100950777D01*
X169033487Y-101044375D01*
X169223496Y-101102015D01*
X169371582Y-101116600D01*
X169517100Y-101116600D01*
X169517100Y-100362600D01*
X170025100Y-100362600D01*
X170025100Y-101116600D01*
X170170618Y-101116600D01*
X170318703Y-101102015D01*
X170508712Y-101044375D01*
X170683822Y-100950777D01*
X170837311Y-100824811D01*
X170963277Y-100671322D01*
X171056875Y-100496212D01*
X171097407Y-100362600D01*
X172244793Y-100362600D01*
X172285324Y-100496212D01*
X172378922Y-100671322D01*
X172504888Y-100824811D01*
X172658377Y-100950777D01*
X172833487Y-101044375D01*
X173023496Y-101102015D01*
X173171582Y-101116600D01*
X173317100Y-101116600D01*
X173317100Y-100362600D01*
X173825100Y-100362600D01*
X173825100Y-101116600D01*
X173970618Y-101116600D01*
X174118703Y-101102015D01*
X174308712Y-101044375D01*
X174483822Y-100950777D01*
X174637311Y-100824811D01*
X174763277Y-100671322D01*
X174856875Y-100496212D01*
X174897407Y-100362600D01*
X173825100Y-100362600D01*
X173317100Y-100362600D01*
X172244793Y-100362600D01*
X171097407Y-100362600D01*
X170025100Y-100362600D01*
X169517100Y-100362600D01*
X168444793Y-100362600D01*
X165230071Y-100362600D01*
X164722071Y-99854600D01*
X168444792Y-99854600D01*
X169517100Y-99854600D01*
X169517100Y-99100600D01*
X170025100Y-99100600D01*
X170025100Y-99854600D01*
X171097407Y-99854600D01*
X172244792Y-99854600D01*
X173317100Y-99854600D01*
X173317100Y-99100600D01*
X173825100Y-99100600D01*
X173825100Y-99854600D01*
X174897407Y-99854600D01*
X174856875Y-99720987D01*
X174763277Y-99545877D01*
X174637311Y-99392388D01*
X174483822Y-99266422D01*
X174308712Y-99172824D01*
X174118703Y-99115184D01*
X173970618Y-99100600D01*
X173825100Y-99100600D01*
X173317100Y-99100600D01*
X173171582Y-99100600D01*
X173023496Y-99115184D01*
X172833487Y-99172824D01*
X172658377Y-99266422D01*
X172504888Y-99392388D01*
X172378922Y-99545877D01*
X172285324Y-99720987D01*
X172244792Y-99854600D01*
X171097407Y-99854600D01*
X171056875Y-99720987D01*
X170963277Y-99545877D01*
X170837311Y-99392388D01*
X170683822Y-99266422D01*
X170508712Y-99172824D01*
X170318703Y-99115184D01*
X170170618Y-99100600D01*
X170025100Y-99100600D01*
X169517100Y-99100600D01*
X169371582Y-99100600D01*
X169223496Y-99115184D01*
X169033487Y-99172824D01*
X168858377Y-99266422D01*
X168704888Y-99392388D01*
X168578922Y-99545877D01*
X168485324Y-99720987D01*
X168444792Y-99854600D01*
X164722071Y-99854600D01*
X163595299Y-98727828D01*
X163586942Y-98716214D01*
X163586458Y-98715773D01*
X163586458Y-98715772D01*
X163550891Y-98683348D01*
X163549276Y-98681805D01*
X163535298Y-98667826D01*
X163532340Y-98665800D01*
X163527023Y-98661588D01*
X163503432Y-98640083D01*
X163488854Y-98634435D01*
X163478866Y-98629170D01*
X163465981Y-98620343D01*
X163434920Y-98613038D01*
X163428438Y-98611031D01*
X163398673Y-98599500D01*
X163383046Y-98599500D01*
X163371827Y-98598198D01*
X163369573Y-98597668D01*
X163356618Y-98594620D01*
X163325013Y-98599030D01*
X163318243Y-98599500D01*
X162598018Y-98599500D01*
X162576346Y-98594447D01*
X162559144Y-98580329D01*
X162487734Y-98487265D01*
X162366848Y-98394507D01*
X162366847Y-98394506D01*
X162226071Y-98336195D01*
X162075000Y-98316306D01*
X161923928Y-98336195D01*
X161783151Y-98394507D01*
X161662265Y-98487265D01*
X161569507Y-98608151D01*
X161538999Y-98681805D01*
X161511195Y-98748929D01*
X161491306Y-98900000D01*
X161511195Y-99051071D01*
X161569506Y-99191847D01*
X161569507Y-99191848D01*
X161662265Y-99312734D01*
X161737515Y-99370475D01*
X161783153Y-99405494D01*
X161809537Y-99416422D01*
X161836055Y-99442940D01*
X161836055Y-99480443D01*
X161809537Y-99506962D01*
X161779251Y-99519507D01*
X161658365Y-99612265D01*
X161565607Y-99733151D01*
X161565606Y-99733152D01*
X161565606Y-99733153D01*
X161548527Y-99774384D01*
X161507295Y-99873928D01*
X161501003Y-99921718D01*
X161487406Y-100025000D01*
X157624969Y-100025000D01*
X160110118Y-97539852D01*
X160144767Y-97525500D01*
X162302234Y-97525500D01*
X162323906Y-97530553D01*
X162341107Y-97544669D01*
X162412409Y-97637591D01*
X162533254Y-97730319D01*
X162673981Y-97788610D01*
X162825000Y-97808492D01*
X162976019Y-97788610D01*
X163116746Y-97730319D01*
X163237591Y-97637591D01*
X163330319Y-97516746D01*
X163388610Y-97376019D01*
X163408492Y-97225000D01*
X163388610Y-97073981D01*
X163330319Y-96933254D01*
X163295312Y-96887632D01*
X163237591Y-96812408D01*
X163116747Y-96719682D01*
X163116746Y-96719681D01*
X162976019Y-96661390D01*
X162825000Y-96641508D01*
X162673980Y-96661390D01*
X162533252Y-96719682D01*
X162412410Y-96812407D01*
X162341108Y-96905330D01*
X162323906Y-96919447D01*
X162302234Y-96924500D01*
X160057010Y-96924500D01*
X160042888Y-96922196D01*
X159994190Y-96924448D01*
X159991927Y-96924500D01*
X159972153Y-96924500D01*
X159968625Y-96925159D01*
X159961892Y-96925940D01*
X159930007Y-96927414D01*
X159915704Y-96933729D01*
X159904923Y-96937067D01*
X159889567Y-96939938D01*
X159862434Y-96956737D01*
X159856435Y-96959899D01*
X159827233Y-96972794D01*
X159816181Y-96983845D01*
X159807333Y-96990854D01*
X159794047Y-96999081D01*
X159774817Y-97024545D01*
X159770363Y-97029663D01*
X157051773Y-99748254D01*
X157032876Y-99760006D01*
X157010729Y-99762187D01*
X156875000Y-99744318D01*
X156874999Y-99744318D01*
X156718237Y-99764956D01*
X156572157Y-99825465D01*
X156446717Y-99921717D01*
X156350465Y-100047157D01*
X156289956Y-100193237D01*
X156269318Y-100349999D01*
X156269318Y-100350000D01*
X121071600Y-100350000D01*
X121071600Y-91696363D01*
X123276888Y-91696363D01*
X123306513Y-91965615D01*
X123349782Y-92131123D01*
X123375028Y-92227688D01*
X123480970Y-92476990D01*
X123622082Y-92708210D01*
X123795355Y-92916420D01*
X123997098Y-93097182D01*
X124223010Y-93246644D01*
X124468276Y-93361620D01*
X124613724Y-93405379D01*
X124727665Y-93439659D01*
X124727666Y-93439659D01*
X124727669Y-93439660D01*
X124995661Y-93479100D01*
X125198731Y-93479100D01*
X125198735Y-93479100D01*
X125299993Y-93471688D01*
X125401256Y-93464277D01*
X125665653Y-93405380D01*
X125918658Y-93308614D01*
X126154877Y-93176041D01*
X126369277Y-93010488D01*
X126448226Y-92928600D01*
X146071982Y-92928600D01*
X146090410Y-93115715D01*
X146144991Y-93295640D01*
X146233621Y-93461455D01*
X146233623Y-93461457D01*
X146352901Y-93606799D01*
X146476143Y-93707940D01*
X146498244Y-93726078D01*
X146507812Y-93731192D01*
X146664061Y-93814709D01*
X146765637Y-93845522D01*
X146843984Y-93869289D01*
X146860760Y-93870941D01*
X147031100Y-93887718D01*
X147218215Y-93869289D01*
X147398139Y-93814709D01*
X147563957Y-93726077D01*
X147709299Y-93606799D01*
X147828577Y-93461457D01*
X147917209Y-93295639D01*
X147971789Y-93115715D01*
X147990218Y-92928600D01*
X148611982Y-92928600D01*
X148630410Y-93115715D01*
X148684991Y-93295640D01*
X148773621Y-93461455D01*
X148773623Y-93461457D01*
X148892901Y-93606799D01*
X149016143Y-93707940D01*
X149038244Y-93726078D01*
X149047812Y-93731192D01*
X149204061Y-93814709D01*
X149305637Y-93845522D01*
X149383984Y-93869289D01*
X149400760Y-93870941D01*
X149571100Y-93887718D01*
X149758215Y-93869289D01*
X149938139Y-93814709D01*
X150103957Y-93726077D01*
X150249299Y-93606799D01*
X150368577Y-93461457D01*
X150457209Y-93295639D01*
X150491499Y-93182600D01*
X150849100Y-93182600D01*
X150849100Y-93731192D01*
X150855604Y-93791692D01*
X150906654Y-93928563D01*
X150994195Y-94045504D01*
X151111136Y-94133045D01*
X151248007Y-94184095D01*
X151308508Y-94190600D01*
X151857100Y-94190600D01*
X151857100Y-93182600D01*
X152365100Y-93182600D01*
X152365100Y-94190600D01*
X152913692Y-94190600D01*
X152974192Y-94184095D01*
X153111063Y-94133045D01*
X153228004Y-94045504D01*
X153315545Y-93928563D01*
X153366595Y-93791692D01*
X153373100Y-93731192D01*
X153373100Y-93182600D01*
X152365100Y-93182600D01*
X151857100Y-93182600D01*
X150849100Y-93182600D01*
X150491499Y-93182600D01*
X150511789Y-93115715D01*
X150530218Y-92928600D01*
X158071982Y-92928600D01*
X158090410Y-93115715D01*
X158144991Y-93295640D01*
X158233621Y-93461455D01*
X158233623Y-93461457D01*
X158352901Y-93606799D01*
X158476143Y-93707940D01*
X158498244Y-93726078D01*
X158507812Y-93731192D01*
X158664061Y-93814709D01*
X158765637Y-93845522D01*
X158843984Y-93869289D01*
X158860760Y-93870941D01*
X159031100Y-93887718D01*
X159218215Y-93869289D01*
X159398139Y-93814709D01*
X159563957Y-93726077D01*
X159709299Y-93606799D01*
X159828577Y-93461457D01*
X159917209Y-93295639D01*
X159971789Y-93115715D01*
X159990218Y-92928600D01*
X160611982Y-92928600D01*
X160630410Y-93115715D01*
X160684991Y-93295640D01*
X160773621Y-93461455D01*
X160773623Y-93461457D01*
X160892901Y-93606799D01*
X161016143Y-93707940D01*
X161038244Y-93726078D01*
X161047812Y-93731192D01*
X161204061Y-93814709D01*
X161305637Y-93845522D01*
X161383984Y-93869289D01*
X161400760Y-93870941D01*
X161571100Y-93887718D01*
X161758215Y-93869289D01*
X161938139Y-93814709D01*
X162103957Y-93726077D01*
X162249299Y-93606799D01*
X162368577Y-93461457D01*
X162457209Y-93295639D01*
X162491499Y-93182600D01*
X162849100Y-93182600D01*
X162849100Y-93731192D01*
X162855604Y-93791692D01*
X162906654Y-93928563D01*
X162994195Y-94045504D01*
X163111136Y-94133045D01*
X163248007Y-94184095D01*
X163308508Y-94190600D01*
X163857100Y-94190600D01*
X163857100Y-93182600D01*
X164365100Y-93182600D01*
X164365100Y-94190600D01*
X164913692Y-94190600D01*
X164974192Y-94184095D01*
X165111063Y-94133045D01*
X165228004Y-94045504D01*
X165315545Y-93928563D01*
X165366595Y-93791692D01*
X165373100Y-93731192D01*
X165373100Y-93182600D01*
X164365100Y-93182600D01*
X163857100Y-93182600D01*
X162849100Y-93182600D01*
X162491499Y-93182600D01*
X162511789Y-93115715D01*
X162530218Y-92928600D01*
X162511789Y-92741485D01*
X162491499Y-92674600D01*
X162849100Y-92674600D01*
X163857100Y-92674600D01*
X163857100Y-91666600D01*
X164365100Y-91666600D01*
X164365100Y-92674600D01*
X165373100Y-92674600D01*
X165373100Y-92126008D01*
X165366595Y-92065507D01*
X165315545Y-91928636D01*
X165228004Y-91811695D01*
X165111063Y-91724154D01*
X165036552Y-91696363D01*
X170016888Y-91696363D01*
X170046513Y-91965615D01*
X170089782Y-92131123D01*
X170115028Y-92227688D01*
X170220970Y-92476990D01*
X170362082Y-92708210D01*
X170535355Y-92916420D01*
X170737098Y-93097182D01*
X170963010Y-93246644D01*
X171208276Y-93361620D01*
X171353724Y-93405379D01*
X171467665Y-93439659D01*
X171467666Y-93439659D01*
X171467669Y-93439660D01*
X171735661Y-93479100D01*
X171938731Y-93479100D01*
X171938735Y-93479100D01*
X172039993Y-93471688D01*
X172141256Y-93464277D01*
X172405653Y-93405380D01*
X172658658Y-93308614D01*
X172894877Y-93176041D01*
X173109277Y-93010488D01*
X173297286Y-92815481D01*
X173454899Y-92595179D01*
X173578756Y-92354275D01*
X173614193Y-92250401D01*
X173666217Y-92097909D01*
X173676453Y-92042491D01*
X173715419Y-91831533D01*
X173725312Y-91560835D01*
X173695686Y-91291582D01*
X173627172Y-91029512D01*
X173521230Y-90780210D01*
X173380118Y-90548990D01*
X173206845Y-90340780D01*
X173005102Y-90160018D01*
X172779190Y-90010556D01*
X172779187Y-90010554D01*
X172533922Y-89895579D01*
X172274534Y-89817540D01*
X172073536Y-89787959D01*
X172006539Y-89778100D01*
X171803469Y-89778100D01*
X171803465Y-89778100D01*
X171600947Y-89792922D01*
X171336545Y-89851820D01*
X171083540Y-89948586D01*
X170847320Y-90081160D01*
X170632926Y-90246709D01*
X170444913Y-90441720D01*
X170287302Y-90662018D01*
X170163441Y-90902930D01*
X170075982Y-91159290D01*
X170026780Y-91425669D01*
X170016888Y-91696363D01*
X165036552Y-91696363D01*
X164974192Y-91673104D01*
X164913692Y-91666600D01*
X164365100Y-91666600D01*
X163857100Y-91666600D01*
X163308508Y-91666600D01*
X163248007Y-91673104D01*
X163111136Y-91724154D01*
X162994195Y-91811695D01*
X162906654Y-91928636D01*
X162855604Y-92065507D01*
X162849100Y-92126008D01*
X162849100Y-92674600D01*
X162491499Y-92674600D01*
X162457209Y-92561561D01*
X162368577Y-92395743D01*
X162249299Y-92250401D01*
X162103957Y-92131123D01*
X162103958Y-92131123D01*
X162103955Y-92131121D01*
X161938140Y-92042491D01*
X161758215Y-91987910D01*
X161571100Y-91969482D01*
X161383984Y-91987910D01*
X161204059Y-92042491D01*
X161038244Y-92131121D01*
X160892901Y-92250401D01*
X160773621Y-92395744D01*
X160684991Y-92561559D01*
X160630410Y-92741484D01*
X160611982Y-92928600D01*
X159990218Y-92928600D01*
X159971789Y-92741485D01*
X159917209Y-92561561D01*
X159828577Y-92395743D01*
X159709299Y-92250401D01*
X159563957Y-92131123D01*
X159563958Y-92131123D01*
X159563955Y-92131121D01*
X159398140Y-92042491D01*
X159218215Y-91987910D01*
X159031100Y-91969482D01*
X158843984Y-91987910D01*
X158664059Y-92042491D01*
X158498244Y-92131121D01*
X158352901Y-92250401D01*
X158233621Y-92395744D01*
X158144991Y-92561559D01*
X158090410Y-92741484D01*
X158071982Y-92928600D01*
X150530218Y-92928600D01*
X150511789Y-92741485D01*
X150491499Y-92674600D01*
X150849100Y-92674600D01*
X151857100Y-92674600D01*
X151857100Y-91666600D01*
X152365100Y-91666600D01*
X152365100Y-92674600D01*
X153373100Y-92674600D01*
X153373100Y-92126008D01*
X153366595Y-92065507D01*
X153315545Y-91928636D01*
X153228004Y-91811695D01*
X153111063Y-91724154D01*
X152974192Y-91673104D01*
X152913692Y-91666600D01*
X152365100Y-91666600D01*
X151857100Y-91666600D01*
X151308508Y-91666600D01*
X151248007Y-91673104D01*
X151111136Y-91724154D01*
X150994195Y-91811695D01*
X150906654Y-91928636D01*
X150855604Y-92065507D01*
X150849100Y-92126008D01*
X150849100Y-92674600D01*
X150491499Y-92674600D01*
X150457209Y-92561561D01*
X150368577Y-92395743D01*
X150249299Y-92250401D01*
X150103957Y-92131123D01*
X150103958Y-92131123D01*
X150103955Y-92131121D01*
X149938140Y-92042491D01*
X149758215Y-91987910D01*
X149571100Y-91969482D01*
X149383984Y-91987910D01*
X149204059Y-92042491D01*
X149038244Y-92131121D01*
X148892901Y-92250401D01*
X148773621Y-92395744D01*
X148684991Y-92561559D01*
X148630410Y-92741484D01*
X148611982Y-92928600D01*
X147990218Y-92928600D01*
X147971789Y-92741485D01*
X147917209Y-92561561D01*
X147828577Y-92395743D01*
X147709299Y-92250401D01*
X147563957Y-92131123D01*
X147563958Y-92131123D01*
X147563955Y-92131121D01*
X147398140Y-92042491D01*
X147218215Y-91987910D01*
X147031100Y-91969482D01*
X146843984Y-91987910D01*
X146664059Y-92042491D01*
X146498244Y-92131121D01*
X146352901Y-92250401D01*
X146233621Y-92395744D01*
X146144991Y-92561559D01*
X146090410Y-92741484D01*
X146071982Y-92928600D01*
X126448226Y-92928600D01*
X126557286Y-92815481D01*
X126714899Y-92595179D01*
X126838756Y-92354275D01*
X126874193Y-92250401D01*
X126926217Y-92097909D01*
X126936453Y-92042491D01*
X126975419Y-91831533D01*
X126985312Y-91560835D01*
X126955686Y-91291582D01*
X126887172Y-91029512D01*
X126781230Y-90780210D01*
X126640118Y-90548990D01*
X126466845Y-90340780D01*
X126265102Y-90160018D01*
X126039190Y-90010556D01*
X126039187Y-90010554D01*
X125793922Y-89895579D01*
X125534534Y-89817540D01*
X125333536Y-89787959D01*
X125266539Y-89778100D01*
X125063469Y-89778100D01*
X125063465Y-89778100D01*
X124860947Y-89792922D01*
X124596545Y-89851820D01*
X124343540Y-89948586D01*
X124107320Y-90081160D01*
X123892926Y-90246709D01*
X123704913Y-90441720D01*
X123547302Y-90662018D01*
X123423441Y-90902930D01*
X123335982Y-91159290D01*
X123286780Y-91425669D01*
X123276888Y-91696363D01*
X121071600Y-91696363D01*
X121071600Y-91079803D01*
X121071659Y-91077399D01*
X121073359Y-91042801D01*
X121088333Y-90737982D01*
X121088801Y-90733225D01*
X121138491Y-90398245D01*
X121139422Y-90393563D01*
X121221702Y-90065081D01*
X121223098Y-90060482D01*
X121282101Y-89895580D01*
X121337179Y-89741648D01*
X121339017Y-89737214D01*
X121483792Y-89431112D01*
X121486040Y-89426905D01*
X121660139Y-89136437D01*
X121662809Y-89132444D01*
X121762134Y-88998520D01*
X121864525Y-88860462D01*
X121867551Y-88856774D01*
X122094963Y-88605863D01*
X122098364Y-88602463D01*
X122349274Y-88375051D01*
X122352962Y-88372025D01*
X122624948Y-88170306D01*
X122628942Y-88167637D01*
X122919405Y-87993540D01*
X122923612Y-87991292D01*
X123229721Y-87846513D01*
X123234148Y-87844679D01*
X123552984Y-87730597D01*
X123557584Y-87729202D01*
X123886063Y-87646922D01*
X123890745Y-87645991D01*
X124225725Y-87596301D01*
X124230482Y-87595833D01*
X124569899Y-87579158D01*
X124572303Y-87579100D01*
X124636992Y-87579100D01*
X172365208Y-87579100D01*
X172429897Y-87579100D01*
X172432300Y-87579158D01*
G37*
%TD.AperFunction*%
%TD*%
M02*
