M48
; DRILL file {KiCad 7.0.1} date Fri Mar 31 01:00:57 2023
; FORMAT={-:-/ absolute / inch / decimal}
; #@! TF.CreationDate,2023-03-31T01:00:57+09:00
; #@! TF.GenerationSoftware,Kicad,Pcbnew,7.0.1
; #@! TF.FileFunction,MixedPlating,1,2
FMAT,2
INCH
; #@! TA.AperFunction,Plated,PTH,ViaDrill
T1C0.0138
; #@! TA.AperFunction,Plated,PTH,ViaDrill
T2C0.0157
; #@! TA.AperFunction,Plated,PTH,ComponentDrill
T3C0.0197
; #@! TA.AperFunction,Plated,PTH,ComponentDrill
T4C0.0315
; #@! TA.AperFunction,Plated,PTH,ViaDrill
T5C0.0394
; #@! TA.AperFunction,Plated,PTH,ComponentDrill
T6C0.0394
; #@! TA.AperFunction,Plated,PTH,ComponentDrill
T7C0.0400
; #@! TA.AperFunction,Plated,PTH,ComponentDrill
T8C0.0433
; #@! TA.AperFunction,Plated,PTH,ComponentDrill
T9C0.1259
; #@! TA.AperFunction,NonPlated,NPTH,ComponentDrill
T10C0.1260
%
G90
G05
T1
X5.6524Y-3.5602
X5.6524Y-3.7373
X5.8886Y-4.2885
X5.991Y-4.1429
X6.0946Y-4.3318
X6.3296Y-4.4421
X6.3768Y-4.1468
X6.3808Y-3.938
X6.3809Y-3.8937
X6.4104Y-3.8278
X6.4183Y-4.0394
X6.5894Y-4.0523
X6.676Y-4.3948
X6.7508Y-4.1704
T2
X6.1762Y-3.9508
T4
X6.4792Y-4.548
X6.4792Y-4.6464
X6.4792Y-4.7448
T5
X4.826Y-3.6074
X4.826Y-4.6586
X4.8554Y-3.5364
X4.8554Y-3.6785
X4.8554Y-4.5876
X4.8554Y-4.7296
X4.9264Y-3.507
X4.9264Y-3.7079
X4.9264Y-4.5581
X4.9264Y-4.7591
X4.9975Y-3.5364
X4.9975Y-3.6785
X4.9975Y-4.5876
X4.9975Y-4.7296
X5.0269Y-3.6074
X5.0269Y-4.6586
X6.6661Y-3.6074
X6.6661Y-4.6586
X6.6955Y-3.5364
X6.6955Y-3.6785
X6.6955Y-4.5876
X6.6955Y-4.7296
X6.7666Y-3.507
X6.7666Y-3.7079
X6.7666Y-4.5581
X6.7666Y-4.7591
X6.8376Y-3.5364
X6.8376Y-3.6785
X6.8376Y-4.5876
X6.8376Y-4.7296
X6.867Y-3.6074
X6.867Y-4.6586
T6
X4.91Y-4.01
X5.01Y-4.01
X5.2087Y-4.6822
X5.2241Y-4.01
X5.2245Y-4.3472
X5.3087Y-4.6822
X5.3241Y-4.01
X5.3245Y-4.3472
X5.5237Y-4.6822
X5.539Y-4.3484
X5.54Y-4.01
X5.6237Y-4.6822
X5.639Y-4.3484
X5.64Y-4.01
X5.7886Y-3.6586
X5.8386Y-4.6822
X5.8886Y-3.6586
X5.9386Y-4.6822
X5.9886Y-3.6586
X6.2611Y-3.6586
X6.3611Y-3.6586
X6.4611Y-3.6586
T7
X4.8937Y-4.3279
X4.9937Y-4.3279
T8
X6.1268Y-4.6822
X6.2252Y-4.5838
X6.3237Y-4.6822
T9
X4.9264Y-3.6074
X4.9264Y-4.6586
X6.7666Y-3.6074
X6.7666Y-4.6586
T10
X4.9264Y-3.6074
X4.9264Y-4.6586
X6.7666Y-3.6074
X6.7666Y-4.6586
T3
G00X6.6701Y-3.9413
M15
G01X6.6977Y-3.9413
M16
G05
G00X6.6701Y-4.2814
M15
G01X6.6977Y-4.2814
M16
G05
G00X6.8197Y-3.9413
M15
G01X6.8473Y-3.9413
M16
G05
G00X6.8197Y-4.2814
M15
G01X6.8473Y-4.2814
M16
G05
T0
M30
